<?xml version="1.0" standalone="no"?>
<!DOCTYPE svg PUBLIC "-//W3C//DTD SVG 1.1//EN" "http://www.w3.org/Graphics/SVG/1.1/DTD/svg11.dtd" >
<svg xmlns="http://www.w3.org/2000/svg" xmlns:xlink="http://www.w3.org/1999/xlink" version="1.1">
<metadata>
Created by FontForge 20170731 at Mon Oct 10 22:38:12 2016
 By Aleksey,,,
(c) 2014 Apple Inc. All rights reserved.
</metadata>
<defs>
<font id="SFUIDisplay-Medium" horiz-adv-x="0" >
  <font-face 
    font-family="SF UI Display"
    font-weight="500"
    font-stretch="normal"
    units-per-em="2048"
    panose-1="0 0 6 0 0 0 0 0 0 0"
    ascent="1638"
    descent="-410"
    x-height="1086"
    cap-height="1443"
    bbox="-544 -898 2592 2144"
    underline-thickness="50"
    underline-position="-125"
    unicode-range="U+0020-FB02"
  />
<missing-glyph horiz-adv-x="1293" 
d="M120 1365h1053v-1365h-1053v1365zM501 313q0 -48 33 -77.5t87 -29.5q56 0 89 29.5t33 77.5q0 49 -33 78.5t-89 29.5q-54 0 -87 -30t-33 -78zM508 888q1 60 34.5 95t90.5 35q54 0 87 -29.5t33 -80.5q0 -19 -4.5 -34.5t-16 -31t-31.5 -33t-51 -39.5q-69 -49 -96 -100.5
t-22 -120.5l1 -18h166v15q0 24 4 41.5t15 34t32 34.5t56 43q36 26 61.5 51t41.5 51t23 54.5t7 61.5q0 57 -21 103t-60 78.5t-93.5 50.5t-121.5 18q-71 0 -128.5 -19.5t-97 -56t-60 -88t-18.5 -115.5h169z" />
    <glyph glyph-name=".notdef" horiz-adv-x="1293" 
d="M120 1365h1053v-1365h-1053v1365zM501 313q0 -48 33 -77.5t87 -29.5q56 0 89 29.5t33 77.5q0 49 -33 78.5t-89 29.5q-54 0 -87 -30t-33 -78zM508 888q1 60 34.5 95t90.5 35q54 0 87 -29.5t33 -80.5q0 -19 -4.5 -34.5t-16 -31t-31.5 -33t-51 -39.5q-69 -49 -96 -100.5
t-22 -120.5l1 -18h166v15q0 24 4 41.5t15 34t32 34.5t56 43q36 26 61.5 51t41.5 51t23 54.5t7 61.5q0 57 -21 103t-60 78.5t-93.5 50.5t-121.5 18q-71 0 -128.5 -19.5t-97 -56t-60 -88t-18.5 -115.5h169z" />
    <glyph glyph-name=".null" 
 />
    <glyph glyph-name="nonmarkingreturn" 
 />
    <glyph glyph-name="space" unicode=" " horiz-adv-x="472" 
 />
    <glyph glyph-name="exclam" unicode="!" horiz-adv-x="583" 
d="M403 1443l-16 -965h-191l-16 965h223zM291 -15q-27 0 -51 10t-42 27t-28 41t-10 51t10 51t28 41t42 27t51 10q28 0 52 -10t42 -27t28 -41t10 -51t-10 -51t-28 -41t-42 -27t-52 -10z" />
    <glyph glyph-name="quotedbl" unicode="&#x22;" horiz-adv-x="851" 
d="M125 910v533h193v-533h-193zM533 910v533h192v-533h-192z" />
    <glyph glyph-name="numbersign" unicode="#" horiz-adv-x="1229" 
d="M966 887l-64 -314h216l-33 -170h-217l-81 -403h-172l82 403h-282l-81 -403h-171l81 403h-212l32 170h215l63 314h-203l34 168h203l80 388h171l-78 -388h280l80 388h171l-79 -388h226l-32 -168h-229zM442 564h293l67 330h-293z" />
    <glyph glyph-name="dollar" unicode="$" horiz-adv-x="1270" 
d="M570 -137v132q-107 7 -193.5 39t-147.5 84.5t-94.5 124t-33.5 158.5h212q8 -93 75.5 -152.5t181.5 -72.5v473l-89 23q-169 42 -258 140t-89 244q0 85 30 155.5t86.5 123t137 85t182.5 41.5v139h137v-139q98 -8 177.5 -40.5t136.5 -85t89 -122.5t34 -153h-209
q-2 42 -19 79.5t-47 66t-71 48t-91 25.5v-447l93 -21q187 -47 278 -142.5t91 -252.5q0 -91 -31 -164.5t-90 -127.5t-145 -86.5t-196 -41.5v-133h-137zM957 396q0 90 -60 145t-190 82v-450q120 7 185 65t65 158zM348 1071q0 -81 56.5 -134t165.5 -76v418q-48 -3 -88.5 -19.5
t-70.5 -44t-46.5 -64.5t-16.5 -80z" />
    <glyph glyph-name="percent" unicode="%" horiz-adv-x="1549" 
d="M1500 347q0 -83 -22 -150.5t-62.5 -115t-98 -73.5t-128.5 -26t-129 26t-99 73.5t-63 115t-22 150.5t22 150t63 114.5t99 73.5t129 26t128.5 -25.5t98 -73t62.5 -115t22 -150.5zM1189 123q60 0 94 60t34 164q0 106 -33.5 164t-94.5 58q-60 0 -95 -59.5t-35 -162.5
t35 -163.5t95 -60.5zM672 1105q0 -83 -22 -150.5t-62.5 -115t-98 -73.5t-128.5 -26t-129 26t-99 73.5t-63 115t-22 150.5t22 150t63 114.5t99 73.5t129 26t128.5 -25.5t98 -73t62.5 -115t22 -150.5zM361 881q60 0 94 60t34 164q0 106 -33.5 164t-94.5 58q-60 0 -95 -59.5
t-35 -162.5t35 -163.5t95 -60.5zM141 0l1055 1443h202l-1053 -1443h-204z" />
    <glyph glyph-name="ampersand" unicode="&#x26;" horiz-adv-x="1394" 
d="M1024 136q-44 -38 -96.5 -68t-111 -50.5t-121.5 -31.5t-127 -11q-110 0 -200.5 29.5t-155 83t-100 128.5t-35.5 166q0 126 67.5 222t209.5 172q18 9 36 18.5t23 11.5q-49 51 -83 95t-55.5 83.5t-31 77.5t-9.5 78q0 70 28.5 129.5t79.5 103t120.5 68t151.5 24.5
q83 0 152.5 -24t119.5 -67t78 -103t28 -131q0 -55 -17.5 -104t-54 -94t-94 -88t-137.5 -85l328 -353q32 59 47 141.5t15 201.5v55h194v-61q0 -154 -30 -272.5t-90 -207.5l259 -273h-263zM477 659q-50 -31 -86 -61.5t-58.5 -62t-33 -65t-10.5 -72.5q0 -56 21.5 -102t61 -79
t95 -51t122.5 -18q45 0 89.5 8.5t85.5 24t76 38t61 50.5l-379 414q-9 -5 -23.5 -12.5t-21.5 -11.5zM579 882q59 30 100.5 59t67.5 58.5t38 61.5t12 68q0 39 -13 71.5t-37 55.5t-57.5 36t-74.5 13q-40 0 -73.5 -13t-57.5 -36.5t-37.5 -56t-13.5 -71.5q0 -28 8 -55t25 -56.5
t45 -62t68 -72.5z" />
    <glyph glyph-name="quotesingle" unicode="'" horiz-adv-x="443" 
d="M125 910v533h193v-533h-193z" />
    <glyph glyph-name="parenleft" unicode="(" horiz-adv-x="663" 
d="M430 -277q-46 57 -94 139t-87 191t-64 245t-25 301q0 166 24 293.5t63 227t89.5 177.5t103.5 145h190q-36 -42 -79 -117.5t-81 -182t-63.5 -242.5t-25.5 -299q0 -162 23.5 -293.5t59.5 -238.5t79.5 -192t83.5 -154h-197z" />
    <glyph glyph-name="parenright" unicode=")" horiz-adv-x="663" 
d="M35 -277q40 69 83 154t79 192t59.5 238.5t23.5 293.5q0 163 -25 299t-62.5 242.5t-80.5 182t-79 117.5h190q52 -67 102.5 -145t90 -178t63.5 -227t24 -293q0 -165 -25 -301t-64.5 -245t-87.5 -191t-94 -139h-197v0z" />
    <glyph glyph-name="asterisk" unicode="*" horiz-adv-x="990" 
d="M550 1021l24 -290h-158l24 291l-239 -168l-78 137l264 124l-264 124l78 138l240 -170l-25 294h158l-25 -294l241 170l77 -138l-263 -124l263 -124l-77 -137z" />
    <glyph glyph-name="plus" unicode="+" horiz-adv-x="1270" 
d="M734 24h-198v451h-420v195h420v442h198v-442h420v-195h-420v-451z" />
    <glyph glyph-name="comma" unicode="," horiz-adv-x="552" 
d="M95 -262l94 488h217l-145 -488h-166z" />
    <glyph glyph-name="hyphen" unicode="-" horiz-adv-x="888" 
d="M116 475v195h656v-195h-656z" />
    <glyph glyph-name="period" unicode="." horiz-adv-x="538" 
d="M269 -11q-27 0 -51 10t-42 28t-28 42t-10 51q0 28 10 52t28 41.5t42 27.5t51 10q28 0 52 -10t41.5 -27.5t27.5 -41.5t10 -52q0 -27 -10 -51t-27.5 -42t-41.5 -28t-52 -10z" />
    <glyph glyph-name="slash" unicode="/" horiz-adv-x="625" 
d="M0 -316l431 1760h194l-436 -1760h-189z" />
    <glyph glyph-name="zero" unicode="0" horiz-adv-x="1275" 
d="M638 -27q-130 0 -232 52.5t-173 150t-108.5 236t-37.5 311.5q0 171 37.5 309.5t109 235.5t173.5 149.5t231 52.5t231 -52.5t172.5 -149.5t108 -235t37.5 -309q0 -173 -37 -311.5t-107.5 -236.5t-172.5 -150.5t-232 -52.5zM638 161q77 0 137 38.5t101.5 111.5t63 177
t21.5 235q0 129 -22 232.5t-63 176t-101.5 111.5t-136.5 39q-77 0 -137 -39t-101.5 -112t-63.5 -176t-22 -232q0 -131 21.5 -235t63 -176.5t102 -111.5t137.5 -39z" />
    <glyph glyph-name="one" unicode="1" horiz-adv-x="935" 
d="M477 1221h-5l-377 -268v220l380 270h221v-1443h-219v1221z" />
    <glyph glyph-name="two" unicode="2" horiz-adv-x="1186" 
d="M100 1020q0 97 37 179.5t103 142.5t157 94t199 34q103 0 191 -31t152 -85t100.5 -128t36.5 -160q0 -63 -17.5 -120t-54 -116.5t-93.5 -125.5t-136 -147l-361 -363v-5h685v-189h-987v152l521 531q66 69 109 119.5t68 92.5t35 80t10 80q0 48 -20.5 90t-56.5 73t-84.5 49
t-104.5 18q-59 0 -110 -20t-88 -55.5t-58 -84t-21 -104.5v-3h-212v2v0z" />
    <glyph glyph-name="three" unicode="3" horiz-adv-x="1240" 
d="M426 829h174q58 0 106.5 17.5t83.5 48.5t54 74t19 94q0 50 -17 91t-50.5 70.5t-82.5 45.5t-113 16q-59 0 -107 -16.5t-83 -46.5t-56.5 -73t-26.5 -96h-211q6 95 44 172t102 131t152.5 83.5t195.5 29.5q102 0 188.5 -27.5t149.5 -77.5t98.5 -119.5t35.5 -152.5
q0 -68 -21 -125t-60 -101t-94 -73.5t-122 -41.5v-4q81 -6 147 -33t112.5 -72t72 -107t25.5 -138q0 -95 -40.5 -173t-111.5 -134t-168 -87t-210 -31q-117 0 -211.5 30.5t-162.5 86t-107 133t-44 170.5h215q5 -52 28.5 -95t63.5 -73.5t95 -47.5t123 -17q66 0 121.5 18t95.5 50
t62.5 76t22.5 97q0 58 -21.5 105t-61.5 79.5t-97 50t-128 17.5h-180v176z" />
    <glyph glyph-name="four" unicode="4" horiz-adv-x="1271" 
d="M798 285h-722v196q46 87 102 182.5t129 210t166.5 254t215.5 315.5h324v-970h198v-188h-198v-285h-215v285zM285 470h515v800h-4q-94 -135 -169.5 -247t-137 -207.5t-111.5 -179t-93 -161.5v-5z" />
    <glyph glyph-name="five" unicode="5" horiz-adv-x="1228" 
d="M629 -27q-108 0 -199.5 31.5t-159.5 88t-108 135t-45 173.5h214q6 -54 31 -98t64.5 -76t92 -49.5t112.5 -17.5q68 0 125 22.5t97.5 63.5t63 97.5t22.5 124.5t-22.5 125t-63 98.5t-97 64.5t-123.5 23q-94 0 -170.5 -40t-118.5 -112h-205l76 816h859v-189h-679l-40 -443h5
q48 69 132 107.5t190 38.5q104 0 191.5 -36t150.5 -100.5t98.5 -153t35.5 -193.5q0 -111 -39 -203t-109 -158.5t-167 -103t-214 -36.5z" />
    <glyph glyph-name="six" unicode="6" horiz-adv-x="1259" 
d="M655 -28q-161 0 -284 78.5t-194 225.5q-89 173 -89 426q0 181 39.5 324t113.5 242t181.5 151t242.5 52q96 0 179 -27.5t148.5 -78t109 -121t60.5 -156.5h-224q-13 44 -39 80t-62 61.5t-80.5 39.5t-93.5 14q-85 0 -152 -38t-113 -110.5t-70.5 -178.5t-24.5 -242h4
q24 52 63.5 95.5t91 74t112.5 47.5t129 17q103 0 191 -36t152 -100t100 -151t36 -190q0 -108 -39.5 -199.5t-109.5 -158t-166.5 -104t-211.5 -37.5zM653 161q64 0 119.5 23.5t97 64.5t65.5 96.5t24 118.5q0 66 -22.5 121t-63 95t-96.5 62.5t-122 22.5t-122 -22.5t-97.5 -62
t-64.5 -94t-23 -118.5t23.5 -120t64.5 -97.5t96.5 -65.5t120.5 -24z" />
    <glyph glyph-name="seven" unicode="7" horiz-adv-x="1139" 
d="M833 1249v5h-761v189h982v-194l-627 -1249h-235z" />
    <glyph glyph-name="eight" unicode="8" horiz-adv-x="1266" 
d="M633 -27q-121 0 -221.5 31t-172.5 86t-112 131.5t-40 168.5q0 69 23.5 130t65.5 109.5t101 82.5t131 49v5q-60 16 -108.5 47t-83 73t-53 94t-18.5 110q0 82 36.5 151.5t101.5 120.5t154.5 79.5t195.5 28.5t195.5 -28.5t154.5 -79t101 -120.5t36 -153q0 -57 -18.5 -108.5
t-52.5 -93.5t-82.5 -73t-108.5 -48v-5q72 -15 131 -49t101.5 -83t65.5 -109.5t23 -129.5q0 -92 -40.5 -168.5t-112.5 -132t-172.5 -86t-220.5 -30.5zM633 153q69 0 126.5 19t99.5 52.5t65 80t23 101.5q0 56 -23 103t-65 80.5t-99.5 52.5t-126.5 19t-127 -19t-99.5 -53
t-65 -81t-23.5 -102t23.5 -101.5t65 -80t99.5 -52.5t127 -19zM633 841q58 0 107 16.5t84 46.5t55 71.5t20 90.5t-19.5 90.5t-55 71.5t-84.5 47t-107 17q-59 0 -108 -17t-84 -47t-54.5 -71.5t-19.5 -90.5t19.5 -90.5t54.5 -71.5t84 -46.5t108 -16.5z" />
    <glyph glyph-name="nine" unicode="9" horiz-adv-x="1260" 
d="M596 -27q-96 0 -180 27.5t-149.5 78t-109.5 121t-60 156.5h225q13 -44 39 -80.5t62.5 -62.5t81 -40t94.5 -14q84 0 150.5 38t112.5 111.5t70 179.5t24 243h-2h-1h-1q-22 -53 -60.5 -96.5t-89.5 -74.5t-113.5 -48t-132.5 -17q-103 0 -190.5 36t-151.5 99.5t-100.5 151
t-36.5 190.5q0 108 39.5 199.5t109.5 158t167 104t211 37.5q161 0 285 -78.5t194 -224.5q89 -173 89 -426q0 -181 -39 -324t-113 -242t-181 -151t-243 -52zM604 678q66 0 123 22.5t98 62t64.5 94t23.5 118.5t-23.5 119.5t-65 97t-97.5 65t-120 23.5q-65 0 -121 -23.5
t-97 -64t-65 -95.5t-24 -118q0 -65 23 -120t63.5 -95.5t96 -63t121.5 -22.5z" />
    <glyph glyph-name="colon" unicode=":" horiz-adv-x="538" 
d="M269 -11q-27 0 -51 10t-42 28t-28 42t-10 51q0 28 10 52t28 41.5t42 27.5t51 10q28 0 52 -10t41.5 -27.5t27.5 -41.5t10 -52q0 -27 -10 -51t-27.5 -42t-41.5 -28t-52 -10zM269 718q-27 0 -51 10t-42 27.5t-28 41.5t-10 52t10 52t28 41.5t42 27.5t51 10q28 0 52 -10
t41.5 -27.5t27.5 -41.5t10 -52t-10 -52t-27.5 -41.5t-41.5 -27.5t-52 -10z" />
    <glyph glyph-name="semicolon" unicode=";" horiz-adv-x="538" 
d="M269 718q-27 0 -51 10t-42 27.5t-28 41.5t-10 52t10 52t28 41.5t42 27.5t51 10q28 0 52 -10t41.5 -27.5t27.5 -41.5t10 -52t-10 -52t-27.5 -41.5t-41.5 -27.5t-52 -10zM59 -262l93 488h219l-146 -488h-166z" />
    <glyph glyph-name="less" unicode="&#x3c;" horiz-adv-x="1270" 
d="M399 582v-9l689 -353v-224l-906 490v172l906 519v-224z" />
    <glyph glyph-name="equal" unicode="=" horiz-adv-x="1270" 
d="M134 272v189h1002v-189h-1002zM134 685v189h1002v-189h-1002z" />
    <glyph glyph-name="greater" unicode="&#x3e;" horiz-adv-x="1270" 
d="M182 1178l906 -519v-172l-906 -490v224l689 353v9l-689 371v224z" />
    <glyph glyph-name="question" unicode="?" horiz-adv-x="1035" 
d="M55 1056q3 85 34 158t88 126.5t140 84t192 30.5q99 0 180.5 -28t139.5 -77.5t90 -117.5t32 -148q0 -117 -55 -200t-155 -143q-48 -29 -80 -54t-51 -52t-27 -57t-8 -69v-61h-207l-1 80q-2 53 8.5 97t34.5 81.5t61.5 70.5t88.5 64q45 27 76.5 52.5t51 53t28 58.5t8.5 70
q0 42 -16 78t-45.5 62.5t-71.5 41t-93 14.5q-104 0 -166.5 -58t-69.5 -157h-207zM473 -15q-27 0 -51 10t-42 27t-28 41t-10 51t10 51t28 41t42 27t51 10q28 0 52 -10t42 -27t28 -41t10 -51t-10 -51t-28 -41t-42 -27t-52 -10z" />
    <glyph glyph-name="at" unicode="@" horiz-adv-x="1798" 
d="M890 863q-93 0 -145 -69t-52 -194q0 -123 52 -193t144 -70q47 0 85.5 18.5t65.5 52.5t41.5 83t14.5 109t-14.5 109t-41.5 83t-65 52.5t-85 18.5zM925 1440q175 0 322.5 -53t254.5 -150t166.5 -233t59.5 -302q0 -120 -26 -217.5t-75.5 -166.5t-120.5 -106.5t-160 -37.5
q-44 0 -83 11.5t-70 33t-51 52t-26 67.5h-10q-32 -76 -96.5 -116.5t-152.5 -40.5q-78 0 -142 30.5t-110 86t-71 134t-25 173.5q0 91 25 166.5t70.5 130t109 84.5t139.5 30q81 0 146 -38t94 -103h11v121h169v-568q0 -50 26.5 -80.5t80.5 -30.5q42 0 77 25.5t60.5 74t40 119
t14.5 161.5q0 136 -48 248t-134.5 191t-207.5 122.5t-268 43.5q-146 0 -268 -52t-210.5 -145t-138 -222t-49.5 -283q0 -165 52.5 -293.5t145.5 -216.5t221.5 -133.5t280.5 -45.5q46 0 92 3t87.5 8.5t76 13.5t57.5 18v-138q-64 -21 -146 -32.5t-174 -11.5q-185 0 -341 56
t-269 162.5t-176 261.5t-63 354q0 187 61 340.5t171.5 263t263.5 170t337 60.5z" />
    <glyph glyph-name="A" unicode="A" horiz-adv-x="1336" 
d="M941 390h-550l-132 -390h-233l521 1443h242l521 -1443h-237zM448 570h436l-215 633h-6z" />
    <glyph glyph-name="B" unicode="B" horiz-adv-x="1279" 
d="M133 0v1443h591q96 0 174 -25.5t133.5 -72.5t85.5 -113.5t30 -148.5q0 -57 -20 -110t-54.5 -95.5t-81 -71t-100.5 -37.5v-8q73 -8 133.5 -37.5t103.5 -75.5t67 -107t24 -133q0 -95 -33.5 -171t-97.5 -128.5t-155.5 -80.5t-206.5 -28h-593zM357 829h265q147 0 224.5 57.5
t77.5 165.5q0 101 -66 154.5t-189 53.5h-312v-431zM681 183q152 0 230.5 60.5t78.5 178.5t-81.5 177t-240.5 59h-311v-475h324z" />
    <glyph glyph-name="C" unicode="C" horiz-adv-x="1424" 
d="M742 -24q-152 0 -274 52t-208 148.5t-132.5 234.5t-46.5 311q0 171 46.5 309t133 235t208.5 149t273 52q123 0 228.5 -36t186 -102t132 -158.5t65.5 -205.5h-222q-15 69 -50.5 125.5t-86.5 96.5t-115.5 62t-137.5 22q-98 0 -178 -39t-136.5 -110.5t-87 -173t-30.5 -226.5
q0 -126 30.5 -228t86.5 -173.5t136.5 -110t179.5 -38.5q75 0 139 19t114 54.5t84.5 87t51.5 116.5h223q-21 -112 -72.5 -200t-130 -148.5t-182.5 -92.5t-228 -32z" />
    <glyph glyph-name="D" unicode="D" horiz-adv-x="1413" 
d="M650 1443q161 0 288 -48.5t214.5 -140.5t134 -225.5t46.5 -304.5t-46.5 -305.5t-134 -227.5t-214.5 -142t-288 -49h-517v1443h517zM357 194h272q115 0 203.5 34.5t149 101.5t92 165.5t31.5 226.5q0 127 -31.5 225.5t-92 166t-149 102t-203.5 34.5h-272v-1056z" />
    <glyph glyph-name="E" unicode="E" horiz-adv-x="1146" 
d="M1049 0h-916v1443h916v-193h-692v-422h655v-186h-655v-448h692v-194z" />
    <glyph glyph-name="F" unicode="F" horiz-adv-x="1096" 
d="M133 0v1443h901v-193h-677v-457h620v-189h-620v-604h-224z" />
    <glyph glyph-name="G" unicode="G" horiz-adv-x="1462" 
d="M1376 600q0 -147 -42 -262.5t-122 -196t-195.5 -123t-262.5 -42.5q-155 0 -279.5 52.5t-212 150t-134.5 236.5t-47 313q0 171 47 307.5t134 232.5t211 147.5t278 51.5q120 0 224 -34t184.5 -97t133.5 -151t72 -196h-230q-41 135 -141 208.5t-242 73.5q-104 0 -186 -37
t-139 -106.5t-87 -170t-30 -227.5q0 -129 31 -232.5t89 -176t140.5 -111t185.5 -38.5q88 0 161 27t125.5 75.5t82 116.5t30.5 150v25h-373v181h594v-147v0z" />
    <glyph glyph-name="H" unicode="H" horiz-adv-x="1454" 
d="M1098 0v639h-741v-639h-224v1443h224v-610h741v610h224v-1443h-224z" />
    <glyph glyph-name="I" unicode="I" horiz-adv-x="490" 
d="M133 0v1443h224v-1443h-224z" />
    <glyph glyph-name="J" unicode="J" horiz-adv-x="1060" 
d="M258 370q1 -45 17 -82t44.5 -64t67.5 -41.5t86 -14.5q111 0 169 64t58 189v1022h224v-1023q0 -107 -30.5 -191t-88.5 -142t-141.5 -88.5t-188.5 -30.5q-98 0 -178 29t-138 82t-89.5 127t-31.5 164h220z" />
    <glyph glyph-name="K" unicode="K" horiz-adv-x="1293" 
d="M133 0v1443h224v-687h9l603 687h266l-572 -639l620 -804h-278l-500 650l-148 -169v-481h-224z" />
    <glyph glyph-name="L" unicode="L" horiz-adv-x="1088" 
d="M1029 0h-896v1443h224v-1249h672v-194z" />
    <glyph glyph-name="M" unicode="M" horiz-adv-x="1726" 
d="M1593 0h-205v1062h-7l-435 -1051h-166l-436 1051h-7v-1062h-204v1443h259l467 -1139h8l466 1139h260v-1443z" />
    <glyph glyph-name="N" unicode="N" horiz-adv-x="1443" 
d="M133 0v1443h203l748 -1064h8v1064h218v-1443h-202l-748 1063h-9v-1063h-218z" />
    <glyph glyph-name="O" unicode="O" horiz-adv-x="1513" 
d="M757 1467q156 0 281 -52t212.5 -149t135 -235t47.5 -310t-47.5 -310t-135 -234.5t-212.5 -148.5t-281 -52t-281 52t-213 148.5t-135 234.5t-47 310t47 310t135 235t213 149t281 52zM757 1270q-103 0 -185.5 -38.5t-140.5 -109.5t-89.5 -173t-31.5 -228t31.5 -227.5
t89.5 -172.5t140.5 -109.5t185.5 -38.5t185.5 38.5t140.5 109.5t89 172.5t31 227.5t-31 228t-89 173t-140.5 109.5t-185.5 38.5z" />
    <glyph glyph-name="P" unicode="P" horiz-adv-x="1237" 
d="M698 1443q105 0 192.5 -34.5t150.5 -97t98 -150t35 -192.5q0 -106 -35.5 -193.5t-99.5 -150.5t-153 -97.5t-195 -34.5h-334v-493h-224v1443h565zM357 681h282q146 0 226 75t80 212t-79.5 211.5t-226.5 74.5h-282v-573z" />
    <glyph glyph-name="Q" unicode="Q" horiz-adv-x="1513" 
d="M1136 -153l-123 172q-114 -43 -256 -43q-156 0 -281 51.5t-213 148.5t-135 234.5t-47 310.5q0 172 47 310t135 235t213 149t281 52t281 -52t212.5 -149t135 -235t47.5 -310q0 -204 -65 -358.5t-186 -248.5l188 -267h-234zM757 172q70 0 135 20l-172 243h227l102 -138
q74 69 114 176.5t40 247.5q0 126 -31 228t-89 173.5t-140.5 110t-185.5 38.5t-185.5 -38.5t-140.5 -110t-89.5 -173.5t-31.5 -228t31.5 -227.5t89.5 -173t140.5 -110t185.5 -38.5z" />
    <glyph glyph-name="R" unicode="R" horiz-adv-x="1265" 
d="M357 736h322q131 0 202 67.5t71 192.5q0 60 -19.5 108t-55.5 81.5t-87.5 51.5t-116.5 18h-316v-519zM357 0h-224v1443h567q111 0 200.5 -31t152 -88.5t96 -139t33.5 -182.5q0 -73 -19 -138.5t-55 -118.5t-88 -93t-118 -62l324 -590h-259l-294 555h-316v-555z" />
    <glyph glyph-name="S" unicode="S" horiz-adv-x="1244" 
d="M290 402q6 -54 34 -97.5t73.5 -74.5t106 -48t131.5 -17q68 0 125.5 16.5t99 46.5t65 71t23.5 89q0 84 -63 137t-203 88l-187 45q-199 48 -293.5 143t-94.5 246q0 93 38.5 170.5t108.5 133t166 86t212 30.5q114 0 209 -30.5t163.5 -86t107 -133t41.5 -170.5h-218
q-5 54 -29 97t-63.5 72.5t-94 45.5t-119.5 16t-119 -16t-92.5 -44.5t-60 -68t-21.5 -87.5q0 -38 15 -69t46.5 -56t81 -45.5t119.5 -37.5l159 -39q111 -26 190.5 -62t130 -85t74.5 -111.5t24 -141.5q0 -101 -39 -182.5t-111.5 -138.5t-175.5 -87.5t-231 -30.5q-120 0 -219 30
t-171 85.5t-113.5 134t-46.5 176.5h221z" />
    <glyph glyph-name="T" unicode="T" horiz-adv-x="1222" 
d="M499 0v1250h-450v193h1123v-193h-449v-1250h-224z" />
    <glyph glyph-name="U" unicode="U" horiz-adv-x="1434" 
d="M357 526q0 -77 24 -141.5t70 -111t113 -72.5t153 -26t153.5 26t113.5 72.5t70 111t24 141.5v917h223v-936q0 -117 -40.5 -214.5t-116 -168t-183.5 -109.5t-244 -39t-244 39t-183.5 109.5t-116 168t-40.5 214.5v936h224v-917z" />
    <glyph glyph-name="V" unicode="V" horiz-adv-x="1327" 
d="M541 0l-515 1443h243l393 -1191h6l394 1191h239l-515 -1443h-245z" />
    <glyph glyph-name="W" unicode="W" horiz-adv-x="1923" 
d="M645 0h-212l-389 1443h233l267 -1130h8l305 1130h208l306 -1130h8l267 1130h233l-390 -1443h-211l-312 1088h-10z" />
    <glyph glyph-name="X" unicode="X" horiz-adv-x="1337" 
d="M523 723v7l-474 713h267l356 -558h8l360 558h253l-489 -721v-6l480 -716h-262l-359 550h-7l-364 -550h-248z" />
    <glyph glyph-name="Y" unicode="Y" horiz-adv-x="1293" 
d="M534 0v591l-508 852h250l368 -637h7l368 637h248l-509 -852v-591h-224z" />
    <glyph glyph-name="Z" unicode="Z" horiz-adv-x="1273" 
d="M95 153l790 1089v8h-766v193h1041v-153l-787 -1089v-7h806v-194h-1084v153z" />
    <glyph glyph-name="bracketleft" unicode="[" horiz-adv-x="697" 
d="M680 1444v-164h-287v-1356h300v-164h-509v1684h496z" />
    <glyph glyph-name="backslash" unicode="\" horiz-adv-x="625" 
d="M0 1444h193l432 -1760h-189z" />
    <glyph glyph-name="bracketright" unicode="]" horiz-adv-x="697" 
d="M512 -240h-508v164h301v1356h-288v164h495v-1684z" />
    <glyph glyph-name="asciicircum" unicode="^" horiz-adv-x="926" 
d="M247 818h-199l308 622h215l307 -622h-201l-206 440h-17z" />
    <glyph glyph-name="underscore" unicode="_" horiz-adv-x="838" 
d="M-51 -267v160h941v-160h-941z" />
    <glyph glyph-name="grave" unicode="`" horiz-adv-x="1007" 
d="M544 1255l-262 303h225l215 -303h-178z" />
    <glyph glyph-name="a" unicode="a" horiz-adv-x="1092" 
d="M488 162q60 0 112 18.5t90 51t59.5 77.5t21.5 99v85l-264 -18q-112 -7 -168.5 -47.5t-56.5 -112.5q0 -70 56 -111.5t150 -41.5zM430 -11q-81 0 -148.5 23t-116 65t-75.5 101.5t-27 132.5q0 143 106.5 223.5t308.5 93.5l293 17v84q0 94 -59.5 143t-168.5 49q-44 0 -82 -11
t-67 -31.5t-48 -49t-26 -63.5h-203q2 72 35.5 133t91 106t135.5 70t170 25q99 0 179.5 -25t137.5 -71.5t88 -112t31 -146.5v-745h-207v181h-5q-23 -44 -58.5 -79.5t-80 -60.5t-97 -38.5t-107.5 -13.5z" />
    <glyph glyph-name="b" unicode="b" horiz-adv-x="1201" 
d="M683 -11q-119 0 -208.5 50.5t-140.5 144.5h-5v-184h-209v1508h217v-602h4q50 92 139 141.5t205 49.5q103 0 186.5 -39t143 -111.5t92 -175t32.5 -228.5t-32.5 -228.5t-92 -175t-144 -111.5t-187.5 -39zM628 913q-66 0 -119.5 -27t-92 -75.5t-59.5 -117t-21 -150.5
q0 -83 21 -151t59.5 -117t92 -75.5t119.5 -26.5t119 26t91 74.5t58.5 117t20.5 152.5t-20.5 152.5t-58.5 117t-91 74.5t-119 26z" />
    <glyph glyph-name="c" unicode="c" horiz-adv-x="1089" 
d="M832 715q-8 43 -28 80t-53 64t-77.5 42.5t-100.5 15.5q-66 0 -119.5 -26.5t-91.5 -75t-59 -118t-21 -154.5q0 -88 21 -157.5t59.5 -117.5t92.5 -73.5t119 -25.5q106 0 173 50t87 146h207q-9 -85 -47 -155t-98.5 -119.5t-142.5 -76.5t-180 -27q-116 0 -210 38.5
t-161 110.5t-103.5 175t-36.5 232q0 127 36.5 229.5t103 175.5t160.5 112.5t209 39.5q104 0 187.5 -31t143.5 -83.5t95 -122.5t42 -148h-207z" />
    <glyph glyph-name="d" unicode="d" horiz-adv-x="1200" 
d="M520 -11q-102 0 -186.5 39.5t-144.5 112t-93.5 175t-33.5 228.5q0 125 33.5 227t93.5 174.5t144 112t185 39.5q118 0 206.5 -50t135.5 -141h5v602h216v-1508h-210v184h-4q-48 -93 -137.5 -144t-209.5 -51zM575 913q-66 0 -119.5 -26.5t-91.5 -74.5t-59 -116.5t-21 -152.5
t20.5 -152.5t59 -117t92 -74.5t119.5 -26q65 0 118.5 26.5t92 75t59.5 117t21 151.5t-21 151t-59.5 117t-92 75.5t-118.5 26.5z" />
    <glyph glyph-name="e" unicode="e" horiz-adv-x="1113" 
d="M563 923q-59 0 -108.5 -20.5t-86 -57.5t-59.5 -88.5t-27 -114.5h551q-2 63 -22 115t-55.5 89t-84.5 57t-108 20zM1039 318q-12 -73 -52 -134t-101.5 -104.5t-141.5 -68t-171 -24.5q-118 0 -212.5 38.5t-161 110t-102 173.5t-35.5 230q0 127 35.5 231t101.5 177t158.5 113
t206.5 40q112 0 202 -37.5t153 -107t97 -169t34 -222.5v-76h-769v-13q0 -71 21 -128.5t60 -98t93.5 -63t121.5 -22.5q47 0 88.5 11t75 31t57 48.5t34.5 64.5h207z" />
    <glyph glyph-name="f" unicode="f" horiz-adv-x="667" 
d="M176 915h-150v171h150v100q0 152 73.5 222t238.5 70q29 0 56.5 -2.5t53.5 -7.5v-165q-35 8 -81 8q-67 0 -96.5 -31t-30.5 -101v-93h209v-171h-207v-915h-216v915z" />
    <glyph glyph-name="g" unicode="g" horiz-adv-x="1192" 
d="M572 183q66 0 120 26t92.5 73.5t59.5 114.5t21 149t-21 150t-59.5 116t-92.5 74.5t-120 26.5t-119 -26t-90.5 -74t-58 -115.5t-20.5 -151.5q0 -83 20.5 -150.5t58 -114.5t90.5 -72.5t119 -25.5zM573 -391q-98 0 -180.5 22t-143.5 62t-98.5 96.5t-45.5 126.5h219
q9 -32 31.5 -57t56.5 -43t77 -27.5t93 -9.5q64 0 116.5 16.5t89.5 46.5t57 73t20 96v179h-5q-48 -88 -138.5 -137.5t-206.5 -49.5q-102 0 -185.5 38.5t-143 109.5t-92 171.5t-32.5 224.5q0 126 32.5 227.5t92.5 173t144.5 110.5t188.5 39q116 0 206 -50t141 -141h4v180h210
v-1058q0 -97 -35.5 -174.5t-101.5 -132t-160 -83.5t-211 -29z" />
    <glyph glyph-name="h" unicode="h" horiz-adv-x="1195" 
d="M120 1508h215v-605h5q49 97 138.5 146t214.5 49q90 0 163 -28.5t124.5 -81.5t80 -127.5t28.5 -166.5v-694h-216v652q0 122 -67.5 191t-187.5 69q-63 0 -115 -21t-88.5 -59t-57 -91.5t-20.5 -118.5v-622h-217v1508z" />
    <glyph glyph-name="i" unicode="i" horiz-adv-x="455" 
d="M119 1086h217v-1086h-217v1086zM228 1241q-26 0 -49.5 10t-40.5 27t-27 39.5t-10 48.5q0 27 10 49.5t27 39.5t40.5 26.5t49.5 9.5t49 -9.5t40.5 -26.5t27.5 -39.5t10 -49.5q0 -26 -10 -48.5t-27.5 -39.5t-40.5 -27t-49 -10z" />
    <glyph glyph-name="j" unicode="j" horiz-adv-x="455" 
d="M336 -65q0 -167 -86.5 -246t-266.5 -79h-10.5h-15t-14 0.5t-8.5 0.5v172h5.5t9.5 -0.5t9.5 -0.5h6.5q84 0 118.5 35t34.5 119v1150h217v-1151zM228 1241q-26 0 -49.5 10t-40.5 27t-27 39.5t-10 48.5q0 27 10 49.5t27 39.5t40.5 26.5t49.5 9.5t49 -9.5t40.5 -26.5
t27.5 -39.5t10 -49.5q0 -26 -10 -48.5t-27.5 -39.5t-40.5 -27t-49 -10z" />
    <glyph glyph-name="k" unicode="k" horiz-adv-x="1062" 
d="M785 1086h255l-454 -468l470 -618h-250l-375 486l-94 -92v-394h-217v1508h217v-891h1z" />
    <glyph glyph-name="l" unicode="l" horiz-adv-x="457" 
d="M120 1508h217v-1508h-217v1508z" />
    <glyph glyph-name="m" unicode="m" horiz-adv-x="1740" 
d="M111 1086h207v-184h4q19 46 49.5 82t70.5 61.5t88 39t101 13.5q114 0 192.5 -54.5t111.5 -156.5h5q21 49 55 88t78 66.5t96.5 42t110.5 14.5q80 0 145.5 -25.5t112 -72t71.5 -113t25 -147.5v-740h-216v688q0 107 -55 165.5t-157 58.5q-50 0 -91.5 -17.5t-71.5 -49
t-47 -75.5t-17 -96v-674h-213v706q0 47 -14.5 85t-41.5 65t-65.5 41.5t-86.5 14.5q-50 0 -92.5 -18.5t-73 -51.5t-47.5 -78t-17 -98v-666h-217v1086z" />
    <glyph glyph-name="n" unicode="n" horiz-adv-x="1168" 
d="M111 1086h207v-183h4q50 97 138 146t215 49q90 0 161.5 -27.5t122 -79.5t77 -126.5t26.5 -168.5v-696h-217v655q0 125 -62.5 191t-182.5 66q-62 0 -112 -20.5t-85.5 -58t-55 -90t-19.5 -116.5v-627h-217v1086z" />
    <glyph glyph-name="o" unicode="o" horiz-adv-x="1152" 
d="M576 -13q-118 0 -213 39t-162 111t-103 175t-36 231t36.5 231t103.5 175.5t162 111.5t212 39t212 -39t162 -111.5t103 -175.5t36 -231t-36 -231t-103 -175t-161.5 -111t-212.5 -39zM576 167q69 0 123.5 25.5t92 73.5t57.5 118t20 159t-20 159t-57.5 118.5t-92 74
t-123.5 25.5t-123.5 -25.5t-92.5 -74.5t-58 -119t-20 -158q0 -89 20 -159t58 -118t92.5 -73.5t123.5 -25.5z" />
    <glyph glyph-name="p" unicode="p" horiz-adv-x="1192" 
d="M671 1097q104 0 188.5 -39t144.5 -111.5t93 -175t33 -228.5t-32.5 -228.5t-92 -174.5t-143.5 -111.5t-186 -39.5q-118 0 -206.5 49t-137.5 140h-4v-533h-217v1441h209v-180h5q23 44 58.5 79.5t80.5 60t97.5 38t109.5 13.5zM616 173q66 0 120 26t92 74.5t59 117t21 152.5
t-21 152.5t-59 116.5t-92 74.5t-120 26.5q-65 0 -118 -26.5t-91 -75.5t-59.5 -117t-21.5 -151t21 -151.5t59.5 -117t91.5 -75t118 -26.5z" />
    <glyph glyph-name="q" unicode="q" horiz-adv-x="1192" 
d="M520 1097q118 0 208.5 -50t138.5 -141h4v180h210v-1441h-216v533h-5q-48 -89 -138 -139t-207 -50q-102 0 -185.5 39.5t-143 112t-92 175t-32.5 228.5t32.5 228t92.5 174t144.5 111.5t188.5 39.5zM572 173q66 0 120 26.5t92.5 75.5t59.5 117t21 151q0 82 -21 150.5
t-59.5 117t-92.5 75.5t-120 27t-119 -26t-90.5 -74.5t-58 -117t-20.5 -152.5q0 -85 20.5 -153.5t58 -116.5t90.5 -74t119 -26z" />
    <glyph glyph-name="r" unicode="r" horiz-adv-x="688" 
d="M111 1086h207v-183h4q26 91 95.5 142.5t166.5 51.5q18 0 38.5 -2t33.5 -6v-203q-14 5 -42.5 9.5t-52.5 4.5q-54 0 -97 -18t-73 -51t-46.5 -79.5t-16.5 -103.5v-648h-217v1086z" />
    <glyph glyph-name="s" unicode="s" horiz-adv-x="1018" 
d="M93 777q0 72 30.5 131t86 101.5t133 66t171.5 23.5q89 0 164.5 -24t130.5 -66.5t86.5 -102t33.5 -130.5h-204q-7 72 -64.5 114t-151.5 42q-46 0 -84 -10.5t-65 -29t-41.5 -45t-14.5 -58.5q0 -50 41 -84t128 -55l180 -43q82 -20 139 -45.5t93 -60.5t52 -80.5t16 -105.5
q0 -73 -33 -133t-92 -103.5t-141 -67.5t-181 -24q-95 0 -173.5 23.5t-136.5 66.5t-92 103t-40 134h214q13 -78 74 -119.5t165 -41.5q51 0 91.5 10t69 29t44 45.5t15.5 59.5q0 52 -36 82t-121 52l-194 48q-293 72 -293 298z" />
    <glyph glyph-name="t" unicode="t" horiz-adv-x="672" 
d="M392 1330v-244h208v-171h-208v-607q0 -71 32 -104.5t101 -33.5q9 0 19.5 0.5l21 1t19.5 1.5t14 2v-171q-18 -5 -52.5 -8t-69.5 -3q-81 0 -138.5 16t-93.5 51.5t-52.5 91t-16.5 134.5v629h-150v171h150v244h216z" />
    <glyph glyph-name="u" unicode="u" horiz-adv-x="1168" 
d="M1057 0h-207v186h-4q-48 -97 -137 -147.5t-214 -50.5q-89 0 -161 28t-122.5 80t-78 126.5t-27.5 167.5v696h217v-655q0 -126 64 -191t182 -65q61 0 111 20.5t85.5 57.5t55 89.5t19.5 117.5v626h217v-1086z" />
    <glyph glyph-name="v" unicode="v" horiz-adv-x="1052" 
d="M642 0h-231l-392 1086h229l277 -872h5l278 872h225z" />
    <glyph glyph-name="w" unicode="w" horiz-adv-x="1563" 
d="M1238 0h-224l-231 818h-5l-229 -818h-223l-300 1086h216l202 -860h4l230 860h208l231 -860h4l202 860h214z" />
    <glyph glyph-name="x" unicode="x" horiz-adv-x="1032" 
d="M510 403l-244 -403h-235l361 542l-357 544h243l241 -395h5l239 395h238l-358 -536l354 -550h-239l-243 403h-5z" />
    <glyph glyph-name="y" unicode="y" horiz-adv-x="1066" 
d="M220 -395q-7 0 -19 0.5t-25.5 1.5t-25.5 2t-18 2v176q12 -3 33.5 -4t35.5 -1q77 0 123 36.5t74 122.5l17 56l-394 1089h233l279 -888h5l279 888h228l-407 -1136q-35 -98 -73.5 -164t-87 -106.5t-111.5 -57.5t-146 -17z" />
    <glyph glyph-name="z" unicode="z" horiz-adv-x="1015" 
d="M89 141l584 769v3h-581v173h828v-149l-570 -760v-4h576v-173h-837v141z" />
    <glyph glyph-name="braceleft" unicode="{" horiz-adv-x="771" 
d="M329 599q189 -18 189 -241v-309q0 -59 12.5 -100.5t39.5 -67.5t70 -38t105 -12h45v-166h-76q-206 0 -303.5 87.5t-97.5 275.5v266q0 59 -9 99t-29 65t-54 35.5t-83 10.5v219q49 0 82.5 10.5t54 35.5t29.5 65t9 100v232q0 183 96.5 269t304.5 86h76v-167h-45
q-62 0 -105.5 -12t-70.5 -38t-39 -67.5t-12 -101.5v-276q0 -109 -46 -166.5t-143 -66.5v-27v0z" />
    <glyph glyph-name="bar" unicode="|" horiz-adv-x="503" 
d="M155 -314v1757h192v-1757h-192z" />
    <glyph glyph-name="braceright" unicode="}" horiz-adv-x="771" 
d="M443 626q-97 9 -143.5 66.5t-46.5 166.5v276q0 60 -12 101.5t-39 67.5t-70.5 38t-105.5 12h-45v167h76q208 0 304.5 -86t96.5 -269v-232q0 -60 9 -100t29.5 -65t54 -35.5t82.5 -10.5v-219q-50 0 -83.5 -10.5t-53.5 -35.5t-29 -65t-9 -99v-266q0 -188 -97 -275.5
t-304 -87.5h-76v166h45q61 0 104.5 12t70.5 38t39.5 67.5t12.5 100.5v309q0 223 190 241v27z" />
    <glyph glyph-name="asciitilde" unicode="~" horiz-adv-x="1225" 
d="M567 632q-26 26 -46.5 44t-38.5 29t-34.5 16t-33.5 5q-123 0 -132 -179h-184q-2 86 18.5 155t61 117.5t98.5 74.5t132 26q66 0 126 -30.5t126 -96.5q50 -51 83.5 -72t67.5 -21q124 0 132 179h184q2 -86 -18.5 -155t-60.5 -117.5t-98.5 -74.5t-132.5 -26q-66 0 -125 29.5
t-125 96.5z" />
    <glyph glyph-name="nonbreakingspace" unicode="&#xa0;" horiz-adv-x="472" 
 />
    <glyph glyph-name="exclamdown" unicode="&#xa1;" horiz-adv-x="583" 
d="M196 630h191l16 -965h-223zM291 866q-27 0 -51 10t-42 27.5t-28 41t-10 50.5q0 28 10 51.5t28 41t42 27.5t51 10q28 0 52 -10t42 -27.5t28 -41t10 -51.5q0 -27 -10 -50.5t-28 -41t-42 -27.5t-52 -10z" />
    <glyph glyph-name="cent" unicode="&#xa2;" horiz-adv-x="1270" 
d="M1156 539q-8 -77 -41 -142t-87 -115t-125.5 -82.5t-155.5 -42.5v-174h-198v177q-99 16 -179.5 63.5t-137.5 119.5t-87.5 167t-30.5 207q0 111 31 204.5t87.5 165.5t137 118.5t179.5 62.5v177h198v-174q84 -11 156.5 -45t127 -85.5t87.5 -117.5t38 -140h-209
q-10 49 -35 88t-63 66.5t-87.5 42.5t-106.5 15q-71 0 -130 -27.5t-101.5 -77t-66 -119.5t-23.5 -154q0 -86 23.5 -156.5t66.5 -121t101.5 -78.5t129.5 -28q118 0 195 49t97 157h209v0z" />
    <glyph glyph-name="sterling" unicode="&#xa3;" horiz-adv-x="1270" 
d="M1185 188v-188h-1084v181q67 13 123 45t96.5 77.5t63.5 101.5t23 117q0 32 -4.5 62.5t-12.5 61.5h-288v167h231q-24 63 -42.5 126.5t-18.5 129.5q0 96 36 172t104.5 128.5t167.5 80.5t224 28q46 0 91 -4t85.5 -11t75 -16.5t59.5 -20.5v-187q-21 10 -53 20t-71 17
t-82 11.5t-85 4.5q-77 0 -137 -16t-102 -46.5t-64 -74.5t-22 -99q0 -63 16.5 -123t38.5 -120h450v-167h-396q6 -28 10 -56t4 -57q0 -60 -16.5 -112t-43.5 -95t-62.5 -76.5t-74.5 -56.5v-5h760z" />
    <glyph glyph-name="currency" unicode="&#xa4;" horiz-adv-x="1279" 
d="M387 653q0 -52 20 -98t54.5 -80.5t81 -54.5t98.5 -20t98 20t80 54.5t54 80.5t20 98t-20 98.5t-54 81t-80 54.5t-98 20t-98.5 -20t-81 -54.5t-54.5 -81t-20 -98.5zM988 874q30 -48 47 -104t17 -117t-17 -117t-48 -104l162 -162l-128 -127l-161 161q-48 -30 -103.5 -46.5
t-115.5 -16.5q-61 0 -117 17t-104 48l-162 -163l-128 127l162 163q-30 48 -47 103.5t-17 116.5t17 117t47 104l-162 162l128 127l162 -161q48 30 104 47t117 17t116.5 -17t103.5 -47l160 161l128 -127z" />
    <glyph glyph-name="yen" unicode="&#xa5;" horiz-adv-x="1270" 
d="M748 248v-248h-224v248h-275v147h275v155h-275v147h213l-447 746h249l368 -635h7l367 635h249l-445 -746h212v-147h-274v-155h274v-147h-274z" />
    <glyph glyph-name="brokenbar" unicode="&#xa6;" horiz-adv-x="504" 
d="M156 774v669h192v-669h-192zM156 -314v669h192v-669h-192z" />
    <glyph glyph-name="section" unicode="&#xa7;" horiz-adv-x="990" 
d="M527 393q40 1 75 15.5t60.5 37.5t40 54t14.5 67q0 58 -41 98.5t-119 59.5l-92 24q-40 -2 -74.5 -16t-60.5 -38t-41 -55t-15 -65q0 -57 42 -98t119 -59zM498 -267q-89 0 -163.5 22.5t-130 64t-88.5 98.5t-37 126h204q4 -32 22.5 -58.5t48 -45.5t68 -29t83.5 -10
q46 0 84.5 10.5t66.5 30t43 46.5t15 60q0 52 -42.5 87t-137.5 61l-153 46q-163 46 -237.5 116t-74.5 176q0 95 58 164.5t163 99.5v17q-109 45 -162 112t-53 161q0 72 30 131t84.5 101.5t131 65.5t169.5 23q86 0 158 -21t125 -60.5t85.5 -95.5t40.5 -125h-201q-5 30 -22 55
t-44.5 43t-64.5 27.5t-80 9.5q-46 0 -84 -10.5t-65 -30t-41.5 -46.5t-14.5 -60q0 -53 41.5 -87.5t135.5 -61.5l152 -45q161 -47 235.5 -115.5t74.5 -170.5q0 -51 -18 -96.5t-50.5 -82.5t-77.5 -63.5t-100 -38.5v-17q123 -34 183 -97.5t60 -162.5q0 -72 -31 -131.5
t-86.5 -102t-132.5 -66.5t-170 -24z" />
    <glyph glyph-name="dieresis" unicode="&#xa8;" horiz-adv-x="1006" 
d="M302 1260q-25 0 -47 9.5t-38.5 25.5t-26 38t-9.5 46q0 25 9.5 46.5t26 37.5t38.5 25.5t47 9.5t47 -9.5t38 -25.5t25.5 -37.5t9.5 -46.5q0 -24 -9.5 -46t-25.5 -38t-38 -25.5t-47 -9.5zM705 1260q-25 0 -47 9.5t-38.5 25.5t-26 38t-9.5 46q0 25 9.5 46.5t26 37.5
t38.5 25.5t47 9.5t47 -9.5t38 -25.5t25.5 -37.5t9.5 -46.5q0 -24 -9.5 -46t-25.5 -38t-38 -25.5t-47 -9.5z" />
    <glyph glyph-name="copyright" unicode="&#xa9;" horiz-adv-x="1703" 
d="M851 -158q-111 0 -212.5 27.5t-189 78.5t-159.5 122.5t-123 159.5t-79 190.5t-28 214.5q0 169 61.5 313.5t168.5 251t251 167t310 60.5q167 0 311.5 -60.5t251.5 -167t168 -251t61 -313.5q0 -112 -28 -214.5t-78.5 -190.5t-122.5 -159.5t-160 -122.5t-190 -78.5
t-213 -27.5zM851 -9q135 0 252.5 49t204 135.5t136 204.5t49.5 255q0 138 -49.5 255.5t-136 203.5t-204 135t-252.5 49q-134 0 -251 -49t-204 -135t-137 -203.5t-50 -255.5q0 -137 50 -255t137 -204.5t204 -135.5t251 -49zM1069 765q-8 31 -24.5 57.5t-42 46t-59 31
t-75.5 11.5q-52 0 -94 -19t-71.5 -54t-45.5 -86.5t-16 -115.5q0 -65 16 -116.5t46 -87.5t72 -55t93 -19q78 0 131 36t70 105h156q-8 -61 -36 -112t-73.5 -88t-108 -57.5t-138.5 -20.5q-90 0 -162 29t-123 82.5t-78.5 130.5t-27.5 173q0 95 27.5 171t78 129.5t122.5 82.5
t161 29q77 0 139.5 -22t108.5 -60t74 -89.5t36 -111.5h-156z" />
    <glyph glyph-name="ordfeminine" unicode="&#xaa;" horiz-adv-x="914" 
d="M290 854q0 -56 39 -88t107 -32q42 0 77.5 13.5t61.5 37t40.5 55.5t14.5 70v77l-185 -13q-155 -12 -155 -120zM370 586q-61 0 -111 19t-85.5 53t-55 81.5t-19.5 105.5q0 114 81.5 179t238.5 76l209 13v69q0 59 -41.5 92t-116.5 33q-65 0 -105 -23.5t-50 -67.5h-185
q5 57 31.5 102.5t71.5 77.5t106.5 49t136.5 17q79 0 142 -19.5t106.5 -56.5t67 -90t23.5 -119v-571h-181v107h-13q-39 -60 -104.5 -93.5t-146.5 -33.5z" />
    <glyph glyph-name="guillemotleft" unicode="&#xab;" horiz-adv-x="1322" 
d="M845 559l349 -412h-229l-348 414v8l349 415h228l-349 -412v-13zM355 559l349 -412h-229l-348 414v8l349 415h228l-349 -412v-13z" />
    <glyph glyph-name="logicalnot" unicode="&#xac;" horiz-adv-x="1270" 
d="M1126 104h-186v385h-796v184h982v-569z" />
    <glyph glyph-name="registered" unicode="&#xae;" horiz-adv-x="1093" 
d="M546 632q-94 0 -176.5 35t-144 95.5t-97 142t-35.5 174.5t35.5 174.5t96.5 142t143.5 95.5t177.5 35t177.5 -35t144 -95.5t97 -142t35.5 -174.5t-35.5 -174.5t-97 -142t-144 -95.5t-177.5 -35zM546 736q72 0 134.5 26.5t109 73t73 109t26.5 134.5t-26.5 134t-73 108.5
t-109 73t-134.5 26.5q-71 0 -133.5 -26.5t-109 -73t-73 -108.5t-26.5 -134t26.5 -134.5t73 -109t109 -73t133.5 -26.5zM367 881v420h211q68 0 110 -36t42 -94q0 -49 -25.5 -82.5t-69.5 -42.5l116 -165h-121l-98 151h-67v-151h-98zM465 1106h93q32 0 49.5 15.5t17.5 44.5
q0 55 -65 55h-95v-115z" />
    <glyph glyph-name="macron" unicode="&#xaf;" horiz-adv-x="1000" 
d="M823 1312h-646v119h646v-119z" />
    <glyph glyph-name="degree" unicode="&#xb0;" horiz-adv-x="728" 
d="M363 845q-61 0 -114 22.5t-92 62t-61.5 92.5t-22.5 114t22.5 114t61.5 92.5t92 62t114 22.5t114.5 -22.5t93 -62t62 -92.5t22.5 -114t-22.5 -114t-62 -92.5t-93 -62t-114.5 -22.5zM364 988q31 0 58 11.5t47 32t31.5 47.5t11.5 57q0 31 -11.5 58t-31.5 47.5t-47 32
t-58 11.5q-30 0 -57 -11.5t-47.5 -32t-32.5 -47.5t-12 -58q0 -30 12 -57t32.5 -47.5t47.5 -32t57 -11.5z" />
    <glyph glyph-name="plusminus" unicode="&#xb1;" horiz-adv-x="1270" 
d="M130 99v173h1010v-173h-1010zM727 386h-184v272h-413v165h413v272h184v-272h413v-165h-413v-272z" />
    <glyph glyph-name="two.sups" unicode="&#xb2;" horiz-adv-x="635" 
d="M40 1591q0 52 19.5 95t55.5 73.5t86.5 47t112.5 16.5q59 0 108 -15t84 -42t54 -64.5t19 -83.5q0 -27 -6.5 -51.5t-21.5 -50t-39.5 -53t-60.5 -59.5l-158 -144v-3h294v-143h-536v124l273 247q41 40 57.5 66.5t16.5 53.5q0 35 -25.5 57t-66.5 22q-42 0 -68.5 -26.5
t-26.5 -66.5v-4h-171v4v0z" />
    <glyph glyph-name="three.sups" unicode="&#xb3;" horiz-adv-x="662" 
d="M239 1530h85q42 0 67 22t25 57t-24.5 55.5t-69.5 20.5q-44 0 -70.5 -23.5t-28.5 -62.5h-168q0 51 20 92t55.5 70.5t85.5 45.5t112 16q59 0 107 -13.5t82.5 -38t53.5 -59.5t19 -77q0 -62 -39 -105t-105 -55v-4q79 -8 124 -52t45 -113q0 -48 -20.5 -86.5t-59 -66t-92 -42.5
t-119.5 -15q-62 0 -113 16t-87.5 45.5t-58 71.5t-23.5 94h177q3 -38 31 -59.5t75 -21.5q45 0 73 22.5t28 57.5q0 38 -27.5 60t-75.5 22h-84v126z" />
    <glyph glyph-name="acute" unicode="&#xb4;" horiz-adv-x="1007" 
d="M284 1255l215 303h225l-262 -303h-178z" />
    <glyph glyph-name="paragraph" unicode="&#xb6;" horiz-adv-x="1299" 
d="M608 -233v765h-20q-105 0 -195 34t-156 94t-103.5 142.5t-37.5 178.5q0 100 37.5 185t103.5 146.5t156 96t196 34.5h235v-1676h-216zM979 1443h216v-1676h-216v1676z" />
    <glyph glyph-name="periodcentered" unicode="&#xb7;" horiz-adv-x="560" 
d="M280 482q-27 0 -51 10t-42 28t-28 42t-10 51q0 28 10 52t28 41.5t42 27.5t51 10q28 0 52 -10t41.5 -27.5t27.5 -41.5t10 -52q0 -27 -10 -51t-27.5 -42t-41.5 -28t-52 -10z" />
    <glyph glyph-name="cedilla" unicode="&#xb8;" horiz-adv-x="1007" 
d="M364 -146l63 155l122 -9l-51 -132q98 0 149 -39.5t51 -114.5q0 -40 -16.5 -73t-46 -56.5t-71 -37t-92.5 -13.5q-42 -1 -77.5 3t-67.5 14v105q16 -6 51 -10t67 -4q115 0 115 66q0 34 -32.5 48.5t-108.5 14.5h-55v83z" />
    <glyph glyph-name="one.sups" unicode="&#xb9;" horiz-adv-x="516" 
d="M243 1647h-3l-176 -119v159l176 118h183v-691h-180v533z" />
    <glyph glyph-name="ordmasculine" unicode="&#xba;" horiz-adv-x="981" 
d="M286 1018q0 -135 53 -208t152 -73t151.5 73t52.5 209q0 135 -53 207.5t-151 72.5t-151.5 -73t-53.5 -208zM491 579q-95 0 -169.5 30t-127 87t-80 138.5t-27.5 183.5t28 184t80.5 139t127 87.5t168.5 30.5t168.5 -30.5t126.5 -87.5t80 -138.5t28 -183.5
q0 -103 -27.5 -184.5t-79.5 -138.5t-127 -87t-169 -30z" />
    <glyph glyph-name="guillemotright" unicode="&#xbb;" horiz-adv-x="1321" 
d="M127 984h228l349 -415v-8l-347 -414h-230l349 412v13zM617 984h228l349 -415v-8l-347 -414h-230l349 412v13z" />
    <glyph glyph-name="onequarter" unicode="&#xbc;" horiz-adv-x="1521" 
d="M1225 108h-341v156q23 44 48.5 89t56.5 96t68.5 110.5t85.5 131.5h259v-438h85v-145h-85v-108h-177v108zM1041 246h189v320h-3q-38 -60 -66 -105.5t-49.5 -82.5t-38 -67.5t-32.5 -61.5v-3zM253 1286h-3l-176 -119v159l176 118h183v-691h-180v533zM99 0l1055 1443h202
l-1053 -1443h-204z" />
    <glyph glyph-name="onehalf" unicode="&#xbd;" horiz-adv-x="1520" 
d="M939 477q0 52 19.5 95t55.5 73.5t86.5 47t112.5 16.5q59 0 108 -15t84 -42t54 -64.5t19 -83.5q0 -27 -6.5 -51.5t-21.5 -50t-39.5 -53t-60.5 -59.5l-158 -144v-3h294v-143h-536v124l273 247q41 40 57.5 66.5t16.5 53.5q0 35 -25.5 57t-66.5 22q-42 0 -68.5 -26.5
t-26.5 -66.5v-4h-171v4zM253 1286h-3l-176 -119v159l176 118h183v-691h-180v533zM99 0l1055 1443h202l-1053 -1443h-204z" />
    <glyph glyph-name="threequarters" unicode="&#xbe;" horiz-adv-x="1623" 
d="M239 1169h85q42 0 67 22t25 57t-24.5 55.5t-69.5 20.5q-44 0 -70.5 -23.5t-28.5 -62.5h-168q0 51 20 92t55.5 70.5t85.5 45.5t112 16q59 0 107 -13.5t82.5 -38t53.5 -59.5t19 -77q0 -62 -39 -105t-105 -55v-4q79 -8 124 -52t45 -113q0 -48 -20.5 -86.5t-59 -66t-92 -42.5
t-119.5 -15q-62 0 -113 16t-87.5 45.5t-58 71.5t-23.5 94h177q3 -38 31 -59.5t75 -21.5q45 0 73 22.5t28 57.5q0 38 -27.5 60t-75.5 22h-84v126zM1328 108h-341v156q23 44 48.5 89t56.5 96t68.5 110.5t85.5 131.5h259v-438h85v-145h-85v-108h-177v108zM1144 246h189v320h-3
q-38 -60 -66 -105.5t-49.5 -82.5t-38 -67.5t-32.5 -61.5v-3zM207 0l1055 1443h202l-1053 -1443h-204z" />
    <glyph glyph-name="questiondown" unicode="&#xbf;" horiz-adv-x="1035" 
d="M980 49q-3 -85 -34 -158t-88 -126.5t-140 -84t-191 -30.5q-100 0 -181.5 28t-140 77.5t-90.5 117.5t-32 149q0 116 55.5 199t155.5 143q48 28 80 53.5t51 52t26.5 57t7.5 68.5v61h207l1 -80q2 -53 -8 -97t-34 -81.5t-61 -70.5t-89 -64q-45 -27 -76.5 -52.5t-51 -53
t-28 -58t-8.5 -68.5q0 -43 16 -79.5t45.5 -62.5t71.5 -41t93 -15q103 0 165.5 58t69.5 158h208zM551 866q-28 0 -52 10t-42 27.5t-28 41t-10 50.5q0 28 10 51.5t28 41t42 27.5t52 10t52 -10t42 -27.5t28 -41t10 -51.5q0 -27 -10 -50.5t-28 -41t-42 -27.5t-52 -10z" />
    <glyph glyph-name="Agrave" unicode="&#xc0;" horiz-adv-x="1336" 
d="M941 390h-550l-132 -390h-233l521 1443h242l521 -1443h-237zM448 570h436l-215 633h-6zM301 1856h225l231 -303h-176z" />
    <glyph glyph-name="Aacute" unicode="&#xc1;" horiz-adv-x="1336" 
d="M941 390h-550l-132 -390h-233l521 1443h242l521 -1443h-237zM448 570h436l-215 633h-6zM580 1551l231 303h225l-280 -303h-176z" />
    <glyph glyph-name="Acircumflex" unicode="&#xc2;" horiz-adv-x="1336" 
d="M941 390h-550l-132 -390h-233l521 1443h242l521 -1443h-237zM448 570h436l-215 633h-6zM754 1853l286 -306h-188l-182 200h-4l-182 -200h-188l286 306h172z" />
    <glyph glyph-name="Atilde" unicode="&#xc3;" horiz-adv-x="1336" 
d="M941 390h-550l-132 -390h-233l521 1443h242l521 -1443h-237zM448 570h436l-215 633h-6zM801 1537q-33 0 -59 11t-48 27t-40 35t-35.5 35t-34.5 27t-36 11q-33 0 -50.5 -34.5t-18.5 -95.5h-129q0 122 51.5 189.5t139.5 67.5q35 0 62.5 -11t49.5 -27t40.5 -35t35.5 -35
t33.5 -27t34.5 -11q32 0 47.5 34t15.5 98h130q0 -60 -14 -107.5t-39 -81.5t-59.5 -52t-76.5 -18z" />
    <glyph glyph-name="Adieresis" unicode="&#xc4;" horiz-adv-x="1336" 
d="M941 390h-550l-132 -390h-233l521 1443h242l521 -1443h-237zM448 570h436l-215 633h-6zM467 1576q-25 0 -47 9.5t-38.5 25.5t-26 38t-9.5 46q0 25 9.5 46.5t26 37.5t38.5 25.5t47 9.5t47 -9.5t38 -25.5t25.5 -37.5t9.5 -46.5q0 -24 -9.5 -46t-25.5 -38t-38 -25.5
t-47 -9.5zM870 1576q-25 0 -47 9.5t-38.5 25.5t-26 38t-9.5 46q0 25 9.5 46.5t26 37.5t38.5 25.5t47 9.5t47 -9.5t38 -25.5t25.5 -37.5t9.5 -46.5q0 -24 -9.5 -46t-25.5 -38t-38 -25.5t-47 -9.5z" />
    <glyph glyph-name="Aring" unicode="&#xc5;" horiz-adv-x="1336" 
d="M941 390h-550l-132 -390h-233l521 1443h242l521 -1443h-237zM448 570h436l-215 633h-6zM668 1509q-42 0 -80 16.5t-66 44t-44.5 65t-16.5 79.5t16.5 79.5t44.5 65.5t66 44.5t80 16.5t80 -16.5t66 -44.5t44.5 -65.5t16.5 -79.5t-16.5 -79.5t-44.5 -65t-66 -44t-80 -16.5z
M668 1604q23 0 43 8.5t35 23.5t24 35t9 43t-9 43t-24 35t-35 24t-43 9t-43 -9t-35 -24t-24 -35t-9 -43t9 -43t24 -35t35 -23.5t43 -8.5z" />
    <glyph glyph-name="AE" unicode="&#xc6;" horiz-adv-x="1997" 
d="M514 607h449v656h-151zM963 428h-527l-196 -428h-227l661 1443h1189v-193h-685v-430h648v-186h-648v-441h685v-193h-900v428z" />
    <glyph glyph-name="Ccedilla" unicode="&#xc7;" horiz-adv-x="1424" 
d="M1355 449q-19 -104 -65.5 -187.5t-116.5 -144t-162.5 -96t-203.5 -43.5l-43 -110q98 0 149 -39.5t51 -114.5q0 -40 -16.5 -73t-46 -56.5t-71 -37t-92.5 -13.5q-42 -1 -77.5 3t-67.5 14v105q16 -6 51 -10t67 -4q115 0 115 66q0 34 -32.5 48.5t-108.5 14.5h-55v83l51 124
q-139 10 -250 66.5t-189 152.5t-119.5 228.5t-41.5 296.5q0 171 46.5 309t133 235t208.5 149t273 52q123 0 228.5 -36t186 -102t132 -158.5t65.5 -205.5h-222q-15 69 -50.5 125.5t-86.5 96.5t-115.5 62t-137.5 22q-98 0 -178 -39t-136.5 -110.5t-87 -173t-30.5 -226.5
q0 -126 30.5 -228t86.5 -173.5t136.5 -110t179.5 -38.5q75 0 139 19t114 54.5t84.5 87t51.5 116.5h223z" />
    <glyph glyph-name="Egrave" unicode="&#xc8;" horiz-adv-x="1146" 
d="M224 1856h225l231 -303h-176zM1049 0h-916v1443h916v-193h-692v-422h655v-186h-655v-448h692v-194z" />
    <glyph glyph-name="Eacute" unicode="&#xc9;" horiz-adv-x="1146" 
d="M503 1551l231 303h225l-280 -303h-176zM1049 0h-916v1443h916v-193h-692v-422h655v-186h-655v-448h692v-194z" />
    <glyph glyph-name="Ecircumflex" unicode="&#xca;" horiz-adv-x="1146" 
d="M677 1853l286 -306h-188l-182 200h-4l-182 -200h-188l286 306h172zM1049 0h-916v1443h916v-193h-692v-422h655v-186h-655v-448h692v-194z" />
    <glyph glyph-name="Edieresis" unicode="&#xcb;" horiz-adv-x="1146" 
d="M390 1576q-25 0 -47 9.5t-38.5 25.5t-26 38t-9.5 46q0 25 9.5 46.5t26 37.5t38.5 25.5t47 9.5t47 -9.5t38 -25.5t25.5 -37.5t9.5 -46.5q0 -24 -9.5 -46t-25.5 -38t-38 -25.5t-47 -9.5zM793 1576q-25 0 -47 9.5t-38.5 25.5t-26 38t-9.5 46q0 25 9.5 46.5t26 37.5
t38.5 25.5t47 9.5t47 -9.5t38 -25.5t25.5 -37.5t9.5 -46.5q0 -24 -9.5 -46t-25.5 -38t-38 -25.5t-47 -9.5zM1049 0h-916v1443h916v-193h-692v-422h655v-186h-655v-448h692v-194z" />
    <glyph glyph-name="Igrave" unicode="&#xcc;" horiz-adv-x="490" 
d="M133 0v1443h224v-1443h-224zM-122 1856h225l231 -303h-176z" />
    <glyph glyph-name="Iacute" unicode="&#xcd;" horiz-adv-x="490" 
d="M133 0v1443h224v-1443h-224zM157 1551l231 303h225l-280 -303h-176z" />
    <glyph glyph-name="Icircumflex" unicode="&#xce;" horiz-adv-x="490" 
d="M133 0v1443h224v-1443h-224zM331 1853l286 -306h-188l-182 200h-4l-182 -200h-188l286 306h172z" />
    <glyph glyph-name="Idieresis" unicode="&#xcf;" horiz-adv-x="490" 
d="M133 0v1443h224v-1443h-224zM44 1576q-25 0 -47 9.5t-38.5 25.5t-26 38t-9.5 46q0 25 9.5 46.5t26 37.5t38.5 25.5t47 9.5t47 -9.5t38 -25.5t25.5 -37.5t9.5 -46.5q0 -24 -9.5 -46t-25.5 -38t-38 -25.5t-47 -9.5zM447 1576q-25 0 -47 9.5t-38.5 25.5t-26 38t-9.5 46
q0 25 9.5 46.5t26 37.5t38.5 25.5t47 9.5t47 -9.5t38 -25.5t25.5 -37.5t9.5 -46.5q0 -24 -9.5 -46t-25.5 -38t-38 -25.5t-47 -9.5z" />
    <glyph glyph-name="Eth" unicode="&#xd0;" horiz-adv-x="1462" 
d="M629 194q115 0 203.5 34.5t149 101.5t92 165.5t31.5 226.5q0 127 -31.5 225.5t-92 166t-149 102t-203.5 34.5h-272v-418h272v-184h-272v-454h272zM650 1443q161 0 288 -48.5t214.5 -140.5t134 -225.5t46.5 -304.5t-46.5 -305.5t-134 -227.5t-214.5 -142t-288 -49h-517
v648h-114v184h114v611h517z" />
    <glyph glyph-name="Ntilde" unicode="&#xd1;" horiz-adv-x="1443" 
d="M855 1537q-33 0 -59 11t-48 27t-40 35t-35.5 35t-34.5 27t-36 11q-33 0 -50.5 -34.5t-18.5 -95.5h-129q0 122 51.5 189.5t139.5 67.5q35 0 62.5 -11t49.5 -27t40.5 -35t35.5 -35t33.5 -27t34.5 -11q32 0 47.5 34t15.5 98h130q0 -60 -14 -107.5t-39 -81.5t-59.5 -52
t-76.5 -18zM133 0v1443h203l748 -1064h8v1064h218v-1443h-202l-748 1063h-9v-1063h-218z" />
    <glyph glyph-name="Ograve" unicode="&#xd2;" horiz-adv-x="1513" 
d="M390 1856h225l231 -303h-176zM757 1467q156 0 281 -52t212.5 -149t135 -235t47.5 -310t-47.5 -310t-135 -234.5t-212.5 -148.5t-281 -52t-281 52t-213 148.5t-135 234.5t-47 310t47 310t135 235t213 149t281 52zM757 1270q-103 0 -185.5 -38.5t-140.5 -109.5t-89.5 -173
t-31.5 -228t31.5 -227.5t89.5 -172.5t140.5 -109.5t185.5 -38.5t185.5 38.5t140.5 109.5t89 172.5t31 227.5t-31 228t-89 173t-140.5 109.5t-185.5 38.5z" />
    <glyph glyph-name="Oacute" unicode="&#xd3;" horiz-adv-x="1513" 
d="M669 1551l231 303h225l-280 -303h-176zM757 1467q156 0 281 -52t212.5 -149t135 -235t47.5 -310t-47.5 -310t-135 -234.5t-212.5 -148.5t-281 -52t-281 52t-213 148.5t-135 234.5t-47 310t47 310t135 235t213 149t281 52zM757 1270q-103 0 -185.5 -38.5t-140.5 -109.5
t-89.5 -173t-31.5 -228t31.5 -227.5t89.5 -172.5t140.5 -109.5t185.5 -38.5t185.5 38.5t140.5 109.5t89 172.5t31 227.5t-31 228t-89 173t-140.5 109.5t-185.5 38.5z" />
    <glyph glyph-name="Ocircumflex" unicode="&#xd4;" horiz-adv-x="1513" 
d="M843 1853l286 -306h-188l-182 200h-4l-182 -200h-188l286 306h172zM757 1467q156 0 281 -52t212.5 -149t135 -235t47.5 -310t-47.5 -310t-135 -234.5t-212.5 -148.5t-281 -52t-281 52t-213 148.5t-135 234.5t-47 310t47 310t135 235t213 149t281 52zM757 1270
q-103 0 -185.5 -38.5t-140.5 -109.5t-89.5 -173t-31.5 -228t31.5 -227.5t89.5 -172.5t140.5 -109.5t185.5 -38.5t185.5 38.5t140.5 109.5t89 172.5t31 227.5t-31 228t-89 173t-140.5 109.5t-185.5 38.5z" />
    <glyph glyph-name="Otilde" unicode="&#xd5;" horiz-adv-x="1513" 
d="M757 1467q156 0 281 -52t212.5 -149t135 -235t47.5 -310t-47.5 -310t-135 -234.5t-212.5 -148.5t-281 -52t-281 52t-213 148.5t-135 234.5t-47 310t47 310t135 235t213 149t281 52zM757 1270q-103 0 -185.5 -38.5t-140.5 -109.5t-89.5 -173t-31.5 -228t31.5 -227.5
t89.5 -172.5t140.5 -109.5t185.5 -38.5t185.5 38.5t140.5 109.5t89 172.5t31 227.5t-31 228t-89 173t-140.5 109.5t-185.5 38.5zM890 1537q-33 0 -59 11t-48 27t-40 35t-35.5 35t-34.5 27t-36 11q-33 0 -50.5 -34.5t-18.5 -95.5h-129q0 122 51.5 189.5t139.5 67.5
q35 0 62.5 -11t49.5 -27t40.5 -35t35.5 -35t33.5 -27t34.5 -11q32 0 47.5 34t15.5 98h130q0 -60 -14 -107.5t-39 -81.5t-59.5 -52t-76.5 -18z" />
    <glyph glyph-name="Odieresis" unicode="&#xd6;" horiz-adv-x="1513" 
d="M556 1576q-25 0 -47 9.5t-38.5 25.5t-26 38t-9.5 46q0 25 9.5 46.5t26 37.5t38.5 25.5t47 9.5t47 -9.5t38 -25.5t25.5 -37.5t9.5 -46.5q0 -24 -9.5 -46t-25.5 -38t-38 -25.5t-47 -9.5zM959 1576q-25 0 -47 9.5t-38.5 25.5t-26 38t-9.5 46q0 25 9.5 46.5t26 37.5
t38.5 25.5t47 9.5t47 -9.5t38 -25.5t25.5 -37.5t9.5 -46.5q0 -24 -9.5 -46t-25.5 -38t-38 -25.5t-47 -9.5zM757 1467q156 0 281 -52t212.5 -149t135 -235t47.5 -310t-47.5 -310t-135 -234.5t-212.5 -148.5t-281 -52t-281 52t-213 148.5t-135 234.5t-47 310t47 310t135 235
t213 149t281 52zM757 1270q-103 0 -185.5 -38.5t-140.5 -109.5t-89.5 -173t-31.5 -228t31.5 -227.5t89.5 -172.5t140.5 -109.5t185.5 -38.5t185.5 38.5t140.5 109.5t89 172.5t31 227.5t-31 228t-89 173t-140.5 109.5t-185.5 38.5z" />
    <glyph glyph-name="multiply" unicode="&#xd7;" horiz-adv-x="1271" 
d="M329 145l-130 130l306 306l-306 307l130 130l307 -306l306 306l129 -130l-305 -307l305 -306l-129 -130l-306 306z" />
    <glyph glyph-name="Oslash" unicode="&#xd8;" horiz-adv-x="1513" 
d="M509 248q104 -75 248 -75q103 0 185.5 38.5t140.5 109.5t89 172.5t31 227.5q0 109 -22.5 198.5t-66.5 158.5zM1034 1173q-55 48 -124.5 72.5t-152.5 24.5q-103 0 -185.5 -38.5t-140.5 -109.5t-89.5 -173t-31.5 -228q0 -121 28 -218t82 -168zM1251 1266q88 -97 135 -234.5
t47 -310.5q0 -172 -47.5 -310t-135 -234.5t-212.5 -148.5t-281 -52q-109 0 -202.5 25.5t-171.5 73.5l-94 -129l-101 73l98 134q-99 97 -152 240.5t-53 327.5q0 172 47 310t135 235t213 149t281 52q120 0 221.5 -30.5t182.5 -89.5l108 147l101 -65z" />
    <glyph glyph-name="Ugrave" unicode="&#xd9;" horiz-adv-x="1434" 
d="M350 1856h225l231 -303h-176zM357 526q0 -77 24 -141.5t70 -111t113 -72.5t153 -26t153.5 26t113.5 72.5t70 111t24 141.5v917h223v-936q0 -117 -40.5 -214.5t-116 -168t-183.5 -109.5t-244 -39t-244 39t-183.5 109.5t-116 168t-40.5 214.5v936h224v-917z" />
    <glyph glyph-name="Uacute" unicode="&#xda;" horiz-adv-x="1434" 
d="M629 1551l231 303h225l-280 -303h-176zM357 526q0 -77 24 -141.5t70 -111t113 -72.5t153 -26t153.5 26t113.5 72.5t70 111t24 141.5v917h223v-936q0 -117 -40.5 -214.5t-116 -168t-183.5 -109.5t-244 -39t-244 39t-183.5 109.5t-116 168t-40.5 214.5v936h224v-917z" />
    <glyph glyph-name="Ucircumflex" unicode="&#xdb;" horiz-adv-x="1434" 
d="M803 1853l286 -306h-188l-182 200h-4l-182 -200h-188l286 306h172zM357 526q0 -77 24 -141.5t70 -111t113 -72.5t153 -26t153.5 26t113.5 72.5t70 111t24 141.5v917h223v-936q0 -117 -40.5 -214.5t-116 -168t-183.5 -109.5t-244 -39t-244 39t-183.5 109.5t-116 168
t-40.5 214.5v936h224v-917z" />
    <glyph glyph-name="Udieresis" unicode="&#xdc;" horiz-adv-x="1434" 
d="M516 1576q-25 0 -47 9.5t-38.5 25.5t-26 38t-9.5 46q0 25 9.5 46.5t26 37.5t38.5 25.5t47 9.5t47 -9.5t38 -25.5t25.5 -37.5t9.5 -46.5q0 -24 -9.5 -46t-25.5 -38t-38 -25.5t-47 -9.5zM919 1576q-25 0 -47 9.5t-38.5 25.5t-26 38t-9.5 46q0 25 9.5 46.5t26 37.5
t38.5 25.5t47 9.5t47 -9.5t38 -25.5t25.5 -37.5t9.5 -46.5q0 -24 -9.5 -46t-25.5 -38t-38 -25.5t-47 -9.5zM357 526q0 -77 24 -141.5t70 -111t113 -72.5t153 -26t153.5 26t113.5 72.5t70 111t24 141.5v917h223v-936q0 -117 -40.5 -214.5t-116 -168t-183.5 -109.5t-244 -39
t-244 39t-183.5 109.5t-116 168t-40.5 214.5v936h224v-917z" />
    <glyph glyph-name="Yacute" unicode="&#xdd;" horiz-adv-x="1293" 
d="M534 0v591l-508 852h250l368 -637h7l368 637h248l-509 -852v-591h-224zM558 1551l231 303h225l-280 -303h-176z" />
    <glyph glyph-name="Thorn" unicode="&#xde;" horiz-adv-x="1267" 
d="M381 1443v-255h350q89 0 169 -29t140.5 -84t96 -135t35.5 -182t-36 -182.5t-97.5 -136t-142.5 -84.5t-172 -29h-343v-326h-224v1443h224zM381 514h287q60 0 110.5 15t87 45.5t57 76.5t20.5 107t-20.5 106t-57 75t-87 45t-110.5 15h-287v-485z" />
    <glyph glyph-name="germandbls" unicode="&#xdf;" horiz-adv-x="1282" 
d="M170 0v1094q0 90 31.5 163.5t90 125.5t141.5 80t185 28q98 0 179.5 -27.5t140 -77.5t91 -119t32.5 -152q0 -63 -16 -118t-45 -99t-70.5 -75.5t-93.5 -46.5v-7q79 -10 141 -40t105.5 -77.5t66.5 -111.5t23 -140q0 -94 -33 -170.5t-94 -130.5t-147 -83.5t-192 -29.5
q-46 0 -85.5 3t-71.5 11v181q26 -8 60.5 -11.5t70.5 -3.5q63 0 114 17t87 48.5t55.5 76t19.5 100.5q0 59 -21.5 105t-62 78t-99.5 49t-133 17h-65v195h50q107 0 167 63.5t60 176.5q0 48 -16.5 88t-47 68.5t-73 44.5t-93.5 16q-114 0 -176 -64.5t-62 -182.5v-1062h-214z" />
    <glyph glyph-name="agrave" unicode="&#xe0;" horiz-adv-x="1092" 
d="M488 162q60 0 112 18.5t90 51t59.5 77.5t21.5 99v85l-264 -18q-112 -7 -168.5 -47.5t-56.5 -112.5q0 -70 56 -111.5t150 -41.5zM430 -11q-81 0 -148.5 23t-116 65t-75.5 101.5t-27 132.5q0 143 106.5 223.5t308.5 93.5l293 17v84q0 94 -59.5 143t-168.5 49q-44 0 -82 -11
t-67 -31.5t-48 -49t-26 -63.5h-203q2 72 35.5 133t91 106t135.5 70t170 25q99 0 179.5 -25t137.5 -71.5t88 -112t31 -146.5v-745h-207v181h-5q-23 -44 -58.5 -79.5t-80 -60.5t-97 -38.5t-107.5 -13.5zM452 1255l-262 303h225l215 -303h-178z" />
    <glyph glyph-name="aacute" unicode="&#xe1;" horiz-adv-x="1092" 
d="M488 162q60 0 112 18.5t90 51t59.5 77.5t21.5 99v85l-264 -18q-112 -7 -168.5 -47.5t-56.5 -112.5q0 -70 56 -111.5t150 -41.5zM430 -11q-81 0 -148.5 23t-116 65t-75.5 101.5t-27 132.5q0 143 106.5 223.5t308.5 93.5l293 17v84q0 94 -59.5 143t-168.5 49q-44 0 -82 -11
t-67 -31.5t-48 -49t-26 -63.5h-203q2 72 35.5 133t91 106t135.5 70t170 25q99 0 179.5 -25t137.5 -71.5t88 -112t31 -146.5v-745h-207v181h-5q-23 -44 -58.5 -79.5t-80 -60.5t-97 -38.5t-107.5 -13.5zM454 1255l215 303h225l-262 -303h-178z" />
    <glyph glyph-name="acircumflex" unicode="&#xe2;" horiz-adv-x="1092" 
d="M488 162q60 0 112 18.5t90 51t59.5 77.5t21.5 99v85l-264 -18q-112 -7 -168.5 -47.5t-56.5 -112.5q0 -70 56 -111.5t150 -41.5zM430 -11q-81 0 -148.5 23t-116 65t-75.5 101.5t-27 132.5q0 143 106.5 223.5t308.5 93.5l293 17v84q0 94 -59.5 143t-168.5 49q-44 0 -82 -11
t-67 -31.5t-48 -49t-26 -63.5h-203q2 72 35.5 133t91 106t135.5 70t170 25q99 0 179.5 -25t137.5 -71.5t88 -112t31 -146.5v-745h-207v181h-5q-23 -44 -58.5 -79.5t-80 -60.5t-97 -38.5t-107.5 -13.5zM897 1251h-185l-164 194h-6l-164 -194h-185l273 307h158z" />
    <glyph glyph-name="atilde" unicode="&#xe3;" horiz-adv-x="1092" 
d="M488 162q60 0 112 18.5t90 51t59.5 77.5t21.5 99v85l-264 -18q-112 -7 -168.5 -47.5t-56.5 -112.5q0 -70 56 -111.5t150 -41.5zM430 -11q-81 0 -148.5 23t-116 65t-75.5 101.5t-27 132.5q0 143 106.5 223.5t308.5 93.5l293 17v84q0 94 -59.5 143t-168.5 49q-44 0 -82 -11
t-67 -31.5t-48 -49t-26 -63.5h-203q2 72 35.5 133t91 106t135.5 70t170 25q99 0 179.5 -25t137.5 -71.5t88 -112t31 -146.5v-745h-207v181h-5q-23 -44 -58.5 -79.5t-80 -60.5t-97 -38.5t-107.5 -13.5zM681 1258q-33 0 -59 11t-48 27t-40 35t-35.5 35t-34.5 27t-36 11
q-33 0 -50.5 -34.5t-18.5 -95.5h-129q0 122 51.5 189.5t139.5 67.5q35 0 62.5 -11t49.5 -27t40.5 -35t35.5 -35t33.5 -27t34.5 -11q32 0 47.5 34t15.5 98h130q0 -60 -14 -107.5t-39 -81.5t-59.5 -52t-76.5 -18z" />
    <glyph glyph-name="adieresis" unicode="&#xe4;" horiz-adv-x="1092" 
d="M488 162q60 0 112 18.5t90 51t59.5 77.5t21.5 99v85l-264 -18q-112 -7 -168.5 -47.5t-56.5 -112.5q0 -70 56 -111.5t150 -41.5zM430 -11q-81 0 -148.5 23t-116 65t-75.5 101.5t-27 132.5q0 143 106.5 223.5t308.5 93.5l293 17v84q0 94 -59.5 143t-168.5 49q-44 0 -82 -11
t-67 -31.5t-48 -49t-26 -63.5h-203q2 72 35.5 133t91 106t135.5 70t170 25q99 0 179.5 -25t137.5 -71.5t88 -112t31 -146.5v-745h-207v181h-5q-23 -44 -58.5 -79.5t-80 -60.5t-97 -38.5t-107.5 -13.5zM344 1260q-25 0 -47 9.5t-38.5 25.5t-26 38t-9.5 46q0 25 9.5 46.5
t26 37.5t38.5 25.5t47 9.5t47 -9.5t38 -25.5t25.5 -37.5t9.5 -46.5q0 -24 -9.5 -46t-25.5 -38t-38 -25.5t-47 -9.5zM747 1260q-25 0 -47 9.5t-38.5 25.5t-26 38t-9.5 46q0 25 9.5 46.5t26 37.5t38.5 25.5t47 9.5t47 -9.5t38 -25.5t25.5 -37.5t9.5 -46.5q0 -24 -9.5 -46
t-25.5 -38t-38 -25.5t-47 -9.5z" />
    <glyph glyph-name="aring" unicode="&#xe5;" horiz-adv-x="1092" 
d="M488 162q60 0 112 18.5t90 51t59.5 77.5t21.5 99v85l-264 -18q-112 -7 -168.5 -47.5t-56.5 -112.5q0 -70 56 -111.5t150 -41.5zM430 -11q-81 0 -148.5 23t-116 65t-75.5 101.5t-27 132.5q0 143 106.5 223.5t308.5 93.5l293 17v84q0 94 -59.5 143t-168.5 49q-44 0 -82 -11
t-67 -31.5t-48 -49t-26 -63.5h-203q2 72 35.5 133t91 106t135.5 70t170 25q99 0 179.5 -25t137.5 -71.5t88 -112t31 -146.5v-745h-207v181h-5q-23 -44 -58.5 -79.5t-80 -60.5t-97 -38.5t-107.5 -13.5zM545 1193q-42 0 -80 16.5t-66 44t-44.5 65t-16.5 79.5t16.5 79.5
t44.5 65.5t66 44.5t80 16.5t80 -16.5t66 -44.5t44.5 -65.5t16.5 -79.5t-16.5 -79.5t-44.5 -65t-66 -44t-80 -16.5zM545 1288q23 0 43 8.5t35 23.5t24 35t9 43t-9 43t-24 35t-35 24t-43 9t-43 -9t-35 -24t-24 -35t-9 -43t9 -43t24 -35t35 -23.5t43 -8.5z" />
    <glyph glyph-name="ae" unicode="&#xe6;" horiz-adv-x="1796" 
d="M1269 -13q-135 0 -237 56.5t-156 160.5h-9q-64 -106 -166 -160.5t-240 -54.5q-91 0 -164.5 22.5t-125.5 64.5t-80 100.5t-28 130.5q0 144 106.5 225.5t307.5 92.5l293 15v74q0 46 -17 84t-48 65.5t-73.5 42.5t-94.5 15q-97 0 -156.5 -41.5t-66.5 -113.5h-206
q4 73 36.5 134.5t88 105.5t131 69t167.5 25q67 0 125 -13.5t105.5 -39t82.5 -62t56 -82.5h8q56 96 148 146.5t214 50.5q106 0 192 -37.5t146.5 -107.5t93 -169t32.5 -222v-75h-755v-14q0 -71 21 -128.5t59.5 -98.5t92.5 -63t121 -22q92 0 155.5 41t86.5 114h207
q-12 -74 -50.5 -135t-98 -104.5t-137 -67.5t-167.5 -24zM1258 923q-59 0 -108 -20t-85 -57t-58.5 -89t-26.5 -115h536q-2 65 -20.5 117t-52 88.5t-80.5 56t-105 19.5zM480 162q61 0 114 19t92 52t61.5 78t22.5 97v80l-266 -15q-108 -6 -165 -46.5t-57 -111.5q0 -35 14 -63
t40 -48t62.5 -31t81.5 -11z" />
    <glyph glyph-name="ccedilla" unicode="&#xe7;" horiz-adv-x="1089" 
d="M1041 365q-9 -78 -41 -142.5t-83.5 -113t-121.5 -79t-154 -39.5l-47 -123q98 0 149 -39.5t51 -114.5q0 -40 -16.5 -73t-46 -56.5t-71 -37t-92.5 -13.5q-42 -1 -77.5 3t-67.5 14v105q16 -6 51 -10t67 -4q115 0 115 66q0 34 -32.5 48.5t-108.5 14.5h-55v83l55 136
q-103 9 -186.5 51.5t-143 113.5t-91.5 169t-32 219q0 127 36.5 229.5t103 175.5t160.5 112.5t209 39.5q104 0 187.5 -31t143.5 -83.5t95 -122.5t42 -148h-207q-8 43 -28 80t-53 64t-77.5 42.5t-100.5 15.5q-66 0 -119.5 -26.5t-91.5 -75t-59 -118t-21 -154.5
q0 -88 21 -157.5t59.5 -117.5t92.5 -73.5t119 -25.5q106 0 173 50t87 146h207z" />
    <glyph glyph-name="egrave" unicode="&#xe8;" horiz-adv-x="1113" 
d="M471 1255l-262 303h225l215 -303h-178zM563 923q-59 0 -108.5 -20.5t-86 -57.5t-59.5 -88.5t-27 -114.5h551q-2 63 -22 115t-55.5 89t-84.5 57t-108 20zM1039 318q-12 -73 -52 -134t-101.5 -104.5t-141.5 -68t-171 -24.5q-118 0 -212.5 38.5t-161 110t-102 173.5
t-35.5 230q0 127 35.5 231t101.5 177t158.5 113t206.5 40q112 0 202 -37.5t153 -107t97 -169t34 -222.5v-76h-769v-13q0 -71 21 -128.5t60 -98t93.5 -63t121.5 -22.5q47 0 88.5 11t75 31t57 48.5t34.5 64.5h207z" />
    <glyph glyph-name="eacute" unicode="&#xe9;" horiz-adv-x="1113" 
d="M473 1255l215 303h225l-262 -303h-178zM563 923q-59 0 -108.5 -20.5t-86 -57.5t-59.5 -88.5t-27 -114.5h551q-2 63 -22 115t-55.5 89t-84.5 57t-108 20zM1039 318q-12 -73 -52 -134t-101.5 -104.5t-141.5 -68t-171 -24.5q-118 0 -212.5 38.5t-161 110t-102 173.5
t-35.5 230q0 127 35.5 231t101.5 177t158.5 113t206.5 40q112 0 202 -37.5t153 -107t97 -169t34 -222.5v-76h-769v-13q0 -71 21 -128.5t60 -98t93.5 -63t121.5 -22.5q47 0 88.5 11t75 31t57 48.5t34.5 64.5h207z" />
    <glyph glyph-name="ecircumflex" unicode="&#xea;" horiz-adv-x="1113" 
d="M916 1251h-185l-164 194h-6l-164 -194h-185l273 307h158zM563 923q-59 0 -108.5 -20.5t-86 -57.5t-59.5 -88.5t-27 -114.5h551q-2 63 -22 115t-55.5 89t-84.5 57t-108 20zM1039 318q-12 -73 -52 -134t-101.5 -104.5t-141.5 -68t-171 -24.5q-118 0 -212.5 38.5t-161 110
t-102 173.5t-35.5 230q0 127 35.5 231t101.5 177t158.5 113t206.5 40q112 0 202 -37.5t153 -107t97 -169t34 -222.5v-76h-769v-13q0 -71 21 -128.5t60 -98t93.5 -63t121.5 -22.5q47 0 88.5 11t75 31t57 48.5t34.5 64.5h207z" />
    <glyph glyph-name="edieresis" unicode="&#xeb;" horiz-adv-x="1113" 
d="M563 923q-59 0 -108.5 -20.5t-86 -57.5t-59.5 -88.5t-27 -114.5h551q-2 63 -22 115t-55.5 89t-84.5 57t-108 20zM1039 318q-12 -73 -52 -134t-101.5 -104.5t-141.5 -68t-171 -24.5q-118 0 -212.5 38.5t-161 110t-102 173.5t-35.5 230q0 127 35.5 231t101.5 177t158.5 113
t206.5 40q112 0 202 -37.5t153 -107t97 -169t34 -222.5v-76h-769v-13q0 -71 21 -128.5t60 -98t93.5 -63t121.5 -22.5q47 0 88.5 11t75 31t57 48.5t34.5 64.5h207zM363 1260q-25 0 -47 9.5t-38.5 25.5t-26 38t-9.5 46q0 25 9.5 46.5t26 37.5t38.5 25.5t47 9.5t47 -9.5
t38 -25.5t25.5 -37.5t9.5 -46.5q0 -24 -9.5 -46t-25.5 -38t-38 -25.5t-47 -9.5zM766 1260q-25 0 -47 9.5t-38.5 25.5t-26 38t-9.5 46q0 25 9.5 46.5t26 37.5t38.5 25.5t47 9.5t47 -9.5t38 -25.5t25.5 -37.5t9.5 -46.5q0 -24 -9.5 -46t-25.5 -38t-38 -25.5t-47 -9.5z" />
    <glyph glyph-name="igrave" unicode="&#xec;" horiz-adv-x="455" 
d="M135 1255l-262 303h225l215 -303h-178zM119 1086h217v-1086h-217v1086z" />
    <glyph glyph-name="iacute" unicode="&#xed;" horiz-adv-x="455" 
d="M137 1255l215 303h225l-262 -303h-178zM119 1086h217v-1086h-217v1086z" />
    <glyph glyph-name="icircumflex" unicode="&#xee;" horiz-adv-x="455" 
d="M580 1251h-185l-164 194h-6l-164 -194h-185l273 307h158zM119 1086h217v-1086h-217v1086z" />
    <glyph glyph-name="idieresis" unicode="&#xef;" horiz-adv-x="455" 
d="M119 1086h217v-1086h-217v1086zM27 1260q-25 0 -47 9.5t-38.5 25.5t-26 38t-9.5 46q0 25 9.5 46.5t26 37.5t38.5 25.5t47 9.5t47 -9.5t38 -25.5t25.5 -37.5t9.5 -46.5q0 -24 -9.5 -46t-25.5 -38t-38 -25.5t-47 -9.5zM430 1260q-25 0 -47 9.5t-38.5 25.5t-26 38t-9.5 46
q0 25 9.5 46.5t26 37.5t38.5 25.5t47 9.5t47 -9.5t38 -25.5t25.5 -37.5t9.5 -46.5q0 -24 -9.5 -46t-25.5 -38t-38 -25.5t-47 -9.5z" />
    <glyph glyph-name="eth" unicode="&#xf0;" horiz-adv-x="1181" 
d="M593 -18q-117 0 -211.5 38t-161 108.5t-102.5 171t-36 225.5q0 121 34 219t95.5 167.5t148.5 107t192 37.5q45 0 89 -11.5t83 -32.5t70 -49.5t49 -61.5h15q-11 41 -30 85t-42.5 87.5t-51 83.5t-54.5 72l-280 -92l-42 123l229 75q-38 40 -88.5 84t-125.5 104h262
q34 -28 68.5 -60t67.5 -68l255 84l43 -122l-203 -65q117 -154 174.5 -329t57.5 -381q0 -139 -35.5 -250t-101.5 -189t-159.5 -119.5t-208.5 -41.5zM595 883q-67 0 -120.5 -25.5t-91.5 -72.5t-58.5 -113t-20.5 -148t20.5 -148.5t58.5 -113t91.5 -71.5t120.5 -25t121 25
t92.5 71.5t59 113t20.5 148.5q0 81 -21 147.5t-59 113.5t-92.5 72.5t-120.5 25.5z" />
    <glyph glyph-name="ntilde" unicode="&#xf1;" horiz-adv-x="1168" 
d="M722 1258q-33 0 -59 11t-48 27t-40 35t-35.5 35t-34.5 27t-36 11q-33 0 -50.5 -34.5t-18.5 -95.5h-129q0 122 51.5 189.5t139.5 67.5q35 0 62.5 -11t49.5 -27t40.5 -35t35.5 -35t33.5 -27t34.5 -11q32 0 47.5 34t15.5 98h130q0 -60 -14 -107.5t-39 -81.5t-59.5 -52
t-76.5 -18zM111 1086h207v-183h4q50 97 138 146t215 49q90 0 161.5 -27.5t122 -79.5t77 -126.5t26.5 -168.5v-696h-217v655q0 125 -62.5 191t-182.5 66q-62 0 -112 -20.5t-85.5 -58t-55 -90t-19.5 -116.5v-627h-217v1086z" />
    <glyph glyph-name="ograve" unicode="&#xf2;" horiz-adv-x="1152" 
d="M483 1255l-262 303h225l215 -303h-178zM576 -13q-118 0 -213 39t-162 111t-103 175t-36 231t36.5 231t103.5 175.5t162 111.5t212 39t212 -39t162 -111.5t103 -175.5t36 -231t-36 -231t-103 -175t-161.5 -111t-212.5 -39zM576 167q69 0 123.5 25.5t92 73.5t57.5 118
t20 159t-20 159t-57.5 118.5t-92 74t-123.5 25.5t-123.5 -25.5t-92.5 -74.5t-58 -119t-20 -158q0 -89 20 -159t58 -118t92.5 -73.5t123.5 -25.5z" />
    <glyph glyph-name="oacute" unicode="&#xf3;" horiz-adv-x="1152" 
d="M485 1255l215 303h225l-262 -303h-178zM576 -13q-118 0 -213 39t-162 111t-103 175t-36 231t36.5 231t103.5 175.5t162 111.5t212 39t212 -39t162 -111.5t103 -175.5t36 -231t-36 -231t-103 -175t-161.5 -111t-212.5 -39zM576 167q69 0 123.5 25.5t92 73.5t57.5 118
t20 159t-20 159t-57.5 118.5t-92 74t-123.5 25.5t-123.5 -25.5t-92.5 -74.5t-58 -119t-20 -158q0 -89 20 -159t58 -118t92.5 -73.5t123.5 -25.5z" />
    <glyph glyph-name="ocircumflex" unicode="&#xf4;" horiz-adv-x="1152" 
d="M928 1251h-185l-164 194h-6l-164 -194h-185l273 307h158zM576 -13q-118 0 -213 39t-162 111t-103 175t-36 231t36.5 231t103.5 175.5t162 111.5t212 39t212 -39t162 -111.5t103 -175.5t36 -231t-36 -231t-103 -175t-161.5 -111t-212.5 -39zM576 167q69 0 123.5 25.5
t92 73.5t57.5 118t20 159t-20 159t-57.5 118.5t-92 74t-123.5 25.5t-123.5 -25.5t-92.5 -74.5t-58 -119t-20 -158q0 -89 20 -159t58 -118t92.5 -73.5t123.5 -25.5z" />
    <glyph glyph-name="otilde" unicode="&#xf5;" horiz-adv-x="1152" 
d="M712 1258q-33 0 -59 11t-48 27t-40 35t-35.5 35t-34.5 27t-36 11q-33 0 -50.5 -34.5t-18.5 -95.5h-129q0 122 51.5 189.5t139.5 67.5q35 0 62.5 -11t49.5 -27t40.5 -35t35.5 -35t33.5 -27t34.5 -11q32 0 47.5 34t15.5 98h130q0 -60 -14 -107.5t-39 -81.5t-59.5 -52
t-76.5 -18zM576 -13q-118 0 -213 39t-162 111t-103 175t-36 231t36.5 231t103.5 175.5t162 111.5t212 39t212 -39t162 -111.5t103 -175.5t36 -231t-36 -231t-103 -175t-161.5 -111t-212.5 -39zM576 167q69 0 123.5 25.5t92 73.5t57.5 118t20 159t-20 159t-57.5 118.5t-92 74
t-123.5 25.5t-123.5 -25.5t-92.5 -74.5t-58 -119t-20 -158q0 -89 20 -159t58 -118t92.5 -73.5t123.5 -25.5z" />
    <glyph glyph-name="odieresis" unicode="&#xf6;" horiz-adv-x="1152" 
d="M375 1260q-25 0 -47 9.5t-38.5 25.5t-26 38t-9.5 46q0 25 9.5 46.5t26 37.5t38.5 25.5t47 9.5t47 -9.5t38 -25.5t25.5 -37.5t9.5 -46.5q0 -24 -9.5 -46t-25.5 -38t-38 -25.5t-47 -9.5zM778 1260q-25 0 -47 9.5t-38.5 25.5t-26 38t-9.5 46q0 25 9.5 46.5t26 37.5
t38.5 25.5t47 9.5t47 -9.5t38 -25.5t25.5 -37.5t9.5 -46.5q0 -24 -9.5 -46t-25.5 -38t-38 -25.5t-47 -9.5zM576 -13q-118 0 -213 39t-162 111t-103 175t-36 231t36.5 231t103.5 175.5t162 111.5t212 39t212 -39t162 -111.5t103 -175.5t36 -231t-36 -231t-103 -175
t-161.5 -111t-212.5 -39zM576 167q69 0 123.5 25.5t92 73.5t57.5 118t20 159t-20 159t-57.5 118.5t-92 74t-123.5 25.5t-123.5 -25.5t-92.5 -74.5t-58 -119t-20 -158q0 -89 20 -159t58 -118t92.5 -73.5t123.5 -25.5z" />
    <glyph glyph-name="divide" unicode="&#xf7;" horiz-adv-x="1270" 
d="M636 805q-31 0 -56.5 10t-44 28t-29 43.5t-10.5 55.5t10.5 55t29 43.5t44 28.5t56.5 10q30 0 56 -10t44.5 -28.5t29 -43.5t10.5 -55t-10.5 -55.5t-29 -43.5t-44.5 -28t-56 -10zM636 68q-31 0 -56.5 10t-44 28t-29 43.5t-10.5 55.5t10.5 55t29 43.5t44 28.5t56.5 10
q30 0 56 -10t44.5 -28.5t29 -43.5t10.5 -55t-10.5 -55.5t-29 -43.5t-44.5 -28t-56 -10zM116 487v173h1039v-173h-1039z" />
    <glyph glyph-name="oslash" unicode="&#xf8;" horiz-adv-x="1152" 
d="M430 204q63 -37 146 -37q69 0 123.5 25.5t92 73.5t57.5 118t20 159q0 149 -55 244zM730 878q-32 20 -70.5 31t-83.5 11q-69 0 -123.5 -25.5t-92.5 -74.5t-58 -119t-20 -158q0 -78 15 -140.5t44 -109.5zM933 967q75 -72 115.5 -179.5t40.5 -244.5q0 -128 -36 -231
t-103 -175t-161.5 -111t-212.5 -39q-72 0 -135 14.5t-117 42.5l-61 -93l-104 67l64 97q-78 72 -119.5 180t-41.5 248q0 128 36.5 231t103.5 175.5t162 111.5t212 39q150 0 260 -62l65 98l102 -62z" />
    <glyph glyph-name="ugrave" unicode="&#xf9;" horiz-adv-x="1168" 
d="M489 1255l-262 303h225l215 -303h-178zM1057 0h-207v186h-4q-48 -97 -137 -147.5t-214 -50.5q-89 0 -161 28t-122.5 80t-78 126.5t-27.5 167.5v696h217v-655q0 -126 64 -191t182 -65q61 0 111 20.5t85.5 57.5t55 89.5t19.5 117.5v626h217v-1086z" />
    <glyph glyph-name="uacute" unicode="&#xfa;" horiz-adv-x="1168" 
d="M491 1255l215 303h225l-262 -303h-178zM1057 0h-207v186h-4q-48 -97 -137 -147.5t-214 -50.5q-89 0 -161 28t-122.5 80t-78 126.5t-27.5 167.5v696h217v-655q0 -126 64 -191t182 -65q61 0 111 20.5t85.5 57.5t55 89.5t19.5 117.5v626h217v-1086z" />
    <glyph glyph-name="ucircumflex" unicode="&#xfb;" horiz-adv-x="1168" 
d="M934 1251h-185l-164 194h-6l-164 -194h-185l273 307h158zM1057 0h-207v186h-4q-48 -97 -137 -147.5t-214 -50.5q-89 0 -161 28t-122.5 80t-78 126.5t-27.5 167.5v696h217v-655q0 -126 64 -191t182 -65q61 0 111 20.5t85.5 57.5t55 89.5t19.5 117.5v626h217v-1086z" />
    <glyph glyph-name="udieresis" unicode="&#xfc;" horiz-adv-x="1168" 
d="M1057 0h-207v186h-4q-48 -97 -137 -147.5t-214 -50.5q-89 0 -161 28t-122.5 80t-78 126.5t-27.5 167.5v696h217v-655q0 -126 64 -191t182 -65q61 0 111 20.5t85.5 57.5t55 89.5t19.5 117.5v626h217v-1086zM381 1260q-25 0 -47 9.5t-38.5 25.5t-26 38t-9.5 46
q0 25 9.5 46.5t26 37.5t38.5 25.5t47 9.5t47 -9.5t38 -25.5t25.5 -37.5t9.5 -46.5q0 -24 -9.5 -46t-25.5 -38t-38 -25.5t-47 -9.5zM784 1260q-25 0 -47 9.5t-38.5 25.5t-26 38t-9.5 46q0 25 9.5 46.5t26 37.5t38.5 25.5t47 9.5t47 -9.5t38 -25.5t25.5 -37.5t9.5 -46.5
q0 -24 -9.5 -46t-25.5 -38t-38 -25.5t-47 -9.5z" />
    <glyph glyph-name="yacute" unicode="&#xfd;" horiz-adv-x="1066" 
d="M220 -395q-7 0 -19 0.5t-25.5 1.5t-25.5 2t-18 2v176q12 -3 33.5 -4t35.5 -1q77 0 123 36.5t74 122.5l17 56l-394 1089h233l279 -888h5l279 888h228l-407 -1136q-35 -98 -73.5 -164t-87 -106.5t-111.5 -57.5t-146 -17zM443 1255l215 303h225l-262 -303h-178z" />
    <glyph glyph-name="thorn" unicode="&#xfe;" horiz-adv-x="1201" 
d="M686 1105q104 0 187.5 -39.5t142 -112.5t90 -177t31.5 -233t-31.5 -232.5t-90 -176.5t-142 -112.5t-186.5 -39.5q-117 0 -205.5 47.5t-130.5 134.5h-16v-519h-215v1861h209v-600h16q50 94 139.5 146.5t201.5 52.5zM624 166q69 0 123 25.5t91.5 74.5t57.5 118.5t20 158.5
q0 88 -20 158.5t-57.5 119t-91.5 74.5t-122 26t-122.5 -26.5t-92.5 -75.5t-58.5 -119t-20.5 -157t20.5 -157t58.5 -118.5t92 -75t122 -26.5z" />
    <glyph glyph-name="ydieresis" unicode="&#xff;" horiz-adv-x="1066" 
d="M220 -395q-7 0 -19 0.5t-25.5 1.5t-25.5 2t-18 2v176q12 -3 33.5 -4t35.5 -1q77 0 123 36.5t74 122.5l17 56l-394 1089h233l279 -888h5l279 888h228l-407 -1136q-35 -98 -73.5 -164t-87 -106.5t-111.5 -57.5t-146 -17zM333 1260q-25 0 -47 9.5t-38.5 25.5t-26 38t-9.5 46
q0 25 9.5 46.5t26 37.5t38.5 25.5t47 9.5t47 -9.5t38 -25.5t25.5 -37.5t9.5 -46.5q0 -24 -9.5 -46t-25.5 -38t-38 -25.5t-47 -9.5zM736 1260q-25 0 -47 9.5t-38.5 25.5t-26 38t-9.5 46q0 25 9.5 46.5t26 37.5t38.5 25.5t47 9.5t47 -9.5t38 -25.5t25.5 -37.5t9.5 -46.5
q0 -24 -9.5 -46t-25.5 -38t-38 -25.5t-47 -9.5z" />
    <glyph glyph-name="Amacron" unicode="&#x100;" horiz-adv-x="1336" 
d="M941 390h-550l-132 -390h-233l521 1443h242l521 -1443h-237zM448 570h436l-215 633h-6zM995 1636h-654v119h654v-119z" />
    <glyph glyph-name="amacron" unicode="&#x101;" horiz-adv-x="1092" 
d="M488 162q60 0 112 18.5t90 51t59.5 77.5t21.5 99v85l-264 -18q-112 -7 -168.5 -47.5t-56.5 -112.5q0 -70 56 -111.5t150 -41.5zM430 -11q-81 0 -148.5 23t-116 65t-75.5 101.5t-27 132.5q0 143 106.5 223.5t308.5 93.5l293 17v84q0 94 -59.5 143t-168.5 49q-44 0 -82 -11
t-67 -31.5t-48 -49t-26 -63.5h-203q2 72 35.5 133t91 106t135.5 70t170 25q99 0 179.5 -25t137.5 -71.5t88 -112t31 -146.5v-745h-207v181h-5q-23 -44 -58.5 -79.5t-80 -60.5t-97 -38.5t-107.5 -13.5zM868 1312h-646v119h646v-119z" />
    <glyph glyph-name="Abreve" unicode="&#x102;" horiz-adv-x="1336" 
d="M941 390h-550l-132 -390h-233l521 1443h242l521 -1443h-237zM448 570h436l-215 633h-6zM483 1853q0 -40 14 -74t38.5 -59.5t58.5 -40t74 -14.5t74 14.5t58.5 40t38.5 59.5t14 74h140q0 -66 -23.5 -122.5t-66 -97t-102.5 -63.5t-133 -23t-133 23t-102.5 63.5t-66 97
t-23.5 122.5h140z" />
    <glyph glyph-name="abreve" unicode="&#x103;" horiz-adv-x="1092" 
d="M488 162q60 0 112 18.5t90 51t59.5 77.5t21.5 99v85l-264 -18q-112 -7 -168.5 -47.5t-56.5 -112.5q0 -70 56 -111.5t150 -41.5zM430 -11q-81 0 -148.5 23t-116 65t-75.5 101.5t-27 132.5q0 143 106.5 223.5t308.5 93.5l293 17v84q0 94 -59.5 143t-168.5 49q-44 0 -82 -11
t-67 -31.5t-48 -49t-26 -63.5h-203q2 72 35.5 133t91 106t135.5 70t170 25q99 0 179.5 -25t137.5 -71.5t88 -112t31 -146.5v-745h-207v181h-5q-23 -44 -58.5 -79.5t-80 -60.5t-97 -38.5t-107.5 -13.5zM352 1557q0 -41 15 -76t40.5 -61t60.5 -41t76 -15t76 15t60.5 41
t40.5 61t15 76h143q0 -69 -24 -126.5t-68 -99t-105.5 -65t-137.5 -23.5t-137.5 23.5t-105.5 65t-68 99t-24 126.5h143z" />
    <glyph glyph-name="Aogonek" unicode="&#x104;" horiz-adv-x="1336" 
d="M1195 -440q-53 0 -97.5 16.5t-76.5 46.5t-49.5 71.5t-17.5 91.5q0 139 140 232h-26l-127 372h-550l-132 -390h-233l521 1443h242l517 -1432h-20q-77 -35 -117 -83.5t-40 -106.5q0 -51 33 -83t86 -32q15 0 28.5 1t24.5 3v-136q-23 -8 -48.5 -11t-57.5 -3zM448 570h436
l-211 622h-14z" />
    <glyph glyph-name="aogonek" unicode="&#x105;" horiz-adv-x="1092" 
d="M885 -440q-53 0 -96.5 16t-75 44.5t-48.5 68.5t-17 89q0 147 156 241h-26v162h-5q-23 -44 -58 -79.5t-79.5 -60.5t-97 -38.5t-108.5 -13.5q-82 0 -149.5 23.5t-116 65.5t-75 101.5t-26.5 131.5q0 143 106 223.5t309 93.5l293 17v84q0 93 -59 142.5t-169 49.5
q-44 0 -81.5 -11t-66.5 -31t-48.5 -48.5t-26.5 -64.5h-203q2 72 35.5 133.5t91 106t135.5 69.5t170 25q99 0 179.5 -25t137.5 -71.5t88 -112t31 -146.5v-729h-10q-76 -35 -116 -85t-40 -110q0 -53 32 -84t85 -31q14 0 26 1t23 3v-136q-42 -14 -100 -14zM488 162
q61 0 113 18.5t89.5 51.5t59 78t21.5 98v85l-264 -18q-112 -7 -168.5 -47.5t-56.5 -112.5q0 -70 55.5 -111.5t150.5 -41.5z" />
    <glyph glyph-name="Cacute" unicode="&#x106;" horiz-adv-x="1424" 
d="M650 1553l231 303h225l-280 -303h-176zM742 -24q-152 0 -274 52t-208 148.5t-132.5 234.5t-46.5 311q0 171 46.5 309t133 235t208.5 149t273 52q123 0 228.5 -36t186 -102t132 -158.5t65.5 -205.5h-222q-15 69 -50.5 125.5t-86.5 96.5t-115.5 62t-137.5 22
q-98 0 -178 -39t-136.5 -110.5t-87 -173t-30.5 -226.5q0 -126 30.5 -228t86.5 -173.5t136.5 -110t179.5 -38.5q75 0 139 19t114 54.5t84.5 87t51.5 116.5h223q-21 -112 -72.5 -200t-130 -148.5t-182.5 -92.5t-228 -32z" />
    <glyph glyph-name="cacute" unicode="&#x107;" horiz-adv-x="1089" 
d="M832 715q-8 43 -28 80t-53 64t-77.5 42.5t-100.5 15.5q-66 0 -119.5 -26.5t-91.5 -75t-59 -118t-21 -154.5q0 -88 21 -157.5t59.5 -117.5t92.5 -73.5t119 -25.5q106 0 173 50t87 146h207q-9 -85 -47 -155t-98.5 -119.5t-142.5 -76.5t-180 -27q-116 0 -210 38.5
t-161 110.5t-103.5 175t-36.5 232q0 127 36.5 229.5t103 175.5t160.5 112.5t209 39.5q104 0 187.5 -31t143.5 -83.5t95 -122.5t42 -148h-207zM475 1255l215 303h225l-262 -303h-178z" />
    <glyph glyph-name="Ccircumflex" unicode="&#x108;" horiz-adv-x="1424" 
d="M742 -24q-152 0 -274 52t-208 148.5t-132.5 234.5t-46.5 311q0 171 46.5 309t133 235t208.5 149t273 52q123 0 228.5 -36t186 -102t132 -158.5t65.5 -205.5h-222q-15 69 -50.5 125.5t-86.5 96.5t-115.5 62t-137.5 22q-98 0 -178 -39t-136.5 -110.5t-87 -173t-30.5 -226.5
q0 -126 30.5 -228t86.5 -173.5t136.5 -110t179.5 -38.5q75 0 139 19t114 54.5t84.5 87t51.5 116.5h223q-21 -112 -72.5 -200t-130 -148.5t-182.5 -92.5t-228 -32zM824 1855l286 -306h-188l-182 200h-4l-182 -200h-188l286 306h172z" />
    <glyph glyph-name="ccircumflex" unicode="&#x109;" horiz-adv-x="1089" 
d="M918 1251h-185l-164 194h-6l-164 -194h-185l273 307h158zM832 715q-8 43 -28 80t-53 64t-77.5 42.5t-100.5 15.5q-66 0 -119.5 -26.5t-91.5 -75t-59 -118t-21 -154.5q0 -88 21 -157.5t59.5 -117.5t92.5 -73.5t119 -25.5q106 0 173 50t87 146h207q-9 -85 -47 -155
t-98.5 -119.5t-142.5 -76.5t-180 -27q-116 0 -210 38.5t-161 110.5t-103.5 175t-36.5 232q0 127 36.5 229.5t103 175.5t160.5 112.5t209 39.5q104 0 187.5 -31t143.5 -83.5t95 -122.5t42 -148h-207z" />
    <glyph glyph-name="Cdotaccent" unicode="&#x10a;" horiz-adv-x="1424" 
d="M738 1578q-27 0 -51 10.5t-42 28t-28 41.5t-10 51t10 51t28 42t42 28t51 10t51 -10t42 -28t28 -42t10 -51t-10 -51t-28 -41.5t-42 -28t-51 -10.5zM742 -24q-152 0 -274 52t-208 148.5t-132.5 234.5t-46.5 311q0 171 46.5 309t133 235t208.5 149t273 52q123 0 228.5 -36
t186 -102t132 -158.5t65.5 -205.5h-222q-15 69 -50.5 125.5t-86.5 96.5t-115.5 62t-137.5 22q-98 0 -178 -39t-136.5 -110.5t-87 -173t-30.5 -226.5q0 -126 30.5 -228t86.5 -173.5t136.5 -110t179.5 -38.5q75 0 139 19t114 54.5t84.5 87t51.5 116.5h223q-21 -112 -72.5 -200
t-130 -148.5t-182.5 -92.5t-228 -32z" />
    <glyph glyph-name="cdotaccent" unicode="&#x10b;" horiz-adv-x="1089" 
d="M832 715q-8 43 -28 80t-53 64t-77.5 42.5t-100.5 15.5q-66 0 -119.5 -26.5t-91.5 -75t-59 -118t-21 -154.5q0 -88 21 -157.5t59.5 -117.5t92.5 -73.5t119 -25.5q106 0 173 50t87 146h207q-9 -85 -47 -155t-98.5 -119.5t-142.5 -76.5t-180 -27q-116 0 -210 38.5
t-161 110.5t-103.5 175t-36.5 232q0 127 36.5 229.5t103 175.5t160.5 112.5t209 39.5q104 0 187.5 -31t143.5 -83.5t95 -122.5t42 -148h-207zM566 1262q-28 0 -52.5 10.5t-42.5 28.5t-28.5 42t-10.5 51t10.5 51.5t28.5 42.5t42.5 28.5t52.5 10.5t52 -10.5t42 -28.5
t28.5 -42.5t10.5 -51.5t-10.5 -51t-28.5 -42t-42 -28.5t-52 -10.5z" />
    <glyph glyph-name="Ccaron" unicode="&#x10c;" horiz-adv-x="1424" 
d="M742 -24q-152 0 -274 52t-208 148.5t-132.5 234.5t-46.5 311q0 171 46.5 309t133 235t208.5 149t273 52q123 0 228.5 -36t186 -102t132 -158.5t65.5 -205.5h-222q-15 69 -50.5 125.5t-86.5 96.5t-115.5 62t-137.5 22q-98 0 -178 -39t-136.5 -110.5t-87 -173t-30.5 -226.5
q0 -126 30.5 -228t86.5 -173.5t136.5 -110t179.5 -38.5q75 0 139 19t114 54.5t84.5 87t51.5 116.5h223q-21 -112 -72.5 -200t-130 -148.5t-182.5 -92.5t-228 -32zM366 1855h188l182 -199h4l182 199h188l-286 -306h-172z" />
    <glyph glyph-name="ccaron" unicode="&#x10d;" horiz-adv-x="1089" 
d="M487 1251l-273 307h185l164 -194h6l164 194h185l-273 -307h-158zM832 715q-8 43 -28 80t-53 64t-77.5 42.5t-100.5 15.5q-66 0 -119.5 -26.5t-91.5 -75t-59 -118t-21 -154.5q0 -88 21 -157.5t59.5 -117.5t92.5 -73.5t119 -25.5q106 0 173 50t87 146h207q-9 -85 -47 -155
t-98.5 -119.5t-142.5 -76.5t-180 -27q-116 0 -210 38.5t-161 110.5t-103.5 175t-36.5 232q0 127 36.5 229.5t103 175.5t160.5 112.5t209 39.5q104 0 187.5 -31t143.5 -83.5t95 -122.5t42 -148h-207z" />
    <glyph glyph-name="Dcaron" unicode="&#x10e;" horiz-adv-x="1413" 
d="M212 1853h188l182 -199h4l182 199h188l-286 -306h-172zM650 1443q161 0 288 -48.5t214.5 -140.5t134 -225.5t46.5 -304.5t-46.5 -305.5t-134 -227.5t-214.5 -142t-288 -49h-517v1443h517zM357 194h272q115 0 203.5 34.5t149 101.5t92 165.5t31.5 226.5q0 127 -31.5 225.5
t-92 166t-149 102t-203.5 34.5h-272v-1056z" />
    <glyph glyph-name="dcaron" unicode="&#x10f;" horiz-adv-x="1358" 
d="M1400 1506l-34 -493h-134v493h168zM520 -11q-102 0 -186.5 39.5t-144.5 112t-93.5 175t-33.5 228.5q0 125 33.5 227t93.5 174.5t144 112t185 39.5q118 0 206.5 -50t135.5 -141h5v602h216v-1508h-210v184h-4q-48 -93 -137.5 -144t-209.5 -51zM575 913q-66 0 -119.5 -26.5
t-91.5 -74.5t-59 -116.5t-21 -152.5t20.5 -152.5t59 -117t92 -74.5t119.5 -26q65 0 118.5 26.5t92 75t59.5 117t21 151.5t-21 151t-59.5 117t-92 75.5t-118.5 26.5z" />
    <glyph glyph-name="Dcroat" unicode="&#x110;" horiz-adv-x="1526" 
d="M698 194q115 0 203.5 34.5t149 101.5t92 165.5t31.5 226.5q0 127 -31.5 225.5t-92 166t-149 102t-203.5 34.5h-272v-418h273v-184h-273v-454h272zM719 1443q161 0 288 -48.5t214.5 -140.5t134 -225.5t46.5 -304.5t-46.5 -305.5t-134 -227.5t-214.5 -142t-288 -49h-517
v648h-114v184h114v611h517z" />
    <glyph glyph-name="dcroat" unicode="&#x111;" horiz-adv-x="1241" 
d="M595 166q68 0 122.5 26t92.5 74.5t58 118.5t20 158q0 87 -20.5 157t-58.5 119t-92 75.5t-122 26.5t-122 -26t-91.5 -74.5t-57.5 -119t-20 -158.5q0 -89 20 -159t57.5 -118.5t91.5 -74t122 -25.5zM1213 1278h-114v-1278h-208v172h-17q-48 -89 -137 -139.5t-204 -50.5
q-104 0 -187 39.5t-142 112.5t-90.5 177t-31.5 233q0 128 32 232t91 177t142.5 112.5t186.5 39.5q115 0 202.5 -51t132.5 -140h16v364h-247v133h247v150h214v-150h114v-133z" />
    <glyph glyph-name="Emacron" unicode="&#x112;" horiz-adv-x="1146" 
d="M1049 0h-916v1443h916v-193h-692v-422h655v-186h-655v-448h692v-194zM918 1636h-654v119h654v-119z" />
    <glyph glyph-name="emacron" unicode="&#x113;" horiz-adv-x="1113" 
d="M563 923q-59 0 -108.5 -20.5t-86 -57.5t-59.5 -88.5t-27 -114.5h551q-2 63 -22 115t-55.5 89t-84.5 57t-108 20zM1039 318q-12 -73 -52 -134t-101.5 -104.5t-141.5 -68t-171 -24.5q-118 0 -212.5 38.5t-161 110t-102 173.5t-35.5 230q0 127 35.5 231t101.5 177t158.5 113
t206.5 40q112 0 202 -37.5t153 -107t97 -169t34 -222.5v-76h-769v-13q0 -71 21 -128.5t60 -98t93.5 -63t121.5 -22.5q47 0 88.5 11t75 31t57 48.5t34.5 64.5h207zM887 1312h-646v119h646v-119z" />
    <glyph glyph-name="Ebreve" unicode="&#x114;" horiz-adv-x="1146" 
d="M1049 0h-916v1443h916v-193h-692v-422h655v-186h-655v-448h692v-194zM406 1853q0 -40 14 -74t38.5 -59.5t58.5 -40t74 -14.5t74 14.5t58.5 40t38.5 59.5t14 74h140q0 -66 -23.5 -122.5t-66 -97t-102.5 -63.5t-133 -23t-133 23t-102.5 63.5t-66 97t-23.5 122.5h140z" />
    <glyph glyph-name="ebreve" unicode="&#x115;" horiz-adv-x="1113" 
d="M563 923q-59 0 -108.5 -20.5t-86 -57.5t-59.5 -88.5t-27 -114.5h551q-2 63 -22 115t-55.5 89t-84.5 57t-108 20zM1039 318q-12 -73 -52 -134t-101.5 -104.5t-141.5 -68t-171 -24.5q-118 0 -212.5 38.5t-161 110t-102 173.5t-35.5 230q0 127 35.5 231t101.5 177t158.5 113
t206.5 40q112 0 202 -37.5t153 -107t97 -169t34 -222.5v-76h-769v-13q0 -71 21 -128.5t60 -98t93.5 -63t121.5 -22.5q47 0 88.5 11t75 31t57 48.5t34.5 64.5h207zM371 1557q0 -41 15 -76t40.5 -61t60.5 -41t76 -15t76 15t60.5 41t40.5 61t15 76h143q0 -69 -24 -126.5
t-68 -99t-105.5 -65t-137.5 -23.5t-137.5 23.5t-105.5 65t-68 99t-24 126.5h143z" />
    <glyph glyph-name="Edotaccent" unicode="&#x116;" horiz-adv-x="1146" 
d="M591 1576q-27 0 -51 10.5t-42 28t-28 41.5t-10 51t10 51t28 42t42 28t51 10t51 -10t42 -28t28 -42t10 -51t-10 -51t-28 -41.5t-42 -28t-51 -10.5zM1049 0h-916v1443h916v-193h-692v-422h655v-186h-655v-448h692v-194z" />
    <glyph glyph-name="edotaccent" unicode="&#x117;" horiz-adv-x="1113" 
d="M564 1262q-28 0 -52.5 10.5t-42.5 28.5t-28.5 42t-10.5 51t10.5 51.5t28.5 42.5t42.5 28.5t52.5 10.5t52 -10.5t42 -28.5t28.5 -42.5t10.5 -51.5t-10.5 -51t-28.5 -42t-42 -28.5t-52 -10.5zM563 923q-59 0 -108.5 -20.5t-86 -57.5t-59.5 -88.5t-27 -114.5h551
q-2 63 -22 115t-55.5 89t-84.5 57t-108 20zM1039 318q-12 -73 -52 -134t-101.5 -104.5t-141.5 -68t-171 -24.5q-118 0 -212.5 38.5t-161 110t-102 173.5t-35.5 230q0 127 35.5 231t101.5 177t158.5 113t206.5 40q112 0 202 -37.5t153 -107t97 -169t34 -222.5v-76h-769v-13
q0 -71 21 -128.5t60 -98t93.5 -63t121.5 -22.5q47 0 88.5 11t75 31t57 48.5t34.5 64.5h207z" />
    <glyph glyph-name="Eogonek" unicode="&#x118;" horiz-adv-x="1146" 
d="M133 0v1443h916v-193h-692v-422h655v-186h-655v-448h692v-159q-194 -89 -194 -220q0 -49 33 -79t87 -30q47 0 74 9v-134q-17 -10 -51.5 -15.5t-75.5 -5.5q-56 0 -101 15.5t-77 43.5t-49.5 68t-17.5 88q0 132 130 225h-674z" />
    <glyph glyph-name="eogonek" unicode="&#x119;" horiz-adv-x="1113" 
d="M757 -440q-51 0 -94 16t-73.5 44.5t-48 68t-17.5 86.5q0 62 25.5 111.5t82.5 101.5v2q-23 -3 -59 -3q-118 0 -212.5 38.5t-161 110t-102 173.5t-35.5 230q0 127 35.5 231t101.5 177t158.5 113t206.5 40q112 0 202 -37.5t153 -107t97 -169t34 -222.5v-76h-769v-13
q0 -71 21 -128.5t60 -98t93.5 -63t121.5 -22.5q96 0 164 41.5t91 113.5h207q-11 -76 -59.5 -142.5t-131.5 -136.5q-75 -63 -114 -114.5t-39 -107.5q0 -46 32 -75.5t83 -29.5q45 0 75 9v-141q-19 -10 -51.5 -15t-76.5 -5zM563 923q-59 0 -108.5 -20.5t-86 -57.5t-59.5 -88.5
t-27 -114.5h551q-2 63 -22 115t-55.5 89t-84.5 57t-108 20z" />
    <glyph glyph-name="Ecaron" unicode="&#x11a;" horiz-adv-x="1146" 
d="M219 1853h188l182 -199h4l182 199h188l-286 -306h-172zM1049 0h-916v1443h916v-193h-692v-422h655v-186h-655v-448h692v-194z" />
    <glyph glyph-name="ecaron" unicode="&#x11b;" horiz-adv-x="1113" 
d="M485 1251l-273 307h185l164 -194h6l164 194h185l-273 -307h-158zM563 923q-59 0 -108.5 -20.5t-86 -57.5t-59.5 -88.5t-27 -114.5h551q-2 63 -22 115t-55.5 89t-84.5 57t-108 20zM1039 318q-12 -73 -52 -134t-101.5 -104.5t-141.5 -68t-171 -24.5q-118 0 -212.5 38.5
t-161 110t-102 173.5t-35.5 230q0 127 35.5 231t101.5 177t158.5 113t206.5 40q112 0 202 -37.5t153 -107t97 -169t34 -222.5v-76h-769v-13q0 -71 21 -128.5t60 -98t93.5 -63t121.5 -22.5q47 0 88.5 11t75 31t57 48.5t34.5 64.5h207z" />
    <glyph glyph-name="Gcircumflex" unicode="&#x11c;" horiz-adv-x="1462" 
d="M833 1853l286 -306h-188l-182 200h-4l-182 -200h-188l286 306h172zM1376 600q0 -147 -42 -262.5t-122 -196t-195.5 -123t-262.5 -42.5q-155 0 -279.5 52.5t-212 150t-134.5 236.5t-47 313q0 171 47 307.5t134 232.5t211 147.5t278 51.5q120 0 224 -34t184.5 -97
t133.5 -151t72 -196h-230q-41 135 -141 208.5t-242 73.5q-104 0 -186 -37t-139 -106.5t-87 -170t-30 -227.5q0 -129 31 -232.5t89 -176t140.5 -111t185.5 -38.5q88 0 161 27t125.5 75.5t82 116.5t30.5 150v25h-373v181h594v-147z" />
    <glyph glyph-name="gcircumflex" unicode="&#x11d;" horiz-adv-x="1192" 
d="M926 1251h-185l-164 194h-6l-164 -194h-185l273 307h158zM572 183q66 0 120 26t92.5 73.5t59.5 114.5t21 149t-21 150t-59.5 116t-92.5 74.5t-120 26.5t-119 -26t-90.5 -74t-58 -115.5t-20.5 -151.5q0 -83 20.5 -150.5t58 -114.5t90.5 -72.5t119 -25.5zM573 -391
q-98 0 -180.5 22t-143.5 62t-98.5 96.5t-45.5 126.5h219q9 -32 31.5 -57t56.5 -43t77 -27.5t93 -9.5q64 0 116.5 16.5t89.5 46.5t57 73t20 96v179h-5q-48 -88 -138.5 -137.5t-206.5 -49.5q-102 0 -185.5 38.5t-143 109.5t-92 171.5t-32.5 224.5q0 126 32.5 227.5t92.5 173
t144.5 110.5t188.5 39q116 0 206 -50t141 -141h4v180h210v-1058q0 -97 -35.5 -174.5t-101.5 -132t-160 -83.5t-211 -29z" />
    <glyph glyph-name="Gbreve" unicode="&#x11e;" horiz-adv-x="1462" 
d="M1376 600q0 -147 -42 -262.5t-122 -196t-195.5 -123t-262.5 -42.5q-155 0 -279.5 52.5t-212 150t-134.5 236.5t-47 313q0 171 47 307.5t134 232.5t211 147.5t278 51.5q120 0 224 -34t184.5 -97t133.5 -151t72 -196h-230q-41 135 -141 208.5t-242 73.5q-104 0 -186 -37
t-139 -106.5t-87 -170t-30 -227.5q0 -129 31 -232.5t89 -176t140.5 -111t185.5 -38.5q88 0 161 27t125.5 75.5t82 116.5t30.5 150v25h-373v181h594v-147zM562 1853q0 -40 14 -74t38.5 -59.5t58.5 -40t74 -14.5t74 14.5t58.5 40t38.5 59.5t14 74h140q0 -66 -23.5 -122.5
t-66 -97t-102.5 -63.5t-133 -23t-133 23t-102.5 63.5t-66 97t-23.5 122.5h140z" />
    <glyph glyph-name="gbreve" unicode="&#x11f;" horiz-adv-x="1192" 
d="M381 1557q0 -41 15 -76t40.5 -61t60.5 -41t76 -15t76 15t60.5 41t40.5 61t15 76h143q0 -69 -24 -126.5t-68 -99t-105.5 -65t-137.5 -23.5t-137.5 23.5t-105.5 65t-68 99t-24 126.5h143zM572 183q66 0 120 26t92.5 73.5t59.5 114.5t21 149t-21 150t-59.5 116t-92.5 74.5
t-120 26.5t-119 -26t-90.5 -74t-58 -115.5t-20.5 -151.5q0 -83 20.5 -150.5t58 -114.5t90.5 -72.5t119 -25.5zM573 -391q-98 0 -180.5 22t-143.5 62t-98.5 96.5t-45.5 126.5h219q9 -32 31.5 -57t56.5 -43t77 -27.5t93 -9.5q64 0 116.5 16.5t89.5 46.5t57 73t20 96v179h-5
q-48 -88 -138.5 -137.5t-206.5 -49.5q-102 0 -185.5 38.5t-143 109.5t-92 171.5t-32.5 224.5q0 126 32.5 227.5t92.5 173t144.5 110.5t188.5 39q116 0 206 -50t141 -141h4v180h210v-1058q0 -97 -35.5 -174.5t-101.5 -132t-160 -83.5t-211 -29z" />
    <glyph glyph-name="Gdotaccent" unicode="&#x120;" horiz-adv-x="1462" 
d="M747 1576q-27 0 -51 10.5t-42 28t-28 41.5t-10 51t10 51t28 42t42 28t51 10t51 -10t42 -28t28 -42t10 -51t-10 -51t-28 -41.5t-42 -28t-51 -10.5zM1376 600q0 -147 -42 -262.5t-122 -196t-195.5 -123t-262.5 -42.5q-155 0 -279.5 52.5t-212 150t-134.5 236.5t-47 313
q0 171 47 307.5t134 232.5t211 147.5t278 51.5q120 0 224 -34t184.5 -97t133.5 -151t72 -196h-230q-41 135 -141 208.5t-242 73.5q-104 0 -186 -37t-139 -106.5t-87 -170t-30 -227.5q0 -129 31 -232.5t89 -176t140.5 -111t185.5 -38.5q88 0 161 27t125.5 75.5t82 116.5
t30.5 150v25h-373v181h594v-147z" />
    <glyph glyph-name="gdotaccent" unicode="&#x121;" horiz-adv-x="1192" 
d="M574 1262q-28 0 -52.5 10.5t-42.5 28.5t-28.5 42t-10.5 51t10.5 51.5t28.5 42.5t42.5 28.5t52.5 10.5t52 -10.5t42 -28.5t28.5 -42.5t10.5 -51.5t-10.5 -51t-28.5 -42t-42 -28.5t-52 -10.5zM572 183q66 0 120 26t92.5 73.5t59.5 114.5t21 149t-21 150t-59.5 116
t-92.5 74.5t-120 26.5t-119 -26t-90.5 -74t-58 -115.5t-20.5 -151.5q0 -83 20.5 -150.5t58 -114.5t90.5 -72.5t119 -25.5zM573 -391q-98 0 -180.5 22t-143.5 62t-98.5 96.5t-45.5 126.5h219q9 -32 31.5 -57t56.5 -43t77 -27.5t93 -9.5q64 0 116.5 16.5t89.5 46.5t57 73
t20 96v179h-5q-48 -88 -138.5 -137.5t-206.5 -49.5q-102 0 -185.5 38.5t-143 109.5t-92 171.5t-32.5 224.5q0 126 32.5 227.5t92.5 173t144.5 110.5t188.5 39q116 0 206 -50t141 -141h4v180h210v-1058q0 -97 -35.5 -174.5t-101.5 -132t-160 -83.5t-211 -29z" />
    <glyph glyph-name="Gcommaaccent" unicode="&#x122;" horiz-adv-x="1462" 
d="M571 -526l102 360h190l-133 -360h-159zM1376 600q0 -147 -42 -262.5t-122 -196t-195.5 -123t-262.5 -42.5q-155 0 -279.5 52.5t-212 150t-134.5 236.5t-47 313q0 171 47 307.5t134 232.5t211 147.5t278 51.5q120 0 224 -34t184.5 -97t133.5 -151t72 -196h-230
q-41 135 -141 208.5t-242 73.5q-104 0 -186 -37t-139 -106.5t-87 -170t-30 -227.5q0 -129 31 -232.5t89 -176t140.5 -111t185.5 -38.5q88 0 161 27t125.5 75.5t82 116.5t30.5 150v25h-373v181h594v-147z" />
    <glyph glyph-name="gcommaaccent" unicode="&#x123;" horiz-adv-x="1192" 
d="M400 -898l102 360h190l-133 -360h-159zM572 183q66 0 120 26t92.5 73.5t59.5 114.5t21 149t-21 150t-59.5 116t-92.5 74.5t-120 26.5t-119 -26t-90.5 -74t-58 -115.5t-20.5 -151.5q0 -83 20.5 -150.5t58 -114.5t90.5 -72.5t119 -25.5zM573 -391q-98 0 -180.5 22
t-143.5 62t-98.5 96.5t-45.5 126.5h219q9 -32 31.5 -57t56.5 -43t77 -27.5t93 -9.5q64 0 116.5 16.5t89.5 46.5t57 73t20 96v179h-5q-48 -88 -138.5 -137.5t-206.5 -49.5q-102 0 -185.5 38.5t-143 109.5t-92 171.5t-32.5 224.5q0 126 32.5 227.5t92.5 173t144.5 110.5
t188.5 39q116 0 206 -50t141 -141h4v180h210v-1058q0 -97 -35.5 -174.5t-101.5 -132t-160 -83.5t-211 -29z" />
    <glyph glyph-name="Hcircumflex" unicode="&#x124;" horiz-adv-x="1454" 
d="M1098 0v639h-741v-639h-224v1443h224v-610h741v610h224v-1443h-224zM813 1853l286 -306h-188l-182 200h-4l-182 -200h-188l286 306h172z" />
    <glyph glyph-name="hcircumflex" unicode="&#x125;" horiz-adv-x="1195" 
d="M120 1508h215v-605h5q49 97 138.5 146t214.5 49q90 0 163 -28.5t124.5 -81.5t80 -127.5t28.5 -166.5v-694h-216v652q0 122 -67.5 191t-187.5 69q-63 0 -115 -21t-88.5 -59t-57 -91.5t-20.5 -118.5v-622h-217v1508zM315 1918l286 -306h-188l-182 200h-4l-182 -200h-188
l286 306h172z" />
    <glyph glyph-name="Hbar" unicode="&#x126;" horiz-adv-x="1470" 
d="M1105 1067h-741v-234h741v234zM1454 1067h-125v-1067h-224v639h-741v-639h-224v1067h-124v167h124v209h224v-209h741v209h224v-209h125v-167z" />
    <glyph glyph-name="hbar" unicode="&#x127;" horiz-adv-x="1235" 
d="M361 909q48 93 138 141t214 48q89 0 162 -28.5t124.5 -81t80 -127.5t28.5 -167v-694h-216v652q0 123 -68 191.5t-187 68.5q-63 0 -114.5 -20.5t-88.5 -58.5t-57.5 -91.5t-20.5 -119.5v-622h-216v1245h-111v134h111v177h214v-177h250v-134h-250v-336h7z" />
    <glyph glyph-name="Itilde" unicode="&#x128;" horiz-adv-x="490" 
d="M133 0v1443h224v-1443h-224zM378 1537q-33 0 -59 11t-48 27t-40 35t-35.5 35t-34.5 27t-36 11q-33 0 -50.5 -34.5t-18.5 -95.5h-129q0 122 51.5 189.5t139.5 67.5q35 0 62.5 -11t49.5 -27t40.5 -35t35.5 -35t33.5 -27t34.5 -11q32 0 47.5 34t15.5 98h130
q0 -60 -14 -107.5t-39 -81.5t-59.5 -52t-76.5 -18z" />
    <glyph glyph-name="itilde" unicode="&#x129;" horiz-adv-x="455" 
d="M119 1086h217v-1086h-217v1086zM364 1258q-33 0 -59 11t-48 27t-40 35t-35.5 35t-34.5 27t-36 11q-33 0 -50.5 -34.5t-18.5 -95.5h-129q0 122 51.5 189.5t139.5 67.5q35 0 62.5 -11t49.5 -27t40.5 -35t35.5 -35t33.5 -27t34.5 -11q32 0 47.5 34t15.5 98h130
q0 -60 -14 -107.5t-39 -81.5t-59.5 -52t-76.5 -18z" />
    <glyph glyph-name="Imacron" unicode="&#x12a;" horiz-adv-x="490" 
d="M133 0v1443h224v-1443h-224zM572 1636h-654v119h654v-119z" />
    <glyph glyph-name="imacron" unicode="&#x12b;" horiz-adv-x="455" 
d="M119 1086h217v-1086h-217v1086zM551 1312h-646v119h646v-119z" />
    <glyph glyph-name="Ibreve" unicode="&#x12c;" horiz-adv-x="490" 
d="M133 0v1443h224v-1443h-224zM60 1853q0 -40 14 -74t38.5 -59.5t58.5 -40t74 -14.5t74 14.5t58.5 40t38.5 59.5t14 74h140q0 -66 -23.5 -122.5t-66 -97t-102.5 -63.5t-133 -23t-133 23t-102.5 63.5t-66 97t-23.5 122.5h140z" />
    <glyph glyph-name="ibreve" unicode="&#x12d;" horiz-adv-x="455" 
d="M119 1086h217v-1086h-217v1086zM35 1557q0 -41 15 -76t40.5 -61t60.5 -41t76 -15t76 15t60.5 41t40.5 61t15 76h143q0 -69 -24 -126.5t-68 -99t-105.5 -65t-137.5 -23.5t-137.5 23.5t-105.5 65t-68 99t-24 126.5h143z" />
    <glyph glyph-name="Iogonek" unicode="&#x12e;" horiz-adv-x="490" 
d="M244 -440q-53 0 -96.5 16t-75 44.5t-48.5 68.5t-17 89q0 76 34.5 133t112.5 108h-21v1424h224v-1432h-20q-78 -37 -118.5 -85t-40.5 -105q0 -53 32 -84t85 -31q14 0 26 1t23 3v-136q-45 -14 -100 -14z" />
    <glyph glyph-name="iogonek" unicode="&#x12f;" horiz-adv-x="455" 
d="M228 1241q-26 0 -49.5 10t-40.5 27t-27 39.5t-10 48.5q0 27 10 49.5t27 39.5t40.5 26.5t49.5 9.5t49 -9.5t40.5 -26.5t27.5 -39.5t10 -49.5q0 -26 -10 -48.5t-27.5 -39.5t-40.5 -27t-49 -10zM234 -440q-53 0 -96.5 16t-75 44.5t-48.5 68.5t-17 89q0 152 150 241h-28v1067
h217v-1070h-11q-75 -35 -115.5 -85t-40.5 -110q0 -53 32 -84t85 -31q29 0 49 4v-136q-44 -14 -101 -14z" />
    <glyph glyph-name="Idotaccent" unicode="&#x130;" horiz-adv-x="490" 
d="M133 0v1443h224v-1443h-224zM245 1576q-27 0 -51 10.5t-42 28t-28 41.5t-10 51t10 51t28 42t42 28t51 10t51 -10t42 -28t28 -42t10 -51t-10 -51t-28 -41.5t-42 -28t-51 -10.5z" />
    <glyph glyph-name="dotlessi" unicode="&#x131;" horiz-adv-x="455" 
d="M119 1086h217v-1086h-217v1086z" />
    <glyph glyph-name="u0132" unicode="&#x132;" horiz-adv-x="1550" 
d="M133 0v1443h224v-1443h-224zM748 370q1 -45 17 -82t44.5 -64t67.5 -41.5t86 -14.5q111 0 169 64t58 189v1022h224v-1023q0 -107 -30.5 -191t-88.5 -142t-141.5 -88.5t-188.5 -30.5q-98 0 -178 29t-138 82t-89.5 127t-31.5 164h220z" />
    <glyph glyph-name="u0133" unicode="&#x133;" horiz-adv-x="910" 
d="M119 1086h217v-1086h-217v1086zM228 1241q-26 0 -49.5 10t-40.5 27t-27 39.5t-10 48.5q0 27 10 49.5t27 39.5t40.5 26.5t49.5 9.5t49 -9.5t40.5 -26.5t27.5 -39.5t10 -49.5q0 -26 -10 -48.5t-27.5 -39.5t-40.5 -27t-49 -10zM791 -65q0 -167 -86.5 -246t-266.5 -79h-10.5
h-15t-14 0.5t-8.5 0.5v172h5.5t9.5 -0.5t9.5 -0.5h6.5q84 0 118.5 35t34.5 119v1150h217v-1151zM683 1241q-26 0 -49.5 10t-40.5 27t-27 39.5t-10 48.5q0 27 10 49.5t27 39.5t40.5 26.5t49.5 9.5t49 -9.5t40.5 -26.5t27.5 -39.5t10 -49.5q0 -26 -10 -48.5t-27.5 -39.5
t-40.5 -27t-49 -10z" />
    <glyph glyph-name="Jcircumflex" unicode="&#x134;" horiz-adv-x="1060" 
d="M258 370q1 -45 17 -82t44.5 -64t67.5 -41.5t86 -14.5q111 0 169 64t58 189v1022h224v-1023q0 -107 -30.5 -191t-88.5 -142t-141.5 -88.5t-188.5 -30.5q-98 0 -178 29t-138 82t-89.5 127t-31.5 164h220zM899 1853l286 -306h-188l-182 200h-4l-182 -200h-188l286 306h172z
" />
    <glyph glyph-name="jcircumflex" unicode="&#x135;" horiz-adv-x="454" 
d="M334 -65q0 -167 -86 -246t-266 -79h-10.5h-15t-13.5 0.5t-8 0.5v172q2 0 14.5 -0.5t15.5 -0.5q42 0 71.5 8.5t48 26.5t26.5 47.5t8 71.5v1150h215v-1151zM579 1251h-185l-164 194h-6l-164 -194h-185l273 307h158z" />
    <glyph glyph-name="Kcommaaccent" unicode="&#x136;" horiz-adv-x="1293" 
d="M133 0v1443h224v-687h9l603 687h266l-572 -639l620 -804h-278l-500 650l-148 -169v-481h-224zM453 -526l102 360h190l-133 -360h-159z" />
    <glyph glyph-name="kcommaaccent" unicode="&#x137;" horiz-adv-x="1062" 
d="M785 1086h255l-454 -468l470 -618h-250l-375 486l-94 -92v-394h-217v1508h217v-891h1zM390 -526l102 360h190l-133 -360h-159z" />
    <glyph glyph-name="Lacute" unicode="&#x139;" horiz-adv-x="1088" 
d="M157 1551l231 303h225l-280 -303h-176zM1029 0h-896v1443h224v-1249h672v-194z" />
    <glyph glyph-name="lacute" unicode="&#x13a;" horiz-adv-x="457" 
d="M141 1616l231 303h225l-280 -303h-176zM120 1508h217v-1508h-217v1508z" />
    <glyph glyph-name="Lcommaaccent" unicode="&#x13b;" horiz-adv-x="1088" 
d="M401 -526l102 360h190l-133 -360h-159zM1029 0h-896v1443h224v-1249h672v-194z" />
    <glyph glyph-name="lcommaaccent" unicode="&#x13c;" horiz-adv-x="457" 
d="M53 -526l102 360h190l-133 -360h-159zM120 1508h217v-1508h-217v1508z" />
    <glyph glyph-name="Lcaron" unicode="&#x13d;" horiz-adv-x="1088" 
d="M817 1443l-50 -493h-147v493h197zM1029 0h-896v1443h224v-1249h672v-194z" />
    <glyph glyph-name="lcaron" unicode="&#x13e;" horiz-adv-x="619" 
d="M656 1506l-34 -493h-134v493h168zM120 1508h217v-1508h-217v1508z" />
    <glyph glyph-name="Lslash" unicode="&#x141;" horiz-adv-x="1093" 
d="M1035 194v-194h-896v677l-113 -54v164l113 53v603h224v-496l320 151v-163l-320 -152v-589h672z" />
    <glyph glyph-name="lslash" unicode="&#x142;" horiz-adv-x="497" 
d="M477 862l-140 -69v-793h-217v685l-107 -53v163l107 53v660h217v-552l140 69v-163z" />
    <glyph glyph-name="Nacute" unicode="&#x143;" horiz-adv-x="1443" 
d="M634 1551l231 303h225l-280 -303h-176zM133 0v1443h203l748 -1064h8v1064h218v-1443h-202l-748 1063h-9v-1063h-218z" />
    <glyph glyph-name="nacute" unicode="&#x144;" horiz-adv-x="1168" 
d="M495 1255l215 303h225l-262 -303h-178zM111 1086h207v-183h4q50 97 138 146t215 49q90 0 161.5 -27.5t122 -79.5t77 -126.5t26.5 -168.5v-696h-217v655q0 125 -62.5 191t-182.5 66q-62 0 -112 -20.5t-85.5 -58t-55 -90t-19.5 -116.5v-627h-217v1086z" />
    <glyph glyph-name="Ncommaaccent" unicode="&#x145;" horiz-adv-x="1443" 
d="M546 -526l102 360h190l-133 -360h-159zM133 0v1443h203l748 -1064h8v1064h218v-1443h-202l-748 1063h-9v-1063h-218z" />
    <glyph glyph-name="ncommaaccent" unicode="&#x146;" horiz-adv-x="1168" 
d="M410 -526l102 360h190l-133 -360h-159zM111 1086h207v-183h4q50 97 138 146t215 49q90 0 161.5 -27.5t122 -79.5t77 -126.5t26.5 -168.5v-696h-217v655q0 125 -62.5 191t-182.5 66q-62 0 -112 -20.5t-85.5 -58t-55 -90t-19.5 -116.5v-627h-217v1086z" />
    <glyph glyph-name="Ncaron" unicode="&#x147;" horiz-adv-x="1443" 
d="M350 1853h188l182 -199h4l182 199h188l-286 -306h-172zM133 0v1443h203l748 -1064h8v1064h218v-1443h-202l-748 1063h-9v-1063h-218z" />
    <glyph glyph-name="ncaron" unicode="&#x148;" horiz-adv-x="1168" 
d="M507 1251l-273 307h185l164 -194h6l164 194h185l-273 -307h-158zM111 1086h207v-183h4q50 97 138 146t215 49q90 0 161.5 -27.5t122 -79.5t77 -126.5t26.5 -168.5v-696h-217v655q0 125 -62.5 191t-182.5 66q-62 0 -112 -20.5t-85.5 -58t-55 -90t-19.5 -116.5v-627h-217
v1086z" />
    <glyph glyph-name="Omacron" unicode="&#x14c;" horiz-adv-x="1513" 
d="M757 1467q156 0 281 -52t212.5 -149t135 -235t47.5 -310t-47.5 -310t-135 -234.5t-212.5 -148.5t-281 -52t-281 52t-213 148.5t-135 234.5t-47 310t47 310t135 235t213 149t281 52zM757 1270q-103 0 -185.5 -38.5t-140.5 -109.5t-89.5 -173t-31.5 -228t31.5 -227.5
t89.5 -172.5t140.5 -109.5t185.5 -38.5t185.5 38.5t140.5 109.5t89 172.5t31 227.5t-31 228t-89 173t-140.5 109.5t-185.5 38.5zM1084 1636h-654v119h654v-119z" />
    <glyph glyph-name="omacron" unicode="&#x14d;" horiz-adv-x="1152" 
d="M899 1312h-646v119h646v-119zM576 -13q-118 0 -213 39t-162 111t-103 175t-36 231t36.5 231t103.5 175.5t162 111.5t212 39t212 -39t162 -111.5t103 -175.5t36 -231t-36 -231t-103 -175t-161.5 -111t-212.5 -39zM576 167q69 0 123.5 25.5t92 73.5t57.5 118t20 159
t-20 159t-57.5 118.5t-92 74t-123.5 25.5t-123.5 -25.5t-92.5 -74.5t-58 -119t-20 -158q0 -89 20 -159t58 -118t92.5 -73.5t123.5 -25.5z" />
    <glyph glyph-name="Obreve" unicode="&#x14e;" horiz-adv-x="1513" 
d="M757 1467q156 0 281 -52t212.5 -149t135 -235t47.5 -310t-47.5 -310t-135 -234.5t-212.5 -148.5t-281 -52t-281 52t-213 148.5t-135 234.5t-47 310t47 310t135 235t213 149t281 52zM757 1270q-103 0 -185.5 -38.5t-140.5 -109.5t-89.5 -173t-31.5 -228t31.5 -227.5
t89.5 -172.5t140.5 -109.5t185.5 -38.5t185.5 38.5t140.5 109.5t89 172.5t31 227.5t-31 228t-89 173t-140.5 109.5t-185.5 38.5zM572 1853q0 -40 14 -74t38.5 -59.5t58.5 -40t74 -14.5t74 14.5t58.5 40t38.5 59.5t14 74h140q0 -66 -23.5 -122.5t-66 -97t-102.5 -63.5
t-133 -23t-133 23t-102.5 63.5t-66 97t-23.5 122.5h140z" />
    <glyph glyph-name="obreve" unicode="&#x14f;" horiz-adv-x="1152" 
d="M383 1557q0 -41 15 -76t40.5 -61t60.5 -41t76 -15t76 15t60.5 41t40.5 61t15 76h143q0 -69 -24 -126.5t-68 -99t-105.5 -65t-137.5 -23.5t-137.5 23.5t-105.5 65t-68 99t-24 126.5h143zM576 -13q-118 0 -213 39t-162 111t-103 175t-36 231t36.5 231t103.5 175.5
t162 111.5t212 39t212 -39t162 -111.5t103 -175.5t36 -231t-36 -231t-103 -175t-161.5 -111t-212.5 -39zM576 167q69 0 123.5 25.5t92 73.5t57.5 118t20 159t-20 159t-57.5 118.5t-92 74t-123.5 25.5t-123.5 -25.5t-92.5 -74.5t-58 -119t-20 -158q0 -89 20 -159t58 -118
t92.5 -73.5t123.5 -25.5z" />
    <glyph glyph-name="Ohungarumlaut" unicode="&#x150;" horiz-adv-x="1513" 
d="M842 1551l231 303h217l-280 -303h-168zM501 1551l231 303h217l-279 -303h-169zM757 1467q156 0 281 -52t212.5 -149t135 -235t47.5 -310t-47.5 -310t-135 -234.5t-212.5 -148.5t-281 -52t-281 52t-213 148.5t-135 234.5t-47 310t47 310t135 235t213 149t281 52zM757 1270
q-103 0 -185.5 -38.5t-140.5 -109.5t-89.5 -173t-31.5 -228t31.5 -227.5t89.5 -172.5t140.5 -109.5t185.5 -38.5t185.5 38.5t140.5 109.5t89 172.5t31 227.5t-31 228t-89 173t-140.5 109.5t-185.5 38.5z" />
    <glyph glyph-name="ohungarumlaut" unicode="&#x151;" horiz-adv-x="1152" 
d="M854 1558h215l-247 -303h-162zM519 1558h215l-247 -303h-162zM576 -13q-118 0 -213 39t-162 111t-103 175t-36 231t36.5 231t103.5 175.5t162 111.5t212 39t212 -39t162 -111.5t103 -175.5t36 -231t-36 -231t-103 -175t-161.5 -111t-212.5 -39zM576 167q69 0 123.5 25.5
t92 73.5t57.5 118t20 159t-20 159t-57.5 118.5t-92 74t-123.5 25.5t-123.5 -25.5t-92.5 -74.5t-58 -119t-20 -158q0 -89 20 -159t58 -118t92.5 -73.5t123.5 -25.5z" />
    <glyph glyph-name="OE" unicode="&#x152;" horiz-adv-x="2216" 
d="M764 1271q-104 0 -187.5 -38.5t-142.5 -110t-90.5 -173.5t-31.5 -228t31.5 -227.5t90.5 -173t142.5 -110t187.5 -38.5t187.5 38.5t142.5 110t90.5 173t31.5 227.5t-32 227.5t-90.5 173.5t-142.5 110.5t-187 38.5zM1230 231q-34 -60 -84 -108t-112 -81.5t-135 -51
t-152 -17.5q-151 0 -274 52.5t-210 150t-134 236t-47 309.5t47 309.5t134 236t210 150.5t275 53q161 0 285.5 -66.5t196.5 -189.5v229h889v-193h-676v-422h638v-186h-638v-448h676v-194h-889v231z" />
    <glyph glyph-name="oe" unicode="&#x153;" horiz-adv-x="1916" 
d="M1385 -13q-133 0 -238.5 54t-164.5 152h-10q-70 -106 -167 -156t-233 -50q-117 0 -211 39t-160.5 111.5t-102.5 175t-36 229.5t36 230.5t102.5 176t160.5 112t210 39.5q136 0 233.5 -51.5t167.5 -158.5h10q29 49 70 88t92 66t109.5 41.5t121.5 14.5q110 0 198.5 -38
t151 -107.5t96 -168.5t33.5 -222v-76h-765v-16q0 -70 21 -127t60 -97.5t93.5 -62.5t121.5 -22q94 0 161.5 41t89.5 110h207q-12 -72 -51.5 -132t-100.5 -103.5t-139.5 -67.5t-166.5 -24zM1636 642q-2 63 -22 115t-55 89t-83.5 57t-107.5 20t-108.5 -20.5t-86 -57.5
t-58.5 -88.5t-26 -114.5h547zM280 543q0 -88 20 -157.5t57.5 -117.5t91.5 -73.5t123 -25.5t123.5 25.5t92 73.5t57.5 117.5t20 157.5t-20 157.5t-57.5 117.5t-92 73.5t-123.5 25.5t-123 -25.5t-91.5 -73.5t-57.5 -117.5t-20 -157.5z" />
    <glyph glyph-name="Racute" unicode="&#x154;" horiz-adv-x="1265" 
d="M476 1551l231 303h225l-280 -303h-176zM357 736h322q131 0 202 67.5t71 192.5q0 60 -19.5 108t-55.5 81.5t-87.5 51.5t-116.5 18h-316v-519zM357 0h-224v1443h567q111 0 200.5 -31t152 -88.5t96 -139t33.5 -182.5q0 -73 -19 -138.5t-55 -118.5t-88 -93t-118 -62l324 -590
h-259l-294 555h-316v-555z" />
    <glyph glyph-name="racute" unicode="&#x155;" horiz-adv-x="688" 
d="M288 1255l215 303h225l-262 -303h-178zM111 1086h207v-183h4q26 91 95.5 142.5t166.5 51.5q18 0 38.5 -2t33.5 -6v-203q-14 5 -42.5 9.5t-52.5 4.5q-54 0 -97 -18t-73 -51t-46.5 -79.5t-16.5 -103.5v-648h-217v1086z" />
    <glyph glyph-name="Rcommaaccent" unicode="&#x156;" horiz-adv-x="1265" 
d="M357 736h322q131 0 202 67.5t71 192.5q0 60 -19.5 108t-55.5 81.5t-87.5 51.5t-116.5 18h-316v-519zM357 0h-224v1443h567q111 0 200.5 -31t152 -88.5t96 -139t33.5 -182.5q0 -73 -19 -138.5t-55 -118.5t-88 -93t-118 -62l324 -590h-259l-294 555h-316v-555zM388 -526
l102 360h190l-133 -360h-159z" />
    <glyph glyph-name="rcommaaccent" unicode="&#x157;" horiz-adv-x="688" 
d="M111 1086h207v-183h4q26 91 95.5 142.5t166.5 51.5q18 0 38.5 -2t33.5 -6v-203q-14 5 -42.5 9.5t-52.5 4.5q-54 0 -97 -18t-73 -51t-46.5 -79.5t-16.5 -103.5v-648h-217v1086zM44 -526l102 360h190l-133 -360h-159z" />
    <glyph glyph-name="Rcaron" unicode="&#x158;" horiz-adv-x="1265" 
d="M357 736h322q131 0 202 67.5t71 192.5q0 60 -19.5 108t-55.5 81.5t-87.5 51.5t-116.5 18h-316v-519zM357 0h-224v1443h567q111 0 200.5 -31t152 -88.5t96 -139t33.5 -182.5q0 -73 -19 -138.5t-55 -118.5t-88 -93t-118 -62l324 -590h-259l-294 555h-316v-555zM192 1853
h188l182 -199h4l182 199h188l-286 -306h-172z" />
    <glyph glyph-name="rcaron" unicode="&#x159;" horiz-adv-x="688" 
d="M300 1251l-273 307h185l164 -194h6l164 194h185l-273 -307h-158zM111 1086h207v-183h4q26 91 95.5 142.5t166.5 51.5q18 0 38.5 -2t33.5 -6v-203q-14 5 -42.5 9.5t-52.5 4.5q-54 0 -97 -18t-73 -51t-46.5 -79.5t-16.5 -103.5v-648h-217v1086z" />
    <glyph glyph-name="Sacute" unicode="&#x15a;" horiz-adv-x="1244" 
d="M545 1551l231 303h225l-280 -303h-176zM290 402q6 -54 34 -97.5t73.5 -74.5t106 -48t131.5 -17q68 0 125.5 16.5t99 46.5t65 71t23.5 89q0 84 -63 137t-203 88l-187 45q-199 48 -293.5 143t-94.5 246q0 93 38.5 170.5t108.5 133t166 86t212 30.5q114 0 209 -30.5
t163.5 -86t107 -133t41.5 -170.5h-218q-5 54 -29 97t-63.5 72.5t-94 45.5t-119.5 16t-119 -16t-92.5 -44.5t-60 -68t-21.5 -87.5q0 -38 15 -69t46.5 -56t81 -45.5t119.5 -37.5l159 -39q111 -26 190.5 -62t130 -85t74.5 -111.5t24 -141.5q0 -101 -39 -182.5t-111.5 -138.5
t-175.5 -87.5t-231 -30.5q-120 0 -219 30t-171 85.5t-113.5 134t-46.5 176.5h221z" />
    <glyph glyph-name="sacute" unicode="&#x15b;" horiz-adv-x="1018" 
d="M93 777q0 72 30.5 131t86 101.5t133 66t171.5 23.5q89 0 164.5 -24t130.5 -66.5t86.5 -102t33.5 -130.5h-204q-7 72 -64.5 114t-151.5 42q-46 0 -84 -10.5t-65 -29t-41.5 -45t-14.5 -58.5q0 -50 41 -84t128 -55l180 -43q82 -20 139 -45.5t93 -60.5t52 -80.5t16 -105.5
q0 -73 -33 -133t-92 -103.5t-141 -67.5t-181 -24q-95 0 -173.5 23.5t-136.5 66.5t-92 103t-40 134h214q13 -78 74 -119.5t165 -41.5q51 0 91.5 10t69 29t44 45.5t15.5 59.5q0 52 -36 82t-121 52l-194 48q-293 72 -293 298zM424 1255l215 303h225l-262 -303h-178z" />
    <glyph glyph-name="Scircumflex" unicode="&#x15c;" horiz-adv-x="1244" 
d="M290 402q6 -54 34 -97.5t73.5 -74.5t106 -48t131.5 -17q68 0 125.5 16.5t99 46.5t65 71t23.5 89q0 84 -63 137t-203 88l-187 45q-199 48 -293.5 143t-94.5 246q0 93 38.5 170.5t108.5 133t166 86t212 30.5q114 0 209 -30.5t163.5 -86t107 -133t41.5 -170.5h-218
q-5 54 -29 97t-63.5 72.5t-94 45.5t-119.5 16t-119 -16t-92.5 -44.5t-60 -68t-21.5 -87.5q0 -38 15 -69t46.5 -56t81 -45.5t119.5 -37.5l159 -39q111 -26 190.5 -62t130 -85t74.5 -111.5t24 -141.5q0 -101 -39 -182.5t-111.5 -138.5t-175.5 -87.5t-231 -30.5q-120 0 -219 30
t-171 85.5t-113.5 134t-46.5 176.5h221zM719 1853l286 -306h-188l-182 200h-4l-182 -200h-188l286 306h172z" />
    <glyph glyph-name="scircumflex" unicode="&#x15d;" horiz-adv-x="1018" 
d="M867 1251h-185l-164 194h-6l-164 -194h-185l273 307h158zM93 777q0 72 30.5 131t86 101.5t133 66t171.5 23.5q89 0 164.5 -24t130.5 -66.5t86.5 -102t33.5 -130.5h-204q-7 72 -64.5 114t-151.5 42q-46 0 -84 -10.5t-65 -29t-41.5 -45t-14.5 -58.5q0 -50 41 -84t128 -55
l180 -43q82 -20 139 -45.5t93 -60.5t52 -80.5t16 -105.5q0 -73 -33 -133t-92 -103.5t-141 -67.5t-181 -24q-95 0 -173.5 23.5t-136.5 66.5t-92 103t-40 134h214q13 -78 74 -119.5t165 -41.5q51 0 91.5 10t69 29t44 45.5t15.5 59.5q0 52 -36 82t-121 52l-194 48
q-293 72 -293 298z" />
    <glyph glyph-name="Scedilla" unicode="&#x15e;" horiz-adv-x="1244" 
d="M757 815q111 -26 190.5 -62t130 -85t74.5 -111.5t24 -141.5q0 -94 -34 -171t-97 -133.5t-153 -90.5t-203 -42l-43 -110q98 0 149 -39.5t51 -114.5q0 -40 -16.5 -73t-46 -56.5t-71 -37t-92.5 -13.5q-42 -1 -77.5 3t-67.5 14v105q16 -6 51 -10t67 -4q115 0 115 66
q0 34 -32.5 48.5t-108.5 14.5h-55v83l50 124q-108 7 -196.5 39.5t-153 87.5t-101.5 130t-42 167h221q6 -54 34 -97.5t73.5 -74.5t106 -48t131.5 -17q68 0 125.5 16.5t99 46.5t65 71t23.5 89q0 84 -63 137t-203 88l-187 45q-199 48 -293.5 143t-94.5 246q0 93 38.5 170.5
t108.5 133t166 86t212 30.5q114 0 209 -30.5t163.5 -86t107 -133t41.5 -170.5h-218q-5 54 -29 97t-63.5 72.5t-94 45.5t-119.5 16t-119 -16t-92.5 -44.5t-60 -68t-21.5 -87.5q0 -38 15 -69t46.5 -56t81 -45.5t119.5 -37.5z" />
    <glyph glyph-name="scedilla" unicode="&#x15f;" horiz-adv-x="1018" 
d="M653 607q82 -20 139 -45.5t93 -60.5t52 -80.5t16 -105.5q0 -66 -27 -122t-76.5 -98t-118.5 -69t-153 -35l-47 -123q98 0 149 -39.5t51 -114.5q0 -40 -16.5 -73t-46 -56.5t-71 -37t-92.5 -13.5q-42 -1 -77.5 3t-67.5 14v105q16 -6 51 -10t67 -4q115 0 115 66
q0 34 -32.5 48.5t-108.5 14.5h-55v83l55 135q-84 6 -153 32t-119 68.5t-80 99.5t-36 125h214q13 -78 74 -119.5t165 -41.5q51 0 91.5 10t69 29t44 45.5t15.5 59.5q0 52 -36 82t-121 52l-194 48q-293 72 -293 298q0 72 30.5 131t86 101.5t133 66t171.5 23.5q89 0 164.5 -24
t130.5 -66.5t86.5 -102t33.5 -130.5h-204q-7 72 -64.5 114t-151.5 42q-46 0 -84 -10.5t-65 -29t-41.5 -45t-14.5 -58.5q0 -50 41 -84t128 -55z" />
    <glyph glyph-name="Scaron" unicode="&#x160;" horiz-adv-x="1244" 
d="M290 402q6 -54 34 -97.5t73.5 -74.5t106 -48t131.5 -17q68 0 125.5 16.5t99 46.5t65 71t23.5 89q0 84 -63 137t-203 88l-187 45q-199 48 -293.5 143t-94.5 246q0 93 38.5 170.5t108.5 133t166 86t212 30.5q114 0 209 -30.5t163.5 -86t107 -133t41.5 -170.5h-218
q-5 54 -29 97t-63.5 72.5t-94 45.5t-119.5 16t-119 -16t-92.5 -44.5t-60 -68t-21.5 -87.5q0 -38 15 -69t46.5 -56t81 -45.5t119.5 -37.5l159 -39q111 -26 190.5 -62t130 -85t74.5 -111.5t24 -141.5q0 -101 -39 -182.5t-111.5 -138.5t-175.5 -87.5t-231 -30.5q-120 0 -219 30
t-171 85.5t-113.5 134t-46.5 176.5h221zM261 1853h188l182 -199h4l182 199h188l-286 -306h-172z" />
    <glyph glyph-name="scaron" unicode="&#x161;" horiz-adv-x="1018" 
d="M436 1251l-273 307h185l164 -194h6l164 194h185l-273 -307h-158zM93 777q0 72 30.5 131t86 101.5t133 66t171.5 23.5q89 0 164.5 -24t130.5 -66.5t86.5 -102t33.5 -130.5h-204q-7 72 -64.5 114t-151.5 42q-46 0 -84 -10.5t-65 -29t-41.5 -45t-14.5 -58.5q0 -50 41 -84
t128 -55l180 -43q82 -20 139 -45.5t93 -60.5t52 -80.5t16 -105.5q0 -73 -33 -133t-92 -103.5t-141 -67.5t-181 -24q-95 0 -173.5 23.5t-136.5 66.5t-92 103t-40 134h214q13 -78 74 -119.5t165 -41.5q51 0 91.5 10t69 29t44 45.5t15.5 59.5q0 52 -36 82t-121 52l-194 48
q-293 72 -293 298z" />
    <glyph glyph-name="Tcedilla" unicode="&#x162;" horiz-adv-x="1222" 
d="M688 0l-51 -132q98 0 149 -39.5t51 -114.5q0 -40 -16.5 -73t-46 -56.5t-71 -37t-92.5 -13.5q-42 -1 -77.5 3t-67.5 14v105q16 -6 51 -10t67 -4q115 0 115 66q0 34 -32.5 48.5t-108.5 14.5h-55v83l59 146h-63v1250h-450v193h1123v-193h-449v-1250h-35z" />
    <glyph glyph-name="tcedilla" unicode="&#x163;" horiz-adv-x="672" 
d="M417 -132q98 0 149 -39.5t51 -114.5q0 -40 -16.5 -73t-46 -56.5t-71 -37t-92.5 -13.5q-42 -1 -77.5 3t-67.5 14v105q16 -6 51 -10t67 -4q115 0 115 66q0 34 -32.5 48.5t-108.5 14.5h-55v83l62 153q-90 24 -129.5 91t-39.5 188v629h-150v171h150v244h216v-244h208v-171
h-208v-607q0 -71 32 -104.5t101 -33.5q9 0 19.5 0.5l21 1t19.5 1.5t14 2v-171q-18 -5 -52.5 -8t-69.5 -3h-12z" />
    <glyph glyph-name="Tcaron" unicode="&#x164;" horiz-adv-x="1222" 
d="M239 1853h188l182 -199h4l182 199h188l-286 -306h-172zM499 0v1250h-450v193h1123v-193h-449v-1250h-224z" />
    <glyph glyph-name="tcaron" unicode="&#x165;" horiz-adv-x="763" 
d="M710 1729l-34 -494h-134v494h168zM392 1330v-244h208v-171h-208v-607q0 -71 32 -104.5t101 -33.5q9 0 19.5 0.5l21 1t19.5 1.5t14 2v-171q-18 -5 -52.5 -8t-69.5 -3q-81 0 -138.5 16t-93.5 51.5t-52.5 91t-16.5 134.5v629h-150v171h150v244h216z" />
    <glyph glyph-name="Tbar" unicode="&#x166;" horiz-adv-x="1267" 
d="M727 1250v-454h316v-168h-316v-628h-224v628h-278v168h278v454h-450v193h1123v-193h-449z" />
    <glyph glyph-name="tbar" unicode="&#x167;" horiz-adv-x="692" 
d="M392 494v-186q0 -71 32 -104.5t101 -33.5q9 0 19.5 0.5l21 1t19.5 1.5t14 2v-171q-18 -5 -52.5 -8t-69.5 -3q-81 0 -138.5 16t-93.5 51.5t-52.5 91t-16.5 134.5v208h-146v150h146v271h-150v171h150v244h216v-244h208v-171h-208v-271h219v-150h-219z" />
    <glyph glyph-name="Utilde" unicode="&#x168;" horiz-adv-x="1434" 
d="M357 526q0 -77 24 -141.5t70 -111t113 -72.5t153 -26t153.5 26t113.5 72.5t70 111t24 141.5v917h223v-936q0 -117 -40.5 -214.5t-116 -168t-183.5 -109.5t-244 -39t-244 39t-183.5 109.5t-116 168t-40.5 214.5v936h224v-917zM850 1537q-33 0 -59 11t-48 27t-40 35
t-35.5 35t-34.5 27t-36 11q-33 0 -50.5 -34.5t-18.5 -95.5h-129q0 122 51.5 189.5t139.5 67.5q35 0 62.5 -11t49.5 -27t40.5 -35t35.5 -35t33.5 -27t34.5 -11q32 0 47.5 34t15.5 98h130q0 -60 -14 -107.5t-39 -81.5t-59.5 -52t-76.5 -18z" />
    <glyph glyph-name="utilde" unicode="&#x169;" horiz-adv-x="1168" 
d="M1057 0h-207v186h-4q-48 -97 -137 -147.5t-214 -50.5q-89 0 -161 28t-122.5 80t-78 126.5t-27.5 167.5v696h217v-655q0 -126 64 -191t182 -65q61 0 111 20.5t85.5 57.5t55 89.5t19.5 117.5v626h217v-1086zM718 1258q-33 0 -59 11t-48 27t-40 35t-35.5 35t-34.5 27t-36 11
q-33 0 -50.5 -34.5t-18.5 -95.5h-129q0 122 51.5 189.5t139.5 67.5q35 0 62.5 -11t49.5 -27t40.5 -35t35.5 -35t33.5 -27t34.5 -11q32 0 47.5 34t15.5 98h130q0 -60 -14 -107.5t-39 -81.5t-59.5 -52t-76.5 -18z" />
    <glyph glyph-name="Umacron" unicode="&#x16a;" horiz-adv-x="1434" 
d="M357 526q0 -77 24 -141.5t70 -111t113 -72.5t153 -26t153.5 26t113.5 72.5t70 111t24 141.5v917h223v-936q0 -117 -40.5 -214.5t-116 -168t-183.5 -109.5t-244 -39t-244 39t-183.5 109.5t-116 168t-40.5 214.5v936h224v-917zM1044 1636h-654v119h654v-119z" />
    <glyph glyph-name="umacron" unicode="&#x16b;" horiz-adv-x="1168" 
d="M1057 0h-207v186h-4q-48 -97 -137 -147.5t-214 -50.5q-89 0 -161 28t-122.5 80t-78 126.5t-27.5 167.5v696h217v-655q0 -126 64 -191t182 -65q61 0 111 20.5t85.5 57.5t55 89.5t19.5 117.5v626h217v-1086zM905 1312h-646v119h646v-119z" />
    <glyph glyph-name="Ubreve" unicode="&#x16c;" horiz-adv-x="1434" 
d="M357 526q0 -77 24 -141.5t70 -111t113 -72.5t153 -26t153.5 26t113.5 72.5t70 111t24 141.5v917h223v-936q0 -117 -40.5 -214.5t-116 -168t-183.5 -109.5t-244 -39t-244 39t-183.5 109.5t-116 168t-40.5 214.5v936h224v-917zM532 1853q0 -40 14 -74t38.5 -59.5t58.5 -40
t74 -14.5t74 14.5t58.5 40t38.5 59.5t14 74h140q0 -66 -23.5 -122.5t-66 -97t-102.5 -63.5t-133 -23t-133 23t-102.5 63.5t-66 97t-23.5 122.5h140z" />
    <glyph glyph-name="ubreve" unicode="&#x16d;" horiz-adv-x="1168" 
d="M1057 0h-207v186h-4q-48 -97 -137 -147.5t-214 -50.5q-89 0 -161 28t-122.5 80t-78 126.5t-27.5 167.5v696h217v-655q0 -126 64 -191t182 -65q61 0 111 20.5t85.5 57.5t55 89.5t19.5 117.5v626h217v-1086zM389 1557q0 -41 15 -76t40.5 -61t60.5 -41t76 -15t76 15t60.5 41
t40.5 61t15 76h143q0 -69 -24 -126.5t-68 -99t-105.5 -65t-137.5 -23.5t-137.5 23.5t-105.5 65t-68 99t-24 126.5h143z" />
    <glyph glyph-name="Uring" unicode="&#x16e;" horiz-adv-x="1434" 
d="M717 1509q-42 0 -80 16.5t-66 44t-44.5 65t-16.5 79.5t16.5 79.5t44.5 65.5t66 44.5t80 16.5t80 -16.5t66 -44.5t44.5 -65.5t16.5 -79.5t-16.5 -79.5t-44.5 -65t-66 -44t-80 -16.5zM717 1604q23 0 43 8.5t35 23.5t24 35t9 43t-9 43t-24 35t-35 24t-43 9t-43 -9t-35 -24
t-24 -35t-9 -43t9 -43t24 -35t35 -23.5t43 -8.5zM357 526q0 -77 24 -141.5t70 -111t113 -72.5t153 -26t153.5 26t113.5 72.5t70 111t24 141.5v917h223v-936q0 -117 -40.5 -214.5t-116 -168t-183.5 -109.5t-244 -39t-244 39t-183.5 109.5t-116 168t-40.5 214.5v936h224v-917z
" />
    <glyph glyph-name="uring" unicode="&#x16f;" horiz-adv-x="1168" 
d="M1057 0h-207v186h-4q-48 -97 -137 -147.5t-214 -50.5q-89 0 -161 28t-122.5 80t-78 126.5t-27.5 167.5v696h217v-655q0 -126 64 -191t182 -65q61 0 111 20.5t85.5 57.5t55 89.5t19.5 117.5v626h217v-1086zM582 1193q-42 0 -80 16.5t-66 44t-44.5 65t-16.5 79.5t16.5 79.5
t44.5 65.5t66 44.5t80 16.5t80 -16.5t66 -44.5t44.5 -65.5t16.5 -79.5t-16.5 -79.5t-44.5 -65t-66 -44t-80 -16.5zM582 1288q23 0 43 8.5t35 23.5t24 35t9 43t-9 43t-24 35t-35 24t-43 9t-43 -9t-35 -24t-24 -35t-9 -43t9 -43t24 -35t35 -23.5t43 -8.5z" />
    <glyph glyph-name="Uhungarumlaut" unicode="&#x170;" horiz-adv-x="1434" 
d="M357 526q0 -77 24 -141.5t70 -111t113 -72.5t153 -26t153.5 26t113.5 72.5t70 111t24 141.5v917h223v-936q0 -117 -40.5 -214.5t-116 -168t-183.5 -109.5t-244 -39t-244 39t-183.5 109.5t-116 168t-40.5 214.5v936h224v-917zM802 1551l231 303h217l-280 -303h-168z
M461 1551l231 303h217l-279 -303h-169z" />
    <glyph glyph-name="uhungarumlaut" unicode="&#x171;" horiz-adv-x="1168" 
d="M860 1558h215l-247 -303h-162zM525 1558h215l-247 -303h-162zM1057 0h-207v186h-4q-48 -97 -137 -147.5t-214 -50.5q-89 0 -161 28t-122.5 80t-78 126.5t-27.5 167.5v696h217v-655q0 -126 64 -191t182 -65q61 0 111 20.5t85.5 57.5t55 89.5t19.5 117.5v626h217v-1086z
" />
    <glyph glyph-name="Uogonek" unicode="&#x172;" horiz-adv-x="1434" 
d="M963 -440q-53 0 -97 15.5t-76 43t-50 66t-18 83.5q0 126 108 222v3q-23 -8 -55 -12.5t-58 -4.5q-132 0 -240 38t-184.5 107.5t-118 167.5t-41.5 218v936h224v-917q0 -81 25.5 -145.5t72 -110.5t113 -70.5t149.5 -24.5t149.5 24.5t113.5 70.5t72.5 110.5t25.5 145.5v917
h223v-936q0 -83 -17.5 -148t-46 -116t-65 -90.5t-74.5 -73.5q-38 -33 -75 -62.5t-65.5 -60t-46 -64.5t-17.5 -76q0 -47 34.5 -78.5t87.5 -31.5q33 0 67 7v-135q-23 -8 -55 -13t-65 -5z" />
    <glyph glyph-name="uogonek" unicode="&#x173;" horiz-adv-x="1168" 
d="M1057 -426q-44 -14 -100 -14q-53 0 -97 16t-75.5 44.5t-48.5 68.5t-17 89q0 146 157 241h-26v167h-4q-48 -97 -137 -147.5t-214 -50.5q-89 0 -161 28t-122.5 80.5t-78 126.5t-27.5 167v696h217v-655q0 -125 63.5 -190.5t182.5 -65.5q61 0 111 20.5t85.5 57.5t55 89.5
t19.5 117.5v626h217v-1070h-10q-76 -35 -116 -85t-40 -110q0 -53 32 -84t85 -31q14 0 26 1t23 3v-136v0z" />
    <glyph glyph-name="Wcircumflex" unicode="&#x174;" horiz-adv-x="1923" 
d="M1047 1853l286 -306h-188l-182 200h-4l-182 -200h-188l286 306h172zM645 0h-212l-389 1443h233l267 -1130h8l305 1130h208l306 -1130h8l267 1130h233l-390 -1443h-211l-312 1088h-10z" />
    <glyph glyph-name="wcircumflex" unicode="&#x175;" horiz-adv-x="1563" 
d="M1134 1251h-185l-164 194h-6l-164 -194h-185l273 307h158zM1238 0h-224l-231 818h-5l-229 -818h-223l-300 1086h216l202 -860h4l230 860h208l231 -860h4l202 860h214z" />
    <glyph glyph-name="Ycircumflex" unicode="&#x176;" horiz-adv-x="1293" 
d="M534 0v591l-508 852h250l368 -637h7l368 637h248l-509 -852v-591h-224zM732 1853l286 -306h-188l-182 200h-4l-182 -200h-188l286 306h172z" />
    <glyph glyph-name="ycircumflex" unicode="&#x177;" horiz-adv-x="1066" 
d="M220 -395q-7 0 -19 0.5t-25.5 1.5t-25.5 2t-18 2v176q12 -3 33.5 -4t35.5 -1q77 0 123 36.5t74 122.5l17 56l-394 1089h233l279 -888h5l279 888h228l-407 -1136q-35 -98 -73.5 -164t-87 -106.5t-111.5 -57.5t-146 -17zM886 1251h-185l-164 194h-6l-164 -194h-185l273 307
h158z" />
    <glyph glyph-name="Ydieresis" unicode="&#x178;" horiz-adv-x="1293" 
d="M534 0v591l-508 852h250l368 -637h7l368 637h248l-509 -852v-591h-224zM445 1576q-25 0 -47 9.5t-38.5 25.5t-26 38t-9.5 46q0 25 9.5 46.5t26 37.5t38.5 25.5t47 9.5t47 -9.5t38 -25.5t25.5 -37.5t9.5 -46.5q0 -24 -9.5 -46t-25.5 -38t-38 -25.5t-47 -9.5zM848 1576
q-25 0 -47 9.5t-38.5 25.5t-26 38t-9.5 46q0 25 9.5 46.5t26 37.5t38.5 25.5t47 9.5t47 -9.5t38 -25.5t25.5 -37.5t9.5 -46.5q0 -24 -9.5 -46t-25.5 -38t-38 -25.5t-47 -9.5z" />
    <glyph glyph-name="Zacute" unicode="&#x179;" horiz-adv-x="1273" 
d="M549 1551l231 303h225l-280 -303h-176zM95 153l790 1089v8h-766v193h1041v-153l-787 -1089v-7h806v-194h-1084v153z" />
    <glyph glyph-name="zacute" unicode="&#x17a;" horiz-adv-x="1015" 
d="M416 1255l215 303h225l-262 -303h-178zM89 141l584 769v3h-581v173h828v-149l-570 -760v-4h576v-173h-837v141z" />
    <glyph glyph-name="Zdotaccent" unicode="&#x17b;" horiz-adv-x="1273" 
d="M637 1576q-27 0 -51 10.5t-42 28t-28 41.5t-10 51t10 51t28 42t42 28t51 10t51 -10t42 -28t28 -42t10 -51t-10 -51t-28 -41.5t-42 -28t-51 -10.5zM95 153l790 1089v8h-766v193h1041v-153l-787 -1089v-7h806v-194h-1084v153z" />
    <glyph glyph-name="zdotaccent" unicode="&#x17c;" horiz-adv-x="1015" 
d="M507 1262q-28 0 -52.5 10.5t-42.5 28.5t-28.5 42t-10.5 51t10.5 51.5t28.5 42.5t42.5 28.5t52.5 10.5t52 -10.5t42 -28.5t28.5 -42.5t10.5 -51.5t-10.5 -51t-28.5 -42t-42 -28.5t-52 -10.5zM89 141l584 769v3h-581v173h828v-149l-570 -760v-4h576v-173h-837v141z" />
    <glyph glyph-name="Zcaron" unicode="&#x17d;" horiz-adv-x="1273" 
d="M95 153l790 1089v8h-766v193h1041v-153l-787 -1089v-7h806v-194h-1084v153zM265 1853h188l182 -199h4l182 199h188l-286 -306h-172z" />
    <glyph glyph-name="zcaron" unicode="&#x17e;" horiz-adv-x="1015" 
d="M428 1251l-273 307h185l164 -194h6l164 194h185l-273 -307h-158zM89 141l584 769v3h-581v173h828v-149l-570 -760v-4h576v-173h-837v141z" />
    <glyph glyph-name="florin" unicode="&#x192;" horiz-adv-x="1270" 
d="M1224 1241q-40 19 -87.5 29t-95.5 10q-112 0 -170.5 -49.5t-74.5 -156.5l-30 -201h362v-167h-386l-52 -349q-29 -195 -133.5 -288t-291.5 -93q-59 0 -116.5 12t-100.5 32v193q38 -23 91.5 -36.5t101.5 -13.5q106 0 161 51t72 168l48 324h-330v167h355l32 219
q55 372 436 372q56 0 112.5 -10.5t96.5 -28.5v-184z" />
    <glyph glyph-name="Ohorn" unicode="&#x1a0;" horiz-adv-x="1555" 
d="M757 1270q-103 0 -185.5 -38.5t-140.5 -109.5t-89.5 -173t-31.5 -228t31.5 -227.5t89.5 -172.5t140.5 -109.5t185.5 -38.5t185.5 38.5t140.5 109.5t89 172.5t31 227.5t-31 228t-89 173t-140.5 109.5t-185.5 38.5zM1433 720q0 -171 -47.5 -309t-135 -234.5t-212.5 -148.5
t-281 -52t-281 52t-213 148.5t-135 234.5t-47 310t47 310t134.5 235t212 149t279.5 52q72 0 129 -11.5t103.5 -29.5t84 -38t70.5 -38t64 -29.5t65 -11.5q102 0 102 157v165h185v-228q0 -115 -46 -180t-126 -65q-16 0 -33.5 3t-26.5 8l-3 -4q54 -100 82.5 -214.5t28.5 -230.5
z" />
    <glyph glyph-name="ohorn" unicode="&#x1a1;" horiz-adv-x="1279" 
d="M576 167q69 0 123.5 25.5t92 74t57.5 118t20 158.5t-20 159t-57.5 118.5t-92 74t-123.5 25.5t-123.5 -25.5t-92.5 -74.5t-58 -119t-20 -158q0 -89 20 -158.5t58 -118t92.5 -74t123.5 -25.5zM1089 541q0 -127 -36 -229.5t-102.5 -174.5t-162 -111t-213.5 -39t-213 39
t-161.5 111.5t-102.5 175t-36 229.5t36 230t102.5 176t161 112.5t210.5 39.5q63 0 112.5 -11t89.5 -27t72 -35.5t59.5 -35.5t53 -27t51.5 -11q54 0 79 37t25 120v152h181v-203q0 -60 -17.5 -109t-49 -84t-75.5 -54t-98 -19q-5 0 -7 1q-1 0 -2.5 -1t-2.5 -1
q23 -55 34.5 -118.5t11.5 -132.5z" />
    <glyph glyph-name="Uhorn" unicode="&#x1af;" horiz-adv-x="1658" 
d="M1302 1354q40 -36 95 -34t79 37.5t24 117.5v153h181v-204q0 -61 -18 -110.5t-51 -85t-80 -54.5t-105 -19q-32 0 -68 9.5t-58 26.5v-684q0 -120 -42 -218t-118.5 -167.5t-184 -107.5t-239.5 -38t-240 38t-184.5 107.5t-118 167.5t-41.5 218v936h224v-917
q0 -81 25.5 -145.5t72 -110.5t113 -70.5t149.5 -24.5t149.5 24.5t113.5 70.5t72.5 110.5t25.5 145.5v917h224v-89v0z" />
    <glyph glyph-name="uhorn" unicode="&#x1b0;" horiz-adv-x="1441" 
d="M846 186q-48 -97 -137 -147.5t-214 -50.5q-89 0 -161 28t-122.5 80.5t-78 126.5t-27.5 167v696h217v-655q0 -125 63 -190.5t183 -65.5q61 0 111 20.5t85.5 57.5t55 89.5t19.5 117.5v626h217v-82q40 -29 89 -26q55 2 78.5 37.5t23.5 117.5v152h181v-202q0 -62 -17.5 -112
t-49.5 -85t-78.5 -54t-103.5 -19q-15 0 -32 2t-33.5 5.5t-31.5 9.5t-26 14v-844h-207v186h-4v0z" />
    <glyph glyph-name="u01C4" unicode="&#x1c4;" horiz-adv-x="2686" 
d="M650 1443q161 0 288 -48.5t214.5 -140.5t134 -225.5t46.5 -304.5t-46.5 -305.5t-134 -227.5t-214.5 -142t-288 -49h-517v1443h517zM357 194h272q115 0 203.5 34.5t149 101.5t92 165.5t31.5 226.5q0 127 -31.5 225.5t-92 166t-149 102t-203.5 34.5h-272v-1056zM1508 153
l790 1089v8h-766v193h1041v-153l-787 -1089v-7h806v-194h-1084v153zM1678 1853h188l182 -199h4l182 199h188l-286 -306h-172z" />
    <glyph glyph-name="u01C5" unicode="&#x1c5;" horiz-adv-x="2428" 
d="M650 1443q161 0 288 -48.5t214.5 -140.5t134 -225.5t46.5 -304.5t-46.5 -305.5t-134 -227.5t-214.5 -142t-288 -49h-517v1443h517zM357 194h272q115 0 203.5 34.5t149 101.5t92 165.5t31.5 226.5q0 127 -31.5 225.5t-92 166t-149 102t-203.5 34.5h-272v-1056zM1841 1251
l-273 307h185l164 -194h6l164 194h185l-273 -307h-158zM1502 141l584 769v3h-581v173h828v-149l-570 -760v-4h576v-173h-837v141z" />
    <glyph glyph-name="u01C6" unicode="&#x1c6;" horiz-adv-x="2215" 
d="M520 -11q-102 0 -186.5 39.5t-144.5 112t-93.5 175t-33.5 228.5q0 125 33.5 227t93.5 174.5t144 112t185 39.5q118 0 206.5 -50t135.5 -141h5v602h216v-1508h-210v184h-4q-48 -93 -137.5 -144t-209.5 -51zM575 913q-66 0 -119.5 -26.5t-91.5 -74.5t-59 -116.5t-21 -152.5
t20.5 -152.5t59 -117t92 -74.5t119.5 -26q65 0 118.5 26.5t92 75t59.5 117t21 151.5t-21 151t-59.5 117t-92 75.5t-118.5 26.5zM1628 1251l-273 307h185l164 -194h6l164 194h185l-273 -307h-158zM1289 141l584 769v3h-581v173h828v-149l-570 -760v-4h576v-173h-837v141z" />
    <glyph glyph-name="u01C7" unicode="&#x1c7;" horiz-adv-x="2148" 
d="M1346 370q1 -45 17 -82t44.5 -64t67.5 -41.5t86 -14.5q111 0 169 64t58 189v1022h224v-1023q0 -107 -30.5 -191t-88.5 -142t-141.5 -88.5t-188.5 -30.5q-98 0 -178 29t-138 82t-89.5 127t-31.5 164h220zM1029 0h-896v1443h224v-1249h672v-194z" />
    <glyph glyph-name="u01C8" unicode="&#x1c8;" horiz-adv-x="1543" 
d="M1424 -65q0 -167 -86.5 -246t-266.5 -79h-10.5h-15t-14 0.5t-8.5 0.5v172h5.5t9.5 -0.5t9.5 -0.5h6.5q84 0 118.5 35t34.5 119v1150h217v-1151zM1316 1241q-26 0 -49.5 10t-40.5 27t-27 39.5t-10 48.5q0 27 10 49.5t27 39.5t40.5 26.5t49.5 9.5t49 -9.5t40.5 -26.5
t27.5 -39.5t10 -49.5q0 -26 -10 -48.5t-27.5 -39.5t-40.5 -27t-49 -10zM1029 0h-896v1443h224v-1249h672v-194z" />
    <glyph glyph-name="u01C9" unicode="&#x1c9;" horiz-adv-x="912" 
d="M793 -65q0 -167 -86.5 -246t-266.5 -79h-10.5h-15t-14 0.5t-8.5 0.5v172h5.5t9.5 -0.5t9.5 -0.5h6.5q84 0 118.5 35t34.5 119v1150h217v-1151zM685 1241q-26 0 -49.5 10t-40.5 27t-27 39.5t-10 48.5q0 27 10 49.5t27 39.5t40.5 26.5t49.5 9.5t49 -9.5t40.5 -26.5
t27.5 -39.5t10 -49.5q0 -26 -10 -48.5t-27.5 -39.5t-40.5 -27t-49 -10zM120 1508h217v-1508h-217v1508z" />
    <glyph glyph-name="u01CA" unicode="&#x1ca;" horiz-adv-x="2503" 
d="M1701 370q1 -45 17 -82t44.5 -64t67.5 -41.5t86 -14.5q111 0 169 64t58 189v1022h224v-1023q0 -107 -30.5 -191t-88.5 -142t-141.5 -88.5t-188.5 -30.5q-98 0 -178 29t-138 82t-89.5 127t-31.5 164h220zM133 0v1443h203l748 -1064h8v1064h218v-1443h-202l-748 1063h-9
v-1063h-218z" />
    <glyph glyph-name="u01CB" unicode="&#x1cb;" horiz-adv-x="1898" 
d="M1779 -65q0 -167 -86.5 -246t-266.5 -79h-10.5h-15t-14 0.5t-8.5 0.5v172h5.5t9.5 -0.5t9.5 -0.5h6.5q84 0 118.5 35t34.5 119v1150h217v-1151zM1671 1241q-26 0 -49.5 10t-40.5 27t-27 39.5t-10 48.5q0 27 10 49.5t27 39.5t40.5 26.5t49.5 9.5t49 -9.5t40.5 -26.5
t27.5 -39.5t10 -49.5q0 -26 -10 -48.5t-27.5 -39.5t-40.5 -27t-49 -10zM133 0v1443h203l748 -1064h8v1064h218v-1443h-202l-748 1063h-9v-1063h-218z" />
    <glyph glyph-name="u01CC" unicode="&#x1cc;" horiz-adv-x="1623" 
d="M1504 -65q0 -167 -86.5 -246t-266.5 -79h-10.5h-15t-14 0.5t-8.5 0.5v172h5.5t9.5 -0.5t9.5 -0.5h6.5q84 0 118.5 35t34.5 119v1150h217v-1151zM1396 1241q-26 0 -49.5 10t-40.5 27t-27 39.5t-10 48.5q0 27 10 49.5t27 39.5t40.5 26.5t49.5 9.5t49 -9.5t40.5 -26.5
t27.5 -39.5t10 -49.5q0 -26 -10 -48.5t-27.5 -39.5t-40.5 -27t-49 -10zM111 1086h207v-183h4q50 97 138 146t215 49q90 0 161.5 -27.5t122 -79.5t77 -126.5t26.5 -168.5v-696h-217v655q0 125 -62.5 191t-182.5 66q-62 0 -112 -20.5t-85.5 -58t-55 -90t-19.5 -116.5v-627
h-217v1086z" />
    <glyph glyph-name="Acaron" unicode="&#x1cd;" horiz-adv-x="1336" 
d="M941 390h-550l-132 -390h-233l521 1443h242l521 -1443h-237zM448 570h436l-215 633h-6zM296 1853h188l182 -199h4l182 199h188l-286 -306h-172z" />
    <glyph glyph-name="acaron" unicode="&#x1ce;" horiz-adv-x="1092" 
d="M488 162q60 0 112 18.5t90 51t59.5 77.5t21.5 99v85l-264 -18q-112 -7 -168.5 -47.5t-56.5 -112.5q0 -70 56 -111.5t150 -41.5zM430 -11q-81 0 -148.5 23t-116 65t-75.5 101.5t-27 132.5q0 143 106.5 223.5t308.5 93.5l293 17v84q0 94 -59.5 143t-168.5 49q-44 0 -82 -11
t-67 -31.5t-48 -49t-26 -63.5h-203q2 72 35.5 133t91 106t135.5 70t170 25q99 0 179.5 -25t137.5 -71.5t88 -112t31 -146.5v-745h-207v181h-5q-23 -44 -58.5 -79.5t-80 -60.5t-97 -38.5t-107.5 -13.5zM466 1251l-273 307h185l164 -194h6l164 194h185l-273 -307h-158z" />
    <glyph glyph-name="Icaron" unicode="&#x1cf;" horiz-adv-x="490" 
d="M133 0v1443h224v-1443h-224zM-127 1853h188l182 -199h4l182 199h188l-286 -306h-172z" />
    <glyph glyph-name="icaron" unicode="&#x1d0;" horiz-adv-x="455" 
d="M149 1251l-273 307h185l164 -194h6l164 194h185l-273 -307h-158zM119 1086h217v-1086h-217v1086z" />
    <glyph glyph-name="Ocaron" unicode="&#x1d1;" horiz-adv-x="1513" 
d="M385 1853h188l182 -199h4l182 199h188l-286 -306h-172zM757 1467q156 0 281 -52t212.5 -149t135 -235t47.5 -310t-47.5 -310t-135 -234.5t-212.5 -148.5t-281 -52t-281 52t-213 148.5t-135 234.5t-47 310t47 310t135 235t213 149t281 52zM757 1270q-103 0 -185.5 -38.5
t-140.5 -109.5t-89.5 -173t-31.5 -228t31.5 -227.5t89.5 -172.5t140.5 -109.5t185.5 -38.5t185.5 38.5t140.5 109.5t89 172.5t31 227.5t-31 228t-89 173t-140.5 109.5t-185.5 38.5z" />
    <glyph glyph-name="ocaron" unicode="&#x1d2;" horiz-adv-x="1152" 
d="M497 1251l-273 307h185l164 -194h6l164 194h185l-273 -307h-158zM576 -13q-118 0 -213 39t-162 111t-103 175t-36 231t36.5 231t103.5 175.5t162 111.5t212 39t212 -39t162 -111.5t103 -175.5t36 -231t-36 -231t-103 -175t-161.5 -111t-212.5 -39zM576 167
q69 0 123.5 25.5t92 73.5t57.5 118t20 159t-20 159t-57.5 118.5t-92 74t-123.5 25.5t-123.5 -25.5t-92.5 -74.5t-58 -119t-20 -158q0 -89 20 -159t58 -118t92.5 -73.5t123.5 -25.5z" />
    <glyph glyph-name="Ucaron" unicode="&#x1d3;" horiz-adv-x="1434" 
d="M345 1853h188l182 -199h4l182 199h188l-286 -306h-172zM357 526q0 -77 24 -141.5t70 -111t113 -72.5t153 -26t153.5 26t113.5 72.5t70 111t24 141.5v917h223v-936q0 -117 -40.5 -214.5t-116 -168t-183.5 -109.5t-244 -39t-244 39t-183.5 109.5t-116 168t-40.5 214.5v936
h224v-917z" />
    <glyph glyph-name="ucaron" unicode="&#x1d4;" horiz-adv-x="1168" 
d="M503 1251l-273 307h185l164 -194h6l164 194h185l-273 -307h-158zM1057 0h-207v186h-4q-48 -97 -137 -147.5t-214 -50.5q-89 0 -161 28t-122.5 80t-78 126.5t-27.5 167.5v696h217v-655q0 -126 64 -191t182 -65q61 0 111 20.5t85.5 57.5t55 89.5t19.5 117.5v626h217v-1086z
" />
    <glyph glyph-name="Udieresismacron" unicode="&#x1d5;" horiz-adv-x="1434" 
d="M357 526q0 -77 24 -141.5t70 -111t113 -72.5t153 -26t153.5 26t113.5 72.5t70 111t24 141.5v917h223v-936q0 -117 -40.5 -214.5t-116 -168t-183.5 -109.5t-244 -39t-244 39t-183.5 109.5t-116 168t-40.5 214.5v936h224v-917zM525 1798q22 0 42 -8.5t34.5 -23.5t23 -34.5
t8.5 -41.5q0 -23 -8.5 -42.5t-23 -34t-34.5 -23t-42 -8.5q-23 0 -43 8.5t-35 23t-23.5 34t-8.5 42.5q0 22 8.5 41.5t23.5 34.5t35 23.5t43 8.5zM1044 2042v-119h-654v119h654zM909 1798q23 0 43 -8.5t35 -23.5t23.5 -34.5t8.5 -41.5q0 -23 -8.5 -42.5t-23.5 -34t-35 -23
t-43 -8.5t-42.5 8.5t-34 23t-23 34t-8.5 42.5q0 22 8.5 41.5t23 34.5t34 23.5t42.5 8.5z" />
    <glyph glyph-name="udieresismacron" unicode="&#x1d6;" horiz-adv-x="1168" 
d="M1057 0h-207v186h-4q-48 -97 -137 -147.5t-214 -50.5q-89 0 -161 28t-122.5 80t-78 126.5t-27.5 167.5v696h217v-655q0 -126 64 -191t182 -65q61 0 111 20.5t85.5 57.5t55 89.5t19.5 117.5v626h217v-1086zM383 1260q-24 0 -45 9t-36.5 24.5t-24.5 36t-9 43.5q0 24 9 44.5
t24.5 35.5t36.5 24t45 9t45 -9t36.5 -24t24 -35.5t8.5 -44.5q0 -23 -8.5 -43.5t-24 -36t-36.5 -24.5t-45 -9zM781 1260q-24 0 -45 9t-36 24.5t-24 36t-9 43.5q0 24 9 44.5t24 35.5t36 24t45 9t45 -9t36.5 -24t24.5 -35.5t9 -44.5q0 -23 -9 -43.5t-24.5 -36t-36.5 -24.5
t-45 -9zM905 1658h-646v119h646v-119z" />
    <glyph glyph-name="Udieresisacute" unicode="&#x1d7;" horiz-adv-x="1434" 
d="M821 2081h212l-237 -218h-163zM525 1582q-23 0 -43 8.5t-35 23t-23.5 34t-8.5 42.5q0 22 8.5 41.5t23.5 34.5t35 23.5t43 8.5q22 0 42 -8.5t34.5 -23.5t23 -34.5t8.5 -41.5q0 -23 -8.5 -42.5t-23 -34t-34.5 -23t-42 -8.5zM909 1582q-23 0 -42.5 8.5t-34 23t-23 34
t-8.5 42.5q0 22 8.5 41.5t23 34.5t34 23.5t42.5 8.5t43 -8.5t35 -23.5t23.5 -34.5t8.5 -41.5q0 -23 -8.5 -42.5t-23.5 -34t-35 -23t-43 -8.5zM357 526q0 -77 24 -141.5t70 -111t113 -72.5t153 -26t153.5 26t113.5 72.5t70 111t24 141.5v917h223v-936q0 -117 -40.5 -214.5
t-116 -168t-183.5 -109.5t-244 -39t-244 39t-183.5 109.5t-116 168t-40.5 214.5v936h224v-917z" />
    <glyph glyph-name="udieresisacute" unicode="&#x1d8;" horiz-adv-x="1168" 
d="M663 1864h212l-206 -261h-174zM381 1260q-25 0 -47 9.5t-38.5 25.5t-26 38t-9.5 46q0 25 9.5 46.5t26 37.5t38.5 25.5t47 9.5t47 -9.5t38 -25.5t25.5 -37.5t9.5 -46.5q0 -24 -9.5 -46t-25.5 -38t-38 -25.5t-47 -9.5zM784 1260q-25 0 -47 9.5t-38.5 25.5t-26 38t-9.5 46
q0 25 9.5 46.5t26 37.5t38.5 25.5t47 9.5t47 -9.5t38 -25.5t25.5 -37.5t9.5 -46.5q0 -24 -9.5 -46t-25.5 -38t-38 -25.5t-47 -9.5zM1057 0h-207v186h-4q-48 -97 -137 -147.5t-214 -50.5q-89 0 -161 28t-122.5 80t-78 126.5t-27.5 167.5v696h217v-655q0 -126 64 -191t182 -65
q61 0 111 20.5t85.5 57.5t55 89.5t19.5 117.5v626h217v-1086z" />
    <glyph glyph-name="Udieresiscaron" unicode="&#x1d9;" horiz-adv-x="1434" 
d="M365 2085h198l146 -125h16l146 125h198l-263 -222h-178zM525 1798q22 0 42 -8.5t34.5 -23.5t23 -34.5t8.5 -41.5q0 -23 -8.5 -42.5t-23 -34t-34.5 -23t-42 -8.5q-23 0 -43 8.5t-35 23t-23.5 34t-8.5 42.5q0 22 8.5 41.5t23.5 34.5t35 23.5t43 8.5zM909 1798q23 0 43 -8.5
t35 -23.5t23.5 -34.5t8.5 -41.5q0 -23 -8.5 -42.5t-23.5 -34t-35 -23t-43 -8.5t-42.5 8.5t-34 23t-23 34t-8.5 42.5q0 22 8.5 41.5t23 34.5t34 23.5t42.5 8.5zM357 526q0 -77 24 -141.5t70 -111t113 -72.5t153 -26t153.5 26t113.5 72.5t70 111t24 141.5v917h223v-936
q0 -117 -40.5 -214.5t-116 -168t-183.5 -109.5t-244 -39t-244 39t-183.5 109.5t-116 168t-40.5 214.5v936h224v-917z" />
    <glyph glyph-name="udieresiscaron" unicode="&#x1da;" horiz-adv-x="1168" 
d="M383 1260q-25 0 -46.5 9.5t-37.5 25t-25.5 37t-9.5 45.5t9.5 45.5t25.5 37.5t37.5 25t46.5 9t46.5 -9t37.5 -25t25 -37.5t9 -45.5t-9 -45.5t-25 -37t-37.5 -25t-46.5 -9.5zM781 1260q-24 0 -45.5 9.5t-37.5 25t-25.5 37t-9.5 45.5t9.5 45.5t25.5 37.5t37.5 25t45.5 9
q25 0 46.5 -9t37.5 -25t25.5 -37.5t9.5 -45.5t-9.5 -45.5t-25.5 -37t-37.5 -25t-46.5 -9.5zM484 1596l-260 271h183l172 -180h6l172 180h183l-260 -271h-196zM1057 0h-207v186h-4q-48 -97 -137 -147.5t-214 -50.5q-89 0 -161 28t-122.5 80t-78 126.5t-27.5 167.5v696h217
v-655q0 -126 64 -191t182 -65q61 0 111 20.5t85.5 57.5t55 89.5t19.5 117.5v626h217v-1086z" />
    <glyph glyph-name="Udieresisgrave" unicode="&#x1db;" horiz-adv-x="1434" 
d="M638 1863l-237 218h212l188 -218h-163zM525 1582q-23 0 -43 8.5t-35 23t-23.5 34t-8.5 42.5q0 22 8.5 41.5t23.5 34.5t35 23.5t43 8.5q22 0 42 -8.5t34.5 -23.5t23 -34.5t8.5 -41.5q0 -23 -8.5 -42.5t-23 -34t-34.5 -23t-42 -8.5zM909 1582q-23 0 -42.5 8.5t-34 23
t-23 34t-8.5 42.5q0 22 8.5 41.5t23 34.5t34 23.5t42.5 8.5t43 -8.5t35 -23.5t23.5 -34.5t8.5 -41.5q0 -23 -8.5 -42.5t-23.5 -34t-35 -23t-43 -8.5zM357 526q0 -77 24 -141.5t70 -111t113 -72.5t153 -26t153.5 26t113.5 72.5t70 111t24 141.5v917h223v-936
q0 -117 -40.5 -214.5t-116 -168t-183.5 -109.5t-244 -39t-244 39t-183.5 109.5t-116 168t-40.5 214.5v936h224v-917z" />
    <glyph glyph-name="udieresisgrave" unicode="&#x1dc;" horiz-adv-x="1168" 
d="M497 1607l-207 260h216l165 -260h-174zM381 1260q-25 0 -47 9.5t-38.5 25.5t-26 38t-9.5 46q0 25 9.5 46.5t26 37.5t38.5 25.5t47 9.5t47 -9.5t38 -25.5t25.5 -37.5t9.5 -46.5q0 -24 -9.5 -46t-25.5 -38t-38 -25.5t-47 -9.5zM784 1260q-25 0 -47 9.5t-38.5 25.5t-26 38
t-9.5 46q0 25 9.5 46.5t26 37.5t38.5 25.5t47 9.5t47 -9.5t38 -25.5t25.5 -37.5t9.5 -46.5q0 -24 -9.5 -46t-25.5 -38t-38 -25.5t-47 -9.5zM1057 0h-207v186h-4q-48 -97 -137 -147.5t-214 -50.5q-89 0 -161 28t-122.5 80t-78 126.5t-27.5 167.5v696h217v-655q0 -126 64 -191
t182 -65q61 0 111 20.5t85.5 57.5t55 89.5t19.5 117.5v626h217v-1086z" />
    <glyph glyph-name="Adieresismacron" unicode="&#x1de;" horiz-adv-x="1336" 
d="M941 390h-550l-132 -390h-233l521 1443h242l521 -1443h-237zM448 570h436l-215 633h-6zM476 1798q22 0 42 -8.5t34.5 -23.5t23 -34.5t8.5 -41.5q0 -23 -8.5 -42.5t-23 -34t-34.5 -23t-42 -8.5q-23 0 -43 8.5t-35 23t-23.5 34t-8.5 42.5q0 22 8.5 41.5t23.5 34.5t35 23.5
t43 8.5zM995 2042v-119h-654v119h654zM860 1798q23 0 43 -8.5t35 -23.5t23.5 -34.5t8.5 -41.5q0 -23 -8.5 -42.5t-23.5 -34t-35 -23t-43 -8.5t-42.5 8.5t-34 23t-23 34t-8.5 42.5q0 22 8.5 41.5t23 34.5t34 23.5t42.5 8.5z" />
    <glyph glyph-name="adieresismacron" unicode="&#x1df;" horiz-adv-x="1092" 
d="M488 162q60 0 112 18.5t90 51t59.5 77.5t21.5 99v85l-264 -18q-112 -7 -168.5 -47.5t-56.5 -112.5q0 -70 56 -111.5t150 -41.5zM430 -11q-81 0 -148.5 23t-116 65t-75.5 101.5t-27 132.5q0 143 106.5 223.5t308.5 93.5l293 17v84q0 94 -59.5 143t-168.5 49q-44 0 -82 -11
t-67 -31.5t-48 -49t-26 -63.5h-203q2 72 35.5 133t91 106t135.5 70t170 25q99 0 179.5 -25t137.5 -71.5t88 -112t31 -146.5v-745h-207v181h-5q-23 -44 -58.5 -79.5t-80 -60.5t-97 -38.5t-107.5 -13.5zM346 1260q-24 0 -45 9t-36.5 24.5t-24.5 36t-9 43.5q0 24 9 44.5
t24.5 35.5t36.5 24t45 9t45 -9t36.5 -24t24 -35.5t8.5 -44.5q0 -23 -8.5 -43.5t-24 -36t-36.5 -24.5t-45 -9zM744 1260q-24 0 -45 9t-36 24.5t-24 36t-9 43.5q0 24 9 44.5t24 35.5t36 24t45 9t45 -9t36.5 -24t24.5 -35.5t9 -44.5q0 -23 -9 -43.5t-24.5 -36t-36.5 -24.5
t-45 -9zM868 1658h-646v119h646v-119z" />
    <glyph glyph-name="Adotmacron" unicode="&#x1e0;" horiz-adv-x="1336" 
d="M941 390h-550l-132 -390h-233l521 1443h242l521 -1443h-237zM448 570h436l-215 633h-6zM668 1567q-26 0 -49 9.5t-39.5 26.5t-26 39t-9.5 48q0 25 9.5 47t26 38.5t39.5 26t49 9.5t49 -9.5t39.5 -26t26 -38.5t9.5 -47q0 -26 -9.5 -48t-26 -39t-39.5 -26.5t-49 -9.5z
M995 1923h-654v119h654v-119z" />
    <glyph glyph-name="adotmacron" unicode="&#x1e1;" horiz-adv-x="1092" 
d="M488 162q60 0 112 18.5t90 51t59.5 77.5t21.5 99v85l-264 -18q-112 -7 -168.5 -47.5t-56.5 -112.5q0 -70 56 -111.5t150 -41.5zM430 -11q-81 0 -148.5 23t-116 65t-75.5 101.5t-27 132.5q0 143 106.5 223.5t308.5 93.5l293 17v84q0 94 -59.5 143t-168.5 49q-44 0 -82 -11
t-67 -31.5t-48 -49t-26 -63.5h-203q2 72 35.5 133t91 106t135.5 70t170 25q99 0 179.5 -25t137.5 -71.5t88 -112t31 -146.5v-745h-207v181h-5q-23 -44 -58.5 -79.5t-80 -60.5t-97 -38.5t-107.5 -13.5zM545 1258q-27 0 -51 10t-42 28t-28.5 42t-10.5 51t10.5 50.5t28.5 41.5
t42 28.5t51 10.5t51 -10.5t42 -28.5t28.5 -41.5t10.5 -50.5t-10.5 -51t-28.5 -42t-42 -28t-51 -10zM868 1660h-646v119h646v-119z" />
    <glyph glyph-name="AEmacron" unicode="&#x1e2;" horiz-adv-x="1997" 
d="M514 607h449v656h-151zM963 428h-527l-196 -428h-227l661 1443h1189v-193h-685v-430h648v-186h-648v-441h685v-193h-900v428zM1744 1636h-654v119h654v-119z" />
    <glyph glyph-name="aemacron" unicode="&#x1e3;" horiz-adv-x="1796" 
d="M1269 -13q-135 0 -237 56.5t-156 160.5h-9q-64 -106 -166 -160.5t-240 -54.5q-91 0 -164.5 22.5t-125.5 64.5t-80 100.5t-28 130.5q0 144 106.5 225.5t307.5 92.5l293 15v74q0 46 -17 84t-48 65.5t-73.5 42.5t-94.5 15q-97 0 -156.5 -41.5t-66.5 -113.5h-206
q4 73 36.5 134.5t88 105.5t131 69t167.5 25q67 0 125 -13.5t105.5 -39t82.5 -62t56 -82.5h8q56 96 148 146.5t214 50.5q106 0 192 -37.5t146.5 -107.5t93 -169t32.5 -222v-75h-755v-14q0 -71 21 -128.5t59.5 -98.5t92.5 -63t121 -22q92 0 155.5 41t86.5 114h207
q-12 -74 -50.5 -135t-98 -104.5t-137 -67.5t-167.5 -24zM1258 923q-59 0 -108 -20t-85 -57t-58.5 -89t-26.5 -115h536q-2 65 -20.5 117t-52 88.5t-80.5 56t-105 19.5zM480 162q61 0 114 19t92 52t61.5 78t22.5 97v80l-266 -15q-108 -6 -165 -46.5t-57 -111.5q0 -35 14 -63
t40 -48t62.5 -31t81.5 -11zM1223 1312h-646v119h646v-119z" />
    <glyph glyph-name="Gcaron" unicode="&#x1e6;" horiz-adv-x="1462" 
d="M375 1853h188l182 -199h4l182 199h188l-286 -306h-172zM1376 600q0 -147 -42 -262.5t-122 -196t-195.5 -123t-262.5 -42.5q-155 0 -279.5 52.5t-212 150t-134.5 236.5t-47 313q0 171 47 307.5t134 232.5t211 147.5t278 51.5q120 0 224 -34t184.5 -97t133.5 -151t72 -196
h-230q-41 135 -141 208.5t-242 73.5q-104 0 -186 -37t-139 -106.5t-87 -170t-30 -227.5q0 -129 31 -232.5t89 -176t140.5 -111t185.5 -38.5q88 0 161 27t125.5 75.5t82 116.5t30.5 150v25h-373v181h594v-147z" />
    <glyph glyph-name="gcaron" unicode="&#x1e7;" horiz-adv-x="1192" 
d="M495 1251l-273 307h185l164 -194h6l164 194h185l-273 -307h-158zM572 183q66 0 120 26t92.5 73.5t59.5 114.5t21 149t-21 150t-59.5 116t-92.5 74.5t-120 26.5t-119 -26t-90.5 -74t-58 -115.5t-20.5 -151.5q0 -83 20.5 -150.5t58 -114.5t90.5 -72.5t119 -25.5zM573 -391
q-98 0 -180.5 22t-143.5 62t-98.5 96.5t-45.5 126.5h219q9 -32 31.5 -57t56.5 -43t77 -27.5t93 -9.5q64 0 116.5 16.5t89.5 46.5t57 73t20 96v179h-5q-48 -88 -138.5 -137.5t-206.5 -49.5q-102 0 -185.5 38.5t-143 109.5t-92 171.5t-32.5 224.5q0 126 32.5 227.5t92.5 173
t144.5 110.5t188.5 39q116 0 206 -50t141 -141h4v180h210v-1058q0 -97 -35.5 -174.5t-101.5 -132t-160 -83.5t-211 -29z" />
    <glyph glyph-name="Kcaron" unicode="&#x1e8;" horiz-adv-x="1293" 
d="M133 0v1443h224v-687h9l603 687h266l-572 -639l620 -804h-278l-500 650l-148 -169v-481h-224zM257 1853h188l182 -199h4l182 199h188l-286 -306h-172z" />
    <glyph glyph-name="kcaron" unicode="&#x1e9;" horiz-adv-x="1062" 
d="M785 1086h255l-454 -468l470 -618h-250l-375 486l-94 -92v-394h-217v1508h217v-891h1zM-144 1918h188l182 -199h4l182 199h188l-286 -306h-172z" />
    <glyph glyph-name="Oogonek" unicode="&#x1ea;" horiz-adv-x="1513" 
d="M1122 -423q-21 -8 -54 -12.5t-62 -4.5q-54 0 -99 15t-77.5 43t-50 67t-17.5 86q0 68 27 121t83 97v4q-30 -10 -57 -13.5t-57 -3.5q-158 0 -283.5 51.5t-213 148t-134 234.5t-46.5 312q0 172 47 310t134.5 235t213 148.5t282.5 51.5q156 0 281 -51.5t212.5 -148
t134 -234.5t46.5 -311q0 -124 -21.5 -218.5t-56.5 -167t-80 -126.5t-91 -96q-47 -42 -91.5 -76.5t-79.5 -68t-56.5 -69.5t-21.5 -81q0 -51 33 -82t87 -31q17 0 37.5 2.5t30.5 5.5v-137zM758 1270q-104 0 -186.5 -38t-141 -109.5t-89.5 -173t-31 -227.5q0 -128 31 -229.5
t89 -172.5t141 -109t187 -38q103 0 185.5 38t140 109.5t88.5 173t31 228.5t-31 228.5t-88.5 172.5t-140 109t-185.5 38z" />
    <glyph glyph-name="oogonek" unicode="&#x1eb;" horiz-adv-x="1152" 
d="M780 -440q-52 0 -95.5 16t-74.5 45.5t-48 70t-17 90.5q0 54 26 105.5t77 98.5v3q-12 -1 -30.5 -1.5t-41.5 -0.5q-118 0 -213 39t-162 111t-103 175t-36 231t36 231t103 175.5t162 111.5t213 39t212.5 -39t161.5 -111.5t103 -175.5t36 -231q0 -75 -11 -139t-34 -120
t-59.5 -105.5t-87.5 -95.5q-52 -48 -86.5 -85t-55.5 -68t-30 -58.5t-9 -56.5q0 -51 32 -80.5t86 -29.5q18 0 41 2.5t39 6.5v-134q-25 -9 -63 -14.5t-71 -5.5zM576 167q69 0 123.5 25.5t92 74t57.5 118t20 158.5t-20 159t-57.5 118.5t-92 74t-123.5 25.5t-123.5 -25.5
t-92.5 -74.5t-58 -119t-20 -158q0 -89 20 -158.5t58 -118t92.5 -74t123.5 -25.5z" />
    <glyph glyph-name="Oogonekmacron" unicode="&#x1ec;" horiz-adv-x="1513" 
d="M1122 -423q-21 -8 -54 -12.5t-62 -4.5q-54 0 -99 15t-77.5 43t-50 67t-17.5 86q0 68 27 121t83 97v4q-30 -10 -57 -13.5t-57 -3.5q-158 0 -283.5 51.5t-213 148t-134 234.5t-46.5 312q0 172 47 310t134.5 235t213 148.5t282.5 51.5q156 0 281 -51.5t212.5 -148
t134 -234.5t46.5 -311q0 -124 -21.5 -218.5t-56.5 -167t-80 -126.5t-91 -96q-47 -42 -91.5 -76.5t-79.5 -68t-56.5 -69.5t-21.5 -81q0 -51 33 -82t87 -31q17 0 37.5 2.5t30.5 5.5v-137zM758 1270q-104 0 -186.5 -38t-141 -109.5t-89.5 -173t-31 -227.5q0 -128 31 -229.5
t89 -172.5t141 -109t187 -38q103 0 185.5 38t140 109.5t88.5 173t31 228.5t-31 228.5t-88.5 172.5t-140 109t-185.5 38zM1084 1636h-654v119h654v-119z" />
    <glyph glyph-name="oogonekmacron" unicode="&#x1ed;" horiz-adv-x="1152" 
d="M899 1312h-646v119h646v-119zM780 -440q-52 0 -95.5 16t-74.5 45.5t-48 70t-17 90.5q0 54 26 105.5t77 98.5v3q-12 -1 -30.5 -1.5t-41.5 -0.5q-118 0 -213 39t-162 111t-103 175t-36 231t36 231t103 175.5t162 111.5t213 39t212.5 -39t161.5 -111.5t103 -175.5t36 -231
q0 -75 -11 -139t-34 -120t-59.5 -105.5t-87.5 -95.5q-52 -48 -86.5 -85t-55.5 -68t-30 -58.5t-9 -56.5q0 -51 32 -80.5t86 -29.5q18 0 41 2.5t39 6.5v-134q-25 -9 -63 -14.5t-71 -5.5zM576 167q69 0 123.5 25.5t92 74t57.5 118t20 158.5t-20 159t-57.5 118.5t-92 74
t-123.5 25.5t-123.5 -25.5t-92.5 -74.5t-58 -119t-20 -158q0 -89 20 -158.5t58 -118t92.5 -74t123.5 -25.5z" />
    <glyph glyph-name="u01F1" unicode="&#x1f1;" horiz-adv-x="2686" 
d="M1508 153l790 1089v8h-766v193h1041v-153l-787 -1089v-7h806v-194h-1084v153zM650 1443q161 0 288 -48.5t214.5 -140.5t134 -225.5t46.5 -304.5t-46.5 -305.5t-134 -227.5t-214.5 -142t-288 -49h-517v1443h517zM357 194h272q115 0 203.5 34.5t149 101.5t92 165.5
t31.5 226.5q0 127 -31.5 225.5t-92 166t-149 102t-203.5 34.5h-272v-1056z" />
    <glyph glyph-name="u01F2" unicode="&#x1f2;" horiz-adv-x="2428" 
d="M1502 141l584 769v3h-581v173h828v-149l-570 -760v-4h576v-173h-837v141zM650 1443q161 0 288 -48.5t214.5 -140.5t134 -225.5t46.5 -304.5t-46.5 -305.5t-134 -227.5t-214.5 -142t-288 -49h-517v1443h517zM357 194h272q115 0 203.5 34.5t149 101.5t92 165.5t31.5 226.5
q0 127 -31.5 225.5t-92 166t-149 102t-203.5 34.5h-272v-1056z" />
    <glyph glyph-name="u01F3" unicode="&#x1f3;" horiz-adv-x="2215" 
d="M1289 141l584 769v3h-581v173h828v-149l-570 -760v-4h576v-173h-837v141zM520 -11q-102 0 -186.5 39.5t-144.5 112t-93.5 175t-33.5 228.5q0 125 33.5 227t93.5 174.5t144 112t185 39.5q118 0 206.5 -50t135.5 -141h5v602h216v-1508h-210v184h-4q-48 -93 -137.5 -144
t-209.5 -51zM575 913q-66 0 -119.5 -26.5t-91.5 -74.5t-59 -116.5t-21 -152.5t20.5 -152.5t59 -117t92 -74.5t119.5 -26q65 0 118.5 26.5t92 75t59.5 117t21 151.5t-21 151t-59.5 117t-92 75.5t-118.5 26.5z" />
    <glyph glyph-name="Gacute" unicode="&#x1f4;" horiz-adv-x="1462" 
d="M659 1551l231 303h225l-280 -303h-176zM1376 600q0 -147 -42 -262.5t-122 -196t-195.5 -123t-262.5 -42.5q-155 0 -279.5 52.5t-212 150t-134.5 236.5t-47 313q0 171 47 307.5t134 232.5t211 147.5t278 51.5q120 0 224 -34t184.5 -97t133.5 -151t72 -196h-230
q-41 135 -141 208.5t-242 73.5q-104 0 -186 -37t-139 -106.5t-87 -170t-30 -227.5q0 -129 31 -232.5t89 -176t140.5 -111t185.5 -38.5q88 0 161 27t125.5 75.5t82 116.5t30.5 150v25h-373v181h594v-147z" />
    <glyph glyph-name="gacute" unicode="&#x1f5;" horiz-adv-x="1192" 
d="M483 1255l215 303h225l-262 -303h-178zM572 183q66 0 120 26t92.5 73.5t59.5 114.5t21 149t-21 150t-59.5 116t-92.5 74.5t-120 26.5t-119 -26t-90.5 -74t-58 -115.5t-20.5 -151.5q0 -83 20.5 -150.5t58 -114.5t90.5 -72.5t119 -25.5zM573 -391q-98 0 -180.5 22
t-143.5 62t-98.5 96.5t-45.5 126.5h219q9 -32 31.5 -57t56.5 -43t77 -27.5t93 -9.5q64 0 116.5 16.5t89.5 46.5t57 73t20 96v179h-5q-48 -88 -138.5 -137.5t-206.5 -49.5q-102 0 -185.5 38.5t-143 109.5t-92 171.5t-32.5 224.5q0 126 32.5 227.5t92.5 173t144.5 110.5
t188.5 39q116 0 206 -50t141 -141h4v180h210v-1058q0 -97 -35.5 -174.5t-101.5 -132t-160 -83.5t-211 -29z" />
    <glyph glyph-name="Ngrave" unicode="&#x1f8;" horiz-adv-x="1443" 
d="M355 1856h225l231 -303h-176zM133 0v1443h203l748 -1064h8v1064h218v-1443h-202l-748 1063h-9v-1063h-218z" />
    <glyph glyph-name="ngrave" unicode="&#x1f9;" horiz-adv-x="1168" 
d="M493 1255l-262 303h225l215 -303h-178zM111 1086h207v-183h4q50 97 138 146t215 49q90 0 161.5 -27.5t122 -79.5t77 -126.5t26.5 -168.5v-696h-217v655q0 125 -62.5 191t-182.5 66q-62 0 -112 -20.5t-85.5 -58t-55 -90t-19.5 -116.5v-627h-217v1086z" />
    <glyph glyph-name="Aringacute" unicode="&#x1fa;" horiz-adv-x="1336" 
d="M941 390h-550l-132 -390h-233l521 1443h242l521 -1443h-237zM448 570h436l-215 633h-6zM668 1484q-42 0 -79 15.5t-64 42.5t-43 63.5t-16 78.5q0 41 16 77.5t43 63.5t64 43t79 16t79 -15.5t64 -42.5t43 -63.5t16 -78.5t-16 -78.5t-43 -63.5t-64 -42.5t-79 -15.5z
M668 1575q23 0 43 8.5t34.5 23t23 34.5t8.5 43q0 22 -8.5 42t-23 34.5t-34.5 23t-43 8.5t-43 -8.5t-34.5 -23t-23 -34.5t-8.5 -42q0 -23 8.5 -43t23 -34.5t34.5 -23t43 -8.5zM920 2114l-175 -188h-146l119 188h202z" />
    <glyph glyph-name="aringacute" unicode="&#x1fb;" horiz-adv-x="1092" 
d="M488 162q60 0 112 18.5t90 51t59.5 77.5t21.5 99v85l-264 -18q-112 -7 -168.5 -47.5t-56.5 -112.5q0 -70 56 -111.5t150 -41.5zM430 -11q-81 0 -148.5 23t-116 65t-75.5 101.5t-27 132.5q0 143 106.5 223.5t308.5 93.5l293 17v84q0 94 -59.5 143t-168.5 49q-44 0 -82 -11
t-67 -31.5t-48 -49t-26 -63.5h-203q2 72 35.5 133t91 106t135.5 70t170 25q99 0 179.5 -25t137.5 -71.5t88 -112t31 -146.5v-745h-207v181h-5q-23 -44 -58.5 -79.5t-80 -60.5t-97 -38.5t-107.5 -13.5zM546 1193q-43 0 -80.5 16t-65.5 43.5t-44 65t-16 79.5q0 43 16 80t44 65
t65.5 44t80.5 16t80 -16t65 -44t44 -65t16 -80q0 -42 -16 -79.5t-44 -65t-65 -43.5t-80 -16zM436 1397q0 -23 8.5 -42.5t23.5 -34.5t35 -23.5t43 -8.5q22 0 42 8.5t35 23.5t23.5 34.5t8.5 42.5t-8.5 43t-23.5 35t-35 23.5t-42 8.5q-23 0 -43 -8.5t-35 -23.5t-23.5 -35
t-8.5 -43zM596 1876h186l-165 -203h-146z" />
    <glyph glyph-name="AEacute" unicode="&#x1fc;" horiz-adv-x="1997" 
d="M1329 1551l231 303h225l-280 -303h-176zM514 607h449v656h-151zM963 428h-527l-196 -428h-227l661 1443h1189v-193h-685v-430h648v-186h-648v-441h685v-193h-900v428z" />
    <glyph glyph-name="aeacute" unicode="&#x1fd;" horiz-adv-x="1796" 
d="M809 1255l215 303h225l-262 -303h-178zM1269 -13q-135 0 -237 56.5t-156 160.5h-9q-64 -106 -166 -160.5t-240 -54.5q-91 0 -164.5 22.5t-125.5 64.5t-80 100.5t-28 130.5q0 144 106.5 225.5t307.5 92.5l293 15v74q0 46 -17 84t-48 65.5t-73.5 42.5t-94.5 15
q-97 0 -156.5 -41.5t-66.5 -113.5h-206q4 73 36.5 134.5t88 105.5t131 69t167.5 25q67 0 125 -13.5t105.5 -39t82.5 -62t56 -82.5h8q56 96 148 146.5t214 50.5q106 0 192 -37.5t146.5 -107.5t93 -169t32.5 -222v-75h-755v-14q0 -71 21 -128.5t59.5 -98.5t92.5 -63t121 -22
q92 0 155.5 41t86.5 114h207q-12 -74 -50.5 -135t-98 -104.5t-137 -67.5t-167.5 -24zM1258 923q-59 0 -108 -20t-85 -57t-58.5 -89t-26.5 -115h536q-2 65 -20.5 117t-52 88.5t-80.5 56t-105 19.5zM480 162q61 0 114 19t92 52t61.5 78t22.5 97v80l-266 -15
q-108 -6 -165 -46.5t-57 -111.5q0 -35 14 -63t40 -48t62.5 -31t81.5 -11z" />
    <glyph glyph-name="Oslashacute" unicode="&#x1fe;" horiz-adv-x="1513" 
d="M871 1551h-176l231 303h225zM509 248q104 -75 248 -75q103 0 185.5 38.5t140.5 109.5t89 172.5t31 227.5q0 109 -22.5 198.5t-66.5 158.5zM1034 1173q-55 48 -124.5 72.5t-152.5 24.5q-103 0 -185.5 -38.5t-140.5 -109.5t-89.5 -173t-31.5 -228q0 -121 28 -218t82 -168z
M1251 1266q88 -97 135 -234.5t47 -310.5q0 -172 -47.5 -310t-135 -234.5t-212.5 -148.5t-281 -52q-109 0 -202.5 25.5t-171.5 73.5l-94 -129l-101 73l98 134q-99 97 -152 240.5t-53 327.5q0 172 47 310t135 235t213 149t281 52q120 0 221.5 -30.5t182.5 -89.5l108 147
l101 -65z" />
    <glyph glyph-name="oslashacute" unicode="&#x1ff;" horiz-adv-x="1152" 
d="M683 1255h-178l215 303h225zM430 204q63 -37 146 -37q69 0 123.5 25.5t92 73.5t57.5 118t20 159q0 149 -55 244zM730 878q-32 20 -70.5 31t-83.5 11q-69 0 -123.5 -25.5t-92.5 -74.5t-58 -119t-20 -158q0 -78 15 -140.5t44 -109.5zM933 967q75 -72 115.5 -179.5
t40.5 -244.5q0 -128 -36 -231t-103 -175t-161.5 -111t-212.5 -39q-72 0 -135 14.5t-117 42.5l-61 -93l-104 67l64 97q-78 72 -119.5 180t-41.5 248q0 128 36.5 231t103.5 175.5t162 111.5t212 39q150 0 260 -62l65 98l102 -62z" />
    <glyph glyph-name="Adblgrave" unicode="&#x200;" horiz-adv-x="1336" 
d="M941 390h-550l-132 -390h-233l521 1443h242l521 -1443h-237zM448 570h436l-215 633h-6zM476 1854h217l231 -303h-169zM135 1854h217l231 -303h-168z" />
    <glyph glyph-name="adblgrave" unicode="&#x201;" horiz-adv-x="1092" 
d="M488 162q60 0 112 18.5t90 51t59.5 77.5t21.5 99v85l-264 -18q-112 -7 -168.5 -47.5t-56.5 -112.5q0 -70 56 -111.5t150 -41.5zM430 -11q-81 0 -148.5 23t-116 65t-75.5 101.5t-27 132.5q0 143 106.5 223.5t308.5 93.5l293 17v84q0 94 -59.5 143t-168.5 49q-44 0 -82 -11
t-67 -31.5t-48 -49t-26 -63.5h-203q2 72 35.5 133t91 106t135.5 70t170 25q99 0 179.5 -25t137.5 -71.5t88 -112t31 -146.5v-745h-207v181h-5q-23 -44 -58.5 -79.5t-80 -60.5t-97 -38.5t-107.5 -13.5zM299 1255l-247 303h215l194 -303h-162zM634 1255l-247 303h216l193 -303
h-162z" />
    <glyph glyph-name="Ainvertedbreve" unicode="&#x202;" horiz-adv-x="1336" 
d="M941 390h-550l-132 -390h-233l521 1443h242l521 -1443h-237zM448 570h436l-215 633h-6zM343 1547q0 66 23.5 122.5t66 97t102.5 63.5t133 23t133 -23t102.5 -63.5t66 -97t23.5 -122.5h-140q0 40 -14 74t-38.5 59.5t-58.5 40t-74 14.5t-74 -14.5t-58.5 -40t-38.5 -59.5
t-14 -74h-140z" />
    <glyph glyph-name="ainvertedbreve" unicode="&#x203;" horiz-adv-x="1092" 
d="M488 162q60 0 112 18.5t90 51t59.5 77.5t21.5 99v85l-264 -18q-112 -7 -168.5 -47.5t-56.5 -112.5q0 -70 56 -111.5t150 -41.5zM430 -11q-81 0 -148.5 23t-116 65t-75.5 101.5t-27 132.5q0 143 106.5 223.5t308.5 93.5l293 17v84q0 94 -59.5 143t-168.5 49q-44 0 -82 -11
t-67 -31.5t-48 -49t-26 -63.5h-203q2 72 35.5 133t91 106t135.5 70t170 25q99 0 179.5 -25t137.5 -71.5t88 -112t31 -146.5v-745h-207v181h-5q-23 -44 -58.5 -79.5t-80 -60.5t-97 -38.5t-107.5 -13.5zM210 1251q0 69 24 126.5t68 99t105.5 65t137.5 23.5t137.5 -23.5
t105.5 -65t68 -99t24 -126.5h-143q0 41 -15 76t-40.5 61t-60.5 41t-76 15t-76 -15t-60.5 -41t-40.5 -61t-15 -76h-143z" />
    <glyph glyph-name="Edblgrave" unicode="&#x204;" horiz-adv-x="1146" 
d="M399 1854h217l231 -303h-169zM58 1854h217l231 -303h-168zM1049 0h-916v1443h916v-193h-692v-422h655v-186h-655v-448h692v-194z" />
    <glyph glyph-name="edblgrave" unicode="&#x205;" horiz-adv-x="1113" 
d="M563 923q-59 0 -108.5 -20.5t-86 -57.5t-59.5 -88.5t-27 -114.5h551q-2 63 -22 115t-55.5 89t-84.5 57t-108 20zM1039 318q-12 -73 -52 -134t-101.5 -104.5t-141.5 -68t-171 -24.5q-118 0 -212.5 38.5t-161 110t-102 173.5t-35.5 230q0 127 35.5 231t101.5 177t158.5 113
t206.5 40q112 0 202 -37.5t153 -107t97 -169t34 -222.5v-76h-769v-13q0 -71 21 -128.5t60 -98t93.5 -63t121.5 -22.5q47 0 88.5 11t75 31t57 48.5t34.5 64.5h207zM318 1255l-247 303h215l194 -303h-162zM653 1255l-247 303h216l193 -303h-162z" />
    <glyph glyph-name="Einvertedbreve" unicode="&#x206;" horiz-adv-x="1146" 
d="M1049 0h-916v1443h916v-193h-692v-422h655v-186h-655v-448h692v-194zM266 1547q0 66 23.5 122.5t66 97t102.5 63.5t133 23t133 -23t102.5 -63.5t66 -97t23.5 -122.5h-140q0 40 -14 74t-38.5 59.5t-58.5 40t-74 14.5t-74 -14.5t-58.5 -40t-38.5 -59.5t-14 -74h-140z" />
    <glyph glyph-name="einvertedbreve" unicode="&#x207;" horiz-adv-x="1113" 
d="M563 923q-59 0 -108.5 -20.5t-86 -57.5t-59.5 -88.5t-27 -114.5h551q-2 63 -22 115t-55.5 89t-84.5 57t-108 20zM1039 318q-12 -73 -52 -134t-101.5 -104.5t-141.5 -68t-171 -24.5q-118 0 -212.5 38.5t-161 110t-102 173.5t-35.5 230q0 127 35.5 231t101.5 177t158.5 113
t206.5 40q112 0 202 -37.5t153 -107t97 -169t34 -222.5v-76h-769v-13q0 -71 21 -128.5t60 -98t93.5 -63t121.5 -22.5q47 0 88.5 11t75 31t57 48.5t34.5 64.5h207zM229 1251q0 69 24 126.5t68 99t105.5 65t137.5 23.5t137.5 -23.5t105.5 -65t68 -99t24 -126.5h-143
q0 41 -15 76t-40.5 61t-60.5 41t-76 15t-76 -15t-60.5 -41t-40.5 -61t-15 -76h-143z" />
    <glyph glyph-name="Idblgrave" unicode="&#x208;" horiz-adv-x="490" 
d="M133 0v1443h224v-1443h-224zM53 1854h217l231 -303h-169zM-288 1854h217l231 -303h-168z" />
    <glyph glyph-name="idblgrave" unicode="&#x209;" horiz-adv-x="455" 
d="M119 1086h217v-1086h-217v1086zM-18 1255l-247 303h215l194 -303h-162zM317 1255l-247 303h216l193 -303h-162z" />
    <glyph glyph-name="Iinvertedbreve" unicode="&#x20a;" horiz-adv-x="490" 
d="M133 0v1443h224v-1443h-224zM-80 1547q0 66 23.5 122.5t66 97t102.5 63.5t133 23t133 -23t102.5 -63.5t66 -97t23.5 -122.5h-140q0 40 -14 74t-38.5 59.5t-58.5 40t-74 14.5t-74 -14.5t-58.5 -40t-38.5 -59.5t-14 -74h-140z" />
    <glyph glyph-name="iinvertedbreve" unicode="&#x20b;" horiz-adv-x="455" 
d="M119 1086h217v-1086h-217v1086zM-107 1251q0 69 24 126.5t68 99t105.5 65t137.5 23.5t137.5 -23.5t105.5 -65t68 -99t24 -126.5h-143q0 41 -15 76t-40.5 61t-60.5 41t-76 15t-76 -15t-60.5 -41t-40.5 -61t-15 -76h-143z" />
    <glyph glyph-name="Odblgrave" unicode="&#x20c;" horiz-adv-x="1513" 
d="M565 1854h217l231 -303h-169zM224 1854h217l231 -303h-168zM757 1467q156 0 281 -52t212.5 -149t135 -235t47.5 -310t-47.5 -310t-135 -234.5t-212.5 -148.5t-281 -52t-281 52t-213 148.5t-135 234.5t-47 310t47 310t135 235t213 149t281 52zM757 1270
q-103 0 -185.5 -38.5t-140.5 -109.5t-89.5 -173t-31.5 -228t31.5 -227.5t89.5 -172.5t140.5 -109.5t185.5 -38.5t185.5 38.5t140.5 109.5t89 172.5t31 227.5t-31 228t-89 173t-140.5 109.5t-185.5 38.5z" />
    <glyph glyph-name="odblgrave" unicode="&#x20d;" horiz-adv-x="1152" 
d="M576 -13q-118 0 -213 39t-162 111t-103 175t-36 231t36.5 231t103.5 175.5t162 111.5t212 39t212 -39t162 -111.5t103 -175.5t36 -231t-36 -231t-103 -175t-161.5 -111t-212.5 -39zM576 167q69 0 123.5 25.5t92 73.5t57.5 118t20 159t-20 159t-57.5 118.5t-92 74
t-123.5 25.5t-123.5 -25.5t-92.5 -74.5t-58 -119t-20 -158q0 -89 20 -159t58 -118t92.5 -73.5t123.5 -25.5zM330 1255l-247 303h215l194 -303h-162zM665 1255l-247 303h216l193 -303h-162z" />
    <glyph glyph-name="Oinvertedbreve" unicode="&#x20e;" horiz-adv-x="1513" 
d="M432 1547q0 66 23.5 122.5t66 97t102.5 63.5t133 23t133 -23t102.5 -63.5t66 -97t23.5 -122.5h-140q0 40 -14 74t-38.5 59.5t-58.5 40t-74 14.5t-74 -14.5t-58.5 -40t-38.5 -59.5t-14 -74h-140zM757 1467q156 0 281 -52t212.5 -149t135 -235t47.5 -310t-47.5 -310
t-135 -234.5t-212.5 -148.5t-281 -52t-281 52t-213 148.5t-135 234.5t-47 310t47 310t135 235t213 149t281 52zM757 1270q-103 0 -185.5 -38.5t-140.5 -109.5t-89.5 -173t-31.5 -228t31.5 -227.5t89.5 -172.5t140.5 -109.5t185.5 -38.5t185.5 38.5t140.5 109.5t89 172.5
t31 227.5t-31 228t-89 173t-140.5 109.5t-185.5 38.5z" />
    <glyph glyph-name="oinvertedbreve" unicode="&#x20f;" horiz-adv-x="1152" 
d="M576 -13q-118 0 -213 39t-162 111t-103 175t-36 231t36.5 231t103.5 175.5t162 111.5t212 39t212 -39t162 -111.5t103 -175.5t36 -231t-36 -231t-103 -175t-161.5 -111t-212.5 -39zM576 167q69 0 123.5 25.5t92 73.5t57.5 118t20 159t-20 159t-57.5 118.5t-92 74
t-123.5 25.5t-123.5 -25.5t-92.5 -74.5t-58 -119t-20 -158q0 -89 20 -159t58 -118t92.5 -73.5t123.5 -25.5zM241 1251q0 69 24 126.5t68 99t105.5 65t137.5 23.5t137.5 -23.5t105.5 -65t68 -99t24 -126.5h-143q0 41 -15 76t-40.5 61t-60.5 41t-76 15t-76 -15t-60.5 -41
t-40.5 -61t-15 -76h-143z" />
    <glyph glyph-name="Rdblgrave" unicode="&#x210;" horiz-adv-x="1265" 
d="M372 1854h217l231 -303h-169zM31 1854h217l231 -303h-168zM357 736h322q131 0 202 67.5t71 192.5q0 60 -19.5 108t-55.5 81.5t-87.5 51.5t-116.5 18h-316v-519zM357 0h-224v1443h567q111 0 200.5 -31t152 -88.5t96 -139t33.5 -182.5q0 -73 -19 -138.5t-55 -118.5t-88 -93
t-118 -62l324 -590h-259l-294 555h-316v-555z" />
    <glyph glyph-name="rdblgrave" unicode="&#x211;" horiz-adv-x="688" 
d="M111 1086h207v-183h4q26 91 95.5 142.5t166.5 51.5q18 0 38.5 -2t33.5 -6v-203q-14 5 -42.5 9.5t-52.5 4.5q-54 0 -97 -18t-73 -51t-46.5 -79.5t-16.5 -103.5v-648h-217v1086zM133 1255l-247 303h215l194 -303h-162zM468 1255l-247 303h216l193 -303h-162z" />
    <glyph glyph-name="Rinvertedbreve" unicode="&#x212;" horiz-adv-x="1265" 
d="M357 736h322q131 0 202 67.5t71 192.5q0 60 -19.5 108t-55.5 81.5t-87.5 51.5t-116.5 18h-316v-519zM357 0h-224v1443h567q111 0 200.5 -31t152 -88.5t96 -139t33.5 -182.5q0 -73 -19 -138.5t-55 -118.5t-88 -93t-118 -62l324 -590h-259l-294 555h-316v-555zM239 1547
q0 66 23.5 122.5t66 97t102.5 63.5t133 23t133 -23t102.5 -63.5t66 -97t23.5 -122.5h-140q0 40 -14 74t-38.5 59.5t-58.5 40t-74 14.5t-74 -14.5t-58.5 -40t-38.5 -59.5t-14 -74h-140z" />
    <glyph glyph-name="rinvertedbreve" unicode="&#x213;" horiz-adv-x="688" 
d="M111 1086h207v-183h4q26 91 95.5 142.5t166.5 51.5q18 0 38.5 -2t33.5 -6v-203q-14 5 -42.5 9.5t-52.5 4.5q-54 0 -97 -18t-73 -51t-46.5 -79.5t-16.5 -103.5v-648h-217v1086zM44 1251q0 69 24 126.5t68 99t105.5 65t137.5 23.5t137.5 -23.5t105.5 -65t68 -99t24 -126.5
h-143q0 41 -15 76t-40.5 61t-60.5 41t-76 15t-76 -15t-60.5 -41t-40.5 -61t-15 -76h-143z" />
    <glyph glyph-name="Udblgrave" unicode="&#x214;" horiz-adv-x="1434" 
d="M525 1854h217l231 -303h-169zM184 1854h217l231 -303h-168zM357 526q0 -77 24 -141.5t70 -111t113 -72.5t153 -26t153.5 26t113.5 72.5t70 111t24 141.5v917h223v-936q0 -117 -40.5 -214.5t-116 -168t-183.5 -109.5t-244 -39t-244 39t-183.5 109.5t-116 168t-40.5 214.5
v936h224v-917z" />
    <glyph glyph-name="udblgrave" unicode="&#x215;" horiz-adv-x="1168" 
d="M1057 0h-207v186h-4q-48 -97 -137 -147.5t-214 -50.5q-89 0 -161 28t-122.5 80t-78 126.5t-27.5 167.5v696h217v-655q0 -126 64 -191t182 -65q61 0 111 20.5t85.5 57.5t55 89.5t19.5 117.5v626h217v-1086zM336 1255l-247 303h215l194 -303h-162zM671 1255l-247 303h216
l193 -303h-162z" />
    <glyph glyph-name="Uinvertedbreve" unicode="&#x216;" horiz-adv-x="1434" 
d="M357 526q0 -77 24 -141.5t70 -111t113 -72.5t153 -26t153.5 26t113.5 72.5t70 111t24 141.5v917h223v-936q0 -117 -40.5 -214.5t-116 -168t-183.5 -109.5t-244 -39t-244 39t-183.5 109.5t-116 168t-40.5 214.5v936h224v-917zM392 1547q0 66 23.5 122.5t66 97t102.5 63.5
t133 23t133 -23t102.5 -63.5t66 -97t23.5 -122.5h-140q0 40 -14 74t-38.5 59.5t-58.5 40t-74 14.5t-74 -14.5t-58.5 -40t-38.5 -59.5t-14 -74h-140z" />
    <glyph glyph-name="uinvertedbreve" unicode="&#x217;" horiz-adv-x="1168" 
d="M1057 0h-207v186h-4q-48 -97 -137 -147.5t-214 -50.5q-89 0 -161 28t-122.5 80t-78 126.5t-27.5 167.5v696h217v-655q0 -126 64 -191t182 -65q61 0 111 20.5t85.5 57.5t55 89.5t19.5 117.5v626h217v-1086zM247 1251q0 69 24 126.5t68 99t105.5 65t137.5 23.5t137.5 -23.5
t105.5 -65t68 -99t24 -126.5h-143q0 41 -15 76t-40.5 61t-60.5 41t-76 15t-76 -15t-60.5 -41t-40.5 -61t-15 -76h-143z" />
    <glyph glyph-name="Scommaaccent" unicode="&#x218;" horiz-adv-x="1244" 
d="M290 402q6 -54 34 -97.5t73.5 -74.5t106 -48t131.5 -17q68 0 125.5 16.5t99 46.5t65 71t23.5 89q0 84 -63 137t-203 88l-187 45q-199 48 -293.5 143t-94.5 246q0 93 38.5 170.5t108.5 133t166 86t212 30.5q114 0 209 -30.5t163.5 -86t107 -133t41.5 -170.5h-218
q-5 54 -29 97t-63.5 72.5t-94 45.5t-119.5 16t-119 -16t-92.5 -44.5t-60 -68t-21.5 -87.5q0 -38 15 -69t46.5 -56t81 -45.5t119.5 -37.5l159 -39q111 -26 190.5 -62t130 -85t74.5 -111.5t24 -141.5q0 -101 -39 -182.5t-111.5 -138.5t-175.5 -87.5t-231 -30.5q-120 0 -219 30
t-171 85.5t-113.5 134t-46.5 176.5h221zM444 -526l102 360h190l-133 -360h-159z" />
    <glyph glyph-name="scommaaccent" unicode="&#x219;" horiz-adv-x="1018" 
d="M93 777q0 72 30.5 131t86 101.5t133 66t171.5 23.5q89 0 164.5 -24t130.5 -66.5t86.5 -102t33.5 -130.5h-204q-7 72 -64.5 114t-151.5 42q-46 0 -84 -10.5t-65 -29t-41.5 -45t-14.5 -58.5q0 -50 41 -84t128 -55l180 -43q82 -20 139 -45.5t93 -60.5t52 -80.5t16 -105.5
q0 -73 -33 -133t-92 -103.5t-141 -67.5t-181 -24q-95 0 -173.5 23.5t-136.5 66.5t-92 103t-40 134h214q13 -78 74 -119.5t165 -41.5q51 0 91.5 10t69 29t44 45.5t15.5 59.5q0 52 -36 82t-121 52l-194 48q-293 72 -293 298zM329 -526l102 360h190l-133 -360h-159z" />
    <glyph glyph-name="Tcommaaccent" unicode="&#x21a;" horiz-adv-x="1222" 
d="M435 -526l102 360h190l-133 -360h-159zM499 0v1250h-450v193h1123v-193h-449v-1250h-224z" />
    <glyph glyph-name="tcommaaccent" unicode="&#x21b;" horiz-adv-x="672" 
d="M212 -526l102 360h190l-133 -360h-159zM392 1330v-244h208v-171h-208v-607q0 -71 32 -104.5t101 -33.5q9 0 19.5 0.5l21 1t19.5 1.5t14 2v-171q-18 -5 -52.5 -8t-69.5 -3q-81 0 -138.5 16t-93.5 51.5t-52.5 91t-16.5 134.5v629h-150v171h150v244h216z" />
    <glyph glyph-name="Hcaron" unicode="&#x21e;" horiz-adv-x="1454" 
d="M1098 0v639h-741v-639h-224v1443h224v-610h741v610h224v-1443h-224zM355 1853h188l182 -199h4l182 199h188l-286 -306h-172z" />
    <glyph glyph-name="hcaron" unicode="&#x21f;" horiz-adv-x="1195" 
d="M120 1508h215v-605h5q49 97 138.5 146t214.5 49q90 0 163 -28.5t124.5 -81.5t80 -127.5t28.5 -166.5v-694h-216v652q0 122 -67.5 191t-187.5 69q-63 0 -115 -21t-88.5 -59t-57 -91.5t-20.5 -118.5v-622h-217v1508zM-143 1918h188l182 -199h4l182 199h188l-286 -306h-172z
" />
    <glyph glyph-name="Adotaccent" unicode="&#x226;" horiz-adv-x="1336" 
d="M941 390h-550l-132 -390h-233l521 1443h242l521 -1443h-237zM448 570h436l-215 633h-6zM668 1576q-27 0 -51 10.5t-42 28t-28 41.5t-10 51t10 51t28 42t42 28t51 10t51 -10t42 -28t28 -42t10 -51t-10 -51t-28 -41.5t-42 -28t-51 -10.5z" />
    <glyph glyph-name="adotaccent" unicode="&#x227;" horiz-adv-x="1092" 
d="M488 162q60 0 112 18.5t90 51t59.5 77.5t21.5 99v85l-264 -18q-112 -7 -168.5 -47.5t-56.5 -112.5q0 -70 56 -111.5t150 -41.5zM430 -11q-81 0 -148.5 23t-116 65t-75.5 101.5t-27 132.5q0 143 106.5 223.5t308.5 93.5l293 17v84q0 94 -59.5 143t-168.5 49q-44 0 -82 -11
t-67 -31.5t-48 -49t-26 -63.5h-203q2 72 35.5 133t91 106t135.5 70t170 25q99 0 179.5 -25t137.5 -71.5t88 -112t31 -146.5v-745h-207v181h-5q-23 -44 -58.5 -79.5t-80 -60.5t-97 -38.5t-107.5 -13.5zM545 1262q-28 0 -52.5 10.5t-42.5 28.5t-28.5 42t-10.5 51t10.5 51.5
t28.5 42.5t42.5 28.5t52.5 10.5t52 -10.5t42 -28.5t28.5 -42.5t10.5 -51.5t-10.5 -51t-28.5 -42t-42 -28.5t-52 -10.5z" />
    <glyph glyph-name="Ecedilla" unicode="&#x228;" horiz-adv-x="1146" 
d="M357 1250v-422h655v-186h-655v-448h692v-194h-381l-51 -132q98 0 149 -39.5t51 -114.5q0 -40 -16.5 -73t-46 -56.5t-71 -37t-92.5 -13.5q-42 -1 -77.5 3t-67.5 14v105q16 -6 51 -10t67 -4q115 0 115 66q0 34 -32.5 48.5t-108.5 14.5h-55v83l59 146h-409v1443h916v-193
h-692z" />
    <glyph glyph-name="ecedilla" unicode="&#x229;" horiz-adv-x="1113" 
d="M833 642q-2 63 -22 115t-55.5 89t-84.5 57t-108 20t-108.5 -20.5t-86 -57.5t-59.5 -88.5t-27 -114.5h551zM281 488v-13q0 -71 21 -128.5t60 -98t93.5 -63t121.5 -22.5q47 0 88.5 11t75 31t57 48.5t34.5 64.5h207q-11 -66 -44.5 -122t-85.5 -99t-119.5 -70t-146.5 -36
l-47 -123q98 0 149 -39.5t51 -114.5q0 -40 -16.5 -73t-46 -56.5t-71 -37t-92.5 -13.5q-42 -1 -77.5 3t-67.5 14v105q16 -6 51 -10t67 -4q115 0 115 66q0 34 -32.5 48.5t-108.5 14.5h-55v83l55 135q-106 9 -190 51t-143 113t-90.5 168.5t-31.5 217.5q0 127 35.5 231
t101.5 177t158.5 113t206.5 40q112 0 202 -37.5t153 -107t97 -169t34 -222.5v-76h-769z" />
    <glyph glyph-name="Odieresismacron" unicode="&#x22a;" horiz-adv-x="1513" 
d="M757 1467q156 0 281 -52t212.5 -149t135 -235t47.5 -310t-47.5 -310t-135 -234.5t-212.5 -148.5t-281 -52t-281 52t-213 148.5t-135 234.5t-47 310t47 310t135 235t213 149t281 52zM757 1270q-103 0 -185.5 -38.5t-140.5 -109.5t-89.5 -173t-31.5 -228t31.5 -227.5
t89.5 -172.5t140.5 -109.5t185.5 -38.5t185.5 38.5t140.5 109.5t89 172.5t31 227.5t-31 228t-89 173t-140.5 109.5t-185.5 38.5zM565 1798q22 0 42 -8.5t34.5 -23.5t23 -34.5t8.5 -41.5q0 -23 -8.5 -42.5t-23 -34t-34.5 -23t-42 -8.5q-23 0 -43 8.5t-35 23t-23.5 34
t-8.5 42.5q0 22 8.5 41.5t23.5 34.5t35 23.5t43 8.5zM1084 2042v-119h-654v119h654zM949 1798q23 0 43 -8.5t35 -23.5t23.5 -34.5t8.5 -41.5q0 -23 -8.5 -42.5t-23.5 -34t-35 -23t-43 -8.5t-42.5 8.5t-34 23t-23 34t-8.5 42.5q0 22 8.5 41.5t23 34.5t34 23.5t42.5 8.5z" />
    <glyph glyph-name="odieresismacron" unicode="&#x22b;" horiz-adv-x="1152" 
d="M377 1260q-24 0 -45 9t-36.5 24.5t-24.5 36t-9 43.5q0 24 9 44.5t24.5 35.5t36.5 24t45 9t45 -9t36.5 -24t24 -35.5t8.5 -44.5q0 -23 -8.5 -43.5t-24 -36t-36.5 -24.5t-45 -9zM775 1260q-24 0 -45 9t-36 24.5t-24 36t-9 43.5q0 24 9 44.5t24 35.5t36 24t45 9t45 -9
t36.5 -24t24.5 -35.5t9 -44.5q0 -23 -9 -43.5t-24.5 -36t-36.5 -24.5t-45 -9zM899 1658h-646v119h646v-119zM576 -13q-118 0 -213 39t-162 111t-103 175t-36 231t36.5 231t103.5 175.5t162 111.5t212 39t212 -39t162 -111.5t103 -175.5t36 -231t-36 -231t-103 -175
t-161.5 -111t-212.5 -39zM576 167q69 0 123.5 25.5t92 73.5t57.5 118t20 159t-20 159t-57.5 118.5t-92 74t-123.5 25.5t-123.5 -25.5t-92.5 -74.5t-58 -119t-20 -158q0 -89 20 -159t58 -118t92.5 -73.5t123.5 -25.5z" />
    <glyph glyph-name="Otildemacron" unicode="&#x22c;" horiz-adv-x="1513" 
d="M885 1535q-50 0 -84.5 23t-62.5 50.5t-52.5 50.5t-53.5 23q-33 0 -50.5 -34.5t-18.5 -96.5h-130q0 61 13.5 109t38.5 81t60 50.5t79 17.5q35 0 62.5 -11t50 -27t41 -35.5t35.5 -35.5t33.5 -27t34.5 -11q32 0 47.5 34t15.5 99h130q0 -60 -14 -108t-38.5 -81.5t-59.5 -52
t-77 -18.5zM1084 1923h-654v119h654v-119zM757 1467q156 0 281 -52t212.5 -149t135 -235t47.5 -310t-47.5 -310t-135 -234.5t-212.5 -148.5t-281 -52t-281 52t-213 148.5t-135 234.5t-47 310t47 310t135 235t213 149t281 52zM757 1270q-103 0 -185.5 -38.5t-140.5 -109.5
t-89.5 -173t-31.5 -228t31.5 -227.5t89.5 -172.5t140.5 -109.5t185.5 -38.5t185.5 38.5t140.5 109.5t89 172.5t31 227.5t-31 228t-89 173t-140.5 109.5t-185.5 38.5z" />
    <glyph glyph-name="otildemacron" unicode="&#x22d;" horiz-adv-x="1152" 
d="M712 1248q-33 0 -59 11t-48 27t-40 35t-35.5 35t-34.5 27t-36 11q-33 0 -50.5 -34.5t-18.5 -95.5h-129q0 122 51.5 189.5t139.5 67.5q35 0 62.5 -11t49.5 -27t40.5 -35t35.5 -35t33.5 -27t34.5 -11q32 0 47.5 34t15.5 98h130q0 -60 -14 -107.5t-39 -81.5t-59.5 -52
t-76.5 -18zM899 1658h-646v119h646v-119zM576 -13q-118 0 -213 39t-162 111t-103 175t-36 231t36.5 231t103.5 175.5t162 111.5t212 39t212 -39t162 -111.5t103 -175.5t36 -231t-36 -231t-103 -175t-161.5 -111t-212.5 -39zM576 167q69 0 123.5 25.5t92 73.5t57.5 118
t20 159t-20 159t-57.5 118.5t-92 74t-123.5 25.5t-123.5 -25.5t-92.5 -74.5t-58 -119t-20 -158q0 -89 20 -159t58 -118t92.5 -73.5t123.5 -25.5z" />
    <glyph glyph-name="Odotaccent" unicode="&#x22e;" horiz-adv-x="1513" 
d="M757 1576q-27 0 -51 10.5t-42 28t-28 41.5t-10 51t10 51t28 42t42 28t51 10t51 -10t42 -28t28 -42t10 -51t-10 -51t-28 -41.5t-42 -28t-51 -10.5zM757 1467q156 0 281 -52t212.5 -149t135 -235t47.5 -310t-47.5 -310t-135 -234.5t-212.5 -148.5t-281 -52t-281 52
t-213 148.5t-135 234.5t-47 310t47 310t135 235t213 149t281 52zM757 1270q-103 0 -185.5 -38.5t-140.5 -109.5t-89.5 -173t-31.5 -228t31.5 -227.5t89.5 -172.5t140.5 -109.5t185.5 -38.5t185.5 38.5t140.5 109.5t89 172.5t31 227.5t-31 228t-89 173t-140.5 109.5
t-185.5 38.5z" />
    <glyph glyph-name="odotaccent" unicode="&#x22f;" horiz-adv-x="1152" 
d="M576 1262q-28 0 -52.5 10.5t-42.5 28.5t-28.5 42t-10.5 51t10.5 51.5t28.5 42.5t42.5 28.5t52.5 10.5t52 -10.5t42 -28.5t28.5 -42.5t10.5 -51.5t-10.5 -51t-28.5 -42t-42 -28.5t-52 -10.5zM576 -13q-118 0 -213 39t-162 111t-103 175t-36 231t36.5 231t103.5 175.5
t162 111.5t212 39t212 -39t162 -111.5t103 -175.5t36 -231t-36 -231t-103 -175t-161.5 -111t-212.5 -39zM576 167q69 0 123.5 25.5t92 73.5t57.5 118t20 159t-20 159t-57.5 118.5t-92 74t-123.5 25.5t-123.5 -25.5t-92.5 -74.5t-58 -119t-20 -158q0 -89 20 -159t58 -118
t92.5 -73.5t123.5 -25.5z" />
    <glyph glyph-name="Odotaccentmacron" unicode="&#x230;" horiz-adv-x="1513" 
d="M757 1567q-26 0 -49 9.5t-39.5 26.5t-26 39t-9.5 48q0 25 9.5 47t26 38.5t39.5 26t49 9.5t49 -9.5t39.5 -26t26 -38.5t9.5 -47q0 -26 -9.5 -48t-26 -39t-39.5 -26.5t-49 -9.5zM1084 1923h-654v119h654v-119zM757 1467q156 0 281 -52t212.5 -149t135 -235t47.5 -310
t-47.5 -310t-135 -234.5t-212.5 -148.5t-281 -52t-281 52t-213 148.5t-135 234.5t-47 310t47 310t135 235t213 149t281 52zM757 1270q-103 0 -185.5 -38.5t-140.5 -109.5t-89.5 -173t-31.5 -228t31.5 -227.5t89.5 -172.5t140.5 -109.5t185.5 -38.5t185.5 38.5t140.5 109.5
t89 172.5t31 227.5t-31 228t-89 173t-140.5 109.5t-185.5 38.5z" />
    <glyph glyph-name="odotaccentmacron" unicode="&#x231;" horiz-adv-x="1152" 
d="M576 -13q-118 0 -213 39t-162 111t-103 175t-36 231t36.5 231t103.5 175.5t162 111.5t212 39t212 -39t162 -111.5t103 -175.5t36 -231t-36 -231t-103 -175t-161.5 -111t-212.5 -39zM576 167q69 0 123.5 25.5t92 73.5t57.5 118t20 159t-20 159t-57.5 118.5t-92 74
t-123.5 25.5t-123.5 -25.5t-92.5 -74.5t-58 -119t-20 -158q0 -89 20 -159t58 -118t92.5 -73.5t123.5 -25.5zM576 1258q-27 0 -51 10t-42 28t-28.5 42t-10.5 51t10.5 50.5t28.5 41.5t42 28.5t51 10.5t51 -10.5t42 -28.5t28.5 -41.5t10.5 -50.5t-10.5 -51t-28.5 -42t-42 -28
t-51 -10zM899 1660h-646v119h646v-119z" />
    <glyph glyph-name="Ymacron" unicode="&#x232;" horiz-adv-x="1293" 
d="M534 0v591l-508 852h250l368 -637h7l368 637h248l-509 -852v-591h-224zM973 1636h-654v119h654v-119z" />
    <glyph glyph-name="ymacron" unicode="&#x233;" horiz-adv-x="1066" 
d="M220 -395q-7 0 -19 0.5t-25.5 1.5t-25.5 2t-18 2v176q12 -3 33.5 -4t35.5 -1q77 0 123 36.5t74 122.5l17 56l-394 1089h233l279 -888h5l279 888h228l-407 -1136q-35 -98 -73.5 -164t-87 -106.5t-111.5 -57.5t-146 -17zM857 1312h-646v119h646v-119z" />
    <glyph glyph-name="dotlessj" unicode="&#x237;" horiz-adv-x="454" 
d="M334 -65q0 -167 -86 -246t-266 -79h-10.5h-15t-13.5 0.5t-8 0.5v172q2 0 14.5 -0.5t15.5 -0.5q42 0 71.5 8.5t48 26.5t26.5 47.5t8 71.5v1150h215v-1151z" />
    <glyph glyph-name="circumflex" unicode="&#x2c6;" horiz-adv-x="1008" 
d="M856 1251h-185l-164 194h-6l-164 -194h-185l273 307h158z" />
    <glyph glyph-name="caron" unicode="&#x2c7;" horiz-adv-x="1008" 
d="M425 1251l-273 307h185l164 -194h6l164 194h185l-273 -307h-158z" />
    <glyph glyph-name="breve" unicode="&#x2d8;" horiz-adv-x="1000" 
d="M308 1557q0 -41 15 -76t40.5 -61t60.5 -41t76 -15t76 15t60.5 41t40.5 61t15 76h143q0 -69 -24 -126.5t-68 -99t-105.5 -65t-137.5 -23.5t-137.5 23.5t-105.5 65t-68 99t-24 126.5h143z" />
    <glyph glyph-name="dotaccent" unicode="&#x2d9;" horiz-adv-x="916" 
d="M458 1262q-28 0 -52.5 10.5t-42.5 28.5t-28.5 42t-10.5 51t10.5 51.5t28.5 42.5t42.5 28.5t52.5 10.5t52 -10.5t42 -28.5t28.5 -42.5t10.5 -51.5t-10.5 -51t-28.5 -42t-42 -28.5t-52 -10.5z" />
    <glyph glyph-name="ring" unicode="&#x2da;" horiz-adv-x="1042" 
d="M521 1195q-42 0 -80 16.5t-66 44t-44.5 65t-16.5 79.5t16.5 79.5t44.5 65.5t66 44.5t80 16.5t80 -16.5t66 -44.5t44.5 -65.5t16.5 -79.5t-16.5 -79.5t-44.5 -65t-66 -44t-80 -16.5zM521 1290q23 0 43 8.5t35 23.5t24 35t9 43t-9 43t-24 35t-35 24t-43 9t-43 -9t-35 -24
t-24 -35t-9 -43t9 -43t24 -35t35 -23.5t43 -8.5z" />
    <glyph glyph-name="ogonek" unicode="&#x2db;" horiz-adv-x="1000" 
d="M678 -449q-54 -18 -125 -18q-50 0 -91 14t-70 39.5t-45 61t-16 79.5q0 75 43 144.5t127 128.5h128q-72 -59 -104.5 -111t-32.5 -109q0 -48 31 -76t84 -28q17 0 36 2.5t35 6.5v-134z" />
    <glyph glyph-name="tilde" unicode="&#x2dc;" horiz-adv-x="1008" 
d="M635 1258q-33 0 -59 11t-48 27t-40 35t-35.5 35t-34.5 27t-36 11q-33 0 -50.5 -34.5t-18.5 -95.5h-129q0 122 51.5 189.5t139.5 67.5q35 0 62.5 -11t49.5 -27t40.5 -35t35.5 -35t33.5 -27t34.5 -11q32 0 47.5 34t15.5 98h130q0 -60 -14 -107.5t-39 -81.5t-59.5 -52
t-76.5 -18z" />
    <glyph glyph-name="hungarumlaut" unicode="&#x2dd;" horiz-adv-x="1000" 
d="M663 1558h215l-247 -303h-162zM328 1558h215l-247 -303h-162z" />
    <glyph glyph-name="gravecmb" unicode="&#x300;" 
d="M-93 1255l-262 303h225l215 -303h-178z" />
    <glyph glyph-name="acutecmb" unicode="&#x301;" 
d="M-91 1255l215 303h225l-262 -303h-178z" />
    <glyph glyph-name="circumflexcmb" unicode="&#x302;" 
d="M352 1251h-185l-164 194h-6l-164 -194h-185l273 307h158z" />
    <glyph glyph-name="tildecmb" unicode="&#x303;" 
d="M136 1258q-33 0 -59 11t-48 27t-40 35t-35.5 35t-34.5 27t-36 11q-33 0 -50.5 -34.5t-18.5 -95.5h-129q0 122 51.5 189.5t139.5 67.5q35 0 62.5 -11t49.5 -27t40.5 -35t35.5 -35t33.5 -27t34.5 -11q32 0 47.5 34t15.5 98h130q0 -60 -14 -107.5t-39 -81.5t-59.5 -52
t-76.5 -18z" />
    <glyph glyph-name="macroncmb" unicode="&#x304;" 
d="M323 1312h-646v119h646v-119z" />
    <glyph glyph-name="brevecmb" unicode="&#x306;" 
d="M-193 1557q0 -41 15 -76t40.5 -61t60.5 -41t76 -15t76 15t60.5 41t40.5 61t15 76h143q0 -69 -24 -126.5t-68 -99t-105.5 -65t-137.5 -23.5t-137.5 23.5t-105.5 65t-68 99t-24 126.5h143z" />
    <glyph glyph-name="dotaccentcmb" unicode="&#x307;" 
d="M0 1262q-28 0 -52.5 10.5t-42.5 28.5t-28.5 42t-10.5 51t10.5 51.5t28.5 42.5t42.5 28.5t52.5 10.5t52 -10.5t42 -28.5t28.5 -42.5t10.5 -51.5t-10.5 -51t-28.5 -42t-42 -28.5t-52 -10.5z" />
    <glyph glyph-name="dieresiscmb" unicode="&#x308;" 
d="M-201 1260q-25 0 -47 9.5t-38.5 25.5t-26 38t-9.5 46q0 25 9.5 46.5t26 37.5t38.5 25.5t47 9.5t47 -9.5t38 -25.5t25.5 -37.5t9.5 -46.5q0 -24 -9.5 -46t-25.5 -38t-38 -25.5t-47 -9.5zM202 1260q-25 0 -47 9.5t-38.5 25.5t-26 38t-9.5 46q0 25 9.5 46.5t26 37.5
t38.5 25.5t47 9.5t47 -9.5t38 -25.5t25.5 -37.5t9.5 -46.5q0 -24 -9.5 -46t-25.5 -38t-38 -25.5t-47 -9.5z" />
    <glyph glyph-name="hookabovecmb" unicode="&#x309;" 
d="M-128 1565q61 26 139 26q46 0 84 -13t64.5 -37.5t41 -59t14.5 -76.5q0 -66 -46 -122.5t-125 -86.5l-70 91q49 18 71.5 44t22.5 64q0 33 -27 55t-67 22q-26 0 -48.5 -4.5t-53.5 -18.5v116z" />
    <glyph glyph-name="ringcmb" unicode="&#x30a;" 
d="M0 1193q-42 0 -80 16.5t-66 44t-44.5 65t-16.5 79.5t16.5 79.5t44.5 65.5t66 44.5t80 16.5t80 -16.5t66 -44.5t44.5 -65.5t16.5 -79.5t-16.5 -79.5t-44.5 -65t-66 -44t-80 -16.5zM0 1288q23 0 43 8.5t35 23.5t24 35t9 43t-9 43t-24 35t-35 24t-43 9t-43 -9t-35 -24
t-24 -35t-9 -43t9 -43t24 -35t35 -23.5t43 -8.5z" />
    <glyph glyph-name="hungarumlautcmb" unicode="&#x30b;" 
d="M278 1558h215l-247 -303h-162zM-57 1558h215l-247 -303h-162z" />
    <glyph glyph-name="caroncmb" unicode="&#x30c;" 
d="M-79 1251l-273 307h185l164 -194h6l164 194h185l-273 -307h-158z" />
    <glyph glyph-name="dblgravecmb" unicode="&#x30f;" 
d="M-246 1255l-247 303h215l194 -303h-162zM89 1255l-247 303h216l193 -303h-162z" />
    <glyph glyph-name="invertedbrevecmb" unicode="&#x311;" 
d="M-335 1251q0 69 24 126.5t68 99t105.5 65t137.5 23.5t137.5 -23.5t105.5 -65t68 -99t24 -126.5h-143q0 41 -15 76t-40.5 61t-60.5 41t-76 15t-76 -15t-60.5 -41t-40.5 -61t-15 -76h-143v0z" />
    <glyph glyph-name="horncmb" unicode="&#x31b;" 
d="M0 1113q37 -35 91 -35q57 1 82 37t25 119v155h182v-205q0 -60 -18 -109.5t-50 -85t-77.5 -54.5t-100.5 -19q-39 0 -74.5 10t-59.5 29v158z" />
    <glyph glyph-name="dotbelowcmb" unicode="&#x323;" 
d="M0 -416q-27 0 -51 10.5t-42 28t-28 41.5t-10 51t10 51t28 42t42 28t51 10t51 -10t42 -28t28 -42t10 -51t-10 -51t-28 -41.5t-42 -28t-51 -10.5z" />
    <glyph glyph-name="dieresisbelowcmb" unicode="&#x324;" 
d="M-201 -401q-25 0 -47 9.5t-38.5 25.5t-26 38t-9.5 46q0 25 9.5 46.5t26 37.5t38.5 25.5t47 9.5t47 -9.5t38 -25.5t25.5 -37.5t9.5 -46.5q0 -24 -9.5 -46t-25.5 -38t-38 -25.5t-47 -9.5zM202 -401q-25 0 -47 9.5t-38.5 25.5t-26 38t-9.5 46q0 25 9.5 46.5t26 37.5
t38.5 25.5t47 9.5t47 -9.5t38 -25.5t25.5 -37.5t9.5 -46.5q0 -24 -9.5 -46t-25.5 -38t-38 -25.5t-47 -9.5z" />
    <glyph glyph-name="ringbelowcmb" unicode="&#x325;" 
d="M0 -566q-42 0 -80 16.5t-66 44t-44.5 65t-16.5 79.5t16.5 79.5t44.5 65.5t66 44.5t80 16.5t80 -16.5t66 -44.5t44.5 -65.5t16.5 -79.5t-16.5 -79.5t-44.5 -65t-66 -44t-80 -16.5zM0 -471q23 0 43 8.5t35 23.5t24 35t9 43t-9 43t-24 35t-35 24t-43 9t-43 -9t-35 -24
t-24 -35t-9 -43t9 -43t24 -35t35 -23.5t43 -8.5z" />
    <glyph glyph-name="commabelowcmb" unicode="&#x326;" 
d="M-176 -526l102 360h190l-133 -360h-159z" />
    <glyph glyph-name="cedillacmb" unicode="&#x327;" 
d="M-108 -146l63 155l122 -9l-51 -132q98 0 149 -39.5t51 -114.5q0 -40 -16.5 -73t-46 -56.5t-71 -37t-92.5 -13.5q-42 -1 -77.5 3t-67.5 14v105q16 -6 51 -10t67 -4q115 0 115 66q0 34 -32.5 48.5t-108.5 14.5h-55v83z" />
    <glyph glyph-name="ogonekcmb" unicode="&#x328;" 
d="M137 -449q-54 -18 -125 -18q-50 0 -91 14t-70 39.5t-45 61t-16 79.5q0 75 43 144.5t127 128.5h128q-72 -59 -104.5 -111t-32.5 -109q0 -48 31 -76t84 -28q17 0 36 2.5t35 6.5v-134z" />
    <glyph glyph-name="circumflexbelowcmb" unicode="&#x32d;" 
d="M86 -164l286 -306h-188l-182 200h-4l-182 -200h-188l286 306h172z" />
    <glyph glyph-name="brevebelowcmb" unicode="&#x32e;" 
d="M-185 -189q0 -40 14 -74t38.5 -59.5t58.5 -40t74 -14.5t74 14.5t58.5 40t38.5 59.5t14 74h140q0 -66 -23.5 -122.5t-66 -97t-102.5 -63.5t-133 -23t-133 23t-102.5 63.5t-66 97t-23.5 122.5h140z" />
    <glyph glyph-name="tildebelowcmb" unicode="&#x330;" 
d="M133 -422q-33 0 -59 11t-48 27t-40 35t-35.5 35t-34.5 27t-36 11q-33 0 -50.5 -34.5t-18.5 -95.5h-129q0 122 51.5 189.5t139.5 67.5q35 0 62.5 -11t49.5 -27t40.5 -35t35.5 -35t33.5 -27t34.5 -11q32 0 47.5 34t15.5 98h130q0 -60 -14 -107.5t-39 -81.5t-59.5 -52
t-76.5 -18z" />
    <glyph glyph-name="macronbelowcmb" unicode="&#x331;" 
d="M327 -342h-654v119h654v-119z" />
    <glyph glyph-name="greekquestionmark" unicode="&#x37e;" horiz-adv-x="560" 
d="M270 718q-27 0 -51 10t-42 27.5t-28 41.5t-10 52t10 52t28 41.5t42 27.5t51 10q28 0 52 -10t41.5 -27.5t27.5 -41.5t10 -52t-10 -52t-27.5 -41.5t-41.5 -27.5t-52 -10zM60 -262l93 488h219l-146 -488h-166z" />
    <glyph glyph-name="tonosgreek" unicode="&#x384;" horiz-adv-x="893" 
d="M361 1570h252l-155 -315h-176z" />
    <glyph glyph-name="dieresistonosgreek" unicode="&#x385;" horiz-adv-x="1243" 
d="M320 1260q-25 0 -47 9.5t-38 25.5t-25.5 38t-9.5 46q0 25 9.5 46.5t25.5 37.5t38 25.5t47 9.5t47 -9.5t38 -25.5t25.5 -37.5t9.5 -46.5q0 -24 -9.5 -46t-25.5 -38t-38 -25.5t-47 -9.5zM924 1260q-25 0 -47 9.5t-38.5 25.5t-26 38t-9.5 46q0 25 9.5 46.5t26 37.5
t38.5 25.5t47 9.5t47 -9.5t38 -25.5t25.5 -37.5t9.5 -46.5q0 -24 -9.5 -46t-25.5 -38t-38 -25.5t-47 -9.5zM505 1255l29 315h240l-114 -315h-155z" />
    <glyph glyph-name="Alphatonosgreek" unicode="&#x386;" horiz-adv-x="1383" 
d="M973 390h-550l-132 -390h-233l521 1443h242l521 -1443h-237zM480 570h436l-215 633h-6zM100 1127l78 316h251l-157 -316h-172z" />
    <glyph glyph-name="anoteleia" unicode="&#x387;" horiz-adv-x="558" 
d="M279 838q-27 0 -51 10t-42 28t-28 42t-10 51q0 28 10 52t28 41.5t42 27.5t51 10q28 0 52 -10t41.5 -27.5t27.5 -41.5t10 -52q0 -27 -10 -51t-27.5 -42t-41.5 -28t-52 -10z" />
    <glyph glyph-name="Epsilontonosgreek" unicode="&#x388;" horiz-adv-x="1523" 
d="M54 1127l78 316h251l-157 -316h-172zM1421 0h-916v1443h916v-193h-692v-422h655v-186h-655v-448h692v-194z" />
    <glyph glyph-name="Etatonosgreek" unicode="&#x389;" horiz-adv-x="1835" 
d="M54 1127l78 316h251l-157 -316h-172zM1470 0v639h-741v-639h-224v1443h224v-610h741v610h224v-1443h-224z" />
    <glyph glyph-name="Iotatonosgreek" unicode="&#x38a;" horiz-adv-x="870" 
d="M505 0v1443h224v-1443h-224zM54 1127l78 316h251l-157 -316h-172z" />
    <glyph glyph-name="Omicrontonosgreek" unicode="&#x38c;" horiz-adv-x="1724" 
d="M968 1467q156 0 281 -52t212.5 -149t135 -235t47.5 -310t-47.5 -310t-135 -234.5t-212.5 -148.5t-281 -52t-281 52t-213 148.5t-135 234.5t-47 310t47 310t135 235t213 149t281 52zM968 1270q-103 0 -185.5 -38.5t-140.5 -109.5t-89.5 -173t-31.5 -228t31.5 -227.5
t89.5 -172.5t140.5 -109.5t185.5 -38.5t185.5 38.5t140.5 109.5t89 172.5t31 227.5t-31 228t-89 173t-140.5 109.5t-185.5 38.5zM35 1127l78 316h251l-157 -316h-172z" />
    <glyph glyph-name="Upsilontonosgreek" unicode="&#x38e;" horiz-adv-x="1692" 
d="M38 1127l78 316h251l-157 -316h-172zM933 0v591l-508 852h250l368 -637h7l368 637h248l-509 -852v-591h-224z" />
    <glyph glyph-name="Omegatonosgreek" unicode="&#x38f;" horiz-adv-x="1757" 
d="M1431 791q0 111 -31 199.5t-89 150.5t-140.5 95.5t-185.5 33.5t-186 -33.5t-141 -95.5t-89 -150.5t-31 -199.5q0 -93 19.5 -172t59 -148t99 -128.5t139.5 -111.5v-231h-544v190h304v7q-71 47 -127.5 111t-95.5 141t-60 166t-21 187q0 148 49 270t137.5 210t212.5 136.5
t275 48.5q150 0 274 -48.5t212.5 -136.5t137.5 -210t49 -270q0 -98 -21 -187t-60 -166t-95.5 -141t-127.5 -111v-7h304v-190h-544v231q160 105 238.5 240t78.5 320zM35 1127l78 316h251l-157 -316h-172z" />
    <glyph glyph-name="iotadieresistonosgreek" unicode="&#x390;" horiz-adv-x="607" 
d="M440 -7q-89 0 -152.5 17t-103.5 53.5t-58.5 93.5t-18.5 136v793h215v-743q0 -90 37.5 -131.5t117.5 -41.5q25 0 43 1.5t40 6.5l10 -174q-52 -11 -130 -11zM-50 1260q-25 0 -47 9.5t-38 25.5t-25.5 38t-9.5 46q0 25 9.5 46.5t25.5 37.5t38 25.5t47 9.5t47 -9.5t38 -25.5
t25.5 -37.5t9.5 -46.5q0 -24 -9.5 -46t-25.5 -38t-38 -25.5t-47 -9.5zM554 1260q-25 0 -47 9.5t-38.5 25.5t-26 38t-9.5 46q0 25 9.5 46.5t26 37.5t38.5 25.5t47 9.5t47 -9.5t38 -25.5t25.5 -37.5t9.5 -46.5q0 -24 -9.5 -46t-25.5 -38t-38 -25.5t-47 -9.5zM135 1255l29 315
h240l-114 -315h-155z" />
    <glyph glyph-name="Alphagreek" unicode="&#x391;" horiz-adv-x="1336" 
d="M941 390h-550l-132 -390h-233l521 1443h242l521 -1443h-237zM448 570h436l-215 633h-6z" />
    <glyph glyph-name="Betagreek" unicode="&#x392;" horiz-adv-x="1283" 
d="M133 0v1443h591q96 0 174 -25.5t133.5 -72.5t85.5 -113.5t30 -148.5q0 -57 -20 -110t-54.5 -95.5t-81 -71t-100.5 -37.5v-8q73 -8 133.5 -37.5t103.5 -75.5t67 -107t24 -133q0 -95 -33.5 -171t-97.5 -128.5t-155.5 -80.5t-206.5 -28h-593zM357 829h265q147 0 224.5 57.5
t77.5 165.5q0 101 -66 154.5t-189 53.5h-312v-431zM681 183q152 0 230.5 60.5t78.5 178.5t-81.5 177t-240.5 59h-311v-475h324z" />
    <glyph glyph-name="Gammagreek" unicode="&#x393;" horiz-adv-x="1080" 
d="M137 0v1443h881v-193h-657v-1250h-224z" />
    <glyph glyph-name="Deltagreek" unicode="&#x394;" horiz-adv-x="1333" 
d="M54 0v143l491 1300h242l491 -1300v-143h-1224zM297 193h731v8l-362 1012h-6l-363 -1012v-8z" />
    <glyph glyph-name="Epsilongreek" unicode="&#x395;" horiz-adv-x="1150" 
d="M1049 0h-916v1443h916v-193h-692v-422h655v-186h-655v-448h692v-194z" />
    <glyph glyph-name="Zetagreek" unicode="&#x396;" horiz-adv-x="1274" 
d="M95 153l790 1089v8h-766v193h1041v-153l-787 -1089v-7h806v-194h-1084v153z" />
    <glyph glyph-name="Etagreek" unicode="&#x397;" horiz-adv-x="1462" 
d="M1098 0v639h-741v-639h-224v1443h224v-610h741v610h224v-1443h-224z" />
    <glyph glyph-name="Thetagreek" unicode="&#x398;" horiz-adv-x="1536" 
d="M482 625v186h572v-186h-572zM768 1467q162 0 289.5 -52.5t216 -149.5t135 -235t46.5 -309t-47 -309t-135.5 -235t-216 -149t-288.5 -52t-288 52t-216 149t-136 235t-47 309t47 309t135.5 235t216 149.5t288.5 52.5zM768 1270q-107 0 -192.5 -38t-144.5 -109.5t-90.5 -173
t-31.5 -228.5t31.5 -228.5t90.5 -172.5t144.5 -109t192.5 -38q108 0 193 38t144.5 109t90.5 172.5t31 228.5t-31 228.5t-90 173t-144.5 109.5t-193.5 38z" />
    <glyph glyph-name="Iotagreek" unicode="&#x399;" horiz-adv-x="497" 
d="M133 0v1443h224v-1443h-224z" />
    <glyph glyph-name="Kappagreek" unicode="&#x39a;" horiz-adv-x="1297" 
d="M133 0v1443h224v-687h9l603 687h266l-572 -639l620 -804h-278l-500 650l-148 -169v-481h-224z" />
    <glyph glyph-name="Lambdagreek" unicode="&#x39b;" horiz-adv-x="1299" 
d="M651 1195h-6l-386 -1195h-233l503 1443h241l503 -1443h-236z" />
    <glyph glyph-name="Mugreek" unicode="&#x39c;" horiz-adv-x="1734" 
d="M1593 0h-205v1062h-7l-435 -1051h-166l-436 1051h-7v-1062h-204v1443h259l467 -1139h8l466 1139h260v-1443z" />
    <glyph glyph-name="Nugreek" unicode="&#x39d;" horiz-adv-x="1451" 
d="M133 0v1443h203l748 -1064h8v1064h218v-1443h-202l-748 1063h-9v-1063h-218z" />
    <glyph glyph-name="Xigreek" unicode="&#x39e;" horiz-adv-x="1264" 
d="M1166 1443v-197h-1069v197h1069zM184 638v189h895v-189h-895zM1166 197v-197h-1069v197h1069z" />
    <glyph glyph-name="Omicrongreek" unicode="&#x39f;" horiz-adv-x="1513" 
d="M757 1467q156 0 281 -52t212.5 -149t135 -235t47.5 -310t-47.5 -310t-135 -234.5t-212.5 -148.5t-281 -52t-281 52t-213 148.5t-135 234.5t-47 310t47 310t135 235t213 149t281 52zM757 1270q-103 0 -185.5 -38.5t-140.5 -109.5t-89.5 -173t-31.5 -228t31.5 -227.5
t89.5 -172.5t140.5 -109.5t185.5 -38.5t185.5 38.5t140.5 109.5t89 172.5t31 227.5t-31 228t-89 173t-140.5 109.5t-185.5 38.5z" />
    <glyph glyph-name="Pigreek" unicode="&#x3a0;" horiz-adv-x="1442" 
d="M1082 0v1250h-721v-1250h-224v1443h1168v-1443h-223z" />
    <glyph glyph-name="Rhogreek" unicode="&#x3a1;" horiz-adv-x="1241" 
d="M698 1443q105 0 192.5 -34.5t150.5 -97t98 -150t35 -192.5q0 -106 -35.5 -193.5t-99.5 -150.5t-153 -97.5t-195 -34.5h-334v-493h-224v1443h565zM357 681h282q146 0 226 75t80 212t-79.5 211.5t-226.5 74.5h-282v-573z" />
    <glyph glyph-name="Sigmagreek" unicode="&#x3a3;" horiz-adv-x="1248" 
d="M368 194h784v-194h-1057v148l406 576l-388 551v168h1012v-193h-733v-8l350 -502v-7l-374 -532v-7z" />
    <glyph glyph-name="Taugreek" unicode="&#x3a4;" horiz-adv-x="1227" 
d="M499 0v1250h-450v193h1123v-193h-449v-1250h-224z" />
    <glyph glyph-name="Upsilongreek" unicode="&#x3a5;" horiz-adv-x="1293" 
d="M534 0v591l-508 852h250l368 -637h7l368 637h248l-509 -852v-591h-224z" />
    <glyph glyph-name="Phigreek" unicode="&#x3a6;" horiz-adv-x="1669" 
d="M1383 717q0 102 -30 184t-87 141t-139 92.5t-185 38.5v-913q103 5 185 39t139 92.5t87 141t30 184.5zM286 717q0 -102 30 -184.5t87 -141t138.5 -92.5t185.5 -39v913q-104 -5 -185.5 -38.5t-138.5 -92.5t-87 -141t-30 -184zM727 -75v146q-152 7 -275 56t-210 133
t-134 200t-47 257q0 140 47 256t134 200t210 133.5t275 56.5v148h215v-148q151 -7 274 -56.5t210 -133.5t134 -200t47 -256q0 -141 -47 -257t-134 -200t-210 -133t-274 -56v-146h-215z" />
    <glyph glyph-name="Chigreek" unicode="&#x3a7;" horiz-adv-x="1338" 
d="M523 723v7l-474 713h267l356 -558h8l360 558h253l-489 -721v-6l480 -716h-262l-359 550h-7l-364 -550h-248z" />
    <glyph glyph-name="Psigreek" unicode="&#x3a8;" horiz-adv-x="1584" 
d="M683 0v328q-134 1 -242 42.5t-184.5 116t-118 179.5t-41.5 234v543h218v-540q0 -179 94 -276t274 -104v920h218v-920q180 7 274 104t94 276v540h218v-543q0 -129 -41.5 -234t-118 -180t-185 -116t-241.5 -42v-328h-218z" />
    <glyph glyph-name="Omegagreek" unicode="&#x3a9;" horiz-adv-x="1545" 
d="M1219 791q0 111 -31 199.5t-89 150.5t-140.5 95.5t-185.5 33.5t-186 -33.5t-141 -95.5t-89 -150.5t-31 -199.5q0 -93 19.5 -172t59 -148t99 -128.5t139.5 -111.5v-231h-544v190h304v7q-71 47 -127.5 111t-95.5 141t-60 166t-21 187q0 148 49 270t137.5 210t212.5 136.5
t275 48.5q150 0 274 -48.5t212.5 -136.5t137.5 -210t49 -270q0 -98 -21 -187t-60 -166t-95.5 -141t-127.5 -111v-7h304v-190h-544v231q160 105 238.5 240t78.5 320z" />
    <glyph glyph-name="Iotadieresisgreek" unicode="&#x3aa;" horiz-adv-x="464" 
d="M116 0v1443h224v-1443h-224zM27 1576q-25 0 -47 9.5t-38.5 25.5t-26 38t-9.5 46q0 25 9.5 46.5t26 37.5t38.5 25.5t47 9.5t47 -9.5t38 -25.5t25.5 -37.5t9.5 -46.5q0 -24 -9.5 -46t-25.5 -38t-38 -25.5t-47 -9.5zM430 1576q-25 0 -47 9.5t-38.5 25.5t-26 38t-9.5 46
q0 25 9.5 46.5t26 37.5t38.5 25.5t47 9.5t47 -9.5t38 -25.5t25.5 -37.5t9.5 -46.5q0 -24 -9.5 -46t-25.5 -38t-38 -25.5t-47 -9.5z" />
    <glyph glyph-name="Upsilondieresisgreek" unicode="&#x3ab;" horiz-adv-x="1293" 
d="M534 0v591l-508 852h250l368 -637h7l368 637h248l-509 -852v-591h-224zM445 1576q-25 0 -47 9.5t-38.5 25.5t-26 38t-9.5 46q0 25 9.5 46.5t26 37.5t38.5 25.5t47 9.5t47 -9.5t38 -25.5t25.5 -37.5t9.5 -46.5q0 -24 -9.5 -46t-25.5 -38t-38 -25.5t-47 -9.5zM848 1576
q-25 0 -47 9.5t-38.5 25.5t-26 38t-9.5 46q0 25 9.5 46.5t26 37.5t38.5 25.5t47 9.5t47 -9.5t38 -25.5t25.5 -37.5t9.5 -46.5q0 -24 -9.5 -46t-25.5 -38t-38 -25.5t-47 -9.5z" />
    <glyph glyph-name="alphatonosgreek" unicode="&#x3ac;" horiz-adv-x="1269" 
d="M555 174q66 0 120 26.5t92.5 75t59.5 116.5t21 152q0 82 -21 150t-59.5 117t-91.5 76t-117 27q-62 0 -112 -26.5t-86 -75t-55.5 -117t-19.5 -151.5q0 -85 18.5 -153.5t53.5 -116.5t85 -74t112 -26zM519 -10q-103 0 -187 39.5t-143.5 112.5t-92 175t-32.5 228
q0 125 32.5 227t92 174.5t143.5 112t187 39.5q53 0 102.5 -13t93 -37.5t79 -60t59.5 -80.5h3v180h210v-782q0 -72 21 -102t71 -30q13 0 28.5 2.5t26.5 6.5l10 -172q-26 -7 -52 -9.5t-60 -2.5q-104 0 -168.5 41.5t-84.5 132.5q-4 4 -5 7h-3q-24 -43 -59 -78t-78 -59.5
t-92.5 -38t-101.5 -13.5zM563 1570h252l-155 -315h-176z" />
    <glyph glyph-name="epsilontonosgreek" unicode="&#x3ad;" horiz-adv-x="1108" 
d="M547 1570h252l-155 -315h-176zM537 -13q-107 0 -191.5 22t-143.5 62t-90 97t-31 127q0 91 51.5 155.5t145.5 92.5v4q-87 31 -132 91.5t-45 145.5q0 70 33 128.5t93 100t144 64.5t185 23q112 0 198.5 -25t147.5 -72t95.5 -114t42.5 -151h-214q-9 46 -27 80t-49 56.5
t-77.5 34t-113.5 11.5q-117 0 -182.5 -38.5t-65.5 -109.5q0 -65 61.5 -102t170.5 -37h152v-170h-151q-114 0 -177.5 -39t-63.5 -108q0 -75 62 -112t183 -37q250 0 291 182h219q-12 -83 -54.5 -149.5t-110 -114t-158 -73t-198.5 -25.5z" />
    <glyph glyph-name="etatonosgreek" unicode="&#x3ae;" horiz-adv-x="1281" 
d="M957 -355v996q0 134 -61.5 202.5t-181.5 68.5q-59 0 -107.5 -21t-84 -58.5t-55 -89.5t-19.5 -115v-628h-217v782q0 72 -24.5 102t-72.5 30q-15 0 -33 -2.5t-29 -5.5v171q33 7 60 10t59 3q91 0 150 -35t85 -110q6 -20 11 -42h4q50 96 137 145.5t210 49.5q91 0 162.5 -27.5
t121 -79.5t76 -127t26.5 -170v-1049h-217zM548 1570h252l-155 -315h-176z" />
    <glyph glyph-name="iotatonosgreek" unicode="&#x3af;" horiz-adv-x="607" 
d="M440 -6q-89 0 -152.5 17t-103.5 53.5t-58.5 93.5t-18.5 136v793h215v-743q0 -90 37.5 -131.5t117.5 -41.5q25 0 43 1.5t40 6.5l10 -174q-52 -11 -130 -11zM207 1570h252l-155 -315h-176z" />
    <glyph glyph-name="upsilondieresistonosgreek" unicode="&#x3b0;" horiz-adv-x="1131" 
d="M235 1260q-25 0 -47 9.5t-38 25.5t-25.5 38t-9.5 46q0 25 9.5 46.5t25.5 37.5t38 25.5t47 9.5t47 -9.5t38 -25.5t25.5 -37.5t9.5 -46.5q0 -24 -9.5 -46t-25.5 -38t-38 -25.5t-47 -9.5zM839 1260q-25 0 -47 9.5t-38.5 25.5t-26 38t-9.5 46q0 25 9.5 46.5t26 37.5
t38.5 25.5t47 9.5t47 -9.5t38 -25.5t25.5 -37.5t9.5 -46.5q0 -24 -9.5 -46t-25.5 -38t-38 -25.5t-47 -9.5zM420 1255l29 315h240l-114 -315h-155zM556 -12q-220 0 -334.5 115.5t-114.5 333.5v649h210v-631q0 -143 58 -211t180 -68q138 0 204.5 100.5t66.5 284.5
q0 64 -6.5 132.5t-18 137t-27.5 133.5t-36 122h212q20 -48 37 -109.5t29 -129t19 -136.5t7 -131q0 -140 -32.5 -250t-95 -186t-153 -116t-205.5 -40z" />
    <glyph glyph-name="alphagreek" unicode="&#x3b1;" horiz-adv-x="1270" 
d="M555 173q66 0 120 26.5t92.5 75t59.5 116.5t21 152q0 82 -21 150t-59.5 117t-91.5 76t-117 27q-62 0 -112 -26.5t-86 -75t-55.5 -117t-19.5 -151.5q0 -85 18.5 -153.5t53.5 -116.5t85 -74t112 -26zM519 -11q-103 0 -187 39.5t-143.5 112.5t-92 175t-32.5 228
q0 125 32.5 227t92 174.5t143.5 112t187 39.5q53 0 102.5 -13t93 -37.5t79 -60t59.5 -80.5h3v180h210v-782q0 -72 21 -102t71 -30q13 0 28.5 2.5t26.5 6.5l10 -172q-26 -7 -52 -9.5t-60 -2.5q-104 0 -168.5 41.5t-84.5 132.5q-4 4 -5 7h-3q-24 -43 -59 -78t-78 -59.5
t-92.5 -38t-101.5 -13.5z" />
    <glyph glyph-name="betagreek" unicode="&#x3b2;" horiz-adv-x="1209" 
d="M496 895h82q127 0 192.5 58t65.5 170q0 49 -17 88.5t-48.5 67.5t-75 43t-97.5 15q-135 0 -203.5 -79.5t-68.5 -244.5v-469q0 -88 22 -157t64 -116.5t103 -72.5t139 -25q64 0 114 19.5t85 54.5t53.5 83t18.5 106q0 138 -88.5 212.5t-259.5 74.5h-81v172zM111 1011
q0 123 32 218t93.5 159.5t151.5 98t207 33.5q104 0 187 -25.5t141 -74t89 -118.5t31 -158q0 -110 -58 -191.5t-165 -123.5v-4q164 -37 245 -137t81 -256q0 -98 -32 -179.5t-90.5 -140t-141 -91t-182.5 -32.5q-62 0 -118 12.5t-103.5 36.5t-85 59.5t-61.5 80.5h-4v-533h-217
v1366z" />
    <glyph glyph-name="gammagreek" unicode="&#x3b3;" horiz-adv-x="1125" 
d="M1035 915q0 -126 -26 -239.5t-77 -226t-126 -230t-173 -250.5v-316h-213v312l-383 1121h227l282 -910h5q68 97 120 188t87.5 181t53.5 181t18 189q0 25 -0.5 45t-1.5 39t-3 39.5t-5 47.5h205q6 -42 8 -80.5t2 -90.5z" />
    <glyph glyph-name="deltagreek" unicode="&#x3b4;" horiz-adv-x="1139" 
d="M571 -13q-115 0 -209 36t-160.5 102.5t-103 161t-36.5 211.5q0 102 29.5 185.5t83 146t127 100.5t162.5 49v3q-121 55 -176 122t-55 145q0 65 27.5 115.5t77.5 85t121 52.5t158 18q102 0 194 -18t162 -53l-10 -175q-94 38 -174.5 55t-163.5 17q-85 0 -129 -26.5
t-44 -77.5q0 -21 8.5 -39t30 -37t59.5 -41.5t98 -52.5q110 -58 190.5 -118.5t133 -128.5t78 -145.5t25.5 -170.5q0 -120 -36.5 -216.5t-103 -164.5t-159.5 -104.5t-205 -36.5zM566 160q65 0 118.5 23t91 67.5t58 108.5t20.5 145q0 87 -21.5 152t-59.5 108t-90 64.5
t-114 21.5q-71 0 -125 -26.5t-90 -73.5t-54.5 -111.5t-18.5 -141.5t20 -139.5t57 -106.5t90 -67.5t118 -23.5z" />
    <glyph glyph-name="epsilongreek" unicode="&#x3b5;" horiz-adv-x="1111" 
d="M537 -13q-107 0 -191.5 22t-143.5 62t-90 97t-31 127q0 91 51.5 155.5t145.5 92.5v4q-87 31 -132 91.5t-45 145.5q0 70 33 128.5t93 100t144 64.5t185 23q112 0 198.5 -25t147.5 -72t95.5 -114t42.5 -151h-214q-9 46 -27 80t-49 56.5t-77.5 34t-113.5 11.5
q-117 0 -182.5 -38.5t-65.5 -109.5q0 -65 61.5 -102t170.5 -37h152v-170h-151q-114 0 -177.5 -39t-63.5 -108q0 -75 62 -112t183 -37q250 0 291 182h219q-12 -83 -54.5 -149.5t-110 -114t-158 -73t-198.5 -25.5z" />
    <glyph glyph-name="zetagreek" unicode="&#x3b6;" horiz-adv-x="922" 
d="M667 -336q31 56 44 99t13 88q0 32 -8.5 57t-32.5 47t-66.5 42t-109.5 42q-123 39 -208 87t-137.5 109.5t-75.5 140t-23 178.5q0 105 35 206.5t102 198.5t164 187.5t221 174.5v5h-437v182h758v-170q-155 -92 -272 -184t-195 -186t-117 -191.5t-39 -200.5q0 -71 14.5 -123
t50.5 -92.5t96.5 -72.5t152.5 -62q97 -33 161 -67t102 -73.5t54 -87t16 -106.5q0 -67 -20 -128.5t-67 -134.5z" />
    <glyph glyph-name="etagreek" unicode="&#x3b7;" horiz-adv-x="1281" 
d="M957 -355v996q0 134 -61.5 202.5t-181.5 68.5q-59 0 -107.5 -21t-84 -58.5t-55 -89.5t-19.5 -115v-628h-217v782q0 72 -24.5 102t-72.5 30q-15 0 -33 -2.5t-29 -5.5v171q33 7 60 10t59 3q91 0 150 -35t85 -110q6 -20 11 -42h4q50 96 137 145.5t210 49.5q91 0 162.5 -27.5
t121 -79.5t76 -127t26.5 -170v-1049h-217z" />
    <glyph glyph-name="thetagreek" unicode="&#x3b8;" horiz-adv-x="1213" 
d="M607 -13q-129 0 -226 50.5t-162 148t-97.5 241t-32.5 329.5q0 187 34 329.5t99.5 239t162 146t222.5 49.5t222.5 -50t162 -147.5t99.5 -240t34 -328.5q0 -187 -33.5 -330t-99 -240t-162.5 -147t-223 -50zM607 164q148 0 220.5 124.5t78.5 388.5h-599q6 -264 79 -388.5
t221 -124.5zM905 853q-9 246 -84 367.5t-214 121.5q-140 0 -215 -121.5t-84 -367.5h597z" />
    <glyph glyph-name="iotagreek" unicode="&#x3b9;" horiz-adv-x="607" 
d="M440 -7q-89 0 -152.5 17t-103.5 53.5t-58.5 93.5t-18.5 136v793h215v-743q0 -90 37.5 -131.5t117.5 -41.5q25 0 43 1.5t40 6.5l10 -174q-52 -11 -130 -11z" />
    <glyph glyph-name="kappagreek" unicode="&#x3ba;" horiz-adv-x="1146" 
d="M111 1086h213v-552h3l321 373q46 54 82.5 89t70.5 56t69 29.5t78 8.5q27 0 57 -3.5t51 -8.5v-172q-4 1 -13.5 2.5t-20.5 3t-22 2t-18 0.5q-23 0 -43 -5t-41 -19t-46 -39t-59 -64l-123 -142l425 -645h-236l-326 506l-209 -227v-279h-213v1086z" />
    <glyph glyph-name="lambdagreek" unicode="&#x3bb;" horiz-adv-x="1146" 
d="M461 1025l-47 128q-23 61 -42 98.5t-41 58t-49 27.5t-65 7q-17 0 -35.5 -2.5t-31.5 -6.5v171q26 6 55 10t53 4q69 0 120 -15t90.5 -52.5t73 -101.5t68.5 -163l317 -902q12 -34 24.5 -56t28.5 -35t35.5 -18t45.5 -5q15 0 30.5 3t25.5 6l10 -172q-22 -6 -47.5 -9t-63.5 -3
q-54 0 -95.5 9.5t-74.5 35t-58.5 68.5t-48.5 111l-187 547h-3l-299 -768h-217z" />
    <glyph glyph-name="mugreek" unicode="&#x3bc;" horiz-adv-x="1268" 
d="M111 1086h217v-650q0 -127 60.5 -193.5t175.5 -66.5q62 0 112.5 20t86 57t55 89.5t19.5 117.5v626h217v-783q0 -72 21 -101.5t69 -29.5q14 0 30 2.5t27 6.5l10 -172q-28 -8 -57.5 -10t-58.5 -2q-97 0 -155.5 37t-84.5 120q-2 8 -4 17t-4 19h-3q-22 -47 -53.5 -84.5
t-70 -63.5t-82.5 -40t-91 -14q-35 0 -68.5 8.5t-62 23.5t-50.5 36.5t-35 47.5h-3v-459h-217v1441z" />
    <glyph glyph-name="nugreek" unicode="&#x3bd;" horiz-adv-x="1108" 
d="M37 1086h227l282 -910h5q69 99 117.5 190t79.5 180.5t45.5 180t14.5 188.5q0 26 -0.5 46t-1.5 39t-3 39t-5 47h211q5 -42 7.5 -80.5t2.5 -90.5q0 -117 -19.5 -224.5t-62.5 -216.5t-112 -224.5t-168 -249.5h-249z" />
    <glyph glyph-name="xigreek" unicode="&#x3be;" horiz-adv-x="957" 
d="M667 -336q31 55 44 100t13 91q0 31 -9.5 56t-35 47t-71 43t-117.5 44q-126 40 -208.5 84t-131.5 93.5t-68.5 105.5t-19.5 121q0 62 19.5 116t57.5 96.5t93 73.5t126 46v3q-59 21 -102.5 47t-72.5 59.5t-43.5 76t-14.5 95.5q0 101 61 166t173 95v3h-230v182h771v-161
l-113 -12q-119 -13 -205 -34t-141.5 -52.5t-82 -74.5t-26.5 -100q0 -98 83.5 -138.5t256.5 -40.5h153v-178h-160q-189 0 -286.5 -57t-97.5 -175q0 -43 15.5 -77.5t52 -65t97.5 -59t152 -58.5q93 -31 156.5 -64.5t102 -73t55.5 -87.5t17 -108q0 -67 -20 -128.5t-67 -134.5z
" />
    <glyph glyph-name="omicrongreek" unicode="&#x3bf;" horiz-adv-x="1145" 
d="M573 -13q-116 0 -210.5 39.5t-161 112t-102.5 175t-36 229.5q0 128 35.5 231t102 175.5t161 111.5t211.5 39t211 -39t160.5 -111.5t102 -175.5t35.5 -231q0 -127 -36 -229.5t-102.5 -175t-160.5 -112t-210 -39.5zM573 169q68 0 121.5 25t90.5 73t56.5 117.5t19.5 158.5
q0 87 -20 156.5t-57.5 118t-90.5 74t-120 25.5t-120.5 -25.5t-90.5 -74t-57 -118t-20 -156.5q0 -89 19.5 -158.5t56 -117.5t90 -73t122.5 -25z" />
    <glyph glyph-name="pigreek" unicode="&#x3c0;" horiz-adv-x="1395" 
d="M263 908h-196v178h1243v-178h-219v-611q0 -67 23.5 -96t74.5 -29q25 0 55 9l10 -172q-26 -6 -50 -9t-65 -3q-68 0 -116 15t-79.5 48t-46 84.5t-14.5 125.5v638h-412v-908h-208v908z" />
    <glyph glyph-name="rhogreek" unicode="&#x3c1;" horiz-adv-x="1166" 
d="M584 173q70 0 125.5 26t93.5 75.5t58.5 121t20.5 162.5q0 84 -20 150.5t-58 113t-92 71t-121 24.5q-68 0 -122 -25.5t-91 -73.5t-56.5 -116.5t-19.5 -154.5t19.5 -155t56 -118t89 -75t117.5 -26zM86 533q0 130 35.5 234.5t101.5 178.5t159.5 114t209.5 40
q115 0 209.5 -39t161.5 -110.5t103.5 -172t36.5 -223.5q0 -131 -32 -235.5t-92 -178t-145.5 -113t-191.5 -39.5q-56 0 -107 13t-94.5 38t-78 59.5t-56.5 78.5h-5v-533h-215v888z" />
    <glyph glyph-name="sigmafinalgreek" unicode="&#x3c2;" horiz-adv-x="1075" 
d="M667 -336q31 56 44 99t13 88q0 32 -8.5 57t-32.5 47t-66.5 42t-109.5 42q-121 39 -205.5 87t-137.5 111.5t-77 145.5t-24 189q0 118 34.5 215.5t99 167t155.5 107.5t205 38q206 0 325.5 -100.5t142.5 -283.5h-209q-18 97 -80.5 149.5t-168.5 52.5q-68 0 -120.5 -24.5
t-89 -68.5t-55.5 -106.5t-19 -137.5q0 -71 15.5 -124t51.5 -94t96.5 -74t150.5 -63q97 -33 161 -67t102 -73.5t54 -87t16 -106.5q0 -67 -20 -128.5t-67 -134.5z" />
    <glyph glyph-name="sigmagreek" unicode="&#x3c3;" horiz-adv-x="1288" 
d="M566 -12q-114 0 -207 39t-159.5 110t-102.5 171.5t-36 223.5q0 126 39 228.5t111 175t173.5 111.5t226.5 39h614v-178h-312v-4q37 -27 66 -67t49 -88.5t31 -103.5t11 -113q0 -123 -36 -223t-102 -171.5t-159 -110.5t-207 -39zM567 168q67 0 121 25.5t92 73.5t58.5 116
t20.5 153t-19 152.5t-54.5 114.5t-86.5 72.5t-115 25.5q-69 0 -124.5 -25.5t-95 -73.5t-60.5 -116t-21 -153q0 -84 20 -151.5t57 -115t89.5 -73t117.5 -25.5z" />
    <glyph glyph-name="taugreek" unicode="&#x3c4;" horiz-adv-x="1060" 
d="M742 -7q-94 0 -159.5 17t-107 53t-60 92.5t-18.5 136.5v616h-338v178h953v-178h-401v-565q0 -92 40 -132.5t130 -40.5q33 0 52 1.5t40 6.5l10 -174q-30 -5 -63 -8t-78 -3z" />
    <glyph glyph-name="upsilongreek" unicode="&#x3c5;" horiz-adv-x="1131" 
d="M556 -12q-220 0 -334.5 115.5t-114.5 333.5v649h210v-631q0 -143 58 -211t180 -68q138 0 204.5 100.5t66.5 284.5q0 64 -6.5 132.5t-18 137t-27.5 133.5t-36 122h212q20 -48 37 -109.5t29 -129t19 -136.5t7 -131q0 -140 -32.5 -250t-95 -186t-153 -116t-205.5 -40z" />
    <glyph glyph-name="phigreek" unicode="&#x3c6;" horiz-adv-x="1477" 
d="M638 -13q-132 6 -239.5 47.5t-184 113.5t-118 172t-41.5 223t40.5 224.5t116.5 174.5t184 114t242 43v291h202v-291q134 -2 242 -43t183.5 -114t116.5 -174.5t41 -224.5t-42 -223t-118.5 -172t-184 -113.5t-238.5 -47.5v-342h-202v342zM838 161q86 6 155 35t117 78.5
t74 117.5t26 151q0 84 -24.5 152.5t-72 118.5t-116.5 79t-159 33v-765zM639 926q-90 -4 -159 -33t-116.5 -79t-72 -118.5t-24.5 -152.5q0 -83 26 -151t74 -117.5t117 -78.5t155 -35v765z" />
    <glyph glyph-name="chigreek" unicode="&#x3c7;" horiz-adv-x="1172" 
d="M493 361l-221 439q-18 36 -35 58.5t-35 34.5t-38.5 16.5t-47.5 4.5q-12 0 -30.5 -2.5t-29.5 -5.5v172q28 5 56.5 8.5t55.5 3.5q51 0 90 -9t71 -31.5t60 -61t58 -97.5l173 -346h3l283 541h222l-411 -734l210 -414q18 -36 34 -59t33 -37t37 -19.5t46 -5.5q13 0 29.5 2
t27.5 7l8 -172q-17 -5 -45.5 -8.5t-58.5 -3.5q-54 0 -93 7.5t-70 28t-57.5 56t-54.5 91.5l-174 344h-3l-273 -524h-222z" />
    <glyph glyph-name="psigreek" unicode="&#x3c8;" horiz-adv-x="1466" 
d="M621 -12q-122 1 -217.5 31.5t-161.5 88t-100.5 140.5t-34.5 189v649h210v-614q0 -151 75.5 -223t228.5 -72v1213h206v-1213q165 2 249.5 97t84.5 287q0 86 -5.5 155t-17.5 130.5t-30.5 119t-44.5 120.5h216q21 -45 39 -103.5t31 -124.5t20.5 -136t7.5 -136
q0 -142 -37 -253.5t-107.5 -188t-173 -116.5t-232.5 -40v-343h-206v343z" />
    <glyph glyph-name="omegagreek" unicode="&#x3c9;" horiz-adv-x="1575" 
d="M475 -13q-191 0 -288.5 135.5t-97.5 388.5q0 76 11 155t31.5 154t49.5 143.5t64 122.5h225q-82 -137 -123.5 -279.5t-41.5 -296.5q0 -172 47 -253.5t145 -81.5q43 0 77.5 18t59 51.5t37.5 81t13 106.5v343h206v-343q0 -120 50 -188.5t138 -68.5q97 0 144.5 81.5
t47.5 253.5q0 304 -165 576h225q35 -54 64 -122.5t49.5 -143.5t31.5 -154t11 -155q0 -253 -98 -388.5t-289 -135.5q-220 0 -309 238h-6q-89 -238 -309 -238z" />
    <glyph glyph-name="iotadieresisgreek" unicode="&#x3ca;" horiz-adv-x="607" 
d="M27 1260q-25 0 -47 9.5t-38.5 25.5t-26 38t-9.5 46q0 25 9.5 46.5t26 37.5t38.5 25.5t47 9.5t47 -9.5t38 -25.5t25.5 -37.5t9.5 -46.5q0 -24 -9.5 -46t-25.5 -38t-38 -25.5t-47 -9.5zM430 1260q-25 0 -47 9.5t-38.5 25.5t-26 38t-9.5 46q0 25 9.5 46.5t26 37.5t38.5 25.5
t47 9.5t47 -9.5t38 -25.5t25.5 -37.5t9.5 -46.5q0 -24 -9.5 -46t-25.5 -38t-38 -25.5t-47 -9.5zM440 -7q-89 0 -152.5 17t-103.5 53.5t-58.5 93.5t-18.5 136v793h215v-743q0 -90 37.5 -131.5t117.5 -41.5q25 0 43 1.5t40 6.5l10 -174q-52 -11 -130 -11z" />
    <glyph glyph-name="upsilondieresisgreek" unicode="&#x3cb;" horiz-adv-x="1131" 
d="M342 1260q-25 0 -47 9.5t-38.5 25.5t-26 38t-9.5 46q0 25 9.5 46.5t26 37.5t38.5 25.5t47 9.5t47 -9.5t38 -25.5t25.5 -37.5t9.5 -46.5q0 -24 -9.5 -46t-25.5 -38t-38 -25.5t-47 -9.5zM745 1260q-25 0 -47 9.5t-38.5 25.5t-26 38t-9.5 46q0 25 9.5 46.5t26 37.5
t38.5 25.5t47 9.5t47 -9.5t38 -25.5t25.5 -37.5t9.5 -46.5q0 -24 -9.5 -46t-25.5 -38t-38 -25.5t-47 -9.5zM556 -12q-220 0 -334.5 115.5t-114.5 333.5v649h210v-631q0 -143 58 -211t180 -68q138 0 204.5 100.5t66.5 284.5q0 64 -6.5 132.5t-18 137t-27.5 133.5t-36 122h212
q20 -48 37 -109.5t29 -129t19 -136.5t7 -131q0 -140 -32.5 -250t-95 -186t-153 -116t-205.5 -40z" />
    <glyph glyph-name="omicrontonosgreek" unicode="&#x3cc;" horiz-adv-x="1145" 
d="M573 -13q-116 0 -210.5 39.5t-161 112t-102.5 175t-36 229.5q0 128 35.5 231t102 175.5t161 111.5t211.5 39t211 -39t160.5 -111.5t102 -175.5t35.5 -231q0 -127 -36 -229.5t-102.5 -175t-160.5 -112t-210 -39.5zM573 169q68 0 121.5 25t90.5 73t56.5 117.5t19.5 158.5
q0 87 -20 156.5t-57.5 118t-90.5 74t-120 25.5t-120.5 -25.5t-90.5 -74t-57 -118t-20 -156.5q0 -89 19.5 -158.5t56 -117.5t90 -73t122.5 -25zM569 1570h252l-155 -315h-176z" />
    <glyph glyph-name="upsilontonosgreek" unicode="&#x3cd;" horiz-adv-x="1131" 
d="M515 1570h252l-155 -315h-176zM556 -12q-220 0 -334.5 115.5t-114.5 333.5v649h210v-631q0 -143 58 -211t180 -68q138 0 204.5 100.5t66.5 284.5q0 64 -6.5 132.5t-18 137t-27.5 133.5t-36 122h212q20 -48 37 -109.5t29 -129t19 -136.5t7 -131q0 -140 -32.5 -250
t-95 -186t-153 -116t-205.5 -40z" />
    <glyph glyph-name="omegatonosgreek" unicode="&#x3ce;" horiz-adv-x="1575" 
d="M475 -13q-191 0 -288.5 135.5t-97.5 388.5q0 76 11 155t31.5 154t49.5 143.5t64 122.5h225q-82 -137 -123.5 -279.5t-41.5 -296.5q0 -172 47 -253.5t145 -81.5q43 0 77.5 18t59 51.5t37.5 81t13 106.5v343h206v-343q0 -120 50 -188.5t138 -68.5q97 0 144.5 81.5
t47.5 253.5q0 304 -165 576h225q35 -54 64 -122.5t49.5 -143.5t31.5 -154t11 -155q0 -253 -98 -388.5t-289 -135.5q-220 0 -309 238h-6q-89 -238 -309 -238zM773 1570h252l-155 -315h-176z" />
    </font>
</defs>
</svg>
