<?xml version="1.0" standalone="no"?>
<!DOCTYPE svg PUBLIC "-//W3C//DTD SVG 1.1//EN" "http://www.w3.org/Graphics/SVG/1.1/DTD/svg11.dtd" >
<svg xmlns="http://www.w3.org/2000/svg" xmlns:xlink="http://www.w3.org/1999/xlink" version="1.1">
<metadata>
Created by FontForge 20170731 at Mon Oct 10 22:38:07 2016
 By Aleksey,,,
(c) 2014 Apple Inc. All rights reserved.
</metadata>
<defs>
<font id="SFUIDisplay-Black" horiz-adv-x="0" >
  <font-face 
    font-family="SF UI Display"
    font-weight="250"
    font-stretch="normal"
    units-per-em="2048"
    panose-1="0 0 3 0 0 0 0 0 0 0"
    ascent="1638"
    descent="-410"
    x-height="1124"
    cap-height="1443"
    bbox="-660 -854 2718 2231"
    underline-thickness="50"
    underline-position="-125"
    unicode-range="U+0020-FB02"
  />
<missing-glyph horiz-adv-x="1293" 
d="M120 1365h1053v-1365h-1053v1365zM501 313q0 -48 33 -77.5t87 -29.5q56 0 89 29.5t33 77.5q0 49 -33 78.5t-89 29.5q-54 0 -87 -30t-33 -78zM508 888q1 60 34.5 95t90.5 35q54 0 87 -29.5t33 -80.5q0 -19 -4.5 -34.5t-16 -31t-31.5 -33t-51 -39.5q-69 -49 -96 -100.5
t-22 -120.5l1 -18h166v15q0 24 4 41.5t15 34t32 34.5t56 43q36 26 61.5 51t41.5 51t23 54.5t7 61.5q0 57 -21 103t-60 78.5t-93.5 50.5t-121.5 18q-71 0 -128.5 -19.5t-97 -56t-60 -88t-18.5 -115.5h169z" />
    <glyph glyph-name=".notdef" horiz-adv-x="1293" 
d="M120 1365h1053v-1365h-1053v1365zM501 313q0 -48 33 -77.5t87 -29.5q56 0 89 29.5t33 77.5q0 49 -33 78.5t-89 29.5q-54 0 -87 -30t-33 -78zM508 888q1 60 34.5 95t90.5 35q54 0 87 -29.5t33 -80.5q0 -19 -4.5 -34.5t-16 -31t-31.5 -33t-51 -39.5q-69 -49 -96 -100.5
t-22 -120.5l1 -18h166v15q0 24 4 41.5t15 34t32 34.5t56 43q36 26 61.5 51t41.5 51t23 54.5t7 61.5q0 57 -21 103t-60 78.5t-93.5 50.5t-121.5 18q-71 0 -128.5 -19.5t-97 -56t-60 -88t-18.5 -115.5h169z" />
    <glyph glyph-name=".null" 
 />
    <glyph glyph-name="nonmarkingreturn" 
 />
    <glyph glyph-name="space" unicode=" " horiz-adv-x="390" 
 />
    <glyph glyph-name="exclam" unicode="!" horiz-adv-x="749" 
d="M585 1443l-36 -972h-348l-36 972h420zM375 -40q-44 0 -83 15.5t-68 42.5t-45.5 63.5t-16.5 78.5t16.5 78t45.5 63t68 42.5t83 15.5q43 0 82 -15.5t67.5 -42.5t45.5 -63t17 -78t-17 -78.5t-45.5 -63.5t-67.5 -42.5t-82 -15.5z" />
    <glyph glyph-name="quotedbl" unicode="&#x22;" horiz-adv-x="1050" 
d="M81 801v642h340v-642h-340zM629 801v642h340v-642h-340z" />
    <glyph glyph-name="numbersign" unicode="#" horiz-adv-x="1336" 
d="M1059 821l-34 -177h201l-53 -287h-204l-70 -357h-301l71 357h-161l-71 -357h-299l70 357h-196l54 287h197l35 177h-194l54 284h196l67 339h299l-66 -339h161l66 339h301l-66 -339h203l-53 -284h-207zM529 610h214l51 244h-216z" />
    <glyph glyph-name="dollar" unicode="$" horiz-adv-x="1413" 
d="M645 -136v121q-134 6 -238.5 38.5t-176.5 89t-109.5 136t-37.5 179.5h401q1 -28 14 -53t34.5 -44.5t50.5 -32t62 -15.5v261l-131 27q-202 42 -304.5 151t-102.5 282q0 102 35.5 183.5t104.5 140t169 93.5t229 44v135h148v-137q117 -11 210.5 -48t159.5 -95t102 -135
t36 -168h-387q-1 24 -10.5 47t-26 42t-38 32t-46.5 18v-257l129 -22q203 -35 305.5 -141.5t102.5 -281.5q0 -102 -35 -183.5t-103.5 -141t-168.5 -95.5t-230 -47v-123h-148zM936 404q0 92 -143 116v-236q67 6 105 38t38 82zM514 1045q0 -44 33.5 -73.5t97.5 -43.5v230
q-59 -4 -95 -34.5t-36 -78.5z" />
    <glyph glyph-name="percent" unicode="%" horiz-adv-x="1733" 
d="M157 0l1051 1443h340l-1051 -1443h-340zM1693 363q0 -90 -24.5 -162t-70.5 -122.5t-112 -77.5t-148 -27t-148 27t-112 77.5t-70.5 122.5t-24.5 162t24.5 161t70 120.5t111.5 76t149 26.5t149 -26.5t111.5 -76t70 -120.5t24.5 -161zM1338 202q32 0 50 42.5t18 118.5
q0 75 -17.5 115.5t-50.5 40.5q-32 0 -49.5 -40.5t-17.5 -116.5q0 -74 17.5 -117t49.5 -43zM750 1121q0 -90 -24.5 -162t-70.5 -122.5t-112 -77.5t-148 -27t-148 27t-112 77.5t-70.5 122.5t-24.5 162t24.5 161t70 120.5t111.5 76t149 26.5t149 -26.5t111.5 -76t70 -120.5
t24.5 -161zM395 960q32 0 50 42.5t18 118.5q0 75 -17.5 115.5t-50.5 40.5q-32 0 -49.5 -40.5t-17.5 -116.5q0 -74 17.5 -117t49.5 -43z" />
    <glyph glyph-name="ampersand" unicode="&#x26;" horiz-adv-x="1504" 
d="M1008 94q-35 -29 -81.5 -51.5t-102 -38t-118.5 -24t-130 -8.5q-123 0 -220 27t-164.5 78.5t-103 125.5t-35.5 168q0 60 14.5 111t45 95.5t78.5 84.5t114 78q6 2 12 6q5 3 11.5 6.5t13.5 7.5q16 9 37 21q-49 49 -83 91.5t-55 81t-30.5 75.5t-9.5 77q0 76 34 140.5
t94.5 111t143.5 72.5t181 26t179 -24.5t138.5 -68.5t89.5 -106.5t32 -137.5q0 -112 -69.5 -208t-205.5 -172l192 -207q34 56 34 161v109h321v-142q0 -50 -9 -100.5t-25 -98.5t-39.5 -91t-51.5 -77l284 -293h-427zM520 566q-53 -35 -76 -72t-23 -88q0 -36 14.5 -65.5
t40.5 -50.5t62.5 -32.5t81.5 -11.5q60 0 110.5 17.5t76.5 48.5l-255 270q-8 -3 -17 -7.5t-15 -8.5zM645 910q131 70 131 175q0 55 -33.5 90t-86.5 35q-27 0 -50 -9.5t-39.5 -26t-26 -39t-9.5 -49.5q0 -20 6 -39t19.5 -40t35 -44.5t53.5 -52.5z" />
    <glyph glyph-name="quotesingle" unicode="'" horiz-adv-x="502" 
d="M81 801v642h340v-642h-340z" />
    <glyph glyph-name="parenleft" unicode="(" horiz-adv-x="784" 
d="M361 -277q-64 81 -114.5 179.5t-85 210.5t-53 235t-18.5 252t16 242t50.5 215t87 197t126.5 189h392q-53 -62 -98.5 -154.5t-78.5 -204.5t-51.5 -235.5t-18.5 -246.5q0 -119 14.5 -229.5t44.5 -218t76 -214t109 -217.5h-398z" />
    <glyph glyph-name="parenright" unicode=")" horiz-adv-x="784" 
d="M25 -277q63 111 109 217.5t76 214t44.5 218t14.5 229.5q0 122 -18.5 245.5t-51.5 235t-78.5 205t-98.5 155.5h391q74 -94 127 -189t87.5 -197.5t50.5 -215t16 -241.5t-18.5 -252.5t-53 -235.5t-85.5 -210.5t-115 -178.5h-397v0z" />
    <glyph glyph-name="asterisk" unicode="*" horiz-adv-x="1000" 
d="M571 912l62 -287h-266l62 287l-217 -197l-133 230l283 90l-283 89l133 230l220 -202l-65 292h266l-65 -292l220 202l133 -230l-283 -89l283 -90l-133 -230z" />
    <glyph glyph-name="plus" unicode="+" horiz-adv-x="1413" 
d="M887 -2h-361v416h-390v348h390v416h361v-416h390v-348h-390v-416z" />
    <glyph glyph-name="comma" unicode="," horiz-adv-x="618" 
d="M78 -285l66 622h364l-123 -622h-307z" />
    <glyph glyph-name="hyphen" unicode="-" horiz-adv-x="931" 
d="M136 414v348h659v-348h-659z" />
    <glyph glyph-name="period" unicode="." horiz-adv-x="618" 
d="M309 -14q-43 0 -81 16.5t-66 44.5t-44.5 66t-16.5 81t16.5 81t44.5 66t66 44.5t81 16.5t81 -16.5t66 -44.5t44.5 -66t16.5 -81t-16.5 -81t-44.5 -66t-66 -44.5t-81 -16.5z" />
    <glyph glyph-name="slash" unicode="/" horiz-adv-x="783" 
d="M0 -257l388 1701h395l-396 -1701h-387z" />
    <glyph glyph-name="zero" unicode="0" horiz-adv-x="1423" 
d="M712 -40q-146 0 -264 52.5t-200.5 151t-127 240.5t-44.5 321q0 180 45 321t128 238.5t200.5 148.5t262.5 51t262.5 -51t200 -148t127.5 -238t45 -321q0 -179 -44.5 -321t-127 -241t-200 -151.5t-263.5 -52.5zM712 286q44 0 81.5 27t64.5 81.5t42 137t15 193.5
q0 112 -15 193.5t-42 134.5t-64.5 79t-81.5 26t-81.5 -26t-64.5 -79t-42.5 -134.5t-15.5 -193.5q0 -111 15.5 -193.5t42.5 -137t64.5 -81.5t81.5 -27z" />
    <glyph glyph-name="one" unicode="1" horiz-adv-x="1058" 
d="M440 1080h-8l-354 -234v355l362 242h424v-1443h-424v1080z" />
    <glyph glyph-name="two" unicode="2" horiz-adv-x="1311" 
d="M62 990q0 111 42 201.5t119 155.5t185.5 100.5t242.5 35.5q131 0 236 -32t178 -89.5t112 -138.5t39 -179q0 -74 -27 -139t-65.5 -118t-80 -93.5t-70.5 -65.5l-339 -300v-8h599v-320h-1146v282l580 513q73 65 107 120.5t34 115.5q0 29 -11.5 54.5t-33.5 44t-54 29.5
t-73 11t-75.5 -13t-59.5 -37t-39 -57t-14 -72v-9h-386v8v0z" />
    <glyph glyph-name="three" unicode="3" horiz-adv-x="1367" 
d="M495 878h176q84 0 132 40t48 109t-48.5 108t-136.5 39q-43 0 -78 -12.5t-60 -35t-39 -54t-14 -69.5h-382q0 108 42.5 196.5t120 151.5t186.5 97.5t242 34.5q128 0 231 -28t175.5 -79.5t111.5 -125.5t39 -165q0 -65 -22.5 -120.5t-62.5 -98.5t-95.5 -71.5t-120.5 -40.5v-8
q79 -9 144 -36t111 -71t71 -104t25 -134q0 -101 -44 -182.5t-126 -139t-197.5 -88.5t-259.5 -31q-131 0 -239 34.5t-186 97.5t-123 152.5t-50 199.5h404q2 -72 55.5 -113.5t147.5 -41.5q42 0 76.5 11t59 31.5t38 49t13.5 63.5q0 71 -50 110.5t-141 39.5h-174v284z" />
    <glyph glyph-name="four" unicode="4" horiz-adv-x="1414" 
d="M776 214h-710v351q48 94 101 189.5t115.5 200.5t138 224.5t169.5 263.5h586v-904h172v-325h-172v-214h-400v214zM418 522h370v643h-8q-55 -85 -102 -158.5t-89.5 -147t-84 -152.5t-86.5 -173v-12z" />
    <glyph glyph-name="five" unicode="5" horiz-adv-x="1362" 
d="M700 -40q-129 0 -236.5 35t-185.5 97t-121.5 148.5t-44.5 190.5h381q6 -33 24.5 -61t46.5 -48t63.5 -31t75.5 -11q45 0 82 15t63.5 42t41 64.5t14.5 82.5q0 47 -14.5 86t-40.5 66.5t-63.5 43t-82.5 15.5q-62 0 -113.5 -27.5t-83.5 -77.5h-371l64 853h1009v-320h-683
l-22 -320h8q39 81 120 128.5t199 47.5q103 0 189.5 -36t149 -100.5t97.5 -153.5t35 -195q0 -120 -43 -218.5t-122 -168.5t-190 -108.5t-246 -38.5z" />
    <glyph glyph-name="six" unicode="6" horiz-adv-x="1407" 
d="M728 -40q-149 0 -272 51.5t-208 153.5q-85 101 -128.5 243t-43.5 314q0 177 46.5 318t131.5 239.5t205 151t267 52.5q114 0 214.5 -31.5t177.5 -88t127 -134.5t63 -170h-411q-7 23 -23 42.5t-39 33.5t-51 21.5t-59 7.5q-61 0 -110 -31t-82.5 -88t-48.5 -138.5t-7 -181.5
h8q19 52 52 95.5t79 75t105 48.5t130 17q102 0 189 -35.5t150.5 -99t99.5 -150.5t36 -190q0 -116 -44 -212.5t-123.5 -166.5t-189.5 -108.5t-241 -38.5zM724 281q41 0 77 15t62.5 41t42 61t15.5 76q0 40 -15.5 75t-42 61t-62.5 40.5t-77 14.5t-77 -14.5t-62.5 -40.5
t-41.5 -61t-15 -75q0 -41 15 -76t41.5 -61t62.5 -41t77 -15z" />
    <glyph glyph-name="seven" unicode="7" horiz-adv-x="1223" 
d="M743 1115v8h-692v320h1110v-319l-563 -1124h-444z" />
    <glyph glyph-name="eight" unicode="8" horiz-adv-x="1445" 
d="M722 -40q-148 0 -267.5 31t-203.5 87.5t-129.5 136t-45.5 176.5q0 75 27 139t76 112t116.5 78.5t148.5 39.5v8q-68 11 -124.5 41t-98 73.5t-64.5 99t-23 118.5q0 83 42.5 153.5t120 121.5t186 79.5t239.5 28.5t239.5 -28.5t186 -79.5t120 -121.5t42.5 -154.5
q0 -62 -23 -117t-64 -99t-97.5 -74t-123.5 -41v-8q81 -9 148.5 -39.5t116 -79t75.5 -112.5t27 -139q0 -97 -46.5 -176t-131.5 -135.5t-204.5 -87.5t-264.5 -31zM722 242q45 0 81.5 14t62.5 38t40.5 57t14.5 71t-14.5 71t-40.5 57t-62.5 38t-81.5 14t-81.5 -14t-62.5 -38
t-40.5 -57t-14.5 -71t14.5 -71t40.5 -57t62.5 -38t81.5 -14zM722 883q37 0 68 12.5t53.5 34t35.5 50.5t13 62q0 34 -13 63t-35.5 50.5t-53.5 34t-68 12.5t-68 -12.5t-53.5 -34t-35 -50.5t-12.5 -63q0 -33 12.5 -62t35 -50.5t53.5 -34t68 -12.5z" />
    <glyph glyph-name="nine" unicode="9" horiz-adv-x="1415" 
d="M686 -40q-115 0 -216.5 32t-179.5 88.5t-128 134.5t-63 170h413q7 -23 24 -42.5t41 -33.5t53.5 -21.5t62.5 -7.5q59 0 107.5 29.5t80.5 85.5t46.5 138t6.5 186h-4h-2h-2q-17 -52 -48.5 -95t-77.5 -74.5t-106.5 -49t-133.5 -17.5q-101 0 -188.5 35.5t-152 99t-101.5 150.5
t-37 190q0 116 45 212.5t125.5 166t190.5 108t240 38.5q151 0 275.5 -51t209.5 -153q85 -101 128.5 -243t43.5 -314q0 -176 -45 -317t-129.5 -240t-205.5 -152t-273 -53zM688 780q41 0 76.5 14.5t62 40.5t41.5 60.5t15 75.5t-15 76t-41.5 61t-62 41t-76.5 15t-77 -15
t-63 -41t-42.5 -61t-15.5 -76t15.5 -75.5t42 -60.5t62.5 -40.5t78 -14.5z" />
    <glyph glyph-name="colon" unicode=":" horiz-adv-x="618" 
d="M309 -14q-43 0 -81 16.5t-66 44.5t-44.5 66t-16.5 81t16.5 81t44.5 66t66 44.5t81 16.5t81 -16.5t66 -44.5t44.5 -66t16.5 -81t-16.5 -81t-44.5 -66t-66 -44.5t-81 -16.5zM309 680q-43 0 -81 16.5t-66 44.5t-44.5 66t-16.5 81t16.5 81t44.5 66t66 44.5t81 16.5t81 -16.5
t66 -44.5t44.5 -66t16.5 -81t-16.5 -81t-44.5 -66t-66 -44.5t-81 -16.5z" />
    <glyph glyph-name="semicolon" unicode=";" horiz-adv-x="618" 
d="M309 680q-43 0 -81 16.5t-66 44.5t-44.5 66t-16.5 81t16.5 81t44.5 66t66 44.5t81 16.5t81 -16.5t66 -44.5t44.5 -66t16.5 -81t-16.5 -81t-44.5 -66t-66 -44.5t-81 -16.5zM48 -285l66 622h364l-123 -622h-307z" />
    <glyph glyph-name="less" unicode="&#x3c;" horiz-adv-x="1413" 
d="M614 593v-11l606 -239v-395l-1027 485v309l1027 485v-395z" />
    <glyph glyph-name="equal" unicode="=" horiz-adv-x="1413" 
d="M147 138v349h1119v-349h-1119zM147 689v349h1119v-349h-1119z" />
    <glyph glyph-name="greater" unicode="&#x3e;" horiz-adv-x="1413" 
d="M193 1227l1027 -485v-309l-1027 -485v395l606 239v11l-606 239v395z" />
    <glyph glyph-name="question" unicode="?" horiz-adv-x="1184" 
d="M51 1010q0 103 37 186t106.5 141t168.5 89t224 31q120 0 217 -29t166 -83t106 -130t37 -170q0 -54 -12.5 -100.5t-39 -87t-68 -76t-98.5 -68.5q-53 -30 -87 -54t-54.5 -48t-28.5 -50t-8 -60v-42h-355l-3 24q-9 69 -5 121.5t23.5 94t54.5 74.5t87 63q53 31 87 54.5
t53.5 45.5t27 45.5t7.5 54.5q0 51 -38 82t-97 31q-60 0 -97.5 -38.5t-38.5 -100.5h-372zM547 -40q-44 0 -82.5 15.5t-67.5 42.5t-45.5 63.5t-16.5 78.5t16.5 78t45.5 63t67.5 42.5t82.5 15.5t82.5 -15.5t67.5 -42.5t46 -63t17 -78t-17 -78.5t-46 -63.5t-67.5 -42.5
t-82.5 -15.5z" />
    <glyph glyph-name="at" unicode="@" horiz-adv-x="1828" 
d="M897 806q-59 0 -92 -49.5t-33 -137.5t32.5 -136.5t92.5 -48.5q59 0 91.5 48.5t32.5 136.5t-33 137.5t-91 49.5zM927 1463q181 0 330.5 -54t256.5 -152.5t166 -237t59 -306.5q0 -117 -28.5 -210t-81.5 -158t-129 -100t-171 -35q-100 0 -166.5 37.5t-90.5 108.5h-20
q-60 -149 -229 -149q-78 0 -141.5 30t-109 85t-70 132.5t-24.5 172.5q0 91 23.5 165.5t66 128t102.5 82.5t133 29q82 0 142.5 -36.5t90.5 -105.5h20v117h254v-483q0 -54 20.5 -84t57.5 -30q29 0 52 19t39.5 54t25 85t8.5 113q0 136 -41 245.5t-117.5 186t-184.5 117.5
t-243 41q-143 0 -261 -47t-202 -132t-130 -204t-46 -264q0 -146 47.5 -262.5t136 -198.5t215 -125.5t284.5 -43.5q60 0 117 6t93 16v-194q-51 -12 -112 -18.5t-126 -6.5q-197 0 -359 60t-278 169.5t-180 262.5t-64 339q0 185 63.5 338.5t177.5 264t273 171.5t351 61z" />
    <glyph glyph-name="A" unicode="A" horiz-adv-x="1534" 
d="M977 287h-440l-75 -287h-432l471 1443h532l471 -1443h-452zM614 586h286l-139 524h-8z" />
    <glyph glyph-name="B" unicode="B" horiz-adv-x="1382" 
d="M100 0v1443h709q111 0 198 -24.5t147 -71t91.5 -113.5t31.5 -151q0 -62 -22.5 -115.5t-61.5 -94.5t-92.5 -67.5t-116.5 -34.5v-8q73 -2 138 -29t114 -73t77.5 -107.5t28.5 -133.5q0 -95 -36 -172.5t-102.5 -132.5t-160.5 -85t-210 -30h-733zM524 865h164q82 0 129.5 39
t47.5 105q0 67 -45 105t-126 38h-170v-287zM705 291q99 0 152.5 43t53.5 125q0 78 -53.5 120.5t-149.5 42.5h-184v-331h181z" />
    <glyph glyph-name="C" unicode="C" horiz-adv-x="1513" 
d="M781 -25q-166 0 -298.5 50t-225.5 145t-142.5 234t-49.5 318q0 178 50 317t143 234.5t225.5 145t297.5 49.5q143 0 265.5 -44.5t212 -124.5t141 -191.5t51.5 -245.5h-406q-4 61 -25 111.5t-55.5 86.5t-81.5 55.5t-102 19.5q-65 0 -117.5 -28t-89.5 -81t-57 -129.5
t-20 -173.5q0 -98 20 -175t56.5 -130.5t89.5 -81.5t119 -28q55 0 101.5 19.5t81 55t56 86t26.5 113.5h406q-1 -135 -51.5 -246.5t-139.5 -192t-212 -124.5t-269 -44z" />
    <glyph glyph-name="D" unicode="D" horiz-adv-x="1477" 
d="M717 1443q164 0 293 -46t218.5 -136t136.5 -223t47 -306t-47 -309t-136.5 -230t-218.5 -143.5t-293 -49.5h-617v1443h617zM524 337h133q159 0 241 97.5t82 297.5q0 183 -85 278.5t-238 95.5h-133v-769z" />
    <glyph glyph-name="E" unicode="E" horiz-adv-x="1216" 
d="M1118 0h-1018v1443h1018v-337h-594v-233h557v-304h-557v-232h594v-337z" />
    <glyph glyph-name="F" unicode="F" horiz-adv-x="1164" 
d="M100 0v1443h1014v-337h-590v-277h534v-318h-534v-511h-424z" />
    <glyph glyph-name="G" unicode="G" horiz-adv-x="1530" 
d="M1462 614q0 -148 -45.5 -266.5t-131.5 -201t-210 -127t-281 -44.5q-172 0 -307.5 49.5t-229 145t-143 234.5t-49.5 319q0 177 49.5 316t142 234t225 145t299.5 50q136 0 252 -38t203.5 -105.5t142 -161t66.5 -204.5h-417q-11 40 -33 72t-54 55t-72 35.5t-86 12.5
q-68 0 -121 -27t-89.5 -79t-56 -127.5t-19.5 -171.5q0 -99 22 -177t62 -132t96.5 -82.5t126.5 -28.5q52 0 95.5 14t76 39t52 60.5t24.5 79.5l2 20h-220v282h628v-190v0z" />
    <glyph glyph-name="H" unicode="H" horiz-adv-x="1556" 
d="M1032 0v558h-508v-558h-424v1443h424v-548h508v548h424v-1443h-424z" />
    <glyph glyph-name="I" unicode="I" horiz-adv-x="624" 
d="M100 0v1443h424v-1443h-424z" />
    <glyph glyph-name="J" unicode="J" horiz-adv-x="1271" 
d="M426 511q0 -85 41.5 -133t114.5 -48q70 0 106.5 44t36.5 130v939h424v-942q0 -127 -38.5 -225t-110.5 -165t-176 -101.5t-236 -34.5q-131 0 -236.5 37t-179 106t-113 168.5t-39.5 224.5h406z" />
    <glyph glyph-name="K" unicode="K" horiz-adv-x="1445" 
d="M100 0v1443h424v-612h8l446 612h445l-475 -641l497 -802h-493l-315 530l-113 -152v-378h-424z" />
    <glyph glyph-name="L" unicode="L" horiz-adv-x="1150" 
d="M1090 0h-990v1443h424v-1106h566v-337z" />
    <glyph glyph-name="M" unicode="M" horiz-adv-x="1833" 
d="M1733 0h-370v836h-8l-325 -819h-227l-325 819h-8v-836h-370v1443h490l323 -842h8l322 842h490v-1443z" />
    <glyph glyph-name="N" unicode="N" horiz-adv-x="1494" 
d="M100 0v1443h329l557 -748h8v748h400v-1443h-325l-561 760h-8v-760h-400z" />
    <glyph glyph-name="O" unicode="O" horiz-adv-x="1584" 
d="M792 1468q167 0 301.5 -52t229 -148.5t145.5 -235t51 -311.5t-51 -311t-145.5 -235t-229 -148.5t-301.5 -51.5q-168 0 -302.5 51.5t-229 148.5t-145 235t-50.5 311t51 311.5t145.5 235t229 148.5t301.5 52zM792 1130q-66 0 -120.5 -29t-93.5 -82t-60 -128.5t-21 -169.5
q0 -93 21 -168.5t59.5 -129t93 -82t121.5 -28.5t121.5 28.5t93 82t59.5 129t21 168.5q0 94 -21 169.5t-60 128.5t-93.5 82t-120.5 29z" />
    <glyph glyph-name="P" unicode="P" horiz-adv-x="1346" 
d="M759 1443q120 0 219 -37t169.5 -105.5t109.5 -166t39 -217.5q0 -119 -41 -216t-115.5 -165t-179 -105t-230.5 -37h-206v-394h-424v1443h659zM524 707h119q106 0 165.5 52.5t59.5 156.5q0 103 -59 155.5t-163 52.5h-122v-417z" />
    <glyph glyph-name="Q" unicode="Q" horiz-adv-x="1583" 
d="M1111 -108l-72 117q-114 -34 -247 -34q-168 0 -302.5 50.5t-229 146.5t-145 234.5t-50.5 314.5q0 172 51 310.5t145.5 235.5t229 149t301.5 52t301 -52t228.5 -149t145.5 -235.5t51 -310.5q0 -174 -50 -312.5t-148 -229.5l175 -287h-384zM792 307q29 0 53 6l-136 223h345
l3 -4q29 90 29 189q0 93 -21 169.5t-59.5 131t-93 84.5t-120.5 30q-67 0 -121.5 -29.5t-93 -84t-59.5 -131t-21 -170.5t21 -170.5t59.5 -130.5t93 -83.5t121.5 -29.5z" />
    <glyph glyph-name="R" unicode="R" horiz-adv-x="1395" 
d="M524 764h175q45 0 80.5 13t60 37t38 57.5t13.5 74.5q0 40 -14 74t-39 58.5t-60 38t-78 13.5h-176v-366zM524 0h-424v1443h641q144 0 253.5 -33t182.5 -96t110 -154t37 -207q0 -64 -15 -125t-44.5 -114.5t-73 -96.5t-100.5 -70l274 -547h-474l-228 484h-139v-484z" />
    <glyph glyph-name="S" unicode="S" horiz-adv-x="1370" 
d="M461 425q4 -31 24 -56t50.5 -43t69.5 -27.5t82 -9.5q96 0 150.5 34t54.5 87q0 25 -10.5 43.5t-35 33t-64.5 25.5t-98 22l-191 34q-200 35 -304.5 144t-104.5 280q0 109 44.5 197.5t123.5 150t188 95t238 33.5q144 0 255.5 -32t188 -91t116.5 -143.5t41 -189.5h-387
q-1 34 -17.5 60.5t-44 45t-64.5 28t-80 9.5q-84 0 -132.5 -32t-48.5 -86q0 -52 46.5 -81.5t149.5 -47.5l198 -34q210 -37 310.5 -139t100.5 -277q0 -111 -44.5 -200t-127 -152t-199 -97t-260.5 -34q-145 0 -260 30t-194.5 87t-122 141t-42.5 192h401z" />
    <glyph glyph-name="T" unicode="T" horiz-adv-x="1274" 
d="M425 0v1106h-380v337h1184v-337h-380v-1106h-424z" />
    <glyph glyph-name="U" unicode="U" horiz-adv-x="1472" 
d="M524 561q0 -115 54.5 -175t157.5 -60t157.5 60t54.5 175v882h424v-929q0 -123 -46 -223t-129.5 -170t-200.5 -108t-260 -38t-260 38t-200.5 108t-129.5 170t-46 223v929h424v-882z" />
    <glyph glyph-name="V" unicode="V" horiz-adv-x="1486" 
d="M468 0l-438 1443h488l231 -1041h8l231 1041h468l-438 -1443h-550z" />
    <glyph glyph-name="W" unicode="W" horiz-adv-x="2062" 
d="M812 0h-400l-372 1443h438l166 -912h8l215 912h328l215 -912h8l166 912h438l-372 -1443h-400l-215 826h-8z" />
    <glyph glyph-name="X" unicode="X" horiz-adv-x="1507" 
d="M466 723v8l-426 712h494l227 -460h8l228 460h470l-447 -714v-8l445 -721h-472l-248 435h-9l-247 -435h-448z" />
    <glyph glyph-name="Y" unicode="Y" horiz-adv-x="1470" 
d="M523 0v457l-493 986h453l253 -585h8l253 585h443l-493 -986v-457h-424z" />
    <glyph glyph-name="Z" unicode="Z" horiz-adv-x="1321" 
d="M80 266l643 832v8h-637v337h1131v-265l-641 -833v-8h665v-337h-1161v266z" />
    <glyph glyph-name="bracketleft" unicode="[" horiz-adv-x="846" 
d="M787 1444v-294h-304v-1096h317v-294h-710v1684h697z" />
    <glyph glyph-name="backslash" unicode="\" horiz-adv-x="783" 
d="M0 1443h395l388 -1701h-386z" />
    <glyph glyph-name="bracketright" unicode="]" horiz-adv-x="846" 
d="M756 -240h-710v294h317v1096h-304v294h697v-1684z" />
    <glyph glyph-name="asciicircum" unicode="^" horiz-adv-x="1060" 
d="M359 829h-345l354 596h329l349 -596h-358l-150 279h-18z" />
    <glyph glyph-name="underscore" unicode="_" horiz-adv-x="886" 
d="M-38 -415v308h962v-308h-962z" />
    <glyph glyph-name="grave" unicode="`" horiz-adv-x="1015" 
d="M483 1275l-265 321h347l232 -321h-314z" />
    <glyph glyph-name="a" unicode="a" horiz-adv-x="1231" 
d="M569 259q36 0 68.5 10t58 28t40.5 43.5t15 57.5v74l-181 -13q-62 -5 -95 -31.5t-33 -69.5q0 -47 35 -73t92 -26zM417 -16q-77 0 -146 25t-121 70.5t-82 108.5t-30 139q0 162 119.5 249t345.5 101l248 15v57q0 58 -39 88.5t-100 30.5q-66 0 -105.5 -31t-44.5 -75h-366
q4 89 42.5 161t108 123t167.5 78.5t220 27.5q116 0 211.5 -28t163.5 -78t105 -121t37 -156v-769h-400v152h-8q-22 -41 -57.5 -72.5t-78.5 -52.5t-92 -32t-98 -11z" />
    <glyph glyph-name="b" unicode="b" horiz-adv-x="1330" 
d="M843 -16q-125 0 -213 55.5t-127 154.5h-8v-194h-410v1518h410v-596h8q41 103 127.5 160.5t207.5 57.5q106 0 188.5 -38t139 -111.5t85.5 -181.5t29 -247t-29 -246.5t-84.5 -181t-137 -112t-186.5 -38.5zM677 823q-42 0 -76 -18.5t-58 -52.5t-37 -82.5t-13 -108.5
q1 -121 50 -190.5t134 -69.5q42 0 76 18.5t57.5 52t36.5 82t13 108.5t-13 108t-37 82t-57.5 52.5t-75.5 18.5z" />
    <glyph glyph-name="c" unicode="c" horiz-adv-x="1223" 
d="M805 662q-7 86 -51.5 135t-113.5 49q-85 0 -130 -72.5t-45 -210.5q0 -140 44.5 -212.5t130.5 -72.5q72 0 115.5 46t49.5 131h373q-2 -113 -40.5 -203t-109 -152t-170 -95t-223.5 -33q-136 0 -244.5 40.5t-184 116.5t-116 185.5t-40.5 248.5q0 137 40.5 246.5t116 185.5
t183.5 116.5t243 40.5q122 0 221.5 -34t170.5 -98t111 -154.5t42 -203.5h-373z" />
    <glyph glyph-name="d" unicode="d" horiz-adv-x="1325" 
d="M490 -16q-104 0 -185.5 39.5t-138 114t-86.5 182.5t-30 245q0 135 30.5 242t87.5 181t140 113t188 39q61 0 114.5 -16.5t96 -45.5t73 -69t47.5 -87h8v596h410v-1518h-410v194h-8q-14 -44 -45 -82.5t-75 -67t-99 -44.5t-118 -16zM653 823q-86 0 -134.5 -69.5t-48.5 -191.5
q0 -124 48 -192.5t135 -68.5q88 0 136 68t48 192q0 123 -48.5 192.5t-135.5 69.5z" />
    <glyph glyph-name="e" unicode="e" horiz-adv-x="1243" 
d="M631 869q-36 0 -67.5 -12.5t-55.5 -35.5t-38.5 -54.5t-17.5 -68.5h358q-3 39 -17 70.5t-37.5 54t-55 34.5t-69.5 12zM1188 363q-13 -90 -58 -162.5t-116.5 -123.5t-167 -78t-210.5 -27q-138 0 -246.5 40t-184 115t-115.5 183.5t-40 245.5q0 138 40 248t114.5 187.5
t180.5 119t238 41.5q130 0 235 -40t179.5 -114t115 -178.5t40.5 -233.5v-111h-747v-26q0 -43 14.5 -78.5t40.5 -61.5t62 -40.5t79 -14.5q65 0 113 29t67 80h366z" />
    <glyph glyph-name="f" unicode="f" horiz-adv-x="839" 
d="M179 826h-149v298h149v96q0 84 23 143t73.5 96t131.5 54t197 17q49 0 93 -3.5t80 -8.5v-261q-15 2 -33 4t-47 2q-64 0 -92 -19t-28 -59v-61h202v-298h-190v-826h-410v826z" />
    <glyph glyph-name="g" unicode="g" horiz-adv-x="1325" 
d="M653 311q88 0 136 63t48 187q0 123 -48.5 192.5t-135.5 69.5q-86 0 -134.5 -69.5t-48.5 -191.5q0 -124 48 -187.5t135 -63.5zM645 -421q-126 0 -229.5 24.5t-178 70.5t-116.5 111.5t-44 146.5h394q4 -21 20 -37.5t40 -28.5t54.5 -18.5t63.5 -6.5q41 0 75.5 10t59 29
t38 47t13.5 63v224h-8q-14 -44 -45 -81t-75 -63.5t-99 -41t-118 -14.5q-99 0 -180 36.5t-138.5 107t-89.5 173t-32 234.5q0 135 30.5 242t87.5 181t140 113t188 39q61 0 114.5 -16.5t96 -45.5t73 -69t47.5 -87h8v202h410v-1104q0 -100 -43.5 -181.5t-122 -139t-189 -89
t-245.5 -31.5z" />
    <glyph glyph-name="h" unicode="h" horiz-adv-x="1328" 
d="M85 1518h400v-614h8q43 118 137.5 180t223.5 62q94 0 168.5 -28.5t125.5 -83.5t78 -134t27 -180v-720h-410v629q0 87 -46 136.5t-127 49.5q-38 0 -70.5 -14t-55.5 -38.5t-36 -59t-13 -74.5v-629h-410v1518z" />
    <glyph glyph-name="i" unicode="i" horiz-adv-x="570" 
d="M80 1124h410v-1124h-410v1124zM285 1190q-42 0 -79.5 14.5t-65.5 40.5t-44 62t-16 78t16 78t44 62t65.5 40.5t79.5 14.5t79.5 -14.5t65.5 -40.5t44 -62t16 -78t-16 -78t-44 -62t-65.5 -40.5t-79.5 -14.5z" />
    <glyph glyph-name="j" unicode="j" horiz-adv-x="570" 
d="M490 7q0 -86 -30.5 -153t-88 -113t-141.5 -70.5t-191 -24.5q-15 0 -33.5 0.5t-35.5 1.5t-32 2t-24 2v286q9 -2 21.5 -2.5t25.5 -0.5q63 0 91 21t28 69v1099h410v-1117zM285 1190q-42 0 -79.5 14.5t-65.5 40.5t-44 62t-16 78t16 78t44 62t65.5 40.5t79.5 14.5t79.5 -14.5
t65.5 -40.5t44 -62t16 -78t-16 -78t-44 -62t-65.5 -40.5t-79.5 -14.5z" />
    <glyph glyph-name="k" unicode="k" horiz-adv-x="1226" 
d="M783 1124h452l-378 -480l404 -644h-471l-238 399l-57 -74v-325h-410v1518h410v-803h8z" />
    <glyph glyph-name="l" unicode="l" horiz-adv-x="580" 
d="M85 1518h410v-1518h-410v1518z" />
    <glyph glyph-name="m" unicode="m" horiz-adv-x="1920" 
d="M80 1124h400v-226h8q16 57 46.5 102.5t72.5 78t93.5 50t108.5 17.5q129 0 210.5 -64t102.5 -182h8q14 55 46 100.5t77 78t101.5 50t120.5 17.5q82 0 150 -28t117 -79t76 -122t27 -157v-760h-410v654q0 163 -140 163q-65 0 -101.5 -43.5t-36.5 -119.5v-654h-389v654
q0 163 -139 163q-65 0 -102 -44t-37 -119v-654h-410v1124z" />
    <glyph glyph-name="n" unicode="n" horiz-adv-x="1319" 
d="M80 1124h400v-220h8q43 118 134.5 180t220.5 62q94 0 168.5 -28.5t126.5 -83.5t79 -134t27 -180v-720h-410v629q0 87 -45 136.5t-126 49.5q-38 0 -70 -14t-55 -38.5t-35.5 -59t-12.5 -74.5v-629h-410v1124z" />
    <glyph glyph-name="o" unicode="o" horiz-adv-x="1278" 
d="M639 -28q-137 0 -246 39t-185.5 114.5t-117 185.5t-40.5 252q0 138 41.5 247.5t118.5 185.5t185.5 116t243.5 40t244 -40t185.5 -115.5t118 -185t41.5 -248.5q0 -143 -40.5 -253t-116.5 -185t-185.5 -114t-246.5 -39zM639 266q81 0 127 76t46 220q0 140 -46.5 218
t-126.5 78t-126.5 -78t-46.5 -218q0 -144 46 -220t127 -76z" />
    <glyph glyph-name="p" unicode="p" horiz-adv-x="1325" 
d="M833 1140q106 0 188.5 -38t139 -111.5t85.5 -181.5t29 -247t-29 -246.5t-84.5 -181t-137 -112t-186.5 -38.5q-125 0 -213 55.5t-127 154.5h-8v-526h-410v1456h410v-202h8q41 103 127.5 160.5t207.5 57.5zM672 301q42 0 76 18.5t57.5 52t36.5 82t13 108.5t-13 108t-37 82
t-57.5 52.5t-75.5 18.5t-76 -18.5t-58 -52.5t-37 -82.5t-13 -108.5q1 -121 50 -190.5t134 -69.5z" />
    <glyph glyph-name="q" unicode="q" horiz-adv-x="1325" 
d="M496 1140q61 0 114.5 -16.5t96 -45.5t73 -69t47.5 -87h8v202h410v-1456h-410v526h-8q-14 -44 -45 -82.5t-75 -67t-99 -44.5t-118 -16q-104 0 -185.5 39.5t-138 114t-86.5 182.5t-30 245q0 135 30.5 242t87.5 181t140 113t188 39zM653 301q88 0 136 68t48 192
q0 123 -48.5 192.5t-135.5 69.5q-86 0 -134.5 -69.5t-48.5 -191.5q0 -124 48 -192.5t135 -68.5z" />
    <glyph glyph-name="r" unicode="r" horiz-adv-x="868" 
d="M80 1124h400v-220h8q62 236 263 236q54 0 97 -16v-345q-54 23 -121 23q-118 0 -177.5 -60t-59.5 -178v-564h-410v1124z" />
    <glyph glyph-name="s" unicode="s" horiz-adv-x="1172" 
d="M60 776q0 87 36 157t103.5 118.5t164.5 74.5t219 26t218.5 -26.5t164 -77t103 -123t35.5 -163.5h-372q-1 56 -42 88.5t-110 32.5q-58 0 -92.5 -22t-34.5 -58q0 -55 111 -76l251 -50q167 -33 244.5 -107.5t77.5 -202.5q0 -91 -39 -164t-110.5 -124.5t-172 -79
t-223.5 -27.5q-131 0 -232 27.5t-171.5 78.5t-109.5 123.5t-44 161.5h396q7 -57 50.5 -89.5t115.5 -32.5q63 0 98.5 20.5t35.5 56.5q0 28 -24.5 45t-83.5 28l-216 43q-171 34 -259 121t-88 221z" />
    <glyph glyph-name="t" unicode="t" horiz-adv-x="847" 
d="M589 1371v-247h198v-298h-198v-423q0 -108 127 -108q23 0 38 1t33 4v-285q-29 -6 -70 -10.5t-100 -4.5q-118 0 -201 17.5t-135.5 55.5t-77 97.5t-24.5 142.5v513h-149v298h149v247h410z" />
    <glyph glyph-name="u" unicode="u" horiz-adv-x="1319" 
d="M1239 0h-400v220h-8q-34 -115 -123 -178.5t-216 -63.5q-90 0 -166.5 29t-132 83.5t-87 133.5t-31.5 179v721h410v-629q0 -45 13.5 -80t36.5 -58.5t55 -35.5t70 -12q36 0 67 13.5t53.5 37.5t35.5 58.5t13 76.5v629h410v-1124z" />
    <glyph glyph-name="v" unicode="v" horiz-adv-x="1189" 
d="M837 0h-480l-367 1124h442l167 -791h8l163 791h429z" />
    <glyph glyph-name="w" unicode="w" horiz-adv-x="1796" 
d="M1502 0h-445l-159 729h-8l-157 -729h-437l-286 1124h415l122 -764h8l151 764h391l154 -764h8l122 764h405z" />
    <glyph glyph-name="x" unicode="x" horiz-adv-x="1216" 
d="M591 356l-158 -356h-422l326 558l-327 566h464l142 -344h8l141 344h441l-327 -558l327 -566h-443l-164 356h-8z" />
    <glyph glyph-name="y" unicode="y" horiz-adv-x="1246" 
d="M122 -412v306h60q90 0 140 19.5t52 54.5v20l-374 1136h455l175 -828h8l175 828h433l-339 -1101q-36 -117 -90 -199.5t-131.5 -135t-180.5 -76.5t-237 -24h-146z" />
    <glyph glyph-name="z" unicode="z" horiz-adv-x="1128" 
d="M60 209l506 603v8h-490v304h970v-244l-446 -568v-8h468v-304h-1008v209z" />
    <glyph glyph-name="braceleft" unicode="{" horiz-adv-x="940" 
d="M410 588q117 -10 176.5 -76t59.5 -184v-198q0 -58 8 -94.5t30 -57.5t59.5 -29t97.5 -8h44v-283h-149q-131 0 -223 22.5t-149.5 71.5t-84 127t-26.5 190v161q0 57 -8 96t-26 63t-48.5 34t-75.5 10v347q45 0 75 10.5t48.5 34.5t26.5 63t8 96v128q0 110 26 186.5t84 124.5
t149.5 69.5t223.5 21.5h149v-284h-44q-60 0 -98 -8t-59.5 -29t-29.5 -57.5t-8 -94.5v-188q0 -110 -56 -164.5t-180 -64.5v-36v0z" />
    <glyph glyph-name="bar" unicode="|" horiz-adv-x="760" 
d="M180 -259v1702h400v-1702h-400z" />
    <glyph glyph-name="braceright" unicode="}" horiz-adv-x="940" 
d="M532 624q-63 5 -108 21t-74 44t-43 68.5t-14 95.5v188q0 58 -8 95t-29.5 58t-59 28.5t-97.5 7.5h-44v284h150q132 0 223.5 -21.5t148.5 -69.5t83 -124.5t26 -186.5v-128q0 -57 8 -96t27 -63t49 -34.5t75 -10.5v-347q-45 0 -75.5 -10t-49 -34t-26.5 -63t-8 -96v-161
q0 -112 -26 -190.5t-83.5 -127.5t-149 -71t-222.5 -22h-150v283h44q60 0 97.5 8t59 29t29.5 57.5t8 94.5v198q0 118 60.5 184t178.5 76v36z" />
    <glyph glyph-name="asciitilde" unicode="~" horiz-adv-x="1159" 
d="M530 611q-35 35 -61 49.5t-59 14.5q-45 0 -68 -45t-23 -132h-296q-9 115 10.5 208t63.5 159t110.5 101.5t152.5 35.5q72 0 137 -32.5t136 -103.5q34 -34 59 -48t57 -14q45 0 68 45.5t23 132.5h296q9 -115 -10.5 -208t-63.5 -159t-111 -101.5t-152 -35.5q-71 0 -134.5 31
t-134.5 102z" />
    <glyph glyph-name="nonbreakingspace" unicode="&#xa0;" horiz-adv-x="390" 
 />
    <glyph glyph-name="exclamdown" unicode="&#xa1;" horiz-adv-x="749" 
d="M201 667h348l36 -972h-420zM375 780q-44 0 -83 15.5t-68 42.5t-45.5 63t-16.5 78t16.5 78.5t45.5 63t68 42t83 15.5q43 0 82 -15.5t67.5 -42t45.5 -63t17 -78.5t-17 -78t-45.5 -63t-67.5 -42.5t-82 -15.5z" />
    <glyph glyph-name="cent" unicode="&#xa2;" horiz-adv-x="1413" 
d="M1298 545q-6 -90 -39 -164.5t-89 -131t-131.5 -94.5t-166.5 -54v-195h-312v202q-101 22 -183 71.5t-140 122t-90 168t-32 210.5q0 114 32 209t90.5 167.5t140.5 121.5t182 72v203h312v-197q89 -18 164.5 -57t132 -97.5t90 -133.5t39.5 -165h-370q-6 34 -23.5 63t-42 50
t-56 33t-65.5 12q-46 0 -85.5 -18.5t-69 -54t-46 -88t-16.5 -120.5q0 -69 16.5 -122t45.5 -89t68.5 -54t84.5 -18q75 0 125 40.5t64 107.5h370v0z" />
    <glyph glyph-name="sterling" unicode="&#xa3;" horiz-adv-x="1413" 
d="M1299 342v-342h-1185v312q68 5 123 28.5t93.5 63t59.5 93t21 118.5h-289v270h213q-23 53 -39.5 107.5t-16.5 117.5q0 89 39.5 158.5t116 117t188 72.5t255.5 25q46 0 97.5 -4t101 -10.5t92 -15t69.5 -18.5v-312q-29 10 -65 19t-74.5 15.5t-78 10t-75.5 3.5
q-119 0 -182 -39.5t-63 -113.5q0 -35 8.5 -68t20.5 -65h359v-270h-288q-4 -40 -16 -79t-30.5 -73.5t-43 -62.5t-53.5 -46v-12h642z" />
    <glyph glyph-name="currency" unicode="&#xa4;" horiz-adv-x="1462" 
d="M526 642q0 -42 16.5 -79.5t44.5 -66t65 -45t79 -16.5t79 16.5t65 45t44.5 66t16.5 79.5t-16.5 79.5t-44.5 66t-65 45t-79 16.5t-79 -16.5t-65 -45t-44.5 -66t-16.5 -79.5zM1186 871q26 -52 40.5 -109.5t14.5 -119.5t-14.5 -119.5t-40.5 -109.5l132 -132l-226 -226
l-132 132q-52 -26 -109.5 -40.5t-119.5 -14.5t-119.5 14.5t-109.5 40.5l-132 -132l-226 226l132 132q-26 52 -40.5 109.5t-14.5 119.5t14.5 119.5t40.5 109.5l-132 132l226 226l132 -132q52 26 109.5 40.5t119.5 14.5t119.5 -14.5t109.5 -40.5l132 132l226 -226z" />
    <glyph glyph-name="yen" unicode="&#xa5;" horiz-adv-x="1413" 
d="M919 155v-155h-424v155h-265v196h265v106h-265v196h167l-395 790h449l251 -579h12l248 579h449l-394 -790h167v-196h-265v-106h265v-196h-265z" />
    <glyph glyph-name="brokenbar" unicode="&#xa6;" horiz-adv-x="760" 
d="M180 773v670h400v-670h-400zM180 -259v670h400v-670h-400z" />
    <glyph glyph-name="section" unicode="&#xa7;" horiz-adv-x="1000" 
d="M595 444q26 16 43.5 43t17.5 52q0 34 -30 64.5t-83 50.5l-135 55q-26 -17 -43.5 -44t-17.5 -51q0 -34 30 -65t83 -51zM493 -310q-101 0 -185 26t-145 74t-95.5 115t-37.5 148h330q5 -44 42 -72t90 -28t86 28t33 73q0 31 -23 52.5t-77 41.5l-210 78q-76 29 -130 61
t-88.5 69.5t-50.5 82.5t-16 100q0 46 14.5 88t41.5 77.5t65.5 62.5t86.5 44v20q-53 28 -89.5 56.5t-59 61.5t-33 71.5t-10.5 85.5q0 81 33.5 147t95.5 112.5t150 72t196 25.5q101 0 185 -26t145 -74t95.5 -115t37.5 -148h-330q-5 44 -42 72t-90 28t-86 -28t-33 -73
q0 -30 22 -51t78 -43l200 -78q79 -32 135 -65t91.5 -71t52 -81.5t16.5 -95.5q0 -46 -14.5 -88t-41.5 -77.5t-65.5 -63t-86.5 -43.5v-20q52 -29 89 -57.5t59.5 -61.5t33 -71t10.5 -85q0 -81 -33.5 -147t-95.5 -112.5t-150 -72t-196 -25.5z" />
    <glyph glyph-name="dieresis" unicode="&#xa8;" horiz-adv-x="1016" 
d="M286 1256q-35 0 -64 12t-50 32.5t-32.5 47.5t-11.5 58t11.5 58.5t32.5 47.5t50 32t64 12q34 0 63 -12t50 -32t33 -47.5t12 -58.5t-12 -58t-33 -47.5t-50 -32.5t-63 -12zM730 1256q-35 0 -64 12t-50 32.5t-32.5 47.5t-11.5 58t11.5 58.5t32.5 47.5t50 32t64 12
q34 0 63 -12t50 -32t33 -47.5t12 -58.5t-12 -58t-33 -47.5t-50 -32.5t-63 -12z" />
    <glyph glyph-name="copyright" unicode="&#xa9;" horiz-adv-x="1688" 
d="M844 -110q-108 0 -208 28t-187 79.5t-158.5 123t-123 158.5t-79.5 187t-28 208t28 208t79.5 187t123 158.5t158.5 123t187 79.5t208 28t208 -28t187 -79.5t158.5 -123t123 -158.5t79.5 -187t28 -208t-28 -208t-79.5 -187t-123 -158.5t-158.5 -123t-187 -79.5t-208 -28z
M844 77q123 0 232 47t190 128t128 190t47 232t-47 232t-128 190t-190 128t-232 47t-232 -47t-190 -128t-128 -190t-47 -232t47 -232t128 -190t190 -128t232 -47zM963 752q-5 48 -32.5 74.5t-69.5 26.5q-54 0 -82.5 -46t-28.5 -132q0 -88 28.5 -134t82.5 -46q44 0 70.5 24.5
t31.5 69.5h237q-5 -68 -31 -121.5t-70 -91t-105 -57.5t-136 -20q-86 0 -154.5 26t-116 74.5t-73 118t-25.5 157.5q0 87 25.5 156t73 117.5t115.5 74.5t153 26q74 0 135.5 -21t106 -59.5t71 -93.5t31.5 -123h-237z" />
    <glyph glyph-name="ordfeminine" unicode="&#xaa;" horiz-adv-x="1041" 
d="M416 799q0 -35 25 -53.5t71 -18.5q48 0 77 28t29 75v50l-107 -8q-46 -4 -70.5 -22.5t-24.5 -50.5zM363 482q-70 0 -126 20.5t-95.5 58t-60.5 91.5t-21 122q0 131 97.5 203t291.5 84l169 9v70q1 30 -23 48.5t-66 18.5q-86 0 -98 -59h-338q4 76 36.5 135t90 100t139 62.5
t183.5 21.5t183 -23t138 -66t87.5 -104.5t30.5 -137.5v-641h-357v108h-20q-26 -56 -90.5 -88.5t-150.5 -32.5z" />
    <glyph glyph-name="guillemotleft" unicode="&#xab;" horiz-adv-x="1409" 
d="M977 565l342 -409h-347l-338 406v8l347 407h338l-342 -406v-6zM433 565l342 -409h-347l-338 406v8l347 407h338l-342 -406v-6z" />
    <glyph glyph-name="logicalnot" unicode="&#xac;" horiz-adv-x="1413" 
d="M1277 5h-362v409h-779v348h1141v-757z" />
    <glyph glyph-name="registered" unicode="&#xae;" horiz-adv-x="1196" 
d="M598 367q-111 0 -209 42.5t-171 115.5t-115.5 171t-42.5 209t42.5 209t115.5 171t171 115.5t209 42.5t209 -42.5t171 -115.5t115.5 -171t42.5 -209t-42.5 -209t-115.5 -171t-171 -115.5t-209 -42.5zM598 529q78 0 146.5 29.5t119.5 80.5t80.5 119.5t29.5 146.5
t-29.5 146.5t-80.5 119.5t-119.5 80.5t-146.5 29.5t-146.5 -29.5t-119.5 -80.5t-80.5 -119.5t-29.5 -146.5t29.5 -146.5t80.5 -119.5t119.5 -80.5t146.5 -29.5zM380 671v477h263q86 0 136.5 -43t50.5 -116q0 -51 -24.5 -90.5t-66.5 -55.5l116 -172h-177l-94 150h-52v-150
h-152zM532 928h74q65 0 65 50q0 26 -16.5 40t-46.5 14h-76v-104z" />
    <glyph glyph-name="macron" unicode="&#xaf;" horiz-adv-x="1000" 
d="M852 1276h-704v180h704v-180z" />
    <glyph glyph-name="degree" unicode="&#xb0;" horiz-adv-x="704" 
d="M352 767q-68 0 -126.5 24t-101 67t-67 101.5t-24.5 126.5t24 126.5t67 101t101.5 66.5t126.5 24q69 0 127 -24t101 -66.5t67 -101t24 -126.5t-24.5 -126.5t-67 -101.5t-101 -67t-126.5 -24zM353 973q23 0 42.5 9t34 24.5t22.5 36t8 43.5t-8 43.5t-22.5 35.5t-34 23.5
t-42.5 8.5t-42.5 -8.5t-34.5 -23.5t-23.5 -35.5t-8.5 -43.5t8.5 -43.5t23 -36t34.5 -24.5t43 -9z" />
    <glyph glyph-name="plusminus" unicode="&#xb1;" horiz-adv-x="1413" 
d="M217 37v288h975v-288h-975zM881 452h-350v188h-314v296h314v188h350v-188h315v-296h-315v-188z" />
    <glyph glyph-name="two.sups" unicode="&#xb2;" horiz-adv-x="719" 
d="M17 1546q0 61 23 110.5t66.5 83.5t105.5 52.5t140 18.5q72 0 131 -16t101 -45t65 -70t23 -92q0 -30 -7 -56t-22.5 -50.5t-40 -49t-59.5 -50.5l-127 -94v-5h262v-218h-643v198l316 248q32 26 32 49q0 17 -12.5 27.5t-33.5 10.5q-22 0 -36 -14.5t-14 -37.5v-7h-270v7v0z
" />
    <glyph glyph-name="three.sups" unicode="&#xb3;" horiz-adv-x="748" 
d="M280 1521h89q23 0 38 11t15 27q0 19 -15 30.5t-41 11.5q-27 0 -44 -16t-17 -42h-264q-2 61 20 110.5t65 84.5t104.5 54t138.5 19q73 0 133 -15t102.5 -42t66 -65.5t23.5 -85.5q0 -30 -11 -56.5t-31 -48t-48 -36t-62 -20.5v-6q82 -11 127.5 -55.5t45.5 -113.5
q0 -53 -24 -95.5t-68.5 -72t-108.5 -45t-145 -15.5q-74 0 -135.5 19.5t-106 55t-70.5 85t-29 110.5h284q0 -20 15 -31.5t39 -11.5t38 10t14 26q0 17 -14 27t-40 10h-84v182z" />
    <glyph glyph-name="acute" unicode="&#xb4;" horiz-adv-x="1015" 
d="M218 1275l232 321h347l-265 -321h-314z" />
    <glyph glyph-name="paragraph" unicode="&#xb6;" horiz-adv-x="1744" 
d="M674 -290v625h-20q-125 0 -230.5 43.5t-182 119t-119 176t-42.5 214.5q0 118 40.5 220t115.5 176t181 116.5t238 42.5h399v-1733h-380zM1244 1443h380v-1733h-380v1733z" />
    <glyph glyph-name="periodcentered" unicode="&#xb7;" horiz-adv-x="744" 
d="M372 445q-43 0 -81 16.5t-66 44.5t-44.5 66t-16.5 81t16.5 81t44.5 66t66 44.5t81 16.5t81 -16.5t66 -44.5t44.5 -66t16.5 -81t-16.5 -81t-44.5 -66t-66 -44.5t-81 -16.5z" />
    <glyph glyph-name="cedilla" unicode="&#xb8;" horiz-adv-x="1015" 
d="M387 -98l63 114l180 -16l-46 -89q36 0 66 -12t51 -34t33 -53t12 -69q0 -195 -263 -195q-42 0 -77.5 3.5t-55.5 11.5v141q19 -6 45.5 -9t53.5 -3q50 0 72 8.5t22 28.5q0 26 -22 36t-78 10h-56v127z" />
    <glyph glyph-name="one.sups" unicode="&#xb9;" horiz-adv-x="604" 
d="M209 1542h-5l-166 -102v237l172 108h302v-720h-303v477z" />
    <glyph glyph-name="ordmasculine" unicode="&#xba;" horiz-adv-x="1128" 
d="M439 969q0 -109 32 -167.5t92 -58.5t92.5 58.5t32.5 167.5q0 106 -33 166.5t-92 60.5q-58 0 -91 -60.5t-33 -166.5zM563 467q-119 0 -212.5 34t-158 98.5t-98.5 158t-34 212.5q0 116 35 209t100 158t158 100t210 35q118 0 211.5 -34.5t158.5 -99.5t100 -158t35 -210
q0 -120 -34 -213.5t-98.5 -158t-158.5 -98t-214 -33.5z" />
    <glyph glyph-name="guillemotright" unicode="&#xbb;" horiz-adv-x="1409" 
d="M90 977h338l347 -407v-8l-338 -406h-347l342 409v6zM634 977h338l347 -407v-8l-338 -406h-347l342 409v6z" />
    <glyph glyph-name="onequarter" unicode="&#xbc;" horiz-adv-x="1787" 
d="M136 0l1051 1443h340l-1051 -1443h-340zM1389 76h-350v243q26 52 51.5 100.5t52.5 97t56 98.5t62 105h409v-422h74v-222h-74v-76h-281v76zM1276 283h123v253h-6q-24 -48 -40.5 -82t-29 -61.5t-23.5 -51.5t-24 -53v-5zM219 1205h-5l-166 -102v237l172 108h302v-720h-303
v477z" />
    <glyph glyph-name="onehalf" unicode="&#xbd;" horiz-adv-x="1782" 
d="M136 0l1051 1443h340l-1051 -1443h-340zM219 1205h-5l-166 -102v237l172 108h302v-720h-303v477zM1080 481q0 61 23 110.5t66.5 83.5t105.5 52.5t140 18.5q72 0 131 -16t101 -45t65 -70t23 -92q0 -30 -7 -56t-22.5 -50.5t-40 -49t-59.5 -50.5l-127 -94v-5h262v-218h-643
v198l316 248q32 26 32 49q0 17 -12.5 27.5t-33.5 10.5q-22 0 -36 -14.5t-14 -37.5v-7h-270v7z" />
    <glyph glyph-name="threequarters" unicode="&#xbe;" horiz-adv-x="1857" 
d="M236 0l1051 1443h340l-1051 -1443h-340zM1459 76h-350v243q26 52 51.5 100.5t52.5 97t56 98.5t62 105h409v-422h74v-222h-74v-76h-281v76zM1346 283h123v253h-6q-24 -48 -40.5 -82t-29 -61.5t-23.5 -51.5t-24 -53v-5zM280 1184h89q23 0 38 11t15 27q0 19 -15 30.5
t-41 11.5q-27 0 -44 -16t-17 -42h-264q-2 61 20 110.5t65 84.5t104.5 54t138.5 19q73 0 133 -15t102.5 -42t66 -65.5t23.5 -85.5q0 -30 -11 -56.5t-31 -48t-48 -36t-62 -20.5v-6q82 -11 127.5 -55.5t45.5 -113.5q0 -53 -24 -95.5t-68.5 -72t-108.5 -45t-145 -15.5
q-74 0 -135.5 19.5t-106 55t-70.5 85t-29 110.5h284q0 -20 15 -31.5t39 -11.5t38 10t14 26q0 17 -14 27t-40 10h-84v182z" />
    <glyph glyph-name="questiondown" unicode="&#xbf;" horiz-adv-x="1184" 
d="M1134 128q0 -104 -37.5 -186.5t-107 -140.5t-168.5 -89t-223 -31q-120 0 -217.5 29t-166.5 83t-106 130t-37 170q0 109 52 187.5t167 144.5q52 30 86.5 54t54.5 48t28.5 50t8.5 60v42h354l3 -24q9 -69 5 -121.5t-23.5 -94t-54.5 -74.5t-87 -63q-53 -31 -87 -54.5
t-53.5 -45.5t-27 -45.5t-7.5 -54.5q0 -51 38 -81.5t98 -30.5q59 0 96.5 38t38.5 100h373zM637 780q-44 0 -82.5 15.5t-67.5 42.5t-46 63t-17 78t17 78.5t46 63t67.5 42t82.5 15.5q43 0 82 -15.5t68 -42t46 -63t17 -78.5t-17 -78t-46 -63t-68 -42.5t-82 -15.5z" />
    <glyph glyph-name="Agrave" unicode="&#xc0;" horiz-adv-x="1534" 
d="M977 287h-440l-75 -287h-432l471 1443h532l471 -1443h-452zM614 586h286l-139 524h-8zM347 1885h348l232 -321h-306z" />
    <glyph glyph-name="Aacute" unicode="&#xc1;" horiz-adv-x="1534" 
d="M977 287h-440l-75 -287h-432l471 1443h532l471 -1443h-452zM614 586h286l-139 524h-8zM601 1555l232 321h348l-274 -321h-306z" />
    <glyph glyph-name="Acircumflex" unicode="&#xc2;" horiz-adv-x="1534" 
d="M977 287h-440l-75 -287h-432l471 1443h532l471 -1443h-452zM614 586h286l-139 524h-8zM924 1872l255 -336h-276l-132 192h-8l-132 -192h-276l255 336h314z" />
    <glyph glyph-name="Atilde" unicode="&#xc3;" horiz-adv-x="1534" 
d="M977 287h-440l-75 -287h-432l471 1443h532l471 -1443h-452zM614 586h286l-139 524h-8zM920 1546q-55 0 -94 18.5t-69 41t-54.5 41t-50.5 18.5q-17 0 -29.5 -8.5t-21 -22.5t-13 -32t-5.5 -38h-201q0 70 20.5 124.5t55 92t80 57t95.5 19.5q55 0 94 -18.5t69 -41t54.5 -41
t50.5 -18.5q35 0 51 29.5t18 76.5h201q0 -70 -20.5 -125.5t-55 -93.5t-80 -58.5t-95.5 -20.5z" />
    <glyph glyph-name="Adieresis" unicode="&#xc4;" horiz-adv-x="1534" 
d="M977 287h-440l-75 -287h-432l471 1443h532l471 -1443h-452zM614 586h286l-139 524h-8zM545 1536q-35 0 -64 12t-50 32.5t-32.5 47.5t-11.5 58t11.5 58.5t32.5 47.5t50 32t64 12q34 0 63 -12t50 -32t33 -47.5t12 -58.5t-12 -58t-33 -47.5t-50 -32.5t-63 -12zM989 1536
q-35 0 -64 12t-50 32.5t-32.5 47.5t-11.5 58t11.5 58.5t32.5 47.5t50 32t64 12q34 0 63 -12t50 -32t33 -47.5t12 -58.5t-12 -58t-33 -47.5t-50 -32.5t-63 -12z" />
    <glyph glyph-name="Aring" unicode="&#xc5;" horiz-adv-x="1534" 
d="M977 287h-440l-75 -287h-432l471 1443h532l471 -1443h-452zM614 586h286l-139 524h-8zM767 1517q-50 0 -94 18.5t-77.5 50.5t-53 75t-19.5 91q0 49 19.5 92t53 75t77.5 50.5t94 18.5q49 0 93.5 -18.5t77.5 -50.5t52.5 -75t19.5 -92q0 -48 -19.5 -91t-52.5 -75
t-77.5 -50.5t-93.5 -18.5zM767 1668q18 0 34 6.5t28 18t19 27t7 32.5q0 18 -7 33.5t-19 27t-28 18.5t-34 7t-34 -7t-28 -18.5t-19 -27t-7 -33.5q0 -17 7 -32.5t19 -27t28 -18t34 -6.5z" />
    <glyph glyph-name="AE" unicode="&#xc6;" horiz-adv-x="2104" 
d="M670 586h300v543h-112zM970 286h-403l-99 -286h-418l540 1443h1395v-336h-643v-234h606v-304h-606v-233h643v-336h-1015v286z" />
    <glyph glyph-name="Ccedilla" unicode="&#xc7;" horiz-adv-x="1513" 
d="M1453 582q-1 -125 -44.5 -230.5t-122 -184.5t-186.5 -127.5t-238 -60.5l-35 -68q36 0 66 -12t51 -34t33 -53t12 -69q0 -195 -263 -195q-42 0 -77.5 3.5t-55.5 11.5v141q19 -6 45.5 -9t53.5 -3q50 0 72 8.5t22 28.5q0 26 -22 36t-78 10h-56v127l43 79q-142 15 -254.5 71.5
t-191 151t-120.5 224.5t-42 294q0 178 50 317t143 234.5t225.5 145t297.5 49.5q143 0 265.5 -44.5t212 -124.5t141 -191.5t51.5 -245.5h-406q-4 61 -25 111.5t-55.5 86.5t-81.5 55.5t-102 19.5q-65 0 -117.5 -28t-89.5 -81t-57 -129.5t-20 -173.5q0 -98 20 -175t56.5 -130.5
t89.5 -81.5t119 -28q55 0 101.5 19.5t81 55t56 86t26.5 113.5h406z" />
    <glyph glyph-name="Egrave" unicode="&#xc8;" horiz-adv-x="1216" 
d="M1118 0h-1018v1443h1018v-337h-594v-233h557v-304h-557v-232h594v-337zM188 1885h348l232 -321h-306z" />
    <glyph glyph-name="Eacute" unicode="&#xc9;" horiz-adv-x="1216" 
d="M1118 0h-1018v1443h1018v-337h-594v-233h557v-304h-557v-232h594v-337zM442 1555l232 321h348l-274 -321h-306z" />
    <glyph glyph-name="Ecircumflex" unicode="&#xca;" horiz-adv-x="1216" 
d="M1118 0h-1018v1443h1018v-337h-594v-233h557v-304h-557v-232h594v-337zM765 1872l255 -336h-276l-132 192h-8l-132 -192h-276l255 336h314z" />
    <glyph glyph-name="Edieresis" unicode="&#xcb;" horiz-adv-x="1216" 
d="M1118 0h-1018v1443h1018v-337h-594v-233h557v-304h-557v-232h594v-337zM386 1536q-35 0 -64 12t-50 32.5t-32.5 47.5t-11.5 58t11.5 58.5t32.5 47.5t50 32t64 12q34 0 63 -12t50 -32t33 -47.5t12 -58.5t-12 -58t-33 -47.5t-50 -32.5t-63 -12zM830 1536q-35 0 -64 12
t-50 32.5t-32.5 47.5t-11.5 58t11.5 58.5t32.5 47.5t50 32t64 12q34 0 63 -12t50 -32t33 -47.5t12 -58.5t-12 -58t-33 -47.5t-50 -32.5t-63 -12z" />
    <glyph glyph-name="Igrave" unicode="&#xcc;" horiz-adv-x="624" 
d="M100 0v1443h424v-1443h-424zM-108 1885h348l232 -321h-306z" />
    <glyph glyph-name="Iacute" unicode="&#xcd;" horiz-adv-x="624" 
d="M100 0v1443h424v-1443h-424zM146 1555l232 321h348l-274 -321h-306z" />
    <glyph glyph-name="Icircumflex" unicode="&#xce;" horiz-adv-x="624" 
d="M100 0v1443h424v-1443h-424zM469 1872l255 -336h-276l-132 192h-8l-132 -192h-276l255 336h314z" />
    <glyph glyph-name="Idieresis" unicode="&#xcf;" horiz-adv-x="624" 
d="M100 0v1443h424v-1443h-424zM90 1536q-35 0 -64 12t-50 32.5t-32.5 47.5t-11.5 58t11.5 58.5t32.5 47.5t50 32t64 12q34 0 63 -12t50 -32t33 -47.5t12 -58.5t-12 -58t-33 -47.5t-50 -32.5t-63 -12zM534 1536q-35 0 -64 12t-50 32.5t-32.5 47.5t-11.5 58t11.5 58.5
t32.5 47.5t50 32t64 12q34 0 63 -12t50 -32t33 -47.5t12 -58.5t-12 -58t-33 -47.5t-50 -32.5t-63 -12z" />
    <glyph glyph-name="Eth" unicode="&#xd0;" horiz-adv-x="1506" 
d="M657 337q159 0 241 97.5t82 297.5q0 183 -85 278.5t-238 95.5h-133v-246h253v-279h-253v-244h133zM717 1443q164 0 293 -46t218.5 -136t136.5 -223t47 -306t-47 -309t-136.5 -230t-218.5 -143.5t-293 -49.5h-617v581h-46v279h46v583h617z" />
    <glyph glyph-name="Ntilde" unicode="&#xd1;" horiz-adv-x="1494" 
d="M100 0v1443h329l557 -748h8v748h400v-1443h-325l-561 760h-8v-760h-400zM900 1546q-55 0 -94 18.5t-69 41t-54.5 41t-50.5 18.5q-17 0 -29.5 -8.5t-21 -22.5t-13 -32t-5.5 -38h-201q0 70 20.5 124.5t55 92t80 57t95.5 19.5q55 0 94 -18.5t69 -41t54.5 -41t50.5 -18.5
q35 0 51 29.5t18 76.5h201q0 -70 -20.5 -125.5t-55 -93.5t-80 -58.5t-95.5 -20.5z" />
    <glyph glyph-name="Ograve" unicode="&#xd2;" horiz-adv-x="1584" 
d="M792 1468q167 0 301.5 -52t229 -148.5t145.5 -235t51 -311.5t-51 -311t-145.5 -235t-229 -148.5t-301.5 -51.5q-168 0 -302.5 51.5t-229 148.5t-145 235t-50.5 311t51 311.5t145.5 235t229 148.5t301.5 52zM792 1130q-66 0 -120.5 -29t-93.5 -82t-60 -128.5t-21 -169.5
q0 -93 21 -168.5t59.5 -129t93 -82t121.5 -28.5t121.5 28.5t93 82t59.5 129t21 168.5q0 94 -21 169.5t-60 128.5t-93.5 82t-120.5 29zM372 1885h348l232 -321h-306z" />
    <glyph glyph-name="Oacute" unicode="&#xd3;" horiz-adv-x="1584" 
d="M792 1468q167 0 301.5 -52t229 -148.5t145.5 -235t51 -311.5t-51 -311t-145.5 -235t-229 -148.5t-301.5 -51.5q-168 0 -302.5 51.5t-229 148.5t-145 235t-50.5 311t51 311.5t145.5 235t229 148.5t301.5 52zM792 1130q-66 0 -120.5 -29t-93.5 -82t-60 -128.5t-21 -169.5
q0 -93 21 -168.5t59.5 -129t93 -82t121.5 -28.5t121.5 28.5t93 82t59.5 129t21 168.5q0 94 -21 169.5t-60 128.5t-93.5 82t-120.5 29zM626 1555l232 321h348l-274 -321h-306z" />
    <glyph glyph-name="Ocircumflex" unicode="&#xd4;" horiz-adv-x="1584" 
d="M792 1468q167 0 301.5 -52t229 -148.5t145.5 -235t51 -311.5t-51 -311t-145.5 -235t-229 -148.5t-301.5 -51.5q-168 0 -302.5 51.5t-229 148.5t-145 235t-50.5 311t51 311.5t145.5 235t229 148.5t301.5 52zM792 1130q-66 0 -120.5 -29t-93.5 -82t-60 -128.5t-21 -169.5
q0 -93 21 -168.5t59.5 -129t93 -82t121.5 -28.5t121.5 28.5t93 82t59.5 129t21 168.5q0 94 -21 169.5t-60 128.5t-93.5 82t-120.5 29zM949 1872l255 -336h-276l-132 192h-8l-132 -192h-276l255 336h314z" />
    <glyph glyph-name="Otilde" unicode="&#xd5;" horiz-adv-x="1584" 
d="M792 1468q167 0 301.5 -52t229 -148.5t145.5 -235t51 -311.5t-51 -311t-145.5 -235t-229 -148.5t-301.5 -51.5q-168 0 -302.5 51.5t-229 148.5t-145 235t-50.5 311t51 311.5t145.5 235t229 148.5t301.5 52zM792 1130q-66 0 -120.5 -29t-93.5 -82t-60 -128.5t-21 -169.5
q0 -93 21 -168.5t59.5 -129t93 -82t121.5 -28.5t121.5 28.5t93 82t59.5 129t21 168.5q0 94 -21 169.5t-60 128.5t-93.5 82t-120.5 29zM945 1546q-55 0 -94 18.5t-69 41t-54.5 41t-50.5 18.5q-17 0 -29.5 -8.5t-21 -22.5t-13 -32t-5.5 -38h-201q0 70 20.5 124.5t55 92t80 57
t95.5 19.5q55 0 94 -18.5t69 -41t54.5 -41t50.5 -18.5q35 0 51 29.5t18 76.5h201q0 -70 -20.5 -125.5t-55 -93.5t-80 -58.5t-95.5 -20.5z" />
    <glyph glyph-name="Odieresis" unicode="&#xd6;" horiz-adv-x="1584" 
d="M792 1468q167 0 301.5 -52t229 -148.5t145.5 -235t51 -311.5t-51 -311t-145.5 -235t-229 -148.5t-301.5 -51.5q-168 0 -302.5 51.5t-229 148.5t-145 235t-50.5 311t51 311.5t145.5 235t229 148.5t301.5 52zM792 1130q-66 0 -120.5 -29t-93.5 -82t-60 -128.5t-21 -169.5
q0 -93 21 -168.5t59.5 -129t93 -82t121.5 -28.5t121.5 28.5t93 82t59.5 129t21 168.5q0 94 -21 169.5t-60 128.5t-93.5 82t-120.5 29zM570 1536q-35 0 -64 12t-50 32.5t-32.5 47.5t-11.5 58t11.5 58.5t32.5 47.5t50 32t64 12q34 0 63 -12t50 -32t33 -47.5t12 -58.5t-12 -58
t-33 -47.5t-50 -32.5t-63 -12zM1014 1536q-35 0 -64 12t-50 32.5t-32.5 47.5t-11.5 58t11.5 58.5t32.5 47.5t50 32t64 12q34 0 63 -12t50 -32t33 -47.5t12 -58.5t-12 -58t-33 -47.5t-50 -32.5t-63 -12z" />
    <glyph glyph-name="multiply" unicode="&#xd7;" horiz-adv-x="1414" 
d="M406 41l-246 246l301 301l-301 301l246 246l301 -301l301 301l246 -246l-301 -301l301 -301l-246 -246l-301 301z" />
    <glyph glyph-name="Oslash" unicode="&#xd8;" horiz-adv-x="1584" 
d="M672 341q56 -28 120 -28q67 0 121.5 28.5t93 82t59.5 129t21 168.5q0 76 -14 139.5t-40 113.5zM949 1078q-67 52 -157 52q-66 0 -120.5 -29t-93.5 -82t-60 -128.5t-21 -169.5q0 -95 21.5 -170t60.5 -129zM1241 1338q134 -96 206 -252t72 -365q0 -173 -51 -311
t-145.5 -235t-229 -148.5t-301.5 -51.5t-299 51l-64 -112l-103 58l59 105q-153 92 -236.5 255.5t-83.5 388.5q0 173 51 311.5t145.5 235t229 148.5t301.5 52q190 0 338 -67l69 122l118 -51z" />
    <glyph glyph-name="Ugrave" unicode="&#xd9;" horiz-adv-x="1472" 
d="M524 561q0 -115 54.5 -175t157.5 -60t157.5 60t54.5 175v882h424v-929q0 -123 -46 -223t-129.5 -170t-200.5 -108t-260 -38t-260 38t-200.5 108t-129.5 170t-46 223v929h424v-882zM316 1885h348l232 -321h-306z" />
    <glyph glyph-name="Uacute" unicode="&#xda;" horiz-adv-x="1472" 
d="M524 561q0 -115 54.5 -175t157.5 -60t157.5 60t54.5 175v882h424v-929q0 -123 -46 -223t-129.5 -170t-200.5 -108t-260 -38t-260 38t-200.5 108t-129.5 170t-46 223v929h424v-882zM570 1555l232 321h348l-274 -321h-306z" />
    <glyph glyph-name="Ucircumflex" unicode="&#xdb;" horiz-adv-x="1472" 
d="M524 561q0 -115 54.5 -175t157.5 -60t157.5 60t54.5 175v882h424v-929q0 -123 -46 -223t-129.5 -170t-200.5 -108t-260 -38t-260 38t-200.5 108t-129.5 170t-46 223v929h424v-882zM893 1872l255 -336h-276l-132 192h-8l-132 -192h-276l255 336h314z" />
    <glyph glyph-name="Udieresis" unicode="&#xdc;" horiz-adv-x="1472" 
d="M524 561q0 -115 54.5 -175t157.5 -60t157.5 60t54.5 175v882h424v-929q0 -123 -46 -223t-129.5 -170t-200.5 -108t-260 -38t-260 38t-200.5 108t-129.5 170t-46 223v929h424v-882zM514 1536q-35 0 -64 12t-50 32.5t-32.5 47.5t-11.5 58t11.5 58.5t32.5 47.5t50 32t64 12
q34 0 63 -12t50 -32t33 -47.5t12 -58.5t-12 -58t-33 -47.5t-50 -32.5t-63 -12zM958 1536q-35 0 -64 12t-50 32.5t-32.5 47.5t-11.5 58t11.5 58.5t32.5 47.5t50 32t64 12q34 0 63 -12t50 -32t33 -47.5t12 -58.5t-12 -58t-33 -47.5t-50 -32.5t-63 -12z" />
    <glyph glyph-name="Yacute" unicode="&#xdd;" horiz-adv-x="1470" 
d="M523 0v457l-493 986h453l253 -585h8l253 585h443l-493 -986v-457h-424zM569 1555l232 321h348l-274 -321h-306z" />
    <glyph glyph-name="Thorn" unicode="&#xde;" horiz-adv-x="1428" 
d="M569 1443v-204h242q121 0 219 -35t166 -99.5t105 -157.5t37 -208q0 -114 -39 -206t-111 -156.5t-175 -99.5t-231 -35h-216v-242h-424v1443h427zM566 556h129q106 0 160.5 46t54.5 136q0 89 -54 135t-158 46h-132v-363z" />
    <glyph glyph-name="germandbls" unicode="&#xdf;" horiz-adv-x="1481" 
d="M114 0v1061q0 95 40 170.5t115.5 128.5t183 81t242.5 28q127 0 232.5 -27.5t181.5 -77.5t117.5 -120t41.5 -154q0 -59 -15 -110.5t-42 -92t-65 -69t-85 -40.5v-20q74 -3 135.5 -30.5t105.5 -75.5t68.5 -113.5t24.5 -142.5q0 -96 -35.5 -172.5t-101.5 -130t-161.5 -81.5
t-215.5 -28q-30 0 -62 1.5t-61.5 4t-54.5 5.5t-40 7v313q28 -11 57.5 -15.5t67.5 -4.5q91 0 138.5 34t47.5 99q0 64 -55.5 100t-152.5 36h-83v306h48q31 0 57 9.5t45 27t29 42t10 54.5q0 69 -45 108t-125 39q-178 0 -178 -188v-962h-410z" />
    <glyph glyph-name="agrave" unicode="&#xe0;" horiz-adv-x="1231" 
d="M569 259q36 0 68.5 10t58 28t40.5 43.5t15 57.5v74l-181 -13q-62 -5 -95 -31.5t-33 -69.5q0 -47 35 -73t92 -26zM417 -16q-77 0 -146 25t-121 70.5t-82 108.5t-30 139q0 162 119.5 249t345.5 101l248 15v57q0 58 -39 88.5t-100 30.5q-66 0 -105.5 -31t-44.5 -75h-366
q4 89 42.5 161t108 123t167.5 78.5t220 27.5q116 0 211.5 -28t163.5 -78t105 -121t37 -156v-769h-400v152h-8q-22 -41 -57.5 -72.5t-78.5 -52.5t-92 -32t-98 -11zM490 1275l-265 321h347l232 -321h-314z" />
    <glyph glyph-name="aacute" unicode="&#xe1;" horiz-adv-x="1231" 
d="M569 259q36 0 68.5 10t58 28t40.5 43.5t15 57.5v74l-181 -13q-62 -5 -95 -31.5t-33 -69.5q0 -47 35 -73t92 -26zM417 -16q-77 0 -146 25t-121 70.5t-82 108.5t-30 139q0 162 119.5 249t345.5 101l248 15v57q0 58 -39 88.5t-100 30.5q-66 0 -105.5 -31t-44.5 -75h-366
q4 89 42.5 161t108 123t167.5 78.5t220 27.5q116 0 211.5 -28t163.5 -78t105 -121t37 -156v-769h-400v152h-8q-22 -41 -57.5 -72.5t-78.5 -52.5t-92 -32t-98 -11zM465 1275l232 321h347l-265 -321h-314z" />
    <glyph glyph-name="acircumflex" unicode="&#xe2;" horiz-adv-x="1231" 
d="M569 259q36 0 68.5 10t58 28t40.5 43.5t15 57.5v74l-181 -13q-62 -5 -95 -31.5t-33 -69.5q0 -47 35 -73t92 -26zM417 -16q-77 0 -146 25t-121 70.5t-82 108.5t-30 139q0 162 119.5 249t345.5 101l248 15v57q0 58 -39 88.5t-100 30.5q-66 0 -105.5 -31t-44.5 -75h-366
q4 89 42.5 161t108 123t167.5 78.5t220 27.5q116 0 211.5 -28t163.5 -78t105 -121t37 -156v-769h-400v152h-8q-22 -41 -57.5 -72.5t-78.5 -52.5t-92 -32t-98 -11zM1042 1256h-284l-124 180h-8l-124 -180h-284l255 336h314z" />
    <glyph glyph-name="atilde" unicode="&#xe3;" horiz-adv-x="1231" 
d="M569 259q36 0 68.5 10t58 28t40.5 43.5t15 57.5v74l-181 -13q-62 -5 -95 -31.5t-33 -69.5q0 -47 35 -73t92 -26zM417 -16q-77 0 -146 25t-121 70.5t-82 108.5t-30 139q0 162 119.5 249t345.5 101l248 15v57q0 58 -39 88.5t-100 30.5q-66 0 -105.5 -31t-44.5 -75h-366
q4 89 42.5 161t108 123t167.5 78.5t220 27.5q116 0 211.5 -28t163.5 -78t105 -121t37 -156v-769h-400v152h-8q-22 -41 -57.5 -72.5t-78.5 -52.5t-92 -32t-98 -11zM783 1258q-55 0 -94 18.5t-69 41t-54.5 41t-50.5 18.5q-17 0 -29.5 -8.5t-21 -22.5t-13 -32t-5.5 -38h-201
q0 70 20.5 124.5t55 92t80 57t95.5 19.5q55 0 94 -18.5t69 -41t54.5 -41t50.5 -18.5q35 0 51 29.5t18 76.5h201q0 -70 -20.5 -125.5t-55 -93.5t-80 -58.5t-95.5 -20.5z" />
    <glyph glyph-name="adieresis" unicode="&#xe4;" horiz-adv-x="1231" 
d="M569 259q36 0 68.5 10t58 28t40.5 43.5t15 57.5v74l-181 -13q-62 -5 -95 -31.5t-33 -69.5q0 -47 35 -73t92 -26zM417 -16q-77 0 -146 25t-121 70.5t-82 108.5t-30 139q0 162 119.5 249t345.5 101l248 15v57q0 58 -39 88.5t-100 30.5q-66 0 -105.5 -31t-44.5 -75h-366
q4 89 42.5 161t108 123t167.5 78.5t220 27.5q116 0 211.5 -28t163.5 -78t105 -121t37 -156v-769h-400v152h-8q-22 -41 -57.5 -72.5t-78.5 -52.5t-92 -32t-98 -11zM408 1256q-35 0 -64 12t-50 32.5t-32.5 47.5t-11.5 58t11.5 58.5t32.5 47.5t50 32t64 12q34 0 63 -12t50 -32
t33 -47.5t12 -58.5t-12 -58t-33 -47.5t-50 -32.5t-63 -12zM852 1256q-35 0 -64 12t-50 32.5t-32.5 47.5t-11.5 58t11.5 58.5t32.5 47.5t50 32t64 12q34 0 63 -12t50 -32t33 -47.5t12 -58.5t-12 -58t-33 -47.5t-50 -32.5t-63 -12z" />
    <glyph glyph-name="aring" unicode="&#xe5;" horiz-adv-x="1231" 
d="M569 259q36 0 68.5 10t58 28t40.5 43.5t15 57.5v74l-181 -13q-62 -5 -95 -31.5t-33 -69.5q0 -47 35 -73t92 -26zM417 -16q-77 0 -146 25t-121 70.5t-82 108.5t-30 139q0 162 119.5 249t345.5 101l248 15v57q0 58 -39 88.5t-100 30.5q-66 0 -105.5 -31t-44.5 -75h-366
q4 89 42.5 161t108 123t167.5 78.5t220 27.5q116 0 211.5 -28t163.5 -78t105 -121t37 -156v-769h-400v152h-8q-22 -41 -57.5 -72.5t-78.5 -52.5t-92 -32t-98 -11zM630 1235q-50 0 -94 18.5t-77.5 50.5t-53 75t-19.5 91q0 49 19.5 92t53 75t77.5 50.5t94 18.5
q49 0 93.5 -18.5t77.5 -50.5t52.5 -75t19.5 -92q0 -48 -19.5 -91t-52.5 -75t-77.5 -50.5t-93.5 -18.5zM630 1386q18 0 34 6.5t28 18t19 27t7 32.5q0 18 -7 33.5t-19 27t-28 18.5t-34 7t-34 -7t-28 -18.5t-19 -27t-7 -33.5q0 -17 7 -32.5t19 -27t28 -18t34 -6.5z" />
    <glyph glyph-name="ae" unicode="&#xe6;" horiz-adv-x="1918" 
d="M1311 -28q-71 0 -135.5 13.5t-119 38.5t-96.5 60t-69 78h-8q-51 -82 -152 -130t-252 -48q-98 0 -179.5 25.5t-139.5 71t-90 108.5t-32 138q0 159 117.5 247.5t347.5 102.5l248 15v57q0 55 -37.5 87t-101.5 32q-61 0 -102.5 -29t-47.5 -77h-366q4 90 42.5 162t105.5 123
t158.5 78t201.5 27q65 0 119 -9.5t97.5 -26t77.5 -39t59 -48.5h8q56 57 143 90t196 33q127 0 231.5 -40.5t178 -114.5t114 -178.5t40.5 -232.5v-111h-747v-26q0 -43 14.5 -78.5t40.5 -61.5t62 -40.5t79 -14.5q66 0 113.5 29t66.5 80h366q-13 -90 -58 -162.5t-116.5 -123.5
t-167 -78t-210.5 -27zM1306 869q-36 0 -67.5 -12.5t-55.5 -35.5t-38.5 -54.5t-17.5 -68.5h358q-3 39 -17 70.5t-37.5 54t-55 34.5t-69.5 12zM569 259q39 0 72 10.5t57.5 29.5t38.5 44t14 55v74l-181 -13q-61 -5 -94.5 -31t-33.5 -70q0 -46 34 -72.5t93 -26.5z" />
    <glyph glyph-name="ccedilla" unicode="&#xe7;" horiz-adv-x="1223" 
d="M805 662q-7 86 -51.5 135t-113.5 49q-85 0 -130 -72.5t-45 -210.5q0 -140 44.5 -212.5t130.5 -72.5q72 0 115.5 46t49.5 131h373q-2 -104 -35 -188.5t-93.5 -146t-146 -98.5t-193.5 -47l-33 -64q36 0 66 -12t51 -34t33 -53t12 -69q0 -195 -263 -195q-42 0 -77.5 3.5
t-55.5 11.5v141q19 -6 45.5 -9t53.5 -3q50 0 72 8.5t22 28.5q0 26 -22 36t-78 10h-56v127l43 78q-111 15 -199 62t-148.5 121.5t-93 175t-32.5 224.5q0 137 40.5 246.5t116 185.5t183.5 116.5t243 40.5q122 0 221.5 -34t170.5 -98t111 -154.5t42 -203.5h-373z" />
    <glyph glyph-name="egrave" unicode="&#xe8;" horiz-adv-x="1243" 
d="M631 869q-36 0 -67.5 -12.5t-55.5 -35.5t-38.5 -54.5t-17.5 -68.5h358q-3 39 -17 70.5t-37.5 54t-55 34.5t-69.5 12zM1188 363q-13 -90 -58 -162.5t-116.5 -123.5t-167 -78t-210.5 -27q-138 0 -246.5 40t-184 115t-115.5 183.5t-40 245.5q0 138 40 248t114.5 187.5
t180.5 119t238 41.5q130 0 235 -40t179.5 -114t115 -178.5t40.5 -233.5v-111h-747v-26q0 -43 14.5 -78.5t40.5 -61.5t62 -40.5t79 -14.5q65 0 113 29t67 80h366zM482 1275l-265 321h347l232 -321h-314z" />
    <glyph glyph-name="eacute" unicode="&#xe9;" horiz-adv-x="1243" 
d="M631 869q-36 0 -67.5 -12.5t-55.5 -35.5t-38.5 -54.5t-17.5 -68.5h358q-3 39 -17 70.5t-37.5 54t-55 34.5t-69.5 12zM1188 363q-13 -90 -58 -162.5t-116.5 -123.5t-167 -78t-210.5 -27q-138 0 -246.5 40t-184 115t-115.5 183.5t-40 245.5q0 138 40 248t114.5 187.5
t180.5 119t238 41.5q130 0 235 -40t179.5 -114t115 -178.5t40.5 -233.5v-111h-747v-26q0 -43 14.5 -78.5t40.5 -61.5t62 -40.5t79 -14.5q65 0 113 29t67 80h366zM457 1275l232 321h347l-265 -321h-314z" />
    <glyph glyph-name="ecircumflex" unicode="&#xea;" horiz-adv-x="1243" 
d="M631 869q-36 0 -67.5 -12.5t-55.5 -35.5t-38.5 -54.5t-17.5 -68.5h358q-3 39 -17 70.5t-37.5 54t-55 34.5t-69.5 12zM1188 363q-13 -90 -58 -162.5t-116.5 -123.5t-167 -78t-210.5 -27q-138 0 -246.5 40t-184 115t-115.5 183.5t-40 245.5q0 138 40 248t114.5 187.5
t180.5 119t238 41.5q130 0 235 -40t179.5 -114t115 -178.5t40.5 -233.5v-111h-747v-26q0 -43 14.5 -78.5t40.5 -61.5t62 -40.5t79 -14.5q65 0 113 29t67 80h366zM1034 1256h-284l-124 180h-8l-124 -180h-284l255 336h314z" />
    <glyph glyph-name="edieresis" unicode="&#xeb;" horiz-adv-x="1243" 
d="M631 869q-36 0 -67.5 -12.5t-55.5 -35.5t-38.5 -54.5t-17.5 -68.5h358q-3 39 -17 70.5t-37.5 54t-55 34.5t-69.5 12zM1188 363q-13 -90 -58 -162.5t-116.5 -123.5t-167 -78t-210.5 -27q-138 0 -246.5 40t-184 115t-115.5 183.5t-40 245.5q0 138 40 248t114.5 187.5
t180.5 119t238 41.5q130 0 235 -40t179.5 -114t115 -178.5t40.5 -233.5v-111h-747v-26q0 -43 14.5 -78.5t40.5 -61.5t62 -40.5t79 -14.5q65 0 113 29t67 80h366zM400 1256q-35 0 -64 12t-50 32.5t-32.5 47.5t-11.5 58t11.5 58.5t32.5 47.5t50 32t64 12q34 0 63 -12t50 -32
t33 -47.5t12 -58.5t-12 -58t-33 -47.5t-50 -32.5t-63 -12zM844 1256q-35 0 -64 12t-50 32.5t-32.5 47.5t-11.5 58t11.5 58.5t32.5 47.5t50 32t64 12q34 0 63 -12t50 -32t33 -47.5t12 -58.5t-12 -58t-33 -47.5t-50 -32.5t-63 -12z" />
    <glyph glyph-name="igrave" unicode="&#xec;" horiz-adv-x="570" 
d="M80 1124h410v-1124h-410v1124zM145 1275l-265 321h347l232 -321h-314z" />
    <glyph glyph-name="iacute" unicode="&#xed;" horiz-adv-x="570" 
d="M80 1124h410v-1124h-410v1124zM120 1275l232 321h347l-265 -321h-314z" />
    <glyph glyph-name="icircumflex" unicode="&#xee;" horiz-adv-x="570" 
d="M80 1124h410v-1124h-410v1124zM697 1256h-284l-124 180h-8l-124 -180h-284l255 336h314z" />
    <glyph glyph-name="idieresis" unicode="&#xef;" horiz-adv-x="570" 
d="M80 1124h410v-1124h-410v1124zM63 1256q-35 0 -64 12t-50 32.5t-32.5 47.5t-11.5 58t11.5 58.5t32.5 47.5t50 32t64 12q34 0 63 -12t50 -32t33 -47.5t12 -58.5t-12 -58t-33 -47.5t-50 -32.5t-63 -12zM507 1256q-35 0 -64 12t-50 32.5t-32.5 47.5t-11.5 58t11.5 58.5
t32.5 47.5t50 32t64 12q34 0 63 -12t50 -32t33 -47.5t12 -58.5t-12 -58t-33 -47.5t-50 -32.5t-63 -12z" />
    <glyph glyph-name="eth" unicode="&#xf0;" horiz-adv-x="1365" 
d="M665 -16q-130 0 -238.5 41t-186.5 115t-121.5 178.5t-43.5 231.5q0 115 36 208t98.5 157.5t147 99.5t182.5 35q78 0 140 -22.5t107 -67.5h20q-11 28 -29 58.5t-40 60.5t-46 57t-46 48l-291 -99l-76 168l225 77q-48 35 -117 78t-166 100h520q20 -14 45.5 -32t46.5 -35
l280 96l80 -169l-201 -68q138 -144 208.5 -313t70.5 -356q0 -149 -45 -269t-125 -204t-191.5 -129t-243.5 -45zM678 794q-42 0 -76 -17t-58 -49.5t-36.5 -78t-12.5 -102.5q0 -116 48.5 -181.5t134.5 -65.5q87 0 135.5 65t48.5 181q0 115 -49 181.5t-135 66.5z" />
    <glyph glyph-name="ntilde" unicode="&#xf1;" horiz-adv-x="1319" 
d="M80 1124h400v-220h8q43 118 134.5 180t220.5 62q94 0 168.5 -28.5t126.5 -83.5t79 -134t27 -180v-720h-410v629q0 87 -45 136.5t-126 49.5q-38 0 -70 -14t-55 -38.5t-35.5 -59t-12.5 -74.5v-629h-410v1124zM813 1258q-55 0 -94 18.5t-69 41t-54.5 41t-50.5 18.5
q-17 0 -29.5 -8.5t-21 -22.5t-13 -32t-5.5 -38h-201q0 70 20.5 124.5t55 92t80 57t95.5 19.5q55 0 94 -18.5t69 -41t54.5 -41t50.5 -18.5q35 0 51 29.5t18 76.5h201q0 -70 -20.5 -125.5t-55 -93.5t-80 -58.5t-95.5 -20.5z" />
    <glyph glyph-name="ograve" unicode="&#xf2;" horiz-adv-x="1278" 
d="M639 -28q-137 0 -246 39t-185.5 114.5t-117 185.5t-40.5 252q0 138 41.5 247.5t118.5 185.5t185.5 116t243.5 40t244 -40t185.5 -115.5t118 -185t41.5 -248.5q0 -143 -40.5 -253t-116.5 -185t-185.5 -114t-246.5 -39zM639 266q81 0 127 76t46 220q0 140 -46.5 218
t-126.5 78t-126.5 -78t-46.5 -218q0 -144 46 -220t127 -76zM499 1275l-265 321h347l232 -321h-314z" />
    <glyph glyph-name="oacute" unicode="&#xf3;" horiz-adv-x="1278" 
d="M639 -28q-137 0 -246 39t-185.5 114.5t-117 185.5t-40.5 252q0 138 41.5 247.5t118.5 185.5t185.5 116t243.5 40t244 -40t185.5 -115.5t118 -185t41.5 -248.5q0 -143 -40.5 -253t-116.5 -185t-185.5 -114t-246.5 -39zM639 266q81 0 127 76t46 220q0 140 -46.5 218
t-126.5 78t-126.5 -78t-46.5 -218q0 -144 46 -220t127 -76zM474 1275l232 321h347l-265 -321h-314z" />
    <glyph glyph-name="ocircumflex" unicode="&#xf4;" horiz-adv-x="1278" 
d="M639 -28q-137 0 -246 39t-185.5 114.5t-117 185.5t-40.5 252q0 138 41.5 247.5t118.5 185.5t185.5 116t243.5 40t244 -40t185.5 -115.5t118 -185t41.5 -248.5q0 -143 -40.5 -253t-116.5 -185t-185.5 -114t-246.5 -39zM639 266q81 0 127 76t46 220q0 140 -46.5 218
t-126.5 78t-126.5 -78t-46.5 -218q0 -144 46 -220t127 -76zM1051 1256h-284l-124 180h-8l-124 -180h-284l255 336h314z" />
    <glyph glyph-name="otilde" unicode="&#xf5;" horiz-adv-x="1278" 
d="M639 -28q-137 0 -246 39t-185.5 114.5t-117 185.5t-40.5 252q0 138 41.5 247.5t118.5 185.5t185.5 116t243.5 40t244 -40t185.5 -115.5t118 -185t41.5 -248.5q0 -143 -40.5 -253t-116.5 -185t-185.5 -114t-246.5 -39zM639 266q81 0 127 76t46 220q0 140 -46.5 218
t-126.5 78t-126.5 -78t-46.5 -218q0 -144 46 -220t127 -76zM792 1258q-55 0 -94 18.5t-69 41t-54.5 41t-50.5 18.5q-17 0 -29.5 -8.5t-21 -22.5t-13 -32t-5.5 -38h-201q0 70 20.5 124.5t55 92t80 57t95.5 19.5q55 0 94 -18.5t69 -41t54.5 -41t50.5 -18.5q35 0 51 29.5
t18 76.5h201q0 -70 -20.5 -125.5t-55 -93.5t-80 -58.5t-95.5 -20.5z" />
    <glyph glyph-name="odieresis" unicode="&#xf6;" horiz-adv-x="1278" 
d="M639 -28q-137 0 -246 39t-185.5 114.5t-117 185.5t-40.5 252q0 138 41.5 247.5t118.5 185.5t185.5 116t243.5 40t244 -40t185.5 -115.5t118 -185t41.5 -248.5q0 -143 -40.5 -253t-116.5 -185t-185.5 -114t-246.5 -39zM639 266q81 0 127 76t46 220q0 140 -46.5 218
t-126.5 78t-126.5 -78t-46.5 -218q0 -144 46 -220t127 -76zM417 1256q-35 0 -64 12t-50 32.5t-32.5 47.5t-11.5 58t11.5 58.5t32.5 47.5t50 32t64 12q34 0 63 -12t50 -32t33 -47.5t12 -58.5t-12 -58t-33 -47.5t-50 -32.5t-63 -12zM861 1256q-35 0 -64 12t-50 32.5
t-32.5 47.5t-11.5 58t11.5 58.5t32.5 47.5t50 32t64 12q34 0 63 -12t50 -32t33 -47.5t12 -58.5t-12 -58t-33 -47.5t-50 -32.5t-63 -12z" />
    <glyph glyph-name="divide" unicode="&#xf7;" horiz-adv-x="1413" 
d="M707 817q-47 0 -85.5 14t-66 39t-42.5 60.5t-15 78.5t15 78.5t42.5 61t66 39t85.5 13.5q48 0 86.5 -13.5t65.5 -39t42 -61t15 -78.5t-15 -78.5t-42 -60.5t-65.5 -39t-86.5 -14zM707 -25q-47 0 -85.5 14t-66 39t-42.5 60.5t-15 78.5t15 78.5t42.5 61t66 39t85.5 13.5
q48 0 86.5 -13.5t65.5 -39t42 -61t15 -78.5t-15 -78.5t-42 -60.5t-65.5 -39t-86.5 -14zM136 444v288h1141v-288h-1141z" />
    <glyph glyph-name="oslash" unicode="&#xf8;" horiz-adv-x="1278" 
d="M561 289q35 -23 78 -23q81 0 127 76t46 220q0 73 -14 132zM731 822q-38 36 -92 36q-80 0 -126.5 -78t-46.5 -218q0 -96 21 -162zM1006 1049q106 -74 164 -196.5t58 -289.5q0 -143 -40.5 -253t-116.5 -185t-185.5 -114t-246.5 -39q-132 0 -241 37l-65 -111l-103 58l60 104
q-115 72 -177.5 198.5t-62.5 304.5q0 138 41.5 247.5t118.5 185.5t185.5 116t243.5 40q144 0 257 -45l64 110l112 -54z" />
    <glyph glyph-name="ugrave" unicode="&#xf9;" horiz-adv-x="1319" 
d="M1239 0h-400v220h-8q-34 -115 -123 -178.5t-216 -63.5q-90 0 -166.5 29t-132 83.5t-87 133.5t-31.5 179v721h410v-629q0 -45 13.5 -80t36.5 -58.5t55 -35.5t70 -12q36 0 67 13.5t53.5 37.5t35.5 58.5t13 76.5v629h410v-1124zM520 1275l-265 321h347l232 -321h-314z" />
    <glyph glyph-name="uacute" unicode="&#xfa;" horiz-adv-x="1319" 
d="M1239 0h-400v220h-8q-34 -115 -123 -178.5t-216 -63.5q-90 0 -166.5 29t-132 83.5t-87 133.5t-31.5 179v721h410v-629q0 -45 13.5 -80t36.5 -58.5t55 -35.5t70 -12q36 0 67 13.5t53.5 37.5t35.5 58.5t13 76.5v629h410v-1124zM495 1275l232 321h347l-265 -321h-314z" />
    <glyph glyph-name="ucircumflex" unicode="&#xfb;" horiz-adv-x="1319" 
d="M1239 0h-400v220h-8q-34 -115 -123 -178.5t-216 -63.5q-90 0 -166.5 29t-132 83.5t-87 133.5t-31.5 179v721h410v-629q0 -45 13.5 -80t36.5 -58.5t55 -35.5t70 -12q36 0 67 13.5t53.5 37.5t35.5 58.5t13 76.5v629h410v-1124zM1072 1256h-284l-124 180h-8l-124 -180h-284
l255 336h314z" />
    <glyph glyph-name="udieresis" unicode="&#xfc;" horiz-adv-x="1319" 
d="M1239 0h-400v220h-8q-34 -115 -123 -178.5t-216 -63.5q-90 0 -166.5 29t-132 83.5t-87 133.5t-31.5 179v721h410v-629q0 -45 13.5 -80t36.5 -58.5t55 -35.5t70 -12q36 0 67 13.5t53.5 37.5t35.5 58.5t13 76.5v629h410v-1124zM438 1256q-35 0 -64 12t-50 32.5t-32.5 47.5
t-11.5 58t11.5 58.5t32.5 47.5t50 32t64 12q34 0 63 -12t50 -32t33 -47.5t12 -58.5t-12 -58t-33 -47.5t-50 -32.5t-63 -12zM882 1256q-35 0 -64 12t-50 32.5t-32.5 47.5t-11.5 58t11.5 58.5t32.5 47.5t50 32t64 12q34 0 63 -12t50 -32t33 -47.5t12 -58.5t-12 -58t-33 -47.5
t-50 -32.5t-63 -12z" />
    <glyph glyph-name="yacute" unicode="&#xfd;" horiz-adv-x="1246" 
d="M122 -412v306h60q90 0 140 19.5t52 54.5v20l-374 1136h455l175 -828h8l175 828h433l-339 -1101q-36 -117 -90 -199.5t-131.5 -135t-180.5 -76.5t-237 -24h-146zM458 1275l232 321h347l-265 -321h-314z" />
    <glyph glyph-name="thorn" unicode="&#xfe;" horiz-adv-x="1335" 
d="M838 1140q106 0 188.5 -38t138.5 -111.5t85.5 -181.5t29.5 -247t-29 -247t-85 -181.5t-137 -111.5t-186 -38q-122 0 -206.5 50t-121.5 140h-20v-506h-410v1840h410v-566h20q38 94 121.5 146t201.5 52zM677 300q87 0 135 69t48 193q0 122 -48.5 192t-134.5 70
t-134.5 -69.5t-49.5 -193.5q1 -125 49 -193t135 -68z" />
    <glyph glyph-name="ydieresis" unicode="&#xff;" horiz-adv-x="1246" 
d="M122 -412v306h60q90 0 140 19.5t52 54.5v20l-374 1136h455l175 -828h8l175 828h433l-339 -1101q-36 -117 -90 -199.5t-131.5 -135t-180.5 -76.5t-237 -24h-146zM401 1256q-35 0 -64 12t-50 32.5t-32.5 47.5t-11.5 58t11.5 58.5t32.5 47.5t50 32t64 12q34 0 63 -12t50 -32
t33 -47.5t12 -58.5t-12 -58t-33 -47.5t-50 -32.5t-63 -12zM845 1256q-35 0 -64 12t-50 32.5t-32.5 47.5t-11.5 58t11.5 58.5t32.5 47.5t50 32t64 12q34 0 63 -12t50 -32t33 -47.5t12 -58.5t-12 -58t-33 -47.5t-50 -32.5t-63 -12z" />
    <glyph glyph-name="Amacron" unicode="&#x100;" horiz-adv-x="1534" 
d="M977 287h-440l-75 -287h-432l471 1443h532l471 -1443h-452zM614 586h286l-139 524h-8zM1141 1606h-748v180h748v-180z" />
    <glyph glyph-name="amacron" unicode="&#x101;" horiz-adv-x="1231" 
d="M569 259q36 0 68.5 10t58 28t40.5 43.5t15 57.5v74l-181 -13q-62 -5 -95 -31.5t-33 -69.5q0 -47 35 -73t92 -26zM417 -16q-77 0 -146 25t-121 70.5t-82 108.5t-30 139q0 162 119.5 249t345.5 101l248 15v57q0 58 -39 88.5t-100 30.5q-66 0 -105.5 -31t-44.5 -75h-366
q4 89 42.5 161t108 123t167.5 78.5t220 27.5q116 0 211.5 -28t163.5 -78t105 -121t37 -156v-769h-400v152h-8q-22 -41 -57.5 -72.5t-78.5 -52.5t-92 -32t-98 -11zM982 1276h-704v180h704v-180z" />
    <glyph glyph-name="Abreve" unicode="&#x102;" horiz-adv-x="1534" 
d="M977 287h-440l-75 -287h-432l471 1443h532l471 -1443h-452zM614 586h286l-139 524h-8zM608 1870q3 -65 43.5 -106.5t115.5 -41.5t115.5 41.5t43.5 106.5h236q-2 -68 -28.5 -128.5t-76.5 -106t-123 -72.5t-167 -27q-95 0 -167.5 27t-122.5 72.5t-76.5 106t-28.5 128.5h236
z" />
    <glyph glyph-name="abreve" unicode="&#x103;" horiz-adv-x="1231" 
d="M569 259q36 0 68.5 10t58 28t40.5 43.5t15 57.5v74l-181 -13q-62 -5 -95 -31.5t-33 -69.5q0 -47 35 -73t92 -26zM417 -16q-77 0 -146 25t-121 70.5t-82 108.5t-30 139q0 162 119.5 249t345.5 101l248 15v57q0 58 -39 88.5t-100 30.5q-66 0 -105.5 -31t-44.5 -75h-366
q4 89 42.5 161t108 123t167.5 78.5t220 27.5q116 0 211.5 -28t163.5 -78t105 -121t37 -156v-769h-400v152h-8q-22 -41 -57.5 -72.5t-78.5 -52.5t-92 -32t-98 -11zM471 1590q3 -65 43.5 -106.5t115.5 -41.5t115.5 41.5t43.5 106.5h236q-2 -68 -28.5 -128.5t-76.5 -106
t-123 -72.5t-167 -27q-95 0 -167.5 27t-122.5 72.5t-76.5 106t-28.5 128.5h236z" />
    <glyph glyph-name="Aogonek" unicode="&#x104;" horiz-adv-x="1534" 
d="M1299 -474q-59 0 -107.5 17t-83.5 47t-54.5 72t-19.5 92q0 156 166 246h-148l-75 287h-440l-75 -287h-432l471 1443h532l471 -1443h-106q-66 -37 -96.5 -78.5t-30.5 -95.5q0 -45 31.5 -72.5t81.5 -27.5q17 0 34.5 2t37.5 6v-185q-60 -23 -157 -23zM614 586h286l-139 524
h-8z" />
    <glyph glyph-name="aogonek" unicode="&#x105;" horiz-adv-x="1231" 
d="M993 -474q-59 0 -107.5 17t-83.5 47t-54.5 72t-19.5 92q0 81 39.5 139.5t126.5 106.5h-143v152h-8q-21 -38 -54 -69t-76 -53t-92.5 -34t-103.5 -12q-81 0 -150 26t-120 72t-80 109t-29 136q0 159 117.5 247.5t347.5 102.5l248 15v57q0 55 -37.5 87t-101.5 32
q-61 0 -102.5 -29t-47.5 -77h-366q4 90 43 162t109 123t167.5 78t218.5 27q116 0 211 -27.5t163 -78t105.5 -121t37.5 -156.5v-769h-59q-66 -37 -96.5 -78.5t-30.5 -95.5q0 -45 31.5 -72.5t81.5 -27.5q19 0 36.5 2t35.5 6v-185q-60 -23 -157 -23zM569 259q39 0 72 10.5
t57.5 29.5t38.5 44t14 55v74l-181 -13q-61 -5 -94.5 -31t-33.5 -70q0 -46 34 -72.5t93 -26.5z" />
    <glyph glyph-name="Cacute" unicode="&#x106;" horiz-adv-x="1513" 
d="M781 -25q-166 0 -298.5 50t-225.5 145t-142.5 234t-49.5 318q0 178 50 317t143 234.5t225.5 145t297.5 49.5q143 0 265.5 -44.5t212 -124.5t141 -191.5t51.5 -245.5h-406q-4 61 -25 111.5t-55.5 86.5t-81.5 55.5t-102 19.5q-65 0 -117.5 -28t-89.5 -81t-57 -129.5
t-20 -173.5q0 -98 20 -175t56.5 -130.5t89.5 -81.5t119 -28q55 0 101.5 19.5t81 55t56 86t26.5 113.5h406q-1 -135 -51.5 -246.5t-139.5 -192t-212 -124.5t-269 -44zM591 1555l232 321h348l-274 -321h-306z" />
    <glyph glyph-name="cacute" unicode="&#x107;" horiz-adv-x="1223" 
d="M805 662q-7 86 -51.5 135t-113.5 49q-85 0 -130 -72.5t-45 -210.5q0 -140 44.5 -212.5t130.5 -72.5q72 0 115.5 46t49.5 131h373q-2 -113 -40.5 -203t-109 -152t-170 -95t-223.5 -33q-136 0 -244.5 40.5t-184 116.5t-116 185.5t-40.5 248.5q0 137 40.5 246.5t116 185.5
t183.5 116.5t243 40.5q122 0 221.5 -34t170.5 -98t111 -154.5t42 -203.5h-373zM442 1275l232 321h347l-265 -321h-314z" />
    <glyph glyph-name="Ccircumflex" unicode="&#x108;" horiz-adv-x="1513" 
d="M781 -25q-166 0 -298.5 50t-225.5 145t-142.5 234t-49.5 318q0 178 50 317t143 234.5t225.5 145t297.5 49.5q143 0 265.5 -44.5t212 -124.5t141 -191.5t51.5 -245.5h-406q-4 61 -25 111.5t-55.5 86.5t-81.5 55.5t-102 19.5q-65 0 -117.5 -28t-89.5 -81t-57 -129.5
t-20 -173.5q0 -98 20 -175t56.5 -130.5t89.5 -81.5t119 -28q55 0 101.5 19.5t81 55t56 86t26.5 113.5h406q-1 -135 -51.5 -246.5t-139.5 -192t-212 -124.5t-269 -44zM914 1872l255 -336h-276l-132 192h-8l-132 -192h-276l255 336h314z" />
    <glyph glyph-name="ccircumflex" unicode="&#x109;" horiz-adv-x="1223" 
d="M805 662q-7 86 -51.5 135t-113.5 49q-85 0 -130 -72.5t-45 -210.5q0 -140 44.5 -212.5t130.5 -72.5q72 0 115.5 46t49.5 131h373q-2 -113 -40.5 -203t-109 -152t-170 -95t-223.5 -33q-136 0 -244.5 40.5t-184 116.5t-116 185.5t-40.5 248.5q0 137 40.5 246.5t116 185.5
t183.5 116.5t243 40.5q122 0 221.5 -34t170.5 -98t111 -154.5t42 -203.5h-373zM1019 1256h-284l-124 180h-8l-124 -180h-284l255 336h314z" />
    <glyph glyph-name="Cdotaccent" unicode="&#x10a;" horiz-adv-x="1513" 
d="M781 -25q-166 0 -298.5 50t-225.5 145t-142.5 234t-49.5 318q0 178 50 317t143 234.5t225.5 145t297.5 49.5q143 0 265.5 -44.5t212 -124.5t141 -191.5t51.5 -245.5h-406q-4 61 -25 111.5t-55.5 86.5t-81.5 55.5t-102 19.5q-65 0 -117.5 -28t-89.5 -81t-57 -129.5
t-20 -173.5q0 -98 20 -175t56.5 -130.5t89.5 -81.5t119 -28q55 0 101.5 19.5t81 55t56 86t26.5 113.5h406q-1 -135 -51.5 -246.5t-139.5 -192t-212 -124.5t-269 -44zM757 1536q-38 0 -70 14t-56 38t-37.5 56.5t-13.5 68.5t13.5 68t37.5 56t56 38t70 14q37 0 69.5 -14
t56.5 -38t37.5 -56t13.5 -68t-13.5 -68.5t-37.5 -56.5t-56.5 -38t-69.5 -14z" />
    <glyph glyph-name="cdotaccent" unicode="&#x10b;" horiz-adv-x="1223" 
d="M805 662q-7 86 -51.5 135t-113.5 49q-85 0 -130 -72.5t-45 -210.5q0 -140 44.5 -212.5t130.5 -72.5q72 0 115.5 46t49.5 131h373q-2 -113 -40.5 -203t-109 -152t-170 -95t-223.5 -33q-136 0 -244.5 40.5t-184 116.5t-116 185.5t-40.5 248.5q0 137 40.5 246.5t116 185.5
t183.5 116.5t243 40.5q122 0 221.5 -34t170.5 -98t111 -154.5t42 -203.5h-373zM605 1264q-38 0 -70 13.5t-56 37t-37.5 55t-13.5 67.5t13.5 67.5t37.5 55t56 37t70 13.5q37 0 69.5 -13.5t56.5 -37t37.5 -55t13.5 -67.5t-13.5 -67.5t-37.5 -55t-56.5 -37t-69.5 -13.5z" />
    <glyph glyph-name="Ccaron" unicode="&#x10c;" horiz-adv-x="1513" 
d="M781 -25q-166 0 -298.5 50t-225.5 145t-142.5 234t-49.5 318q0 178 50 317t143 234.5t225.5 145t297.5 49.5q143 0 265.5 -44.5t212 -124.5t141 -191.5t51.5 -245.5h-406q-4 61 -25 111.5t-55.5 86.5t-81.5 55.5t-102 19.5q-65 0 -117.5 -28t-89.5 -81t-57 -129.5
t-20 -173.5q0 -98 20 -175t56.5 -130.5t89.5 -81.5t119 -28q55 0 101.5 19.5t81 55t56 86t26.5 113.5h406q-1 -135 -51.5 -246.5t-139.5 -192t-212 -124.5t-269 -44zM345 1872h276l132 -192h8l132 192h276l-255 -336h-314z" />
    <glyph glyph-name="ccaron" unicode="&#x10d;" horiz-adv-x="1223" 
d="M805 662q-7 86 -51.5 135t-113.5 49q-85 0 -130 -72.5t-45 -210.5q0 -140 44.5 -212.5t130.5 -72.5q72 0 115.5 46t49.5 131h373q-2 -113 -40.5 -203t-109 -152t-170 -95t-223.5 -33q-136 0 -244.5 40.5t-184 116.5t-116 185.5t-40.5 248.5q0 137 40.5 246.5t116 185.5
t183.5 116.5t243 40.5q122 0 221.5 -34t170.5 -98t111 -154.5t42 -203.5h-373zM450 1256l-255 336h284l124 -180h8l124 180h284l-255 -336h-314z" />
    <glyph glyph-name="Dcaron" unicode="&#x10e;" horiz-adv-x="1477" 
d="M717 1443q164 0 293 -46t218.5 -136t136.5 -223t47 -306t-47 -309t-136.5 -230t-218.5 -143.5t-293 -49.5h-617v1443h617zM524 337h133q159 0 241 97.5t82 297.5q0 183 -85 278.5t-238 95.5h-133v-769zM327 1872h276l132 -192h8l132 192h276l-255 -336h-314z" />
    <glyph glyph-name="dcaron" unicode="&#x10f;" horiz-adv-x="1591" 
d="M1691 1508l-50 -518h-243v518h293zM490 -16q-104 0 -185.5 39.5t-138 114t-86.5 182.5t-30 245q0 135 30.5 242t87.5 181t140 113t188 39q61 0 114.5 -16.5t96 -45.5t73 -69t47.5 -87h8v596h410v-1518h-410v194h-8q-14 -44 -45 -82.5t-75 -67t-99 -44.5t-118 -16z
M653 823q-86 0 -134.5 -69.5t-48.5 -191.5q0 -124 48 -192.5t135 -68.5q88 0 136 68t48 192q0 123 -48.5 192.5t-135.5 69.5z" />
    <glyph glyph-name="Dcroat" unicode="&#x110;" horiz-adv-x="1503" 
d="M683 337q159 0 241 97.5t82 297.5q0 183 -85 278.5t-238 95.5h-133v-246h253v-279h-253v-244h133zM743 1443q164 0 293 -46t218.5 -136t136.5 -223t47 -306t-47 -309t-136.5 -230t-218.5 -143.5t-293 -49.5h-617v581h-46v279h46v583h617z" />
    <glyph glyph-name="dcroat" unicode="&#x111;" horiz-adv-x="1380" 
d="M678 300q88 0 136 68.5t48 192.5q0 123 -48.5 193t-135.5 70q-86 0 -134.5 -70t-48.5 -192q0 -124 48 -193t135 -69zM1334 1237h-64v-1237h-410v174h-20q-38 -91 -122.5 -140.5t-202.5 -49.5q-104 0 -185.5 39t-138 113.5t-86.5 182.5t-30 246q0 136 30.5 243t88 180.5
t140 112.5t187.5 39q112 0 195.5 -52t123.5 -146h20v295h-186v176h186v135h410v-135h64v-176z" />
    <glyph glyph-name="Emacron" unicode="&#x112;" horiz-adv-x="1216" 
d="M1118 0h-1018v1443h1018v-337h-594v-233h557v-304h-557v-232h594v-337zM982 1606h-748v180h748v-180z" />
    <glyph glyph-name="emacron" unicode="&#x113;" horiz-adv-x="1243" 
d="M631 869q-36 0 -67.5 -12.5t-55.5 -35.5t-38.5 -54.5t-17.5 -68.5h358q-3 39 -17 70.5t-37.5 54t-55 34.5t-69.5 12zM1188 363q-13 -90 -58 -162.5t-116.5 -123.5t-167 -78t-210.5 -27q-138 0 -246.5 40t-184 115t-115.5 183.5t-40 245.5q0 138 40 248t114.5 187.5
t180.5 119t238 41.5q130 0 235 -40t179.5 -114t115 -178.5t40.5 -233.5v-111h-747v-26q0 -43 14.5 -78.5t40.5 -61.5t62 -40.5t79 -14.5q65 0 113 29t67 80h366zM974 1276h-704v180h704v-180z" />
    <glyph glyph-name="Ebreve" unicode="&#x114;" horiz-adv-x="1216" 
d="M1118 0h-1018v1443h1018v-337h-594v-233h557v-304h-557v-232h594v-337zM449 1870q3 -65 43.5 -106.5t115.5 -41.5t115.5 41.5t43.5 106.5h236q-2 -68 -28.5 -128.5t-76.5 -106t-123 -72.5t-167 -27q-95 0 -167.5 27t-122.5 72.5t-76.5 106t-28.5 128.5h236z" />
    <glyph glyph-name="ebreve" unicode="&#x115;" horiz-adv-x="1243" 
d="M631 869q-36 0 -67.5 -12.5t-55.5 -35.5t-38.5 -54.5t-17.5 -68.5h358q-3 39 -17 70.5t-37.5 54t-55 34.5t-69.5 12zM1188 363q-13 -90 -58 -162.5t-116.5 -123.5t-167 -78t-210.5 -27q-138 0 -246.5 40t-184 115t-115.5 183.5t-40 245.5q0 138 40 248t114.5 187.5
t180.5 119t238 41.5q130 0 235 -40t179.5 -114t115 -178.5t40.5 -233.5v-111h-747v-26q0 -43 14.5 -78.5t40.5 -61.5t62 -40.5t79 -14.5q65 0 113 29t67 80h366zM463 1590q3 -65 43.5 -106.5t115.5 -41.5t115.5 41.5t43.5 106.5h236q-2 -68 -28.5 -128.5t-76.5 -106
t-123 -72.5t-167 -27q-95 0 -167.5 27t-122.5 72.5t-76.5 106t-28.5 128.5h236z" />
    <glyph glyph-name="Edotaccent" unicode="&#x116;" horiz-adv-x="1216" 
d="M1118 0h-1018v1443h1018v-337h-594v-233h557v-304h-557v-232h594v-337zM608 1536q-38 0 -70 14t-56 38t-37.5 56.5t-13.5 68.5t13.5 68t37.5 56t56 38t70 14q37 0 69.5 -14t56.5 -38t37.5 -56t13.5 -68t-13.5 -68.5t-37.5 -56.5t-56.5 -38t-69.5 -14z" />
    <glyph glyph-name="edotaccent" unicode="&#x117;" horiz-adv-x="1243" 
d="M631 869q-36 0 -67.5 -12.5t-55.5 -35.5t-38.5 -54.5t-17.5 -68.5h358q-3 39 -17 70.5t-37.5 54t-55 34.5t-69.5 12zM1188 363q-13 -90 -58 -162.5t-116.5 -123.5t-167 -78t-210.5 -27q-138 0 -246.5 40t-184 115t-115.5 183.5t-40 245.5q0 138 40 248t114.5 187.5
t180.5 119t238 41.5q130 0 235 -40t179.5 -114t115 -178.5t40.5 -233.5v-111h-747v-26q0 -43 14.5 -78.5t40.5 -61.5t62 -40.5t79 -14.5q65 0 113 29t67 80h366zM620 1264q-38 0 -70 13.5t-56 37t-37.5 55t-13.5 67.5t13.5 67.5t37.5 55t56 37t70 13.5q37 0 69.5 -13.5
t56.5 -37t37.5 -55t13.5 -67.5t-13.5 -67.5t-37.5 -55t-56.5 -37t-69.5 -13.5z" />
    <glyph glyph-name="Eogonek" unicode="&#x118;" horiz-adv-x="1216" 
d="M100 0v1443h1018v-337h-594v-233h557v-304h-557v-232h594v-317q-93 -43 -137.5 -92t-44.5 -109q0 -42 30.5 -67.5t82.5 -25.5q18 0 33.5 1.5t35.5 6.5v-185q-60 -23 -154 -23q-61 0 -110 15.5t-84 44t-54 68.5t-19 90q0 88 40 149t128 107h-765z" />
    <glyph glyph-name="eogonek" unicode="&#x119;" horiz-adv-x="1243" 
d="M762 -479q-61 0 -110 14.5t-83.5 41.5t-53 65.5t-18.5 86.5q0 78 35.5 137.5t109.5 105.5h-6q-138 0 -246.5 40t-184 115t-115.5 183.5t-40 245.5q0 138 40 248t114.5 187.5t180.5 119t238 41.5q130 0 235 -40t179.5 -114t115 -178.5t40.5 -233.5v-111h-747v-26
q0 -43 14.5 -78.5t40.5 -61.5t62 -40.5t79 -14.5q66 0 113.5 29t66.5 80h366q-8 -61 -31.5 -110t-56.5 -88.5t-73.5 -72t-80.5 -60.5q-41 -28 -79 -53t-67.5 -50.5t-47.5 -53.5t-18 -61q0 -42 30.5 -67.5t82.5 -25.5q18 0 35.5 2t36.5 6v-185q-60 -23 -157 -23zM631 869
q-36 0 -67.5 -12.5t-55.5 -35.5t-38.5 -54.5t-17.5 -68.5h358q-3 39 -17 70.5t-37.5 54t-55 34.5t-69.5 12z" />
    <glyph glyph-name="Ecaron" unicode="&#x11a;" horiz-adv-x="1216" 
d="M1118 0h-1018v1443h1018v-337h-594v-233h557v-304h-557v-232h594v-337zM196 1872h276l132 -192h8l132 192h276l-255 -336h-314z" />
    <glyph glyph-name="ecaron" unicode="&#x11b;" horiz-adv-x="1243" 
d="M631 869q-36 0 -67.5 -12.5t-55.5 -35.5t-38.5 -54.5t-17.5 -68.5h358q-3 39 -17 70.5t-37.5 54t-55 34.5t-69.5 12zM1188 363q-13 -90 -58 -162.5t-116.5 -123.5t-167 -78t-210.5 -27q-138 0 -246.5 40t-184 115t-115.5 183.5t-40 245.5q0 138 40 248t114.5 187.5
t180.5 119t238 41.5q130 0 235 -40t179.5 -114t115 -178.5t40.5 -233.5v-111h-747v-26q0 -43 14.5 -78.5t40.5 -61.5t62 -40.5t79 -14.5q65 0 113 29t67 80h366zM465 1256l-255 336h284l124 -180h8l124 180h284l-255 -336h-314z" />
    <glyph glyph-name="Gcircumflex" unicode="&#x11c;" horiz-adv-x="1530" 
d="M1462 614q0 -148 -45.5 -266.5t-131.5 -201t-210 -127t-281 -44.5q-172 0 -307.5 49.5t-229 145t-143 234.5t-49.5 319q0 177 49.5 316t142 234t225 145t299.5 50q136 0 252 -38t203.5 -105.5t142 -161t66.5 -204.5h-417q-11 40 -33 72t-54 55t-72 35.5t-86 12.5
q-68 0 -121 -27t-89.5 -79t-56 -127.5t-19.5 -171.5q0 -99 22 -177t62 -132t96.5 -82.5t126.5 -28.5q52 0 95.5 14t76 39t52 60.5t24.5 79.5l2 20h-220v282h628v-190zM913 1872l255 -336h-276l-132 192h-8l-132 -192h-276l255 336h314z" />
    <glyph glyph-name="gcircumflex" unicode="&#x11d;" horiz-adv-x="1325" 
d="M653 311q88 0 136 63t48 187q0 123 -48.5 192.5t-135.5 69.5q-86 0 -134.5 -69.5t-48.5 -191.5q0 -124 48 -187.5t135 -63.5zM645 -421q-126 0 -229.5 24.5t-178 70.5t-116.5 111.5t-44 146.5h394q4 -21 20 -37.5t40 -28.5t54.5 -18.5t63.5 -6.5q41 0 75.5 10t59 29
t38 47t13.5 63v224h-8q-14 -44 -45 -81t-75 -63.5t-99 -41t-118 -14.5q-99 0 -180 36.5t-138.5 107t-89.5 173t-32 234.5q0 135 30.5 242t87.5 181t140 113t188 39q61 0 114.5 -16.5t96 -45.5t73 -69t47.5 -87h8v202h410v-1104q0 -100 -43.5 -181.5t-122 -139t-189 -89
t-245.5 -31.5zM1075 1256h-284l-124 180h-8l-124 -180h-284l255 336h314z" />
    <glyph glyph-name="Gbreve" unicode="&#x11e;" horiz-adv-x="1530" 
d="M1462 614q0 -148 -45.5 -266.5t-131.5 -201t-210 -127t-281 -44.5q-172 0 -307.5 49.5t-229 145t-143 234.5t-49.5 319q0 177 49.5 316t142 234t225 145t299.5 50q136 0 252 -38t203.5 -105.5t142 -161t66.5 -204.5h-417q-11 40 -33 72t-54 55t-72 35.5t-86 12.5
q-68 0 -121 -27t-89.5 -79t-56 -127.5t-19.5 -171.5q0 -99 22 -177t62 -132t96.5 -82.5t126.5 -28.5q52 0 95.5 14t76 39t52 60.5t24.5 79.5l2 20h-220v282h628v-190zM597 1870q3 -65 43.5 -106.5t115.5 -41.5t115.5 41.5t43.5 106.5h236q-2 -68 -28.5 -128.5t-76.5 -106
t-123 -72.5t-167 -27q-95 0 -167.5 27t-122.5 72.5t-76.5 106t-28.5 128.5h236z" />
    <glyph glyph-name="gbreve" unicode="&#x11f;" horiz-adv-x="1325" 
d="M653 311q88 0 136 63t48 187q0 123 -48.5 192.5t-135.5 69.5q-86 0 -134.5 -69.5t-48.5 -191.5q0 -124 48 -187.5t135 -63.5zM645 -421q-126 0 -229.5 24.5t-178 70.5t-116.5 111.5t-44 146.5h394q4 -21 20 -37.5t40 -28.5t54.5 -18.5t63.5 -6.5q41 0 75.5 10t59 29
t38 47t13.5 63v224h-8q-14 -44 -45 -81t-75 -63.5t-99 -41t-118 -14.5q-99 0 -180 36.5t-138.5 107t-89.5 173t-32 234.5q0 135 30.5 242t87.5 181t140 113t188 39q61 0 114.5 -16.5t96 -45.5t73 -69t47.5 -87h8v202h410v-1104q0 -100 -43.5 -181.5t-122 -139t-189 -89
t-245.5 -31.5zM504 1590q3 -65 43.5 -106.5t115.5 -41.5t115.5 41.5t43.5 106.5h236q-2 -68 -28.5 -128.5t-76.5 -106t-123 -72.5t-167 -27q-95 0 -167.5 27t-122.5 72.5t-76.5 106t-28.5 128.5h236z" />
    <glyph glyph-name="Gdotaccent" unicode="&#x120;" horiz-adv-x="1530" 
d="M1462 614q0 -148 -45.5 -266.5t-131.5 -201t-210 -127t-281 -44.5q-172 0 -307.5 49.5t-229 145t-143 234.5t-49.5 319q0 177 49.5 316t142 234t225 145t299.5 50q136 0 252 -38t203.5 -105.5t142 -161t66.5 -204.5h-417q-11 40 -33 72t-54 55t-72 35.5t-86 12.5
q-68 0 -121 -27t-89.5 -79t-56 -127.5t-19.5 -171.5q0 -99 22 -177t62 -132t96.5 -82.5t126.5 -28.5q52 0 95.5 14t76 39t52 60.5t24.5 79.5l2 20h-220v282h628v-190zM756 1536q-38 0 -70 14t-56 38t-37.5 56.5t-13.5 68.5t13.5 68t37.5 56t56 38t70 14q37 0 69.5 -14
t56.5 -38t37.5 -56t13.5 -68t-13.5 -68.5t-37.5 -56.5t-56.5 -38t-69.5 -14z" />
    <glyph glyph-name="gdotaccent" unicode="&#x121;" horiz-adv-x="1325" 
d="M653 311q88 0 136 63t48 187q0 123 -48.5 192.5t-135.5 69.5q-86 0 -134.5 -69.5t-48.5 -191.5q0 -124 48 -187.5t135 -63.5zM645 -421q-126 0 -229.5 24.5t-178 70.5t-116.5 111.5t-44 146.5h394q4 -21 20 -37.5t40 -28.5t54.5 -18.5t63.5 -6.5q41 0 75.5 10t59 29
t38 47t13.5 63v224h-8q-14 -44 -45 -81t-75 -63.5t-99 -41t-118 -14.5q-99 0 -180 36.5t-138.5 107t-89.5 173t-32 234.5q0 135 30.5 242t87.5 181t140 113t188 39q61 0 114.5 -16.5t96 -45.5t73 -69t47.5 -87h8v202h410v-1104q0 -100 -43.5 -181.5t-122 -139t-189 -89
t-245.5 -31.5zM661 1264q-38 0 -70 13.5t-56 37t-37.5 55t-13.5 67.5t13.5 67.5t37.5 55t56 37t70 13.5q37 0 69.5 -13.5t56.5 -37t37.5 -55t13.5 -67.5t-13.5 -67.5t-37.5 -55t-56.5 -37t-69.5 -13.5z" />
    <glyph glyph-name="Gcommaaccent" unicode="&#x122;" horiz-adv-x="1530" 
d="M1462 614q0 -148 -45.5 -266.5t-131.5 -201t-210 -127t-281 -44.5q-172 0 -307.5 49.5t-229 145t-143 234.5t-49.5 319q0 177 49.5 316t142 234t225 145t299.5 50q136 0 252 -38t203.5 -105.5t142 -161t66.5 -204.5h-417q-11 40 -33 72t-54 55t-72 35.5t-86 12.5
q-68 0 -121 -27t-89.5 -79t-56 -127.5t-19.5 -171.5q0 -99 22 -177t62 -132t96.5 -82.5t126.5 -28.5q52 0 95.5 14t76 39t52 60.5t24.5 79.5l2 20h-220v282h628v-190zM419 -457l152 321h359l-203 -321h-308z" />
    <glyph glyph-name="gcommaaccent" unicode="&#x123;" horiz-adv-x="1325" 
d="M653 311q88 0 136 63t48 187q0 123 -48.5 192.5t-135.5 69.5q-86 0 -134.5 -69.5t-48.5 -191.5q0 -124 48 -187.5t135 -63.5zM645 -421q-126 0 -229.5 24.5t-178 70.5t-116.5 111.5t-44 146.5h394q4 -21 20 -37.5t40 -28.5t54.5 -18.5t63.5 -6.5q41 0 75.5 10t59 29
t38 47t13.5 63v224h-8q-14 -44 -45 -81t-75 -63.5t-99 -41t-118 -14.5q-99 0 -180 36.5t-138.5 107t-89.5 173t-32 234.5q0 135 30.5 242t87.5 181t140 113t188 39q61 0 114.5 -16.5t96 -45.5t73 -69t47.5 -87h8v202h410v-1104q0 -100 -43.5 -181.5t-122 -139t-189 -89
t-245.5 -31.5zM326 -854l152 321h359l-203 -321h-308z" />
    <glyph glyph-name="Hcircumflex" unicode="&#x124;" horiz-adv-x="1556" 
d="M1032 0v558h-508v-558h-424v1443h424v-548h508v548h424v-1443h-424zM935 1872l255 -336h-276l-132 192h-8l-132 -192h-276l255 336h314z" />
    <glyph glyph-name="hcircumflex" unicode="&#x125;" horiz-adv-x="1328" 
d="M85 1518h400v-614h8q43 118 137.5 180t223.5 62q94 0 168.5 -28.5t125.5 -83.5t78 -134t27 -180v-720h-410v629q0 87 -46 136.5t-127 49.5q-38 0 -70.5 -14t-55.5 -38.5t-36 -59t-13 -74.5v-629h-410v1518zM445 1947l255 -336h-276l-132 192h-8l-132 -192h-276l255 336
h314z" />
    <glyph glyph-name="Hbar" unicode="&#x126;" horiz-adv-x="1639" 
d="M1073 1028h-508v-133h508v133zM1573 1028h-76v-1028h-424v558h-508v-558h-424v1028h-75v279h75v136h424v-136h508v136h424v-136h76v-279z" />
    <glyph glyph-name="hbar" unicode="&#x127;" horiz-adv-x="1378" 
d="M530 934q18 49 52.5 88.5t80.5 67t101 42t115 14.5q92 0 166 -28t125.5 -82t79.5 -133.5t28 -182.5v-720h-410v629q0 91 -48 139t-125 48q-37 0 -69 -13.5t-55.5 -38.5t-37 -59t-13.5 -76v-629h-410v1237h-59v176h59v145h400v-145h201v-176h-201v-303h20z" />
    <glyph glyph-name="Itilde" unicode="&#x128;" horiz-adv-x="624" 
d="M100 0v1443h424v-1443h-424zM465 1546q-55 0 -94 18.5t-69 41t-54.5 41t-50.5 18.5q-17 0 -29.5 -8.5t-21 -22.5t-13 -32t-5.5 -38h-201q0 70 20.5 124.5t55 92t80 57t95.5 19.5q55 0 94 -18.5t69 -41t54.5 -41t50.5 -18.5q35 0 51 29.5t18 76.5h201q0 -70 -20.5 -125.5
t-55 -93.5t-80 -58.5t-95.5 -20.5z" />
    <glyph glyph-name="itilde" unicode="&#x129;" horiz-adv-x="570" 
d="M80 1124h410v-1124h-410v1124zM438 1258q-55 0 -94 18.5t-69 41t-54.5 41t-50.5 18.5q-17 0 -29.5 -8.5t-21 -22.5t-13 -32t-5.5 -38h-201q0 70 20.5 124.5t55 92t80 57t95.5 19.5q55 0 94 -18.5t69 -41t54.5 -41t50.5 -18.5q35 0 51 29.5t18 76.5h201
q0 -70 -20.5 -125.5t-55 -93.5t-80 -58.5t-95.5 -20.5z" />
    <glyph glyph-name="Imacron" unicode="&#x12a;" horiz-adv-x="624" 
d="M100 0v1443h424v-1443h-424zM686 1606h-748v180h748v-180z" />
    <glyph glyph-name="imacron" unicode="&#x12b;" horiz-adv-x="570" 
d="M80 1124h410v-1124h-410v1124zM637 1276h-704v180h704v-180z" />
    <glyph glyph-name="Ibreve" unicode="&#x12c;" horiz-adv-x="624" 
d="M100 0v1443h424v-1443h-424zM153 1870q3 -65 43.5 -106.5t115.5 -41.5t115.5 41.5t43.5 106.5h236q-2 -68 -28.5 -128.5t-76.5 -106t-123 -72.5t-167 -27q-95 0 -167.5 27t-122.5 72.5t-76.5 106t-28.5 128.5h236z" />
    <glyph glyph-name="ibreve" unicode="&#x12d;" horiz-adv-x="570" 
d="M80 1124h410v-1124h-410v1124zM126 1590q3 -65 43.5 -106.5t115.5 -41.5t115.5 41.5t43.5 106.5h236q-2 -68 -28.5 -128.5t-76.5 -106t-123 -72.5t-167 -27q-95 0 -167.5 27t-122.5 72.5t-76.5 106t-28.5 128.5h236z" />
    <glyph glyph-name="Iogonek" unicode="&#x12e;" horiz-adv-x="624" 
d="M317 -474q-59 0 -107.5 17t-83.5 47t-54.5 72t-19.5 92q0 81 39.5 139.5t126.5 106.5h-118v1443h424v-1443h-108q-66 -37 -96.5 -78.5t-30.5 -95.5q0 -45 31.5 -72.5t81.5 -27.5q18 0 35.5 2t36.5 6v-185q-60 -23 -157 -23z" />
    <glyph glyph-name="iogonek" unicode="&#x12f;" horiz-adv-x="570" 
d="M285 1190q-42 0 -79.5 14.5t-65.5 40.5t-44 62t-16 78t16 78t44 62t65.5 40.5t79.5 14.5t79.5 -14.5t65.5 -40.5t44 -62t16 -78t-16 -78t-44 -62t-65.5 -40.5t-79.5 -14.5zM332 -474q-59 0 -107.5 17t-83.5 47t-54.5 72t-19.5 92q0 81 39.5 139.5t126.5 106.5h-153v1124
h410v-1124h-59q-66 -37 -96.5 -78.5t-30.5 -95.5q0 -45 31.5 -72.5t81.5 -27.5q17 0 34.5 1.5t37.5 6.5v-185q-60 -23 -157 -23z" />
    <glyph glyph-name="Idotaccent" unicode="&#x130;" horiz-adv-x="624" 
d="M100 0v1443h424v-1443h-424zM312 1536q-38 0 -70 14t-56 38t-37.5 56.5t-13.5 68.5t13.5 68t37.5 56t56 38t70 14q37 0 69.5 -14t56.5 -38t37.5 -56t13.5 -68t-13.5 -68.5t-37.5 -56.5t-56.5 -38t-69.5 -14z" />
    <glyph glyph-name="dotlessi" unicode="&#x131;" horiz-adv-x="570" 
d="M80 1124h410v-1124h-410v1124z" />
    <glyph glyph-name="u0132" unicode="&#x132;" horiz-adv-x="1895" 
d="M100 0v1443h424v-1443h-424zM1050 511q0 -85 41.5 -133t114.5 -48q70 0 106.5 44t36.5 130v939h424v-942q0 -127 -38.5 -225t-110.5 -165t-176 -101.5t-236 -34.5q-131 0 -236.5 37t-179 106t-113 168.5t-39.5 224.5h406z" />
    <glyph glyph-name="u0133" unicode="&#x133;" horiz-adv-x="1140" 
d="M80 1124h410v-1124h-410v1124zM285 1190q-42 0 -79.5 14.5t-65.5 40.5t-44 62t-16 78t16 78t44 62t65.5 40.5t79.5 14.5t79.5 -14.5t65.5 -40.5t44 -62t16 -78t-16 -78t-44 -62t-65.5 -40.5t-79.5 -14.5zM1060 7q0 -86 -30.5 -153t-88 -113t-141.5 -70.5t-191 -24.5
q-15 0 -33.5 0.5t-35.5 1.5t-32 2t-24 2v286q9 -2 21.5 -2.5t25.5 -0.5q63 0 91 21t28 69v1099h410v-1117zM855 1190q-42 0 -79.5 14.5t-65.5 40.5t-44 62t-16 78t16 78t44 62t65.5 40.5t79.5 14.5t79.5 -14.5t65.5 -40.5t44 -62t16 -78t-16 -78t-44 -62t-65.5 -40.5
t-79.5 -14.5z" />
    <glyph glyph-name="Jcircumflex" unicode="&#x134;" horiz-adv-x="1271" 
d="M426 511q0 -85 41.5 -133t114.5 -48q70 0 106.5 44t36.5 130v939h424v-942q0 -127 -38.5 -225t-110.5 -165t-176 -101.5t-236 -34.5q-131 0 -236.5 37t-179 106t-113 168.5t-39.5 224.5h406zM1103 1872l255 -336h-276l-132 192h-8l-132 -192h-276l255 336h314z" />
    <glyph glyph-name="jcircumflex" unicode="&#x135;" horiz-adv-x="570" 
d="M490 7q0 -86 -30.5 -153t-88 -113t-141.5 -70.5t-191 -24.5q-15 0 -33.5 0.5t-35.5 1.5t-32 2t-24 2v286q9 -2 21.5 -2.5t25.5 -0.5q63 0 91 21t28 69v1099h410v-1117zM697 1256h-284l-124 180h-8l-124 -180h-284l255 336h314z" />
    <glyph glyph-name="Kcommaaccent" unicode="&#x136;" horiz-adv-x="1445" 
d="M100 0v1443h424v-612h8l446 612h445l-475 -641l497 -802h-493l-315 530l-113 -152v-378h-424zM386 -457l152 321h359l-203 -321h-308z" />
    <glyph glyph-name="kcommaaccent" unicode="&#x137;" horiz-adv-x="1226" 
d="M783 1124h452l-378 -480l404 -644h-471l-238 399l-57 -74v-325h-410v1518h410v-803h8zM276 -457l152 321h359l-203 -321h-308z" />
    <glyph glyph-name="Lacute" unicode="&#x139;" horiz-adv-x="1150" 
d="M1090 0h-990v1443h424v-1106h566v-337zM145 1555l232 321h348l-274 -321h-306z" />
    <glyph glyph-name="lacute" unicode="&#x13a;" horiz-adv-x="580" 
d="M85 1518h410v-1518h-410v1518zM124 1630l232 321h348l-274 -321h-306z" />
    <glyph glyph-name="Lcommaaccent" unicode="&#x13b;" horiz-adv-x="1150" 
d="M1090 0h-990v1443h424v-1106h566v-337zM238 -457l152 321h359l-203 -321h-308z" />
    <glyph glyph-name="lcommaaccent" unicode="&#x13c;" horiz-adv-x="580" 
d="M85 1518h410v-1518h-410v1518zM-47 -457l152 321h359l-203 -321h-308z" />
    <glyph glyph-name="Lcaron" unicode="&#x13d;" horiz-adv-x="1150" 
d="M1082 1443l-50 -518h-272v518h322zM1090 0h-990v1443h424v-1106h566v-337z" />
    <glyph glyph-name="lcaron" unicode="&#x13e;" horiz-adv-x="863" 
d="M943 1508l-50 -518h-243v518h293zM85 1518h410v-1518h-410v1518z" />
    <glyph glyph-name="Lslash" unicode="&#x141;" horiz-adv-x="1182" 
d="M1122 337v-337h-990v573l-72 -39v256l72 39v614h424v-383l250 136v-256l-250 -136v-467h566z" />
    <glyph glyph-name="lslash" unicode="&#x142;" horiz-adv-x="630" 
d="M630 912l-135 -74v-838h-410v613l-85 -47v256l85 47v649h410v-424l135 74v-256z" />
    <glyph glyph-name="Nacute" unicode="&#x143;" horiz-adv-x="1494" 
d="M100 0v1443h329l557 -748h8v748h400v-1443h-325l-561 760h-8v-760h-400zM581 1555l232 321h348l-274 -321h-306z" />
    <glyph glyph-name="nacute" unicode="&#x144;" horiz-adv-x="1319" 
d="M80 1124h400v-220h8q43 118 134.5 180t220.5 62q94 0 168.5 -28.5t126.5 -83.5t79 -134t27 -180v-720h-410v629q0 87 -45 136.5t-126 49.5q-38 0 -70 -14t-55 -38.5t-35.5 -59t-12.5 -74.5v-629h-410v1124zM495 1275l232 321h347l-265 -321h-314z" />
    <glyph glyph-name="Ncommaaccent" unicode="&#x145;" horiz-adv-x="1494" 
d="M100 0v1443h329l557 -748h8v748h400v-1443h-325l-561 760h-8v-760h-400zM410 -457l152 321h359l-203 -321h-308z" />
    <glyph glyph-name="ncommaaccent" unicode="&#x146;" horiz-adv-x="1319" 
d="M80 1124h400v-220h8q43 118 134.5 180t220.5 62q94 0 168.5 -28.5t126.5 -83.5t79 -134t27 -180v-720h-410v629q0 87 -45 136.5t-126 49.5q-38 0 -70 -14t-55 -38.5t-35.5 -59t-12.5 -74.5v-629h-410v1124zM323 -457l152 321h359l-203 -321h-308z" />
    <glyph glyph-name="Ncaron" unicode="&#x147;" horiz-adv-x="1494" 
d="M100 0v1443h329l557 -748h8v748h400v-1443h-325l-561 760h-8v-760h-400zM335 1872h276l132 -192h8l132 192h276l-255 -336h-314z" />
    <glyph glyph-name="ncaron" unicode="&#x148;" horiz-adv-x="1319" 
d="M80 1124h400v-220h8q43 118 134.5 180t220.5 62q94 0 168.5 -28.5t126.5 -83.5t79 -134t27 -180v-720h-410v629q0 87 -45 136.5t-126 49.5q-38 0 -70 -14t-55 -38.5t-35.5 -59t-12.5 -74.5v-629h-410v1124zM503 1256l-255 336h284l124 -180h8l124 180h284l-255 -336h-314
z" />
    <glyph glyph-name="Omacron" unicode="&#x14c;" horiz-adv-x="1584" 
d="M792 1468q167 0 301.5 -52t229 -148.5t145.5 -235t51 -311.5t-51 -311t-145.5 -235t-229 -148.5t-301.5 -51.5q-168 0 -302.5 51.5t-229 148.5t-145 235t-50.5 311t51 311.5t145.5 235t229 148.5t301.5 52zM792 1130q-66 0 -120.5 -29t-93.5 -82t-60 -128.5t-21 -169.5
q0 -93 21 -168.5t59.5 -129t93 -82t121.5 -28.5t121.5 28.5t93 82t59.5 129t21 168.5q0 94 -21 169.5t-60 128.5t-93.5 82t-120.5 29zM1166 1606h-748v180h748v-180z" />
    <glyph glyph-name="omacron" unicode="&#x14d;" horiz-adv-x="1278" 
d="M639 -28q-137 0 -246 39t-185.5 114.5t-117 185.5t-40.5 252q0 138 41.5 247.5t118.5 185.5t185.5 116t243.5 40t244 -40t185.5 -115.5t118 -185t41.5 -248.5q0 -143 -40.5 -253t-116.5 -185t-185.5 -114t-246.5 -39zM639 266q81 0 127 76t46 220q0 140 -46.5 218
t-126.5 78t-126.5 -78t-46.5 -218q0 -144 46 -220t127 -76zM991 1276h-704v180h704v-180z" />
    <glyph glyph-name="Obreve" unicode="&#x14e;" horiz-adv-x="1584" 
d="M792 1468q167 0 301.5 -52t229 -148.5t145.5 -235t51 -311.5t-51 -311t-145.5 -235t-229 -148.5t-301.5 -51.5q-168 0 -302.5 51.5t-229 148.5t-145 235t-50.5 311t51 311.5t145.5 235t229 148.5t301.5 52zM792 1130q-66 0 -120.5 -29t-93.5 -82t-60 -128.5t-21 -169.5
q0 -93 21 -168.5t59.5 -129t93 -82t121.5 -28.5t121.5 28.5t93 82t59.5 129t21 168.5q0 94 -21 169.5t-60 128.5t-93.5 82t-120.5 29zM633 1870q3 -65 43.5 -106.5t115.5 -41.5t115.5 41.5t43.5 106.5h236q-2 -68 -28.5 -128.5t-76.5 -106t-123 -72.5t-167 -27
q-95 0 -167.5 27t-122.5 72.5t-76.5 106t-28.5 128.5h236z" />
    <glyph glyph-name="obreve" unicode="&#x14f;" horiz-adv-x="1278" 
d="M639 -28q-137 0 -246 39t-185.5 114.5t-117 185.5t-40.5 252q0 138 41.5 247.5t118.5 185.5t185.5 116t243.5 40t244 -40t185.5 -115.5t118 -185t41.5 -248.5q0 -143 -40.5 -253t-116.5 -185t-185.5 -114t-246.5 -39zM639 266q81 0 127 76t46 220q0 140 -46.5 218
t-126.5 78t-126.5 -78t-46.5 -218q0 -144 46 -220t127 -76zM480 1590q3 -65 43.5 -106.5t115.5 -41.5t115.5 41.5t43.5 106.5h236q-2 -68 -28.5 -128.5t-76.5 -106t-123 -72.5t-167 -27q-95 0 -167.5 27t-122.5 72.5t-76.5 106t-28.5 128.5h236z" />
    <glyph glyph-name="Ohungarumlaut" unicode="&#x150;" horiz-adv-x="1584" 
d="M792 1468q167 0 301.5 -52t229 -148.5t145.5 -235t51 -311.5t-51 -311t-145.5 -235t-229 -148.5t-301.5 -51.5q-168 0 -302.5 51.5t-229 148.5t-145 235t-50.5 311t51 311.5t145.5 235t229 148.5t301.5 52zM792 1130q-66 0 -120.5 -29t-93.5 -82t-60 -128.5t-21 -169.5
q0 -93 21 -168.5t59.5 -129t93 -82t121.5 -28.5t121.5 28.5t93 82t59.5 129t21 168.5q0 94 -21 169.5t-60 128.5t-93.5 82t-120.5 29zM872 1555l232 321h348l-274 -321h-306zM392 1555l232 321h348l-274 -321h-306z" />
    <glyph glyph-name="ohungarumlaut" unicode="&#x151;" horiz-adv-x="1278" 
d="M639 -28q-137 0 -246 39t-185.5 114.5t-117 185.5t-40.5 252q0 138 41.5 247.5t118.5 185.5t185.5 116t243.5 40t244 -40t185.5 -115.5t118 -185t41.5 -248.5q0 -143 -40.5 -253t-116.5 -185t-185.5 -114t-246.5 -39zM639 266q81 0 127 76t46 220q0 140 -46.5 218
t-126.5 78t-126.5 -78t-46.5 -218q0 -144 46 -220t127 -76zM881 1596h309l-211 -320h-280zM457 1596h308l-211 -320h-280z" />
    <glyph glyph-name="OE" unicode="&#x152;" horiz-adv-x="2216" 
d="M802 1136q-66 0 -120.5 -29.5t-93.5 -84t-60 -131t-21 -170.5t21 -170.5t59.5 -130.5t93 -83.5t121.5 -29.5t121.5 29.5t93 83.5t59.5 130.5t21 170.5t-21 170.5t-60 131t-93.5 84t-120.5 29.5zM1160 244q-16 -61 -59 -113t-104.5 -90t-136.5 -59.5t-154 -21.5
q-134 0 -249.5 56.5t-200.5 157.5t-133 240.5t-48 306.5q0 168 48.5 308t134 241t202.5 157t253 56q78 0 148 -20t128 -57.5t101.5 -92.5t69.5 -124v254h958v-337h-594v-233h557v-304h-557v-232h594v-337h-958v244z" />
    <glyph glyph-name="oe" unicode="&#x153;" horiz-adv-x="1987" 
d="M1425 -28q-67 0 -127.5 12t-112 35t-91.5 56t-66 75h-20q-65 -90 -160.5 -134t-227.5 -44q-131 0 -236 41t-179.5 117.5t-114.5 184.5t-40 242q0 135 40.5 244.5t114 187.5t177.5 120.5t232 42.5q130 0 230.5 -45.5t162.5 -132.5h20q26 40 66 73t89.5 56.5t107 36
t119.5 12.5q117 0 214.5 -41.5t167 -116t108 -178.5t38.5 -230v-111h-725v-44q0 -39 14.5 -71.5t40 -56t61.5 -36.5t79 -13q61 0 104 24t55 65h366q-12 -82 -55 -150t-110 -117t-154.5 -76.5t-187.5 -27.5zM1548 698q-5 79 -49 125.5t-115 46.5q-36 0 -67 -13t-54 -35.5
t-36.5 -54.5t-14.5 -69h336zM451 559q0 -134 44 -207.5t125 -73.5t125 74t44 208q0 67 -11.5 120t-33.5 90t-53.5 56.5t-70.5 19.5t-70.5 -19.5t-53.5 -56.5t-33.5 -90.5t-11.5 -120.5z" />
    <glyph glyph-name="Racute" unicode="&#x154;" horiz-adv-x="1395" 
d="M524 764h175q45 0 80.5 13t60 37t38 57.5t13.5 74.5q0 40 -14 74t-39 58.5t-60 38t-78 13.5h-176v-366zM524 0h-424v1443h641q144 0 253.5 -33t182.5 -96t110 -154t37 -207q0 -64 -15 -125t-44.5 -114.5t-73 -96.5t-100.5 -70l274 -547h-474l-228 484h-139v-484z
M532 1555l232 321h348l-274 -321h-306z" />
    <glyph glyph-name="racute" unicode="&#x155;" horiz-adv-x="868" 
d="M80 1124h400v-220h8q62 236 263 236q54 0 97 -16v-345q-54 23 -121 23q-118 0 -177.5 -60t-59.5 -178v-564h-410v1124zM275 1275l232 321h347l-265 -321h-314z" />
    <glyph glyph-name="Rcommaaccent" unicode="&#x156;" horiz-adv-x="1395" 
d="M524 764h175q45 0 80.5 13t60 37t38 57.5t13.5 74.5q0 40 -14 74t-39 58.5t-60 38t-78 13.5h-176v-366zM524 0h-424v1443h641q144 0 253.5 -33t182.5 -96t110 -154t37 -207q0 -64 -15 -125t-44.5 -114.5t-73 -96.5t-100.5 -70l274 -547h-474l-228 484h-139v-484z
M361 -457l152 321h359l-203 -321h-308z" />
    <glyph glyph-name="rcommaaccent" unicode="&#x157;" horiz-adv-x="868" 
d="M80 1124h400v-220h8q62 236 263 236q54 0 97 -16v-345q-54 23 -121 23q-118 0 -177.5 -60t-59.5 -178v-564h-410v1124zM-48 -457l152 321h359l-203 -321h-308z" />
    <glyph glyph-name="Rcaron" unicode="&#x158;" horiz-adv-x="1395" 
d="M524 764h175q45 0 80.5 13t60 37t38 57.5t13.5 74.5q0 40 -14 74t-39 58.5t-60 38t-78 13.5h-176v-366zM524 0h-424v1443h641q144 0 253.5 -33t182.5 -96t110 -154t37 -207q0 -64 -15 -125t-44.5 -114.5t-73 -96.5t-100.5 -70l274 -547h-474l-228 484h-139v-484z
M286 1872h276l132 -192h8l132 192h276l-255 -336h-314z" />
    <glyph glyph-name="rcaron" unicode="&#x159;" horiz-adv-x="868" 
d="M80 1124h400v-220h8q62 236 263 236q54 0 97 -16v-345q-54 23 -121 23q-118 0 -177.5 -60t-59.5 -178v-564h-410v1124zM283 1256l-255 336h284l124 -180h8l124 180h284l-255 -336h-314z" />
    <glyph glyph-name="Sacute" unicode="&#x15a;" horiz-adv-x="1370" 
d="M461 425q4 -31 24 -56t50.5 -43t69.5 -27.5t82 -9.5q96 0 150.5 34t54.5 87q0 25 -10.5 43.5t-35 33t-64.5 25.5t-98 22l-191 34q-200 35 -304.5 144t-104.5 280q0 109 44.5 197.5t123.5 150t188 95t238 33.5q144 0 255.5 -32t188 -91t116.5 -143.5t41 -189.5h-387
q-1 34 -17.5 60.5t-44 45t-64.5 28t-80 9.5q-84 0 -132.5 -32t-48.5 -86q0 -52 46.5 -81.5t149.5 -47.5l198 -34q210 -37 310.5 -139t100.5 -277q0 -111 -44.5 -200t-127 -152t-199 -97t-260.5 -34q-145 0 -260 30t-194.5 87t-122 141t-42.5 192h401zM519 1555l232 321h348
l-274 -321h-306z" />
    <glyph glyph-name="sacute" unicode="&#x15b;" horiz-adv-x="1172" 
d="M60 776q0 87 36 157t103.5 118.5t164.5 74.5t219 26t218.5 -26.5t164 -77t103 -123t35.5 -163.5h-372q-1 56 -42 88.5t-110 32.5q-58 0 -92.5 -22t-34.5 -58q0 -55 111 -76l251 -50q167 -33 244.5 -107.5t77.5 -202.5q0 -91 -39 -164t-110.5 -124.5t-172 -79
t-223.5 -27.5q-131 0 -232 27.5t-171.5 78.5t-109.5 123.5t-44 161.5h396q7 -57 50.5 -89.5t115.5 -32.5q63 0 98.5 20.5t35.5 56.5q0 28 -24.5 45t-83.5 28l-216 43q-171 34 -259 121t-88 221zM421 1275l232 321h347l-265 -321h-314z" />
    <glyph glyph-name="Scircumflex" unicode="&#x15c;" horiz-adv-x="1370" 
d="M461 425q4 -31 24 -56t50.5 -43t69.5 -27.5t82 -9.5q96 0 150.5 34t54.5 87q0 25 -10.5 43.5t-35 33t-64.5 25.5t-98 22l-191 34q-200 35 -304.5 144t-104.5 280q0 109 44.5 197.5t123.5 150t188 95t238 33.5q144 0 255.5 -32t188 -91t116.5 -143.5t41 -189.5h-387
q-1 34 -17.5 60.5t-44 45t-64.5 28t-80 9.5q-84 0 -132.5 -32t-48.5 -86q0 -52 46.5 -81.5t149.5 -47.5l198 -34q210 -37 310.5 -139t100.5 -277q0 -111 -44.5 -200t-127 -152t-199 -97t-260.5 -34q-145 0 -260 30t-194.5 87t-122 141t-42.5 192h401zM842 1872l255 -336
h-276l-132 192h-8l-132 -192h-276l255 336h314z" />
    <glyph glyph-name="scircumflex" unicode="&#x15d;" horiz-adv-x="1172" 
d="M60 776q0 87 36 157t103.5 118.5t164.5 74.5t219 26t218.5 -26.5t164 -77t103 -123t35.5 -163.5h-372q-1 56 -42 88.5t-110 32.5q-58 0 -92.5 -22t-34.5 -58q0 -55 111 -76l251 -50q167 -33 244.5 -107.5t77.5 -202.5q0 -91 -39 -164t-110.5 -124.5t-172 -79
t-223.5 -27.5q-131 0 -232 27.5t-171.5 78.5t-109.5 123.5t-44 161.5h396q7 -57 50.5 -89.5t115.5 -32.5q63 0 98.5 20.5t35.5 56.5q0 28 -24.5 45t-83.5 28l-216 43q-171 34 -259 121t-88 221zM998 1256h-284l-124 180h-8l-124 -180h-284l255 336h314z" />
    <glyph glyph-name="Scedilla" unicode="&#x15e;" horiz-adv-x="1370" 
d="M899 874q210 -37 310.5 -139t100.5 -277q0 -99 -36 -181.5t-103.5 -144t-163.5 -100.5t-216 -51l-36 -70q36 0 66 -12t51 -34t33 -53t12 -69q0 -195 -263 -195q-42 0 -77.5 3.5t-55.5 11.5v141q19 -6 45.5 -9t53.5 -3q50 0 72 8.5t22 28.5q0 26 -22 36t-78 10h-56v127
l42 75q-127 8 -227 41t-169.5 90t-106.5 136.5t-37 180.5h401q4 -31 24 -56t50.5 -43t69.5 -27.5t82 -9.5q96 0 150.5 34t54.5 87q0 25 -10.5 43.5t-35 33t-64.5 25.5t-98 22l-191 34q-200 35 -304.5 144t-104.5 280q0 109 44.5 197.5t123.5 150t188 95t238 33.5
q144 0 255.5 -32t188 -91t116.5 -143.5t41 -189.5h-387q-1 34 -17.5 60.5t-44 45t-64.5 28t-80 9.5q-84 0 -132.5 -32t-48.5 -86q0 -52 46.5 -81.5t149.5 -47.5z" />
    <glyph glyph-name="scedilla" unicode="&#x15f;" horiz-adv-x="1172" 
d="M815 677q167 -33 244.5 -107.5t77.5 -202.5q0 -82 -31.5 -149t-90 -117.5t-141 -82t-184.5 -41.5l-34 -66q36 0 66 -12t51 -34t33 -53t12 -69q0 -195 -263 -195q-42 0 -77.5 3.5t-55.5 11.5v141q19 -6 45.5 -9t53.5 -3q50 0 72 8.5t22 28.5q0 26 -22 36t-78 10h-56v127
l41 74q-109 9 -193.5 40.5t-143 81.5t-91 117t-37.5 148h396q7 -57 50.5 -89.5t115.5 -32.5q63 0 98.5 20.5t35.5 56.5q0 28 -24.5 45t-83.5 28l-216 43q-171 34 -259 121t-88 221q0 87 36 157t103.5 118.5t164.5 74.5t219 26t218.5 -26.5t164 -77t103 -123t35.5 -163.5
h-372q-1 56 -42 88.5t-110 32.5q-58 0 -92.5 -22t-34.5 -58q0 -55 111 -76z" />
    <glyph glyph-name="Scaron" unicode="&#x160;" horiz-adv-x="1370" 
d="M461 425q4 -31 24 -56t50.5 -43t69.5 -27.5t82 -9.5q96 0 150.5 34t54.5 87q0 25 -10.5 43.5t-35 33t-64.5 25.5t-98 22l-191 34q-200 35 -304.5 144t-104.5 280q0 109 44.5 197.5t123.5 150t188 95t238 33.5q144 0 255.5 -32t188 -91t116.5 -143.5t41 -189.5h-387
q-1 34 -17.5 60.5t-44 45t-64.5 28t-80 9.5q-84 0 -132.5 -32t-48.5 -86q0 -52 46.5 -81.5t149.5 -47.5l198 -34q210 -37 310.5 -139t100.5 -277q0 -111 -44.5 -200t-127 -152t-199 -97t-260.5 -34q-145 0 -260 30t-194.5 87t-122 141t-42.5 192h401zM273 1872h276l132 -192
h8l132 192h276l-255 -336h-314z" />
    <glyph glyph-name="scaron" unicode="&#x161;" horiz-adv-x="1172" 
d="M60 776q0 87 36 157t103.5 118.5t164.5 74.5t219 26t218.5 -26.5t164 -77t103 -123t35.5 -163.5h-372q-1 56 -42 88.5t-110 32.5q-58 0 -92.5 -22t-34.5 -58q0 -55 111 -76l251 -50q167 -33 244.5 -107.5t77.5 -202.5q0 -91 -39 -164t-110.5 -124.5t-172 -79
t-223.5 -27.5q-131 0 -232 27.5t-171.5 78.5t-109.5 123.5t-44 161.5h396q7 -57 50.5 -89.5t115.5 -32.5q63 0 98.5 20.5t35.5 56.5q0 28 -24.5 45t-83.5 28l-216 43q-171 34 -259 121t-88 221zM429 1256l-255 336h284l124 -180h8l124 180h284l-255 -336h-314z" />
    <glyph glyph-name="Tcedilla" unicode="&#x162;" horiz-adv-x="1274" 
d="M753 0l-46 -89q36 0 66 -12t51 -34t33 -53t12 -69q0 -195 -263 -195q-42 0 -77.5 3.5t-55.5 11.5v141q19 -6 45.5 -9t53.5 -3q50 0 72 8.5t22 28.5q0 26 -22 36t-78 10h-56v127l54 98h-139v1106h-380v337h1184v-337h-380v-1106h-96z" />
    <glyph glyph-name="tcedilla" unicode="&#x163;" horiz-adv-x="847" 
d="M589 826v-423q0 -108 127 -108q23 0 38 1t33 4v-285q-29 -6 -70 -10.5t-100 -4.5l-46 -89q36 0 66 -12t51 -34t33 -53t12 -69q0 -195 -263 -195q-42 0 -77.5 3.5t-55.5 11.5v141q19 -6 45.5 -9t53.5 -3q50 0 72 8.5t22 28.5q0 26 -22 36t-78 10h-56v127l62 112
q-68 12 -117 36t-80 61t-45.5 87t-14.5 115v513h-149v298h149v247h410v-247h198v-298h-198z" />
    <glyph glyph-name="Tcaron" unicode="&#x164;" horiz-adv-x="1274" 
d="M425 0v1106h-380v337h1184v-337h-380v-1106h-424zM225 1872h276l132 -192h8l132 192h276l-255 -336h-314z" />
    <glyph glyph-name="tcaron" unicode="&#x165;" horiz-adv-x="947" 
d="M1029 1768l-50 -518h-243v518h293zM589 1371v-247h198v-298h-198v-423q0 -108 127 -108q23 0 38 1t33 4v-285q-29 -6 -70 -10.5t-100 -4.5q-118 0 -201 17.5t-135.5 55.5t-77 97.5t-24.5 142.5v513h-149v298h149v247h410z" />
    <glyph glyph-name="Tbar" unicode="&#x166;" horiz-adv-x="1345" 
d="M869 1106v-299h277v-279h-277v-528h-424v528h-245v279h245v299h-380v337h1184v-337h-380z" />
    <glyph glyph-name="tbar" unicode="&#x167;" horiz-adv-x="947" 
d="M589 490v-87q0 -108 127 -108q23 0 38 1t33 4v-285q-29 -6 -70 -10.5t-100 -4.5q-118 0 -201 17.5t-135.5 55.5t-77 97.5t-24.5 142.5v177h-128v176h128v160h-149v298h149v247h410v-247h198v-298h-198v-160h252v-176h-252z" />
    <glyph glyph-name="Utilde" unicode="&#x168;" horiz-adv-x="1472" 
d="M524 561q0 -115 54.5 -175t157.5 -60t157.5 60t54.5 175v882h424v-929q0 -123 -46 -223t-129.5 -170t-200.5 -108t-260 -38t-260 38t-200.5 108t-129.5 170t-46 223v929h424v-882zM889 1546q-55 0 -94 18.5t-69 41t-54.5 41t-50.5 18.5q-17 0 -29.5 -8.5t-21 -22.5
t-13 -32t-5.5 -38h-201q0 70 20.5 124.5t55 92t80 57t95.5 19.5q55 0 94 -18.5t69 -41t54.5 -41t50.5 -18.5q35 0 51 29.5t18 76.5h201q0 -70 -20.5 -125.5t-55 -93.5t-80 -58.5t-95.5 -20.5z" />
    <glyph glyph-name="utilde" unicode="&#x169;" horiz-adv-x="1319" 
d="M1239 0h-400v220h-8q-34 -115 -123 -178.5t-216 -63.5q-90 0 -166.5 29t-132 83.5t-87 133.5t-31.5 179v721h410v-629q0 -45 13.5 -80t36.5 -58.5t55 -35.5t70 -12q36 0 67 13.5t53.5 37.5t35.5 58.5t13 76.5v629h410v-1124zM813 1258q-55 0 -94 18.5t-69 41t-54.5 41
t-50.5 18.5q-17 0 -29.5 -8.5t-21 -22.5t-13 -32t-5.5 -38h-201q0 70 20.5 124.5t55 92t80 57t95.5 19.5q55 0 94 -18.5t69 -41t54.5 -41t50.5 -18.5q35 0 51 29.5t18 76.5h201q0 -70 -20.5 -125.5t-55 -93.5t-80 -58.5t-95.5 -20.5z" />
    <glyph glyph-name="Umacron" unicode="&#x16a;" horiz-adv-x="1472" 
d="M524 561q0 -115 54.5 -175t157.5 -60t157.5 60t54.5 175v882h424v-929q0 -123 -46 -223t-129.5 -170t-200.5 -108t-260 -38t-260 38t-200.5 108t-129.5 170t-46 223v929h424v-882zM1110 1606h-748v180h748v-180z" />
    <glyph glyph-name="umacron" unicode="&#x16b;" horiz-adv-x="1319" 
d="M1239 0h-400v220h-8q-34 -115 -123 -178.5t-216 -63.5q-90 0 -166.5 29t-132 83.5t-87 133.5t-31.5 179v721h410v-629q0 -45 13.5 -80t36.5 -58.5t55 -35.5t70 -12q36 0 67 13.5t53.5 37.5t35.5 58.5t13 76.5v629h410v-1124zM1012 1276h-704v180h704v-180z" />
    <glyph glyph-name="Ubreve" unicode="&#x16c;" horiz-adv-x="1472" 
d="M524 561q0 -115 54.5 -175t157.5 -60t157.5 60t54.5 175v882h424v-929q0 -123 -46 -223t-129.5 -170t-200.5 -108t-260 -38t-260 38t-200.5 108t-129.5 170t-46 223v929h424v-882zM577 1870q3 -65 43.5 -106.5t115.5 -41.5t115.5 41.5t43.5 106.5h236
q-2 -68 -28.5 -128.5t-76.5 -106t-123 -72.5t-167 -27q-95 0 -167.5 27t-122.5 72.5t-76.5 106t-28.5 128.5h236z" />
    <glyph glyph-name="ubreve" unicode="&#x16d;" horiz-adv-x="1319" 
d="M1239 0h-400v220h-8q-34 -115 -123 -178.5t-216 -63.5q-90 0 -166.5 29t-132 83.5t-87 133.5t-31.5 179v721h410v-629q0 -45 13.5 -80t36.5 -58.5t55 -35.5t70 -12q36 0 67 13.5t53.5 37.5t35.5 58.5t13 76.5v629h410v-1124zM501 1590q3 -65 43.5 -106.5t115.5 -41.5
t115.5 41.5t43.5 106.5h236q-2 -68 -28.5 -128.5t-76.5 -106t-123 -72.5t-167 -27q-95 0 -167.5 27t-122.5 72.5t-76.5 106t-28.5 128.5h236z" />
    <glyph glyph-name="Uring" unicode="&#x16e;" horiz-adv-x="1472" 
d="M524 561q0 -115 54.5 -175t157.5 -60t157.5 60t54.5 175v882h424v-929q0 -123 -46 -223t-129.5 -170t-200.5 -108t-260 -38t-260 38t-200.5 108t-129.5 170t-46 223v929h424v-882zM736 1517q-50 0 -94 18.5t-77.5 50.5t-53 75t-19.5 91q0 49 19.5 92t53 75t77.5 50.5
t94 18.5q49 0 93.5 -18.5t77.5 -50.5t52.5 -75t19.5 -92q0 -48 -19.5 -91t-52.5 -75t-77.5 -50.5t-93.5 -18.5zM736 1668q18 0 34 6.5t28 18t19 27t7 32.5q0 18 -7 33.5t-19 27t-28 18.5t-34 7t-34 -7t-28 -18.5t-19 -27t-7 -33.5q0 -17 7 -32.5t19 -27t28 -18t34 -6.5z" />
    <glyph glyph-name="uring" unicode="&#x16f;" horiz-adv-x="1319" 
d="M1239 0h-400v220h-8q-34 -115 -123 -178.5t-216 -63.5q-90 0 -166.5 29t-132 83.5t-87 133.5t-31.5 179v721h410v-629q0 -45 13.5 -80t36.5 -58.5t55 -35.5t70 -12q36 0 67 13.5t53.5 37.5t35.5 58.5t13 76.5v629h410v-1124zM660 1235q-50 0 -94 18.5t-77.5 50.5t-53 75
t-19.5 91q0 49 19.5 92t53 75t77.5 50.5t94 18.5q49 0 93.5 -18.5t77.5 -50.5t52.5 -75t19.5 -92q0 -48 -19.5 -91t-52.5 -75t-77.5 -50.5t-93.5 -18.5zM660 1386q18 0 34 6.5t28 18t19 27t7 32.5q0 18 -7 33.5t-19 27t-28 18.5t-34 7t-34 -7t-28 -18.5t-19 -27t-7 -33.5
q0 -17 7 -32.5t19 -27t28 -18t34 -6.5z" />
    <glyph glyph-name="Uhungarumlaut" unicode="&#x170;" horiz-adv-x="1472" 
d="M524 561q0 -115 54.5 -175t157.5 -60t157.5 60t54.5 175v882h424v-929q0 -123 -46 -223t-129.5 -170t-200.5 -108t-260 -38t-260 38t-200.5 108t-129.5 170t-46 223v929h424v-882zM816 1555l232 321h348l-274 -321h-306zM336 1555l232 321h348l-274 -321h-306z" />
    <glyph glyph-name="uhungarumlaut" unicode="&#x171;" horiz-adv-x="1319" 
d="M1239 0h-400v220h-8q-34 -115 -123 -178.5t-216 -63.5q-90 0 -166.5 29t-132 83.5t-87 133.5t-31.5 179v721h410v-629q0 -45 13.5 -80t36.5 -58.5t55 -35.5t70 -12q36 0 67 13.5t53.5 37.5t35.5 58.5t13 76.5v629h410v-1124zM902 1596h309l-211 -320h-280zM478 1596h308
l-211 -320h-280z" />
    <glyph glyph-name="Uogonek" unicode="&#x172;" horiz-adv-x="1472" 
d="M924 -479q-61 0 -110 14.5t-83.5 41.5t-53 65.5t-18.5 86.5q0 148 151 247q-5 -1 -22 -1h-52q-144 0 -261.5 38.5t-201 109t-128.5 170t-45 221.5v929h424v-882q0 -115 54.5 -175t157.5 -60t157.5 60t54.5 175v882h424v-929q0 -89 -20.5 -157t-54 -121t-76 -93.5
t-87.5 -73.5t-87.5 -62t-76 -58t-54 -61.5t-20.5 -73.5q0 -42 30.5 -67.5t82.5 -25.5q16 0 33 1.5t39 6.5v-185q-60 -23 -157 -23z" />
    <glyph glyph-name="uogonek" unicode="&#x173;" horiz-adv-x="1319" 
d="M1239 -451q-60 -23 -157 -23q-59 0 -107.5 17t-83.5 47t-54.5 72t-19.5 92q0 81 39.5 139.5t126.5 106.5h-144v220h-8q-34 -115 -123 -178.5t-216 -63.5q-94 0 -171 30.5t-131.5 86t-84.5 134t-30 174.5v721h410v-629q0 -86 47 -136t128 -50q37 0 68 13.5t53.5 38.5
t35 59t12.5 75v629h410v-1124h-58q-66 -37 -96.5 -78.5t-30.5 -95.5q0 -45 31.5 -72.5t81.5 -27.5q18 0 35.5 2t36.5 6v-185v0z" />
    <glyph glyph-name="Wcircumflex" unicode="&#x174;" horiz-adv-x="2062" 
d="M812 0h-400l-372 1443h438l166 -912h8l215 912h328l215 -912h8l166 912h438l-372 -1443h-400l-215 826h-8zM1188 1872l255 -336h-276l-132 192h-8l-132 -192h-276l255 336h314z" />
    <glyph glyph-name="wcircumflex" unicode="&#x175;" horiz-adv-x="1796" 
d="M1502 0h-445l-159 729h-8l-157 -729h-437l-286 1124h415l122 -764h8l151 764h391l154 -764h8l122 764h405zM1310 1256h-284l-124 180h-8l-124 -180h-284l255 336h314z" />
    <glyph glyph-name="Ycircumflex" unicode="&#x176;" horiz-adv-x="1470" 
d="M523 0v457l-493 986h453l253 -585h8l253 585h443l-493 -986v-457h-424zM892 1872l255 -336h-276l-132 192h-8l-132 -192h-276l255 336h314z" />
    <glyph glyph-name="ycircumflex" unicode="&#x177;" horiz-adv-x="1246" 
d="M122 -412v306h60q90 0 140 19.5t52 54.5v20l-374 1136h455l175 -828h8l175 828h433l-339 -1101q-36 -117 -90 -199.5t-131.5 -135t-180.5 -76.5t-237 -24h-146zM1035 1256h-284l-124 180h-8l-124 -180h-284l255 336h314z" />
    <glyph glyph-name="Ydieresis" unicode="&#x178;" horiz-adv-x="1470" 
d="M523 0v457l-493 986h453l253 -585h8l253 585h443l-493 -986v-457h-424zM513 1536q-35 0 -64 12t-50 32.5t-32.5 47.5t-11.5 58t11.5 58.5t32.5 47.5t50 32t64 12q34 0 63 -12t50 -32t33 -47.5t12 -58.5t-12 -58t-33 -47.5t-50 -32.5t-63 -12zM957 1536q-35 0 -64 12
t-50 32.5t-32.5 47.5t-11.5 58t11.5 58.5t32.5 47.5t50 32t64 12q34 0 63 -12t50 -32t33 -47.5t12 -58.5t-12 -58t-33 -47.5t-50 -32.5t-63 -12z" />
    <glyph glyph-name="Zacute" unicode="&#x179;" horiz-adv-x="1321" 
d="M80 266l643 832v8h-637v337h1131v-265l-641 -833v-8h665v-337h-1161v266zM495 1555l232 321h348l-274 -321h-306z" />
    <glyph glyph-name="zacute" unicode="&#x17a;" horiz-adv-x="1128" 
d="M60 209l506 603v8h-490v304h970v-244l-446 -568v-8h468v-304h-1008v209zM399 1275l232 321h347l-265 -321h-314z" />
    <glyph glyph-name="Zdotaccent" unicode="&#x17b;" horiz-adv-x="1321" 
d="M80 266l643 832v8h-637v337h1131v-265l-641 -833v-8h665v-337h-1161v266zM661 1536q-38 0 -70 14t-56 38t-37.5 56.5t-13.5 68.5t13.5 68t37.5 56t56 38t70 14q37 0 69.5 -14t56.5 -38t37.5 -56t13.5 -68t-13.5 -68.5t-37.5 -56.5t-56.5 -38t-69.5 -14z" />
    <glyph glyph-name="zdotaccent" unicode="&#x17c;" horiz-adv-x="1128" 
d="M60 209l506 603v8h-490v304h970v-244l-446 -568v-8h468v-304h-1008v209zM562 1264q-38 0 -70 13.5t-56 37t-37.5 55t-13.5 67.5t13.5 67.5t37.5 55t56 37t70 13.5q37 0 69.5 -13.5t56.5 -37t37.5 -55t13.5 -67.5t-13.5 -67.5t-37.5 -55t-56.5 -37t-69.5 -13.5z" />
    <glyph glyph-name="Zcaron" unicode="&#x17d;" horiz-adv-x="1321" 
d="M80 266l643 832v8h-637v337h1131v-265l-641 -833v-8h665v-337h-1161v266zM249 1872h276l132 -192h8l132 192h276l-255 -336h-314z" />
    <glyph glyph-name="zcaron" unicode="&#x17e;" horiz-adv-x="1128" 
d="M60 209l506 603v8h-490v304h970v-244l-446 -568v-8h468v-304h-1008v209zM407 1256l-255 336h284l124 -180h8l124 180h284l-255 -336h-314z" />
    <glyph glyph-name="florin" unicode="&#x192;" horiz-adv-x="1413" 
d="M1317 1111q-29 14 -70 21.5t-79 7.5q-89 0 -139 -45t-66 -139l-14 -86h329v-276h-376l-28 -169q-20 -119 -65 -203.5t-115.5 -139.5t-166 -80.5t-216.5 -25.5q-65 0 -124 9t-91 24v311q35 -16 75 -24t81 -8q45 0 78.5 10.5t57.5 33t39.5 57t23.5 83.5l20 122h-297v276
h343l23 136q20 117 63.5 201.5t114 139t171 80t234.5 25.5q25 0 53.5 -2.5t55.5 -7t49.5 -10t35.5 -11.5v-310z" />
    <glyph glyph-name="Ohorn" unicode="&#x1a0;" horiz-adv-x="1653" 
d="M792 1130q-66 0 -120.5 -29t-93.5 -82t-60 -128.5t-21 -169.5q0 -93 21 -168.5t59.5 -129t93 -82t121.5 -28.5t121.5 28.5t93 82t59.5 129t21 168.5q0 94 -21 169.5t-60 128.5t-93.5 82t-120.5 29zM1519 713q0 -168 -51.5 -304.5t-146.5 -233t-229.5 -148.5t-300.5 -52
q-167 0 -301 52.5t-228 150t-145 235.5t-51 310q0 171 50 308.5t143 234.5t225 149.5t295 52.5q104 0 180.5 -18t135 -40t104 -40t88.5 -18q80 0 80 83v205h303v-336q0 -42 -12 -76t-34 -58.5t-52 -38t-67 -13.5q-18 0 -35.5 2.5t-28.5 7.5l-5 -7q41 -71 62 -175t21 -233z
" />
    <glyph glyph-name="ohorn" unicode="&#x1a1;" horiz-adv-x="1400" 
d="M639 266q82 0 127.5 77.5t45.5 218.5q0 69 -12 124t-34.5 93t-54.5 58.5t-72 20.5t-72 -20.5t-54.5 -58.5t-34.5 -93t-12 -124q0 -142 45 -219t128 -77zM1228 552q0 -137 -40 -245t-116 -182.5t-186 -113.5t-251 -39q-137 0 -245 40t-184 115t-116 183t-40 243
q0 136 40 246.5t114 189t178.5 121t233.5 42.5q69 0 124.5 -11.5t101 -28.5t82.5 -36.5t67.5 -36.5t56 -28.5t49.5 -11.5q36 0 53 20t17 64v133h285v-198q0 -128 -56 -198.5t-157 -70.5q-18 0 -36 3l-7 -9q15 -47 23.5 -97.5t8.5 -93.5z" />
    <glyph glyph-name="Uhorn" unicode="&#x1af;" horiz-adv-x="1654" 
d="M1376 1443q40 0 56 11q11 7 15.5 23t4.5 50v139h286v-204q0 -143 -72.5 -216.5t-213.5 -73.5h-80v-658q0 -122 -45 -221.5t-128.5 -170t-201 -109t-261.5 -38.5t-261.5 38.5t-200.5 109t-128.5 170t-45.5 221.5v929h424v-882q0 -114 54.5 -174t157.5 -60t157.5 59.5
t54.5 174.5v882h428v0z" />
    <glyph glyph-name="uhorn" unicode="&#x1b0;" horiz-adv-x="1502" 
d="M831 220q-34 -115 -123 -178.5t-216 -63.5q-94 0 -171 30.5t-131.5 86t-84.5 134t-30 174.5v721h410v-629q0 -86 47 -136t128 -50q37 0 68 13.5t53.5 38.5t35 59t12.5 75v629h410q25 0 38.5 3.5t22.5 12.5q9 8 12 22t3 46v138h285v-197q0 -151 -63.5 -221.5t-197.5 -70.5
h-100v-857h-400v220h-8v0z" />
    <glyph glyph-name="u01C4" unicode="&#x1c4;" horiz-adv-x="2798" 
d="M717 1443q164 0 293 -46t218.5 -136t136.5 -223t47 -306t-47 -309t-136.5 -230t-218.5 -143.5t-293 -49.5h-617v1443h617zM524 337h133q159 0 241 97.5t82 297.5q0 183 -85 278.5t-238 95.5h-133v-769zM1557 266l643 832v8h-637v337h1131v-265l-641 -833v-8h665v-337
h-1161v266zM1726 1872h276l132 -192h8l132 192h276l-255 -336h-314z" />
    <glyph glyph-name="u01C5" unicode="&#x1c5;" horiz-adv-x="2605" 
d="M717 1443q164 0 293 -46t218.5 -136t136.5 -223t47 -306t-47 -309t-136.5 -230t-218.5 -143.5t-293 -49.5h-617v1443h617zM524 337h133q159 0 241 97.5t82 297.5q0 183 -85 278.5t-238 95.5h-133v-769zM1537 209l506 603v8h-490v304h970v-244l-446 -568v-8h468v-304
h-1008v209zM1884 1256l-255 336h284l124 -180h8l124 180h284l-255 -336h-314z" />
    <glyph glyph-name="u01C6" unicode="&#x1c6;" horiz-adv-x="2453" 
d="M490 -16q-104 0 -185.5 39.5t-138 114t-86.5 182.5t-30 245q0 135 30.5 242t87.5 181t140 113t188 39q61 0 114.5 -16.5t96 -45.5t73 -69t47.5 -87h8v596h410v-1518h-410v194h-8q-14 -44 -45 -82.5t-75 -67t-99 -44.5t-118 -16zM653 823q-86 0 -134.5 -69.5t-48.5 -191.5
q0 -124 48 -192.5t135 -68.5q88 0 136 68t48 192q0 123 -48.5 192.5t-135.5 69.5zM1385 209l506 603v8h-490v304h970v-244l-446 -568v-8h468v-304h-1008v209zM1732 1256l-255 336h284l124 -180h8l124 180h284l-255 -336h-314z" />
    <glyph glyph-name="u01C7" unicode="&#x1c7;" horiz-adv-x="2421" 
d="M1090 0h-990v1443h424v-1106h566v-337zM1576 511q0 -85 41.5 -133t114.5 -48q70 0 106.5 44t36.5 130v939h424v-942q0 -127 -38.5 -225t-110.5 -165t-176 -101.5t-236 -34.5q-131 0 -236.5 37t-179 106t-113 168.5t-39.5 224.5h406z" />
    <glyph glyph-name="u01C8" unicode="&#x1c8;" horiz-adv-x="1720" 
d="M1090 0h-990v1443h424v-1106h566v-337zM1640 7q0 -86 -30.5 -153t-88 -113t-141.5 -70.5t-191 -24.5q-15 0 -33.5 0.5t-35.5 1.5t-32 2t-24 2v286q9 -2 21.5 -2.5t25.5 -0.5q63 0 91 21t28 69v1099h410v-1117zM1435 1190q-42 0 -79.5 14.5t-65.5 40.5t-44 62t-16 78
t16 78t44 62t65.5 40.5t79.5 14.5t79.5 -14.5t65.5 -40.5t44 -62t16 -78t-16 -78t-44 -62t-65.5 -40.5t-79.5 -14.5z" />
    <glyph glyph-name="u01C9" unicode="&#x1c9;" horiz-adv-x="1150" 
d="M85 1518h410v-1518h-410v1518zM1070 7q0 -86 -30.5 -153t-88 -113t-141.5 -70.5t-191 -24.5q-15 0 -33.5 0.5t-35.5 1.5t-32 2t-24 2v286q9 -2 21.5 -2.5t25.5 -0.5q63 0 91 21t28 69v1099h410v-1117zM865 1190q-42 0 -79.5 14.5t-65.5 40.5t-44 62t-16 78t16 78t44 62
t65.5 40.5t79.5 14.5t79.5 -14.5t65.5 -40.5t44 -62t16 -78t-16 -78t-44 -62t-65.5 -40.5t-79.5 -14.5z" />
    <glyph glyph-name="u01CA" unicode="&#x1ca;" horiz-adv-x="2765" 
d="M100 0v1443h329l557 -748h8v748h400v-1443h-325l-561 760h-8v-760h-400zM1920 511q0 -85 41.5 -133t114.5 -48q70 0 106.5 44t36.5 130v939h424v-942q0 -127 -38.5 -225t-110.5 -165t-176 -101.5t-236 -34.5q-131 0 -236.5 37t-179 106t-113 168.5t-39.5 224.5h406z" />
    <glyph glyph-name="u01CB" unicode="&#x1cb;" horiz-adv-x="2064" 
d="M100 0v1443h329l557 -748h8v748h400v-1443h-325l-561 760h-8v-760h-400zM1984 7q0 -86 -30.5 -153t-88 -113t-141.5 -70.5t-191 -24.5q-15 0 -33.5 0.5t-35.5 1.5t-32 2t-24 2v286q9 -2 21.5 -2.5t25.5 -0.5q63 0 91 21t28 69v1099h410v-1117zM1779 1190
q-42 0 -79.5 14.5t-65.5 40.5t-44 62t-16 78t16 78t44 62t65.5 40.5t79.5 14.5t79.5 -14.5t65.5 -40.5t44 -62t16 -78t-16 -78t-44 -62t-65.5 -40.5t-79.5 -14.5z" />
    <glyph glyph-name="u01CC" unicode="&#x1cc;" horiz-adv-x="1889" 
d="M80 1124h400v-220h8q43 118 134.5 180t220.5 62q94 0 168.5 -28.5t126.5 -83.5t79 -134t27 -180v-720h-410v629q0 87 -45 136.5t-126 49.5q-38 0 -70 -14t-55 -38.5t-35.5 -59t-12.5 -74.5v-629h-410v1124zM1809 7q0 -86 -30.5 -153t-88 -113t-141.5 -70.5t-191 -24.5
q-15 0 -33.5 0.5t-35.5 1.5t-32 2t-24 2v286q9 -2 21.5 -2.5t25.5 -0.5q63 0 91 21t28 69v1099h410v-1117zM1604 1190q-42 0 -79.5 14.5t-65.5 40.5t-44 62t-16 78t16 78t44 62t65.5 40.5t79.5 14.5t79.5 -14.5t65.5 -40.5t44 -62t16 -78t-16 -78t-44 -62t-65.5 -40.5
t-79.5 -14.5z" />
    <glyph glyph-name="Acaron" unicode="&#x1cd;" horiz-adv-x="1534" 
d="M977 287h-440l-75 -287h-432l471 1443h532l471 -1443h-452zM614 586h286l-139 524h-8zM355 1872h276l132 -192h8l132 192h276l-255 -336h-314z" />
    <glyph glyph-name="acaron" unicode="&#x1ce;" horiz-adv-x="1231" 
d="M569 259q36 0 68.5 10t58 28t40.5 43.5t15 57.5v74l-181 -13q-62 -5 -95 -31.5t-33 -69.5q0 -47 35 -73t92 -26zM417 -16q-77 0 -146 25t-121 70.5t-82 108.5t-30 139q0 162 119.5 249t345.5 101l248 15v57q0 58 -39 88.5t-100 30.5q-66 0 -105.5 -31t-44.5 -75h-366
q4 89 42.5 161t108 123t167.5 78.5t220 27.5q116 0 211.5 -28t163.5 -78t105 -121t37 -156v-769h-400v152h-8q-22 -41 -57.5 -72.5t-78.5 -52.5t-92 -32t-98 -11zM473 1256l-255 336h284l124 -180h8l124 180h284l-255 -336h-314z" />
    <glyph glyph-name="Icaron" unicode="&#x1cf;" horiz-adv-x="624" 
d="M100 0v1443h424v-1443h-424zM-100 1872h276l132 -192h8l132 192h276l-255 -336h-314z" />
    <glyph glyph-name="icaron" unicode="&#x1d0;" horiz-adv-x="570" 
d="M80 1124h410v-1124h-410v1124zM128 1256l-255 336h284l124 -180h8l124 180h284l-255 -336h-314z" />
    <glyph glyph-name="Ocaron" unicode="&#x1d1;" horiz-adv-x="1584" 
d="M792 1468q167 0 301.5 -52t229 -148.5t145.5 -235t51 -311.5t-51 -311t-145.5 -235t-229 -148.5t-301.5 -51.5q-168 0 -302.5 51.5t-229 148.5t-145 235t-50.5 311t51 311.5t145.5 235t229 148.5t301.5 52zM792 1130q-66 0 -120.5 -29t-93.5 -82t-60 -128.5t-21 -169.5
q0 -93 21 -168.5t59.5 -129t93 -82t121.5 -28.5t121.5 28.5t93 82t59.5 129t21 168.5q0 94 -21 169.5t-60 128.5t-93.5 82t-120.5 29zM380 1872h276l132 -192h8l132 192h276l-255 -336h-314z" />
    <glyph glyph-name="ocaron" unicode="&#x1d2;" horiz-adv-x="1278" 
d="M639 -28q-137 0 -246 39t-185.5 114.5t-117 185.5t-40.5 252q0 138 41.5 247.5t118.5 185.5t185.5 116t243.5 40t244 -40t185.5 -115.5t118 -185t41.5 -248.5q0 -143 -40.5 -253t-116.5 -185t-185.5 -114t-246.5 -39zM639 266q81 0 127 76t46 220q0 140 -46.5 218
t-126.5 78t-126.5 -78t-46.5 -218q0 -144 46 -220t127 -76zM482 1256l-255 336h284l124 -180h8l124 180h284l-255 -336h-314z" />
    <glyph glyph-name="Ucaron" unicode="&#x1d3;" horiz-adv-x="1472" 
d="M524 561q0 -115 54.5 -175t157.5 -60t157.5 60t54.5 175v882h424v-929q0 -123 -46 -223t-129.5 -170t-200.5 -108t-260 -38t-260 38t-200.5 108t-129.5 170t-46 223v929h424v-882zM324 1872h276l132 -192h8l132 192h276l-255 -336h-314z" />
    <glyph glyph-name="ucaron" unicode="&#x1d4;" horiz-adv-x="1319" 
d="M1239 0h-400v220h-8q-34 -115 -123 -178.5t-216 -63.5q-90 0 -166.5 29t-132 83.5t-87 133.5t-31.5 179v721h410v-629q0 -45 13.5 -80t36.5 -58.5t55 -35.5t70 -12q36 0 67 13.5t53.5 37.5t35.5 58.5t13 76.5v629h410v-1124zM503 1256l-255 336h284l124 -180h8l124 180
h284l-255 -336h-314z" />
    <glyph glyph-name="Udieresismacron" unicode="&#x1d5;" horiz-adv-x="1472" 
d="M524 561q0 -115 54.5 -175t157.5 -60t157.5 60t54.5 175v882h424v-929q0 -123 -46 -223t-129.5 -170t-200.5 -108t-260 -38t-260 38t-200.5 108t-129.5 170t-46 223v929h424v-882zM514 1836q34 0 63 -12t50 -32t33 -47.5t12 -58.5t-12 -58t-33 -47.5t-50 -32.5t-63 -12
q-35 0 -64 12t-50 32.5t-32.5 47.5t-11.5 58t11.5 58.5t32.5 47.5t50 32t64 12zM1110 2120v-180h-748v180h748zM958 1836q34 0 63 -12t50 -32t33 -47.5t12 -58.5t-12 -58t-33 -47.5t-50 -32.5t-63 -12q-35 0 -64 12t-50 32.5t-32.5 47.5t-11.5 58t11.5 58.5t32.5 47.5t50 32
t64 12z" />
    <glyph glyph-name="udieresismacron" unicode="&#x1d6;" horiz-adv-x="1319" 
d="M1239 0h-400v220h-8q-34 -115 -123 -178.5t-216 -63.5q-90 0 -166.5 29t-132 83.5t-87 133.5t-31.5 179v721h410v-629q0 -45 13.5 -80t36.5 -58.5t55 -35.5t70 -12q36 0 67 13.5t53.5 37.5t35.5 58.5t13 76.5v629h410v-1124zM451 1255q-32 0 -59.5 11t-47.5 30.5t-31 45
t-11 54.5t11 55t31 45t47.5 30t59.5 11t59.5 -11t47.5 -30t31 -45t11 -55t-11 -54.5t-31 -45t-47.5 -30.5t-59.5 -11zM869 1255q-32 0 -59.5 11t-47.5 30.5t-31 45t-11 54.5t11 55t31 45t47.5 30t59.5 11t59.5 -11t47.5 -30t31 -45t11 -55t-11 -54.5t-31 -45t-47.5 -30.5
t-59.5 -11zM1012 1660h-704v180h704v-180z" />
    <glyph glyph-name="Udieresisacute" unicode="&#x1d7;" horiz-adv-x="1472" 
d="M524 561q0 -115 54.5 -175t157.5 -60t157.5 60t54.5 175v882h424v-929q0 -123 -46 -223t-129.5 -170t-200.5 -108t-260 -38t-260 38t-200.5 108t-129.5 170t-46 223v929h424v-882zM782 2206h322l-238 -281h-286zM514 1536q-35 0 -64 12t-50 32.5t-32.5 47.5t-11.5 58
t11.5 58.5t32.5 47.5t50 32t64 12q34 0 63 -12t50 -32t33 -47.5t12 -58.5t-12 -58t-33 -47.5t-50 -32.5t-63 -12zM958 1536q-35 0 -64 12t-50 32.5t-32.5 47.5t-11.5 58t11.5 58.5t32.5 47.5t50 32t64 12q34 0 63 -12t50 -32t33 -47.5t12 -58.5t-12 -58t-33 -47.5t-50 -32.5
t-63 -12z" />
    <glyph glyph-name="udieresisacute" unicode="&#x1d8;" horiz-adv-x="1319" 
d="M1239 0h-400v220h-8q-34 -115 -123 -178.5t-216 -63.5q-90 0 -166.5 29t-132 83.5t-87 133.5t-31.5 179v721h410v-629q0 -45 13.5 -80t36.5 -58.5t55 -35.5t70 -12q36 0 67 13.5t53.5 37.5t35.5 58.5t13 76.5v629h410v-1124zM720 1932h322l-238 -281h-286zM438 1256
q-35 0 -64 12t-50 32.5t-32.5 47.5t-11.5 58t11.5 58.5t32.5 47.5t50 32t64 12q34 0 63 -12t50 -32t33 -47.5t12 -58.5t-12 -58t-33 -47.5t-50 -32.5t-63 -12zM882 1256q-35 0 -64 12t-50 32.5t-32.5 47.5t-11.5 58t11.5 58.5t32.5 47.5t50 32t64 12q34 0 63 -12t50 -32
t33 -47.5t12 -58.5t-12 -58t-33 -47.5t-50 -32.5t-63 -12z" />
    <glyph glyph-name="Udieresiscaron" unicode="&#x1d9;" horiz-adv-x="1472" 
d="M524 561q0 -115 54.5 -175t157.5 -60t157.5 60t54.5 175v882h424v-929q0 -123 -46 -223t-129.5 -170t-200.5 -108t-260 -38t-260 38t-200.5 108t-129.5 170t-46 223v929h424v-882zM347 2231h267l111 -153h22l111 153h267l-247 -305h-284zM514 1836q34 0 63 -12t50 -32
t33 -47.5t12 -58.5t-12 -58t-33 -47.5t-50 -32.5t-63 -12q-35 0 -64 12t-50 32.5t-32.5 47.5t-11.5 58t11.5 58.5t32.5 47.5t50 32t64 12zM958 1836q34 0 63 -12t50 -32t33 -47.5t12 -58.5t-12 -58t-33 -47.5t-50 -32.5t-63 -12q-35 0 -64 12t-50 32.5t-32.5 47.5t-11.5 58
t11.5 58.5t32.5 47.5t50 32t64 12z" />
    <glyph glyph-name="udieresiscaron" unicode="&#x1da;" horiz-adv-x="1319" 
d="M1239 0h-400v220h-8q-34 -115 -123 -178.5t-216 -63.5q-90 0 -166.5 29t-132 83.5t-87 133.5t-31.5 179v721h410v-629q0 -45 13.5 -80t36.5 -58.5t55 -35.5t70 -12q36 0 67 13.5t53.5 37.5t35.5 58.5t13 76.5v629h410v-1124zM451 1255q-32 0 -59.5 11t-47.5 30.5t-31 45
t-11 54.5t11 55t31 45t47.5 30t59.5 11t59.5 -11t47.5 -30t31 -45t11 -55t-11 -54.5t-31 -45t-47.5 -30.5t-59.5 -11zM869 1255q-32 0 -59.5 11t-47.5 30.5t-31 45t-11 54.5t11 55t31 45t47.5 30t59.5 11t59.5 -11t47.5 -30t31 -45t11 -55t-11 -54.5t-31 -45t-47.5 -30.5
t-59.5 -11zM503 1614l-255 336h284l124 -180h8l124 180h284l-255 -336h-314z" />
    <glyph glyph-name="Udieresisgrave" unicode="&#x1db;" horiz-adv-x="1472" 
d="M524 561q0 -115 54.5 -175t157.5 -60t157.5 60t54.5 175v882h424v-929q0 -123 -46 -223t-129.5 -170t-200.5 -108t-260 -38t-260 38t-200.5 108t-129.5 170t-46 223v929h424v-882zM606 1925l-238 281h322l202 -281h-286zM514 1536q-35 0 -64 12t-50 32.5t-32.5 47.5
t-11.5 58t11.5 58.5t32.5 47.5t50 32t64 12q34 0 63 -12t50 -32t33 -47.5t12 -58.5t-12 -58t-33 -47.5t-50 -32.5t-63 -12zM958 1536q-35 0 -64 12t-50 32.5t-32.5 47.5t-11.5 58t11.5 58.5t32.5 47.5t50 32t64 12q34 0 63 -12t50 -32t33 -47.5t12 -58.5t-12 -58t-33 -47.5
t-50 -32.5t-63 -12z" />
    <glyph glyph-name="udieresisgrave" unicode="&#x1dc;" horiz-adv-x="1319" 
d="M1239 0h-400v220h-8q-34 -115 -123 -178.5t-216 -63.5q-90 0 -166.5 29t-132 83.5t-87 133.5t-31.5 179v721h410v-629q0 -45 13.5 -80t36.5 -58.5t55 -35.5t70 -12q36 0 67 13.5t53.5 37.5t35.5 58.5t13 76.5v629h410v-1124zM530 1675l-244 275h343l183 -275h-282z
M438 1256q-35 0 -64 12t-50 32.5t-32.5 47.5t-11.5 58t11.5 58.5t32.5 47.5t50 32t64 12q34 0 63 -12t50 -32t33 -47.5t12 -58.5t-12 -58t-33 -47.5t-50 -32.5t-63 -12zM882 1256q-35 0 -64 12t-50 32.5t-32.5 47.5t-11.5 58t11.5 58.5t32.5 47.5t50 32t64 12q34 0 63 -12
t50 -32t33 -47.5t12 -58.5t-12 -58t-33 -47.5t-50 -32.5t-63 -12z" />
    <glyph glyph-name="Adieresismacron" unicode="&#x1de;" horiz-adv-x="1534" 
d="M977 287h-440l-75 -287h-432l471 1443h532l471 -1443h-452zM614 586h286l-139 524h-8zM545 1836q34 0 63 -12t50 -32t33 -47.5t12 -58.5t-12 -58t-33 -47.5t-50 -32.5t-63 -12q-35 0 -64 12t-50 32.5t-32.5 47.5t-11.5 58t11.5 58.5t32.5 47.5t50 32t64 12zM1141 2120
v-180h-748v180h748zM989 1836q34 0 63 -12t50 -32t33 -47.5t12 -58.5t-12 -58t-33 -47.5t-50 -32.5t-63 -12q-35 0 -64 12t-50 32.5t-32.5 47.5t-11.5 58t11.5 58.5t32.5 47.5t50 32t64 12z" />
    <glyph glyph-name="adieresismacron" unicode="&#x1df;" horiz-adv-x="1231" 
d="M569 259q36 0 68.5 10t58 28t40.5 43.5t15 57.5v74l-181 -13q-62 -5 -95 -31.5t-33 -69.5q0 -47 35 -73t92 -26zM417 -16q-77 0 -146 25t-121 70.5t-82 108.5t-30 139q0 162 119.5 249t345.5 101l248 15v57q0 58 -39 88.5t-100 30.5q-66 0 -105.5 -31t-44.5 -75h-366
q4 89 42.5 161t108 123t167.5 78.5t220 27.5q116 0 211.5 -28t163.5 -78t105 -121t37 -156v-769h-400v152h-8q-22 -41 -57.5 -72.5t-78.5 -52.5t-92 -32t-98 -11zM421 1255q-32 0 -59.5 11t-47.5 30.5t-31 45t-11 54.5t11 55t31 45t47.5 30t59.5 11t59.5 -11t47.5 -30
t31 -45t11 -55t-11 -54.5t-31 -45t-47.5 -30.5t-59.5 -11zM839 1255q-32 0 -59.5 11t-47.5 30.5t-31 45t-11 54.5t11 55t31 45t47.5 30t59.5 11t59.5 -11t47.5 -30t31 -45t11 -55t-11 -54.5t-31 -45t-47.5 -30.5t-59.5 -11zM982 1660h-704v180h704v-180z" />
    <glyph glyph-name="Adotmacron" unicode="&#x1e0;" horiz-adv-x="1534" 
d="M977 287h-440l-75 -287h-432l471 1443h532l471 -1443h-452zM614 586h286l-139 524h-8zM767 1536q-35 0 -64 12t-50 32.5t-32.5 47.5t-11.5 58t11.5 58.5t32.5 47.5t50 32t64 12q34 0 63 -12t50 -32t33 -47.5t12 -58.5t-12 -58t-33 -47.5t-50 -32.5t-63 -12zM1141 1940
h-748v180h748v-180z" />
    <glyph glyph-name="adotmacron" unicode="&#x1e1;" horiz-adv-x="1231" 
d="M569 259q36 0 68.5 10t58 28t40.5 43.5t15 57.5v74l-181 -13q-62 -5 -95 -31.5t-33 -69.5q0 -47 35 -73t92 -26zM417 -16q-77 0 -146 25t-121 70.5t-82 108.5t-30 139q0 162 119.5 249t345.5 101l248 15v57q0 58 -39 88.5t-100 30.5q-66 0 -105.5 -31t-44.5 -75h-366
q4 89 42.5 161t108 123t167.5 78.5t220 27.5q116 0 211.5 -28t163.5 -78t105 -121t37 -156v-769h-400v152h-8q-22 -41 -57.5 -72.5t-78.5 -52.5t-92 -32t-98 -11zM630 1242q-38 0 -70 13.5t-56 37t-37.5 55t-13.5 67.5t13.5 67.5t37.5 55t56 37t70 13.5q37 0 69.5 -13.5
t56.5 -37t37.5 -55t13.5 -67.5t-13.5 -67.5t-37.5 -55t-56.5 -37t-69.5 -13.5zM982 1670h-704v180h704v-180z" />
    <glyph glyph-name="AEmacron" unicode="&#x1e2;" horiz-adv-x="2104" 
d="M670 586h300v543h-112zM970 286h-403l-99 -286h-418l540 1443h1395v-336h-643v-234h606v-304h-606v-233h643v-336h-1015v286zM1871 1606h-748v180h748v-180z" />
    <glyph glyph-name="aemacron" unicode="&#x1e3;" horiz-adv-x="1918" 
d="M1311 -28q-71 0 -135.5 13.5t-119 38.5t-96.5 60t-69 78h-8q-51 -82 -152 -130t-252 -48q-98 0 -179.5 25.5t-139.5 71t-90 108.5t-32 138q0 159 117.5 247.5t347.5 102.5l248 15v57q0 55 -37.5 87t-101.5 32q-61 0 -102.5 -29t-47.5 -77h-366q4 90 42.5 162t105.5 123
t158.5 78t201.5 27q65 0 119 -9.5t97.5 -26t77.5 -39t59 -48.5h8q56 57 143 90t196 33q127 0 231.5 -40.5t178 -114.5t114 -178.5t40.5 -232.5v-111h-747v-26q0 -43 14.5 -78.5t40.5 -61.5t62 -40.5t79 -14.5q66 0 113.5 29t66.5 80h366q-13 -90 -58 -162.5t-116.5 -123.5
t-167 -78t-210.5 -27zM1306 869q-36 0 -67.5 -12.5t-55.5 -35.5t-38.5 -54.5t-17.5 -68.5h358q-3 39 -17 70.5t-37.5 54t-55 34.5t-69.5 12zM569 259q39 0 72 10.5t57.5 29.5t38.5 44t14 55v74l-181 -13q-61 -5 -94.5 -31t-33.5 -70q0 -46 34 -72.5t93 -26.5zM1300 1276
h-704v180h704v-180z" />
    <glyph glyph-name="Gcaron" unicode="&#x1e6;" horiz-adv-x="1530" 
d="M1462 614q0 -148 -45.5 -266.5t-131.5 -201t-210 -127t-281 -44.5q-172 0 -307.5 49.5t-229 145t-143 234.5t-49.5 319q0 177 49.5 316t142 234t225 145t299.5 50q136 0 252 -38t203.5 -105.5t142 -161t66.5 -204.5h-417q-11 40 -33 72t-54 55t-72 35.5t-86 12.5
q-68 0 -121 -27t-89.5 -79t-56 -127.5t-19.5 -171.5q0 -99 22 -177t62 -132t96.5 -82.5t126.5 -28.5q52 0 95.5 14t76 39t52 60.5t24.5 79.5l2 20h-220v282h628v-190zM344 1872h276l132 -192h8l132 192h276l-255 -336h-314z" />
    <glyph glyph-name="gcaron" unicode="&#x1e7;" horiz-adv-x="1325" 
d="M653 311q88 0 136 63t48 187q0 123 -48.5 192.5t-135.5 69.5q-86 0 -134.5 -69.5t-48.5 -191.5q0 -124 48 -187.5t135 -63.5zM645 -421q-126 0 -229.5 24.5t-178 70.5t-116.5 111.5t-44 146.5h394q4 -21 20 -37.5t40 -28.5t54.5 -18.5t63.5 -6.5q41 0 75.5 10t59 29
t38 47t13.5 63v224h-8q-14 -44 -45 -81t-75 -63.5t-99 -41t-118 -14.5q-99 0 -180 36.5t-138.5 107t-89.5 173t-32 234.5q0 135 30.5 242t87.5 181t140 113t188 39q61 0 114.5 -16.5t96 -45.5t73 -69t47.5 -87h8v202h410v-1104q0 -100 -43.5 -181.5t-122 -139t-189 -89
t-245.5 -31.5zM506 1256l-255 336h284l124 -180h8l124 180h284l-255 -336h-314z" />
    <glyph glyph-name="Kcaron" unicode="&#x1e8;" horiz-adv-x="1445" 
d="M100 0v1443h424v-612h8l446 612h445l-475 -641l497 -802h-493l-315 530l-113 -152v-378h-424zM311 1872h276l132 -192h8l132 192h276l-255 -336h-314z" />
    <glyph glyph-name="kcaron" unicode="&#x1e9;" horiz-adv-x="1226" 
d="M783 1124h452l-378 -480l404 -644h-471l-238 399l-57 -74v-325h-410v1518h410v-803h8zM-124 1947h276l132 -192h8l132 192h276l-255 -336h-314z" />
    <glyph glyph-name="Oogonek" unicode="&#x1ea;" horiz-adv-x="1584" 
d="M1131 -456q-60 -23 -154 -23q-62 0 -111.5 14.5t-84 41.5t-53.5 65.5t-19 86.5q0 152 141 246h-58q-168 0 -302.5 52t-229 148.5t-145 234.5t-50.5 311q0 172 50.5 310.5t145 235.5t229 149t302.5 52t302.5 -52t229 -149t145 -235.5t50.5 -310.5q0 -131 -24.5 -230
t-65 -173.5t-91.5 -128.5t-105 -95t-105.5 -73.5t-92 -63.5t-65 -65t-24.5 -78q0 -42 30.5 -67.5t82.5 -25.5q19 0 36 1.5t36 6.5v-185zM792 1130q-67 0 -121.5 -29t-93 -82.5t-59.5 -129t-21 -168.5t21 -168.5t59.5 -128.5t93 -82t121.5 -29t121.5 29t93 82t59.5 128.5
t21 168.5t-21 168.5t-59.5 129t-93 82.5t-121.5 29z" />
    <glyph glyph-name="oogonek" unicode="&#x1eb;" horiz-adv-x="1278" 
d="M823 -479q-59 0 -107.5 17t-83.5 47t-54.5 72t-19.5 92q0 70 35.5 124t111.5 100q-2 0 -5 -0.5t-9.5 -0.5h-18.5h-33q-139 0 -248.5 40t-185 115.5t-115.5 185.5t-40 250q0 136 41 245.5t117 185.5t185 117t246 41t246.5 -40.5t185.5 -116.5t116.5 -185.5t40.5 -246.5
q0 -77 -13 -144.5t-41 -127t-70.5 -113t-101.5 -102.5q-65 -54 -105 -91.5t-63 -66t-31 -53t-8 -51.5q0 -42 30.5 -67.5t82.5 -25.5q19 0 36 1.5t36 6.5v-185q-60 -23 -157 -23zM639 266q82 0 127.5 77.5t45.5 218.5q0 69 -12 124t-34.5 93t-54.5 58.5t-72 20.5t-72 -20.5
t-54.5 -58.5t-34.5 -93t-12 -124q0 -142 45 -219t128 -77z" />
    <glyph glyph-name="Oogonekmacron" unicode="&#x1ec;" horiz-adv-x="1584" 
d="M1166 1606h-748v180h748v-180zM1131 -456q-60 -23 -154 -23q-62 0 -111.5 14.5t-84 41.5t-53.5 65.5t-19 86.5q0 152 141 246h-58q-168 0 -302.5 52t-229 148.5t-145 234.5t-50.5 311q0 172 50.5 310.5t145 235.5t229 149t302.5 52t302.5 -52t229 -149t145 -235.5
t50.5 -310.5q0 -131 -24.5 -230t-65 -173.5t-91.5 -128.5t-105 -95t-105.5 -73.5t-92 -63.5t-65 -65t-24.5 -78q0 -42 30.5 -67.5t82.5 -25.5q19 0 36 1.5t36 6.5v-185zM792 1130q-67 0 -121.5 -29t-93 -82.5t-59.5 -129t-21 -168.5t21 -168.5t59.5 -128.5t93 -82t121.5 -29
t121.5 29t93 82t59.5 128.5t21 168.5t-21 168.5t-59.5 129t-93 82.5t-121.5 29z" />
    <glyph glyph-name="oogonekmacron" unicode="&#x1ed;" horiz-adv-x="1278" 
d="M991 1276h-704v180h704v-180zM823 -479q-59 0 -107.5 17t-83.5 47t-54.5 72t-19.5 92q0 70 35.5 124t111.5 100q-2 0 -5 -0.5t-9.5 -0.5h-18.5h-33q-139 0 -248.5 40t-185 115.5t-115.5 185.5t-40 250q0 136 41 245.5t117 185.5t185 117t246 41t246.5 -40.5t185.5 -116.5
t116.5 -185.5t40.5 -246.5q0 -77 -13 -144.5t-41 -127t-70.5 -113t-101.5 -102.5q-65 -54 -105 -91.5t-63 -66t-31 -53t-8 -51.5q0 -42 30.5 -67.5t82.5 -25.5q19 0 36 1.5t36 6.5v-185q-60 -23 -157 -23zM639 266q82 0 127.5 77.5t45.5 218.5q0 69 -12 124t-34.5 93
t-54.5 58.5t-72 20.5t-72 -20.5t-54.5 -58.5t-34.5 -93t-12 -124q0 -142 45 -219t128 -77z" />
    <glyph glyph-name="u01F1" unicode="&#x1f1;" horiz-adv-x="2798" 
d="M717 1443q164 0 293 -46t218.5 -136t136.5 -223t47 -306t-47 -309t-136.5 -230t-218.5 -143.5t-293 -49.5h-617v1443h617zM524 337h133q159 0 241 97.5t82 297.5q0 183 -85 278.5t-238 95.5h-133v-769zM1557 266l643 832v8h-637v337h1131v-265l-641 -833v-8h665v-337
h-1161v266z" />
    <glyph glyph-name="u01F2" unicode="&#x1f2;" horiz-adv-x="2605" 
d="M717 1443q164 0 293 -46t218.5 -136t136.5 -223t47 -306t-47 -309t-136.5 -230t-218.5 -143.5t-293 -49.5h-617v1443h617zM524 337h133q159 0 241 97.5t82 297.5q0 183 -85 278.5t-238 95.5h-133v-769zM1537 209l506 603v8h-490v304h970v-244l-446 -568v-8h468v-304
h-1008v209z" />
    <glyph glyph-name="u01F3" unicode="&#x1f3;" horiz-adv-x="2453" 
d="M490 -16q-104 0 -185.5 39.5t-138 114t-86.5 182.5t-30 245q0 135 30.5 242t87.5 181t140 113t188 39q61 0 114.5 -16.5t96 -45.5t73 -69t47.5 -87h8v596h410v-1518h-410v194h-8q-14 -44 -45 -82.5t-75 -67t-99 -44.5t-118 -16zM653 823q-86 0 -134.5 -69.5t-48.5 -191.5
q0 -124 48 -192.5t135 -68.5q88 0 136 68t48 192q0 123 -48.5 192.5t-135.5 69.5zM1385 209l506 603v8h-490v304h970v-244l-446 -568v-8h468v-304h-1008v209z" />
    <glyph glyph-name="Gacute" unicode="&#x1f4;" horiz-adv-x="1530" 
d="M1462 614q0 -148 -45.5 -266.5t-131.5 -201t-210 -127t-281 -44.5q-172 0 -307.5 49.5t-229 145t-143 234.5t-49.5 319q0 177 49.5 316t142 234t225 145t299.5 50q136 0 252 -38t203.5 -105.5t142 -161t66.5 -204.5h-417q-11 40 -33 72t-54 55t-72 35.5t-86 12.5
q-68 0 -121 -27t-89.5 -79t-56 -127.5t-19.5 -171.5q0 -99 22 -177t62 -132t96.5 -82.5t126.5 -28.5q52 0 95.5 14t76 39t52 60.5t24.5 79.5l2 20h-220v282h628v-190zM590 1555l232 321h348l-274 -321h-306z" />
    <glyph glyph-name="gacute" unicode="&#x1f5;" horiz-adv-x="1325" 
d="M653 311q88 0 136 63t48 187q0 123 -48.5 192.5t-135.5 69.5q-86 0 -134.5 -69.5t-48.5 -191.5q0 -124 48 -187.5t135 -63.5zM645 -421q-126 0 -229.5 24.5t-178 70.5t-116.5 111.5t-44 146.5h394q4 -21 20 -37.5t40 -28.5t54.5 -18.5t63.5 -6.5q41 0 75.5 10t59 29
t38 47t13.5 63v224h-8q-14 -44 -45 -81t-75 -63.5t-99 -41t-118 -14.5q-99 0 -180 36.5t-138.5 107t-89.5 173t-32 234.5q0 135 30.5 242t87.5 181t140 113t188 39q61 0 114.5 -16.5t96 -45.5t73 -69t47.5 -87h8v202h410v-1104q0 -100 -43.5 -181.5t-122 -139t-189 -89
t-245.5 -31.5zM498 1275l232 321h347l-265 -321h-314z" />
    <glyph glyph-name="Ngrave" unicode="&#x1f8;" horiz-adv-x="1494" 
d="M100 0v1443h329l557 -748h8v748h400v-1443h-325l-561 760h-8v-760h-400zM327 1885h348l232 -321h-306z" />
    <glyph glyph-name="ngrave" unicode="&#x1f9;" horiz-adv-x="1319" 
d="M80 1124h400v-220h8q43 118 134.5 180t220.5 62q94 0 168.5 -28.5t126.5 -83.5t79 -134t27 -180v-720h-410v629q0 87 -45 136.5t-126 49.5q-38 0 -70 -14t-55 -38.5t-35.5 -59t-12.5 -74.5v-629h-410v1124zM520 1275l-265 321h347l232 -321h-314z" />
    <glyph glyph-name="Aringacute" unicode="&#x1fa;" horiz-adv-x="1534" 
d="M977 287h-440l-75 -287h-432l471 1443h532l471 -1443h-452zM614 586h286l-139 524h-8zM767 1518q-47 0 -86 15.5t-67.5 42.5t-44.5 64.5t-16 82.5t16 82.5t44.5 64.5t67.5 42.5t86 15.5q46 0 85.5 -15t67.5 -42.5t44 -65t16 -82.5t-16 -82.5t-44 -65t-67.5 -42.5
t-85.5 -15zM767 1653q30 0 50 20t20 50t-20 49.5t-50 19.5q-31 0 -51 -19.5t-20 -49.5t20 -50t51 -20zM1068 2201l-162 -202h-276l115 202h323z" />
    <glyph glyph-name="aringacute" unicode="&#x1fb;" horiz-adv-x="1231" 
d="M569 259q36 0 68.5 10t58 28t40.5 43.5t15 57.5v74l-181 -13q-62 -5 -95 -31.5t-33 -69.5q0 -47 35 -73t92 -26zM417 -16q-77 0 -146 25t-121 70.5t-82 108.5t-30 139q0 162 119.5 249t345.5 101l248 15v57q0 58 -39 88.5t-100 30.5q-66 0 -105.5 -31t-44.5 -75h-366
q4 89 42.5 161t108 123t167.5 78.5t220 27.5q116 0 211.5 -28t163.5 -78t105 -121t37 -156v-769h-400v152h-8q-22 -41 -57.5 -72.5t-78.5 -52.5t-92 -32t-98 -11zM633 1236q-52 0 -95.5 17t-75 47t-49 71.5t-17.5 91.5t17.5 92t49 72t75 47t95.5 17t95.5 -17t75 -47t49 -72
t17.5 -92t-17.5 -91.5t-49 -71.5t-75 -47t-95.5 -17zM555 1463q0 -34 22 -55.5t56 -21.5t56 21.5t22 55.5q0 35 -22 56.5t-56 21.5t-56 -21.5t-22 -56.5zM658 2001h314l-190 -230h-268z" />
    <glyph glyph-name="AEacute" unicode="&#x1fc;" horiz-adv-x="2104" 
d="M670 586h300v543h-112zM970 286h-403l-99 -286h-418l540 1443h1395v-336h-643v-234h606v-304h-606v-233h643v-336h-1015v286zM1331 1555l232 321h348l-274 -321h-306z" />
    <glyph glyph-name="aeacute" unicode="&#x1fd;" horiz-adv-x="1918" 
d="M1311 -28q-71 0 -135.5 13.5t-119 38.5t-96.5 60t-69 78h-8q-51 -82 -152 -130t-252 -48q-98 0 -179.5 25.5t-139.5 71t-90 108.5t-32 138q0 159 117.5 247.5t347.5 102.5l248 15v57q0 55 -37.5 87t-101.5 32q-61 0 -102.5 -29t-47.5 -77h-366q4 90 42.5 162t105.5 123
t158.5 78t201.5 27q65 0 119 -9.5t97.5 -26t77.5 -39t59 -48.5h8q56 57 143 90t196 33q127 0 231.5 -40.5t178 -114.5t114 -178.5t40.5 -232.5v-111h-747v-26q0 -43 14.5 -78.5t40.5 -61.5t62 -40.5t79 -14.5q66 0 113.5 29t66.5 80h366q-13 -90 -58 -162.5t-116.5 -123.5
t-167 -78t-210.5 -27zM1306 869q-36 0 -67.5 -12.5t-55.5 -35.5t-38.5 -54.5t-17.5 -68.5h358q-3 39 -17 70.5t-37.5 54t-55 34.5t-69.5 12zM569 259q39 0 72 10.5t57.5 29.5t38.5 44t14 55v74l-181 -13q-61 -5 -94.5 -31t-33.5 -70q0 -46 34 -72.5t93 -26.5zM783 1275
l232 321h347l-265 -321h-314z" />
    <glyph glyph-name="Oslashacute" unicode="&#x1fe;" horiz-adv-x="1584" 
d="M957 1555h-306l232 321h348zM672 341q56 -28 120 -28q67 0 121.5 28.5t93 82t59.5 129t21 168.5q0 76 -14 139.5t-40 113.5zM949 1078q-67 52 -157 52q-66 0 -120.5 -29t-93.5 -82t-60 -128.5t-21 -169.5q0 -95 21.5 -170t60.5 -129zM1241 1338q134 -96 206 -252t72 -365
q0 -173 -51 -311t-145.5 -235t-229 -148.5t-301.5 -51.5t-299 51l-64 -112l-103 58l59 105q-153 92 -236.5 255.5t-83.5 388.5q0 173 51 311.5t145.5 235t229 148.5t301.5 52q190 0 338 -67l69 122l118 -51z" />
    <glyph glyph-name="oslashacute" unicode="&#x1ff;" horiz-adv-x="1278" 
d="M813 1275h-314l232 321h347zM561 289q35 -23 78 -23q81 0 127 76t46 220q0 73 -14 132zM731 822q-38 36 -92 36q-80 0 -126.5 -78t-46.5 -218q0 -96 21 -162zM1006 1049q106 -74 164 -196.5t58 -289.5q0 -143 -40.5 -253t-116.5 -185t-185.5 -114t-246.5 -39
q-132 0 -241 37l-65 -111l-103 58l60 104q-115 72 -177.5 198.5t-62.5 304.5q0 138 41.5 247.5t118.5 185.5t185.5 116t243.5 40q144 0 257 -45l64 110l112 -54z" />
    <glyph glyph-name="Adblgrave" unicode="&#x200;" horiz-adv-x="1534" 
d="M977 287h-440l-75 -287h-432l471 1443h532l471 -1443h-452zM614 586h286l-139 524h-8zM587 1876h348l232 -321h-306zM107 1876h348l232 -321h-306z" />
    <glyph glyph-name="adblgrave" unicode="&#x201;" horiz-adv-x="1231" 
d="M569 259q36 0 68.5 10t58 28t40.5 43.5t15 57.5v74l-181 -13q-62 -5 -95 -31.5t-33 -69.5q0 -47 35 -73t92 -26zM417 -16q-77 0 -146 25t-121 70.5t-82 108.5t-30 139q0 162 119.5 249t345.5 101l248 15v57q0 58 -39 88.5t-100 30.5q-66 0 -105.5 -31t-44.5 -75h-366
q4 89 42.5 161t108 123t167.5 78.5t220 27.5q116 0 211.5 -28t163.5 -78t105 -121t37 -156v-769h-400v152h-8q-22 -41 -57.5 -72.5t-78.5 -52.5t-92 -32t-98 -11zM290 1276l-211 320h309l182 -320h-280zM715 1276l-211 320h308l183 -320h-280z" />
    <glyph glyph-name="Ainvertedbreve" unicode="&#x202;" horiz-adv-x="1534" 
d="M977 287h-440l-75 -287h-432l471 1443h532l471 -1443h-452zM614 586h286l-139 524h-8zM372 1536q2 67 28.5 128t76.5 106.5t122.5 72.5t167.5 27q94 0 167 -27t123 -72.5t76.5 -106.5t28.5 -128h-236q-3 65 -43.5 106.5t-115.5 41.5t-115.5 -41.5t-43.5 -106.5h-236z" />
    <glyph glyph-name="ainvertedbreve" unicode="&#x203;" horiz-adv-x="1231" 
d="M569 259q36 0 68.5 10t58 28t40.5 43.5t15 57.5v74l-181 -13q-62 -5 -95 -31.5t-33 -69.5q0 -47 35 -73t92 -26zM417 -16q-77 0 -146 25t-121 70.5t-82 108.5t-30 139q0 162 119.5 249t345.5 101l248 15v57q0 58 -39 88.5t-100 30.5q-66 0 -105.5 -31t-44.5 -75h-366
q4 89 42.5 161t108 123t167.5 78.5t220 27.5q116 0 211.5 -28t163.5 -78t105 -121t37 -156v-769h-400v152h-8q-22 -41 -57.5 -72.5t-78.5 -52.5t-92 -32t-98 -11zM235 1256q2 67 28.5 128t76.5 106.5t122.5 72.5t167.5 27q94 0 167 -27t123 -72.5t76.5 -106.5t28.5 -128
h-236q-3 65 -43.5 106.5t-115.5 41.5t-115.5 -41.5t-43.5 -106.5h-236z" />
    <glyph glyph-name="Edblgrave" unicode="&#x204;" horiz-adv-x="1216" 
d="M1118 0h-1018v1443h1018v-337h-594v-233h557v-304h-557v-232h594v-337zM428 1876h348l232 -321h-306zM-52 1876h348l232 -321h-306z" />
    <glyph glyph-name="edblgrave" unicode="&#x205;" horiz-adv-x="1243" 
d="M631 869q-36 0 -67.5 -12.5t-55.5 -35.5t-38.5 -54.5t-17.5 -68.5h358q-3 39 -17 70.5t-37.5 54t-55 34.5t-69.5 12zM1188 363q-13 -90 -58 -162.5t-116.5 -123.5t-167 -78t-210.5 -27q-138 0 -246.5 40t-184 115t-115.5 183.5t-40 245.5q0 138 40 248t114.5 187.5
t180.5 119t238 41.5q130 0 235 -40t179.5 -114t115 -178.5t40.5 -233.5v-111h-747v-26q0 -43 14.5 -78.5t40.5 -61.5t62 -40.5t79 -14.5q65 0 113 29t67 80h366zM282 1276l-211 320h309l182 -320h-280zM707 1276l-211 320h308l183 -320h-280z" />
    <glyph glyph-name="Einvertedbreve" unicode="&#x206;" horiz-adv-x="1216" 
d="M1118 0h-1018v1443h1018v-337h-594v-233h557v-304h-557v-232h594v-337zM213 1536q2 67 28.5 128t76.5 106.5t122.5 72.5t167.5 27q94 0 167 -27t123 -72.5t76.5 -106.5t28.5 -128h-236q-3 65 -43.5 106.5t-115.5 41.5t-115.5 -41.5t-43.5 -106.5h-236z" />
    <glyph glyph-name="einvertedbreve" unicode="&#x207;" horiz-adv-x="1243" 
d="M631 869q-36 0 -67.5 -12.5t-55.5 -35.5t-38.5 -54.5t-17.5 -68.5h358q-3 39 -17 70.5t-37.5 54t-55 34.5t-69.5 12zM1188 363q-13 -90 -58 -162.5t-116.5 -123.5t-167 -78t-210.5 -27q-138 0 -246.5 40t-184 115t-115.5 183.5t-40 245.5q0 138 40 248t114.5 187.5
t180.5 119t238 41.5q130 0 235 -40t179.5 -114t115 -178.5t40.5 -233.5v-111h-747v-26q0 -43 14.5 -78.5t40.5 -61.5t62 -40.5t79 -14.5q65 0 113 29t67 80h366zM227 1256q2 67 28.5 128t76.5 106.5t122.5 72.5t167.5 27q94 0 167 -27t123 -72.5t76.5 -106.5t28.5 -128h-236
q-3 65 -43.5 106.5t-115.5 41.5t-115.5 -41.5t-43.5 -106.5h-236z" />
    <glyph glyph-name="Idblgrave" unicode="&#x208;" horiz-adv-x="624" 
d="M100 0v1443h424v-1443h-424zM132 1876h348l232 -321h-306zM-348 1876h348l232 -321h-306z" />
    <glyph glyph-name="idblgrave" unicode="&#x209;" horiz-adv-x="570" 
d="M80 1124h410v-1124h-410v1124zM-55 1276l-211 320h309l182 -320h-280zM370 1276l-211 320h308l183 -320h-280z" />
    <glyph glyph-name="Iinvertedbreve" unicode="&#x20a;" horiz-adv-x="624" 
d="M100 0v1443h424v-1443h-424zM-83 1536q2 67 28.5 128t76.5 106.5t122.5 72.5t167.5 27q94 0 167 -27t123 -72.5t76.5 -106.5t28.5 -128h-236q-3 65 -43.5 106.5t-115.5 41.5t-115.5 -41.5t-43.5 -106.5h-236z" />
    <glyph glyph-name="iinvertedbreve" unicode="&#x20b;" horiz-adv-x="570" 
d="M80 1124h410v-1124h-410v1124zM-110 1256q2 67 28.5 128t76.5 106.5t122.5 72.5t167.5 27q94 0 167 -27t123 -72.5t76.5 -106.5t28.5 -128h-236q-3 65 -43.5 106.5t-115.5 41.5t-115.5 -41.5t-43.5 -106.5h-236z" />
    <glyph glyph-name="Odblgrave" unicode="&#x20c;" horiz-adv-x="1584" 
d="M792 1468q167 0 301.5 -52t229 -148.5t145.5 -235t51 -311.5t-51 -311t-145.5 -235t-229 -148.5t-301.5 -51.5q-168 0 -302.5 51.5t-229 148.5t-145 235t-50.5 311t51 311.5t145.5 235t229 148.5t301.5 52zM792 1130q-66 0 -120.5 -29t-93.5 -82t-60 -128.5t-21 -169.5
q0 -93 21 -168.5t59.5 -129t93 -82t121.5 -28.5t121.5 28.5t93 82t59.5 129t21 168.5q0 94 -21 169.5t-60 128.5t-93.5 82t-120.5 29zM612 1876h348l232 -321h-306zM132 1876h348l232 -321h-306z" />
    <glyph glyph-name="odblgrave" unicode="&#x20d;" horiz-adv-x="1278" 
d="M639 -28q-137 0 -246 39t-185.5 114.5t-117 185.5t-40.5 252q0 138 41.5 247.5t118.5 185.5t185.5 116t243.5 40t244 -40t185.5 -115.5t118 -185t41.5 -248.5q0 -143 -40.5 -253t-116.5 -185t-185.5 -114t-246.5 -39zM639 266q81 0 127 76t46 220q0 140 -46.5 218
t-126.5 78t-126.5 -78t-46.5 -218q0 -144 46 -220t127 -76zM299 1276l-211 320h309l182 -320h-280zM724 1276l-211 320h308l183 -320h-280z" />
    <glyph glyph-name="Oinvertedbreve" unicode="&#x20e;" horiz-adv-x="1584" 
d="M792 1468q167 0 301.5 -52t229 -148.5t145.5 -235t51 -311.5t-51 -311t-145.5 -235t-229 -148.5t-301.5 -51.5q-168 0 -302.5 51.5t-229 148.5t-145 235t-50.5 311t51 311.5t145.5 235t229 148.5t301.5 52zM792 1130q-66 0 -120.5 -29t-93.5 -82t-60 -128.5t-21 -169.5
q0 -93 21 -168.5t59.5 -129t93 -82t121.5 -28.5t121.5 28.5t93 82t59.5 129t21 168.5q0 94 -21 169.5t-60 128.5t-93.5 82t-120.5 29zM397 1536q2 67 28.5 128t76.5 106.5t122.5 72.5t167.5 27q94 0 167 -27t123 -72.5t76.5 -106.5t28.5 -128h-236q-3 65 -43.5 106.5
t-115.5 41.5t-115.5 -41.5t-43.5 -106.5h-236z" />
    <glyph glyph-name="oinvertedbreve" unicode="&#x20f;" horiz-adv-x="1278" 
d="M639 -28q-137 0 -246 39t-185.5 114.5t-117 185.5t-40.5 252q0 138 41.5 247.5t118.5 185.5t185.5 116t243.5 40t244 -40t185.5 -115.5t118 -185t41.5 -248.5q0 -143 -40.5 -253t-116.5 -185t-185.5 -114t-246.5 -39zM639 266q81 0 127 76t46 220q0 140 -46.5 218
t-126.5 78t-126.5 -78t-46.5 -218q0 -144 46 -220t127 -76zM244 1256q2 67 28.5 128t76.5 106.5t122.5 72.5t167.5 27q94 0 167 -27t123 -72.5t76.5 -106.5t28.5 -128h-236q-3 65 -43.5 106.5t-115.5 41.5t-115.5 -41.5t-43.5 -106.5h-236z" />
    <glyph glyph-name="Rdblgrave" unicode="&#x210;" horiz-adv-x="1395" 
d="M524 764h175q45 0 80.5 13t60 37t38 57.5t13.5 74.5q0 40 -14 74t-39 58.5t-60 38t-78 13.5h-176v-366zM524 0h-424v1443h641q144 0 253.5 -33t182.5 -96t110 -154t37 -207q0 -64 -15 -125t-44.5 -114.5t-73 -96.5t-100.5 -70l274 -547h-474l-228 484h-139v-484z
M518 1876h348l232 -321h-306zM38 1876h348l232 -321h-306z" />
    <glyph glyph-name="rdblgrave" unicode="&#x211;" horiz-adv-x="868" 
d="M80 1124h400v-220h8q62 236 263 236q54 0 97 -16v-345q-54 23 -121 23q-118 0 -177.5 -60t-59.5 -178v-564h-410v1124zM100 1276l-211 320h309l182 -320h-280zM525 1276l-211 320h308l183 -320h-280z" />
    <glyph glyph-name="Rinvertedbreve" unicode="&#x212;" horiz-adv-x="1395" 
d="M524 764h175q45 0 80.5 13t60 37t38 57.5t13.5 74.5q0 40 -14 74t-39 58.5t-60 38t-78 13.5h-176v-366zM524 0h-424v1443h641q144 0 253.5 -33t182.5 -96t110 -154t37 -207q0 -64 -15 -125t-44.5 -114.5t-73 -96.5t-100.5 -70l274 -547h-474l-228 484h-139v-484z
M303 1536q2 67 28.5 128t76.5 106.5t122.5 72.5t167.5 27q94 0 167 -27t123 -72.5t76.5 -106.5t28.5 -128h-236q-3 65 -43.5 106.5t-115.5 41.5t-115.5 -41.5t-43.5 -106.5h-236z" />
    <glyph glyph-name="rinvertedbreve" unicode="&#x213;" horiz-adv-x="868" 
d="M80 1124h400v-220h8q62 236 263 236q54 0 97 -16v-345q-54 23 -121 23q-118 0 -177.5 -60t-59.5 -178v-564h-410v1124zM45 1256q2 67 28.5 128t76.5 106.5t122.5 72.5t167.5 27q94 0 167 -27t123 -72.5t76.5 -106.5t28.5 -128h-236q-3 65 -43.5 106.5t-115.5 41.5
t-115.5 -41.5t-43.5 -106.5h-236z" />
    <glyph glyph-name="Udblgrave" unicode="&#x214;" horiz-adv-x="1472" 
d="M524 561q0 -115 54.5 -175t157.5 -60t157.5 60t54.5 175v882h424v-929q0 -123 -46 -223t-129.5 -170t-200.5 -108t-260 -38t-260 38t-200.5 108t-129.5 170t-46 223v929h424v-882zM556 1876h348l232 -321h-306zM76 1876h348l232 -321h-306z" />
    <glyph glyph-name="udblgrave" unicode="&#x215;" horiz-adv-x="1319" 
d="M1239 0h-400v220h-8q-34 -115 -123 -178.5t-216 -63.5q-90 0 -166.5 29t-132 83.5t-87 133.5t-31.5 179v721h410v-629q0 -45 13.5 -80t36.5 -58.5t55 -35.5t70 -12q36 0 67 13.5t53.5 37.5t35.5 58.5t13 76.5v629h410v-1124zM320 1276l-211 320h309l182 -320h-280z
M745 1276l-211 320h308l183 -320h-280z" />
    <glyph glyph-name="Uinvertedbreve" unicode="&#x216;" horiz-adv-x="1472" 
d="M524 561q0 -115 54.5 -175t157.5 -60t157.5 60t54.5 175v882h424v-929q0 -123 -46 -223t-129.5 -170t-200.5 -108t-260 -38t-260 38t-200.5 108t-129.5 170t-46 223v929h424v-882zM341 1536q2 67 28.5 128t76.5 106.5t122.5 72.5t167.5 27q94 0 167 -27t123 -72.5
t76.5 -106.5t28.5 -128h-236q-3 65 -43.5 106.5t-115.5 41.5t-115.5 -41.5t-43.5 -106.5h-236z" />
    <glyph glyph-name="uinvertedbreve" unicode="&#x217;" horiz-adv-x="1319" 
d="M1239 0h-400v220h-8q-34 -115 -123 -178.5t-216 -63.5q-90 0 -166.5 29t-132 83.5t-87 133.5t-31.5 179v721h410v-629q0 -45 13.5 -80t36.5 -58.5t55 -35.5t70 -12q36 0 67 13.5t53.5 37.5t35.5 58.5t13 76.5v629h410v-1124zM265 1256q2 67 28.5 128t76.5 106.5
t122.5 72.5t167.5 27q94 0 167 -27t123 -72.5t76.5 -106.5t28.5 -128h-236q-3 65 -43.5 106.5t-115.5 41.5t-115.5 -41.5t-43.5 -106.5h-236z" />
    <glyph glyph-name="Scommaaccent" unicode="&#x218;" horiz-adv-x="1370" 
d="M461 425q4 -31 24 -56t50.5 -43t69.5 -27.5t82 -9.5q96 0 150.5 34t54.5 87q0 25 -10.5 43.5t-35 33t-64.5 25.5t-98 22l-191 34q-200 35 -304.5 144t-104.5 280q0 109 44.5 197.5t123.5 150t188 95t238 33.5q144 0 255.5 -32t188 -91t116.5 -143.5t41 -189.5h-387
q-1 34 -17.5 60.5t-44 45t-64.5 28t-80 9.5q-84 0 -132.5 -32t-48.5 -86q0 -52 46.5 -81.5t149.5 -47.5l198 -34q210 -37 310.5 -139t100.5 -277q0 -111 -44.5 -200t-127 -152t-199 -97t-260.5 -34q-145 0 -260 30t-194.5 87t-122 141t-42.5 192h401zM348 -457l152 321h359
l-203 -321h-308z" />
    <glyph glyph-name="scommaaccent" unicode="&#x219;" horiz-adv-x="1172" 
d="M60 776q0 87 36 157t103.5 118.5t164.5 74.5t219 26t218.5 -26.5t164 -77t103 -123t35.5 -163.5h-372q-1 56 -42 88.5t-110 32.5q-58 0 -92.5 -22t-34.5 -58q0 -55 111 -76l251 -50q167 -33 244.5 -107.5t77.5 -202.5q0 -91 -39 -164t-110.5 -124.5t-172 -79
t-223.5 -27.5q-131 0 -232 27.5t-171.5 78.5t-109.5 123.5t-44 161.5h396q7 -57 50.5 -89.5t115.5 -32.5q63 0 98.5 20.5t35.5 56.5q0 28 -24.5 45t-83.5 28l-216 43q-171 34 -259 121t-88 221zM249 -457l152 321h359l-203 -321h-308z" />
    <glyph glyph-name="Tcommaaccent" unicode="&#x21a;" horiz-adv-x="1274" 
d="M425 0v1106h-380v337h1184v-337h-380v-1106h-424zM300 -457l152 321h359l-203 -321h-308z" />
    <glyph glyph-name="tcommaaccent" unicode="&#x21b;" horiz-adv-x="847" 
d="M589 1371v-247h198v-298h-198v-423q0 -108 127 -108q23 0 38 1t33 4v-285q-29 -6 -70 -10.5t-100 -4.5q-118 0 -201 17.5t-135.5 55.5t-77 97.5t-24.5 142.5v513h-149v298h149v247h410zM144 -457l152 321h359l-203 -321h-308z" />
    <glyph glyph-name="Hcaron" unicode="&#x21e;" horiz-adv-x="1556" 
d="M1032 0v558h-508v-558h-424v1443h424v-548h508v548h424v-1443h-424zM366 1872h276l132 -192h8l132 192h276l-255 -336h-314z" />
    <glyph glyph-name="hcaron" unicode="&#x21f;" horiz-adv-x="1328" 
d="M85 1518h400v-614h8q43 118 137.5 180t223.5 62q94 0 168.5 -28.5t125.5 -83.5t78 -134t27 -180v-720h-410v629q0 87 -46 136.5t-127 49.5q-38 0 -70.5 -14t-55.5 -38.5t-36 -59t-13 -74.5v-629h-410v1518zM-124 1947h276l132 -192h8l132 192h276l-255 -336h-314z" />
    <glyph glyph-name="Adotaccent" unicode="&#x226;" horiz-adv-x="1534" 
d="M977 287h-440l-75 -287h-432l471 1443h532l471 -1443h-452zM614 586h286l-139 524h-8zM767 1536q-38 0 -70 14t-56 38t-37.5 56.5t-13.5 68.5t13.5 68t37.5 56t56 38t70 14q37 0 69.5 -14t56.5 -38t37.5 -56t13.5 -68t-13.5 -68.5t-37.5 -56.5t-56.5 -38t-69.5 -14z" />
    <glyph glyph-name="adotaccent" unicode="&#x227;" horiz-adv-x="1231" 
d="M569 259q36 0 68.5 10t58 28t40.5 43.5t15 57.5v74l-181 -13q-62 -5 -95 -31.5t-33 -69.5q0 -47 35 -73t92 -26zM417 -16q-77 0 -146 25t-121 70.5t-82 108.5t-30 139q0 162 119.5 249t345.5 101l248 15v57q0 58 -39 88.5t-100 30.5q-66 0 -105.5 -31t-44.5 -75h-366
q4 89 42.5 161t108 123t167.5 78.5t220 27.5q116 0 211.5 -28t163.5 -78t105 -121t37 -156v-769h-400v152h-8q-22 -41 -57.5 -72.5t-78.5 -52.5t-92 -32t-98 -11zM628 1264q-38 0 -70 13.5t-56 37t-37.5 55t-13.5 67.5t13.5 67.5t37.5 55t56 37t70 13.5q37 0 69.5 -13.5
t56.5 -37t37.5 -55t13.5 -67.5t-13.5 -67.5t-37.5 -55t-56.5 -37t-69.5 -13.5z" />
    <glyph glyph-name="Ecedilla" unicode="&#x228;" horiz-adv-x="1216" 
d="M524 1106v-233h557v-304h-557v-232h594v-337h-394l-46 -89q36 0 66 -12t51 -34t33 -53t12 -69q0 -195 -263 -195q-42 0 -77.5 3.5t-55.5 11.5v141q19 -6 45.5 -9t53.5 -3q50 0 72 8.5t22 28.5q0 26 -22 36t-78 10h-56v127l54 98h-435v1443h1018v-337h-594z" />
    <glyph glyph-name="ecedilla" unicode="&#x229;" horiz-adv-x="1243" 
d="M810 698q-3 39 -17 70.5t-37.5 54t-55 34.5t-69.5 12q-36 0 -67.5 -12.5t-55.5 -35.5t-38.5 -54.5t-17.5 -68.5h358zM446 475v-26q0 -43 14.5 -78.5t40.5 -61.5t62 -40.5t79 -14.5q65 0 113 29t67 80h366q-12 -81 -49.5 -148t-97 -116.5t-139.5 -80.5t-176 -41l-34 -66
q36 0 66 -12t51 -34t33 -53t12 -69q0 -195 -263 -195q-42 0 -77.5 3.5t-55.5 11.5v141q19 -6 45.5 -9t53.5 -3q50 0 72 8.5t22 28.5q0 26 -22 36t-78 10h-56v127l42 76q-115 13 -205.5 58.5t-153 119.5t-95.5 175t-33 225q0 138 40 248t114.5 187.5t180.5 119t238 41.5
q130 0 235 -40t179.5 -114t115 -178.5t40.5 -233.5v-111h-747z" />
    <glyph glyph-name="Odieresismacron" unicode="&#x22a;" horiz-adv-x="1584" 
d="M792 1468q167 0 301.5 -52t229 -148.5t145.5 -235t51 -311.5t-51 -311t-145.5 -235t-229 -148.5t-301.5 -51.5q-168 0 -302.5 51.5t-229 148.5t-145 235t-50.5 311t51 311.5t145.5 235t229 148.5t301.5 52zM792 1130q-66 0 -120.5 -29t-93.5 -82t-60 -128.5t-21 -169.5
q0 -93 21 -168.5t59.5 -129t93 -82t121.5 -28.5t121.5 28.5t93 82t59.5 129t21 168.5q0 94 -21 169.5t-60 128.5t-93.5 82t-120.5 29zM570 1836q34 0 63 -12t50 -32t33 -47.5t12 -58.5t-12 -58t-33 -47.5t-50 -32.5t-63 -12q-35 0 -64 12t-50 32.5t-32.5 47.5t-11.5 58
t11.5 58.5t32.5 47.5t50 32t64 12zM1166 2120v-180h-748v180h748zM1014 1836q34 0 63 -12t50 -32t33 -47.5t12 -58.5t-12 -58t-33 -47.5t-50 -32.5t-63 -12q-35 0 -64 12t-50 32.5t-32.5 47.5t-11.5 58t11.5 58.5t32.5 47.5t50 32t64 12z" />
    <glyph glyph-name="odieresismacron" unicode="&#x22b;" horiz-adv-x="1278" 
d="M639 -28q-137 0 -246 39t-185.5 114.5t-117 185.5t-40.5 252q0 138 41.5 247.5t118.5 185.5t185.5 116t243.5 40t244 -40t185.5 -115.5t118 -185t41.5 -248.5q0 -143 -40.5 -253t-116.5 -185t-185.5 -114t-246.5 -39zM639 266q81 0 127 76t46 220q0 140 -46.5 218
t-126.5 78t-126.5 -78t-46.5 -218q0 -144 46 -220t127 -76zM430 1255q-32 0 -59.5 11t-47.5 30.5t-31 45t-11 54.5t11 55t31 45t47.5 30t59.5 11t59.5 -11t47.5 -30t31 -45t11 -55t-11 -54.5t-31 -45t-47.5 -30.5t-59.5 -11zM848 1255q-32 0 -59.5 11t-47.5 30.5t-31 45
t-11 54.5t11 55t31 45t47.5 30t59.5 11t59.5 -11t47.5 -30t31 -45t11 -55t-11 -54.5t-31 -45t-47.5 -30.5t-59.5 -11zM991 1660h-704v180h704v-180z" />
    <glyph glyph-name="Otildemacron" unicode="&#x22c;" horiz-adv-x="1584" 
d="M792 1468q167 0 301.5 -52t229 -148.5t145.5 -235t51 -311.5t-51 -311t-145.5 -235t-229 -148.5t-301.5 -51.5q-168 0 -302.5 51.5t-229 148.5t-145 235t-50.5 311t51 311.5t145.5 235t229 148.5t301.5 52zM792 1130q-66 0 -120.5 -29t-93.5 -82t-60 -128.5t-21 -169.5
q0 -93 21 -168.5t59.5 -129t93 -82t121.5 -28.5t121.5 28.5t93 82t59.5 129t21 168.5q0 94 -21 169.5t-60 128.5t-93.5 82t-120.5 29zM938 1536q-55 0 -94.5 19t-70 41.5t-55.5 41.5t-51 19q-17 0 -29.5 -8.5t-21 -22.5t-13 -32t-5.5 -38h-201q0 70 20 124.5t53.5 92t79 57
t96.5 19.5q55 0 94.5 -19t70 -41.5t55.5 -41.5t51 -19q35 0 51 29.5t18 76.5h201q0 -70 -20 -125.5t-53.5 -93.5t-79 -58.5t-96.5 -20.5zM1166 1940h-748v180h748v-180z" />
    <glyph glyph-name="otildemacron" unicode="&#x22d;" horiz-adv-x="1278" 
d="M639 -28q-137 0 -246 39t-185.5 114.5t-117 185.5t-40.5 252q0 138 41.5 247.5t118.5 185.5t185.5 116t243.5 40t244 -40t185.5 -115.5t118 -185t41.5 -248.5q0 -143 -40.5 -253t-116.5 -185t-185.5 -114t-246.5 -39zM639 266q81 0 127 76t46 220q0 140 -46.5 218
t-126.5 78t-126.5 -78t-46.5 -218q0 -144 46 -220t127 -76zM792 1258q-55 0 -94 18.5t-69 41t-54.5 41t-50.5 18.5q-17 0 -29.5 -8.5t-21 -22.5t-13 -32t-5.5 -38h-201q0 70 20.5 124.5t55 92t80 57t95.5 19.5q55 0 94 -18.5t69 -41t54.5 -41t50.5 -18.5q35 0 51 29.5
t18 76.5h201q0 -70 -20.5 -125.5t-55 -93.5t-80 -58.5t-95.5 -20.5zM991 1660h-704v180h704v-180z" />
    <glyph glyph-name="Odotaccent" unicode="&#x22e;" horiz-adv-x="1584" 
d="M792 1468q167 0 301.5 -52t229 -148.5t145.5 -235t51 -311.5t-51 -311t-145.5 -235t-229 -148.5t-301.5 -51.5q-168 0 -302.5 51.5t-229 148.5t-145 235t-50.5 311t51 311.5t145.5 235t229 148.5t301.5 52zM792 1130q-66 0 -120.5 -29t-93.5 -82t-60 -128.5t-21 -169.5
q0 -93 21 -168.5t59.5 -129t93 -82t121.5 -28.5t121.5 28.5t93 82t59.5 129t21 168.5q0 94 -21 169.5t-60 128.5t-93.5 82t-120.5 29zM792 1536q-38 0 -70 14t-56 38t-37.5 56.5t-13.5 68.5t13.5 68t37.5 56t56 38t70 14q37 0 69.5 -14t56.5 -38t37.5 -56t13.5 -68
t-13.5 -68.5t-37.5 -56.5t-56.5 -38t-69.5 -14z" />
    <glyph glyph-name="odotaccent" unicode="&#x22f;" horiz-adv-x="1278" 
d="M639 -28q-137 0 -246 39t-185.5 114.5t-117 185.5t-40.5 252q0 138 41.5 247.5t118.5 185.5t185.5 116t243.5 40t244 -40t185.5 -115.5t118 -185t41.5 -248.5q0 -143 -40.5 -253t-116.5 -185t-185.5 -114t-246.5 -39zM639 266q81 0 127 76t46 220q0 140 -46.5 218
t-126.5 78t-126.5 -78t-46.5 -218q0 -144 46 -220t127 -76zM637 1264q-38 0 -70 13.5t-56 37t-37.5 55t-13.5 67.5t13.5 67.5t37.5 55t56 37t70 13.5q37 0 69.5 -13.5t56.5 -37t37.5 -55t13.5 -67.5t-13.5 -67.5t-37.5 -55t-56.5 -37t-69.5 -13.5z" />
    <glyph glyph-name="Odotaccentmacron" unicode="&#x230;" horiz-adv-x="1584" 
d="M792 1468q167 0 301.5 -52t229 -148.5t145.5 -235t51 -311.5t-51 -311t-145.5 -235t-229 -148.5t-301.5 -51.5q-168 0 -302.5 51.5t-229 148.5t-145 235t-50.5 311t51 311.5t145.5 235t229 148.5t301.5 52zM792 1130q-66 0 -120.5 -29t-93.5 -82t-60 -128.5t-21 -169.5
q0 -93 21 -168.5t59.5 -129t93 -82t121.5 -28.5t121.5 28.5t93 82t59.5 129t21 168.5q0 94 -21 169.5t-60 128.5t-93.5 82t-120.5 29zM792 1536q-35 0 -64 12t-50 32.5t-32.5 47.5t-11.5 58t11.5 58.5t32.5 47.5t50 32t64 12q34 0 63 -12t50 -32t33 -47.5t12 -58.5t-12 -58
t-33 -47.5t-50 -32.5t-63 -12zM1166 1940h-748v180h748v-180z" />
    <glyph glyph-name="odotaccentmacron" unicode="&#x231;" horiz-adv-x="1278" 
d="M639 -28q-137 0 -246 39t-185.5 114.5t-117 185.5t-40.5 252q0 138 41.5 247.5t118.5 185.5t185.5 116t243.5 40t244 -40t185.5 -115.5t118 -185t41.5 -248.5q0 -143 -40.5 -253t-116.5 -185t-185.5 -114t-246.5 -39zM639 266q81 0 127 76t46 220q0 140 -46.5 218
t-126.5 78t-126.5 -78t-46.5 -218q0 -144 46 -220t127 -76zM639 1242q-38 0 -70 13.5t-56 37t-37.5 55t-13.5 67.5t13.5 67.5t37.5 55t56 37t70 13.5q37 0 69.5 -13.5t56.5 -37t37.5 -55t13.5 -67.5t-13.5 -67.5t-37.5 -55t-56.5 -37t-69.5 -13.5zM991 1670h-704v180h704
v-180z" />
    <glyph glyph-name="Ymacron" unicode="&#x232;" horiz-adv-x="1470" 
d="M523 0v457l-493 986h453l253 -585h8l253 585h443l-493 -986v-457h-424zM1109 1606h-748v180h748v-180z" />
    <glyph glyph-name="ymacron" unicode="&#x233;" horiz-adv-x="1246" 
d="M122 -412v306h60q90 0 140 19.5t52 54.5v20l-374 1136h455l175 -828h8l175 828h433l-339 -1101q-36 -117 -90 -199.5t-131.5 -135t-180.5 -76.5t-237 -24h-146zM975 1276h-704v180h704v-180z" />
    <glyph glyph-name="dotlessj" unicode="&#x237;" horiz-adv-x="570" 
d="M490 7q0 -86 -30.5 -153t-88 -113t-141.5 -70.5t-191 -24.5q-15 0 -33.5 0.5t-35.5 1.5t-32 2t-24 2v286q9 -2 21.5 -2.5t25.5 -0.5q63 0 91 21t28 69v1099h410v-1117z" />
    <glyph glyph-name="circumflex" unicode="&#x2c6;" horiz-adv-x="1016" 
d="M920 1256h-284l-124 180h-8l-124 -180h-284l255 336h314z" />
    <glyph glyph-name="caron" unicode="&#x2c7;" horiz-adv-x="1016" 
d="M351 1256l-255 336h284l124 -180h8l124 180h284l-255 -336h-314z" />
    <glyph glyph-name="breve" unicode="&#x2d8;" horiz-adv-x="1000" 
d="M341 1590q3 -65 43.5 -106.5t115.5 -41.5t115.5 41.5t43.5 106.5h236q-2 -68 -28.5 -128.5t-76.5 -106t-123 -72.5t-167 -27q-95 0 -167.5 27t-122.5 72.5t-76.5 106t-28.5 128.5h236z" />
    <glyph glyph-name="dotaccent" unicode="&#x2d9;" horiz-adv-x="1000" 
d="M498 1264q-38 0 -70 13.5t-56 37t-37.5 55t-13.5 67.5t13.5 67.5t37.5 55t56 37t70 13.5q37 0 69.5 -13.5t56.5 -37t37.5 -55t13.5 -67.5t-13.5 -67.5t-37.5 -55t-56.5 -37t-69.5 -13.5z" />
    <glyph glyph-name="ring" unicode="&#x2da;" horiz-adv-x="1016" 
d="M508 1235q-50 0 -94 18.5t-77.5 50.5t-53 75t-19.5 91q0 49 19.5 92t53 75t77.5 50.5t94 18.5q49 0 93.5 -18.5t77.5 -50.5t52.5 -75t19.5 -92q0 -48 -19.5 -91t-52.5 -75t-77.5 -50.5t-93.5 -18.5zM508 1386q18 0 34 6.5t28 18t19 27t7 32.5q0 18 -7 33.5t-19 27
t-28 18.5t-34 7t-34 -7t-28 -18.5t-19 -27t-7 -33.5q0 -17 7 -32.5t19 -27t28 -18t34 -6.5z" />
    <glyph glyph-name="ogonek" unicode="&#x2db;" horiz-adv-x="1000" 
d="M718 -451q-60 -23 -157 -23q-59 0 -107.5 17t-83.5 47t-54.5 72t-19.5 92q0 81 39.5 139.5t126.5 106.5h198q-66 -37 -96.5 -78.5t-30.5 -95.5q0 -45 31.5 -72.5t81.5 -27.5q17 0 34.5 1.5t37.5 6.5v-185z" />
    <glyph glyph-name="tilde" unicode="&#x2dc;" horiz-adv-x="1015" 
d="M651 1258q-55 0 -94 18.5t-69 41t-54.5 41t-50.5 18.5q-17 0 -29.5 -8.5t-21 -22.5t-13 -32t-5.5 -38h-201q0 70 20.5 124.5t55 92t80 57t95.5 19.5q55 0 94 -18.5t69 -41t54.5 -41t50.5 -18.5q35 0 51 29.5t18 76.5h201q0 -70 -20.5 -125.5t-55 -93.5t-80 -58.5
t-95.5 -20.5z" />
    <glyph glyph-name="hungarumlaut" unicode="&#x2dd;" horiz-adv-x="1000" 
d="M649 1596h309l-211 -320h-280zM225 1596h308l-211 -320h-280z" />
    <glyph glyph-name="gravecmb" unicode="&#x300;" 
d="M-140 1275l-265 321h347l232 -321h-314z" />
    <glyph glyph-name="acutecmb" unicode="&#x301;" 
d="M-165 1275l232 321h347l-265 -321h-314z" />
    <glyph glyph-name="circumflexcmb" unicode="&#x302;" 
d="M412 1256h-284l-124 180h-8l-124 -180h-284l255 336h314z" />
    <glyph glyph-name="tildecmb" unicode="&#x303;" 
d="M153 1258q-55 0 -94 18.5t-69 41t-54.5 41t-50.5 18.5q-17 0 -29.5 -8.5t-21 -22.5t-13 -32t-5.5 -38h-201q0 70 20.5 124.5t55 92t80 57t95.5 19.5q55 0 94 -18.5t69 -41t54.5 -41t50.5 -18.5q35 0 51 29.5t18 76.5h201q0 -70 -20.5 -125.5t-55 -93.5t-80 -58.5
t-95.5 -20.5z" />
    <glyph glyph-name="macroncmb" unicode="&#x304;" 
d="M352 1276h-704v180h704v-180z" />
    <glyph glyph-name="brevecmb" unicode="&#x306;" 
d="M-159 1590q3 -65 43.5 -106.5t115.5 -41.5t115.5 41.5t43.5 106.5h236q-2 -68 -28.5 -128.5t-76.5 -106t-123 -72.5t-167 -27q-95 0 -167.5 27t-122.5 72.5t-76.5 106t-28.5 128.5h236z" />
    <glyph glyph-name="dotaccentcmb" unicode="&#x307;" 
d="M-2 1264q-38 0 -70 13.5t-56 37t-37.5 55t-13.5 67.5t13.5 67.5t37.5 55t56 37t70 13.5q37 0 69.5 -13.5t56.5 -37t37.5 -55t13.5 -67.5t-13.5 -67.5t-37.5 -55t-56.5 -37t-69.5 -13.5z" />
    <glyph glyph-name="dieresiscmb" unicode="&#x308;" 
d="M-222 1256q-35 0 -64 12t-50 32.5t-32.5 47.5t-11.5 58t11.5 58.5t32.5 47.5t50 32t64 12q34 0 63 -12t50 -32t33 -47.5t12 -58.5t-12 -58t-33 -47.5t-50 -32.5t-63 -12zM222 1256q-35 0 -64 12t-50 32.5t-32.5 47.5t-11.5 58t11.5 58.5t32.5 47.5t50 32t64 12
q34 0 63 -12t50 -32t33 -47.5t12 -58.5t-12 -58t-33 -47.5t-50 -32.5t-63 -12z" />
    <glyph glyph-name="hookabovecmb" unicode="&#x309;" 
d="M-188 1702q14 6 34.5 11.5t43 9.5t45.5 6.5t42 2.5q63 0 114.5 -17t87.5 -48t55.5 -75t19.5 -98q0 -78 -56 -147.5t-160 -120.5l-108 125q55 28 77 55.5t22 66.5q0 38 -31 60.5t-84 22.5q-27 0 -54 -5t-48 -13v164z" />
    <glyph glyph-name="ringcmb" unicode="&#x30a;" 
d="M0 1235q-50 0 -94 18.5t-77.5 50.5t-53 75t-19.5 91q0 49 19.5 92t53 75t77.5 50.5t94 18.5q49 0 93.5 -18.5t77.5 -50.5t52.5 -75t19.5 -92q0 -48 -19.5 -91t-52.5 -75t-77.5 -50.5t-93.5 -18.5zM0 1386q18 0 34 6.5t28 18t19 27t7 32.5q0 18 -7 33.5t-19 27t-28 18.5
t-34 7t-34 -7t-28 -18.5t-19 -27t-7 -33.5q0 -17 7 -32.5t19 -27t28 -18t34 -6.5z" />
    <glyph glyph-name="hungarumlautcmb" unicode="&#x30b;" 
d="M242 1596h309l-211 -320h-280zM-182 1596h308l-211 -320h-280z" />
    <glyph glyph-name="caroncmb" unicode="&#x30c;" 
d="M-157 1256l-255 336h284l124 -180h8l124 180h284l-255 -336h-314z" />
    <glyph glyph-name="dblgravecmb" unicode="&#x30f;" 
d="M-340 1276l-211 320h309l182 -320h-280zM85 1276l-211 320h308l183 -320h-280z" />
    <glyph glyph-name="invertedbrevecmb" unicode="&#x311;" 
d="M-395 1256q2 67 28.5 128t76.5 106.5t122.5 72.5t167.5 27q94 0 167 -27t123 -72.5t76.5 -106.5t28.5 -128h-236q-3 65 -43.5 106.5t-115.5 41.5t-115.5 -41.5t-43.5 -106.5h-236v0z" />
    <glyph glyph-name="horncmb" unicode="&#x31b;" 
d="M0 1123q23 -3 39 0q21 5 31 24t10 55v149h285v-210q0 -133 -64 -206t-177 -73q-17 0 -36 1t-36 3t-31 4t-21 5v248z" />
    <glyph glyph-name="dotbelowcmb" unicode="&#x323;" 
d="M0 -524q-38 0 -70 14t-56 38t-37.5 56.5t-13.5 68.5t13.5 68t37.5 56t56 38t70 14q37 0 69.5 -14t56.5 -38t37.5 -56t13.5 -68t-13.5 -68.5t-37.5 -56.5t-56.5 -38t-69.5 -14z" />
    <glyph glyph-name="dieresisbelowcmb" unicode="&#x324;" 
d="M-222 -476q-35 0 -64 12t-50 32.5t-32.5 47.5t-11.5 58t11.5 58.5t32.5 47.5t50 32t64 12q34 0 63 -12t50 -32t33 -47.5t12 -58.5t-12 -58t-33 -47.5t-50 -32.5t-63 -12zM222 -476q-35 0 -64 12t-50 32.5t-32.5 47.5t-11.5 58t11.5 58.5t32.5 47.5t50 32t64 12
q34 0 63 -12t50 -32t33 -47.5t12 -58.5t-12 -58t-33 -47.5t-50 -32.5t-63 -12z" />
    <glyph glyph-name="ringbelowcmb" unicode="&#x325;" 
d="M0 -603q-50 0 -94 18.5t-77.5 50.5t-53 75t-19.5 91q0 49 19.5 92t53 75t77.5 50.5t94 18.5q49 0 93.5 -18.5t77.5 -50.5t52.5 -75t19.5 -92q0 -48 -19.5 -91t-52.5 -75t-77.5 -50.5t-93.5 -18.5zM0 -452q18 0 34 6.5t28 18t19 27t7 32.5q0 18 -7 33.5t-19 27t-28 18.5
t-34 7t-34 -7t-28 -18.5t-19 -27t-7 -33.5q0 -17 7 -32.5t19 -27t28 -18t34 -6.5z" />
    <glyph glyph-name="commabelowcmb" unicode="&#x326;" 
d="M-337 -457l152 321h359l-203 -321h-308z" />
    <glyph glyph-name="cedillacmb" unicode="&#x327;" 
d="M-127 -98l63 114l180 -16l-46 -89q36 0 66 -12t51 -34t33 -53t12 -69q0 -195 -263 -195q-42 0 -77.5 3.5t-55.5 11.5v141q19 -6 45.5 -9t53.5 -3q50 0 72 8.5t22 28.5q0 26 -22 36t-78 10h-56v127z" />
    <glyph glyph-name="ogonekcmb" unicode="&#x328;" 
d="M236 -451q-60 -23 -157 -23q-59 0 -107.5 17t-83.5 47t-54.5 72t-19.5 92q0 81 39.5 139.5t126.5 106.5h198q-66 -37 -96.5 -78.5t-30.5 -95.5q0 -45 31.5 -72.5t81.5 -27.5q17 0 34.5 1.5t37.5 6.5v-185z" />
    <glyph glyph-name="circumflexbelowcmb" unicode="&#x32d;" 
d="M157 -154l255 -336h-276l-132 192h-8l-132 -192h-276l255 336h314z" />
    <glyph glyph-name="brevebelowcmb" unicode="&#x32e;" 
d="M-159 -156q3 -65 43.5 -106.5t115.5 -41.5t115.5 41.5t43.5 106.5h236q-2 -68 -28.5 -128.5t-76.5 -106t-123 -72.5t-167 -27q-95 0 -167.5 27t-122.5 72.5t-76.5 106t-28.5 128.5h236z" />
    <glyph glyph-name="tildebelowcmb" unicode="&#x330;" 
d="M153 -456q-55 0 -94 18.5t-69 41t-54.5 41t-50.5 18.5q-17 0 -29.5 -8.5t-21 -22.5t-13 -32t-5.5 -38h-201q0 70 20.5 124.5t55 92t80 57t95.5 19.5q55 0 94 -18.5t69 -41t54.5 -41t50.5 -18.5q35 0 51 29.5t18 76.5h201q0 -70 -20.5 -125.5t-55 -93.5t-80 -58.5
t-95.5 -20.5z" />
    <glyph glyph-name="macronbelowcmb" unicode="&#x331;" 
d="M374 -420h-748v180h748v-180z" />
    <glyph glyph-name="greekquestionmark" unicode="&#x37e;" horiz-adv-x="742" 
d="M313 680q-43 0 -81 16.5t-66 44.5t-44.5 66t-16.5 81t16.5 81t44.5 66t66 44.5t81 16.5t81 -16.5t66 -44.5t44.5 -66t16.5 -81t-16.5 -81t-44.5 -66t-66 -44.5t-81 -16.5zM52 -285l66 622h364l-123 -622h-307z" />
    <glyph glyph-name="tonosgreek" unicode="&#x384;" horiz-adv-x="884" 
d="M288 1616h392l-156 -341h-320z" />
    <glyph glyph-name="dieresistonosgreek" unicode="&#x385;" horiz-adv-x="1396" 
d="M296 1256q-35 0 -64 12t-50 32.5t-32.5 47.5t-11.5 58t11.5 58.5t32.5 47.5t50 32t64 12q34 0 63 -12t50 -32t33 -47.5t12 -58.5t-12 -58t-33 -47.5t-50 -32.5t-63 -12zM1100 1256q-35 0 -64 12t-50 32.5t-32.5 47.5t-11.5 58t11.5 58.5t32.5 47.5t50 32t64 12
q34 0 63 -12t50 -32t33 -47.5t12 -58.5t-12 -58t-33 -47.5t-50 -32.5t-63 -12zM533 1276l20 340h373l-143 -340h-250z" />
    <glyph glyph-name="Alphatonosgreek" unicode="&#x386;" horiz-adv-x="1798" 
d="M1153 287h-440l-75 -287h-432l471 1443h532l471 -1443h-452zM790 586h286l-139 524h-8zM82 1102l74 341h392l-166 -341h-300z" />
    <glyph glyph-name="anoteleia" unicode="&#x387;" horiz-adv-x="732" 
d="M366 742q-43 0 -81 16.5t-66 44.5t-44.5 66t-16.5 81t16.5 81t44.5 66t66 44.5t81 16.5t81 -16.5t66 -44.5t44.5 -66t16.5 -81t-16.5 -81t-44.5 -66t-66 -44.5t-81 -16.5z" />
    <glyph glyph-name="Epsilontonosgreek" unicode="&#x388;" horiz-adv-x="1753" 
d="M1633 0h-1018v1443h1018v-337h-594v-233h557v-304h-557v-232h594v-337zM30 1102l74 341h392l-166 -341h-300z" />
    <glyph glyph-name="Etatonosgreek" unicode="&#x389;" horiz-adv-x="2115" 
d="M1547 0v558h-508v-558h-424v1443h424v-548h508v548h424v-1443h-424zM30 1102l74 341h392l-166 -341h-300z" />
    <glyph glyph-name="Iotatonosgreek" unicode="&#x38a;" horiz-adv-x="1183" 
d="M615 0v1443h424v-1443h-424zM30 1102l74 341h392l-166 -341h-300z" />
    <glyph glyph-name="Omicrontonosgreek" unicode="&#x38c;" horiz-adv-x="1929" 
d="M1137 1468q167 0 301.5 -52t229 -148.5t145.5 -235t51 -311.5t-51 -311t-145.5 -235t-229 -148.5t-301.5 -51.5q-168 0 -302.5 51.5t-229 148.5t-145 235t-50.5 311t51 311.5t145.5 235t229 148.5t301.5 52zM1137 1130q-66 0 -120.5 -29t-93.5 -82t-60 -128.5t-21 -169.5
q0 -93 21 -168.5t59.5 -129t93 -82t121.5 -28.5t121.5 28.5t93 82t59.5 129t21 168.5q0 94 -21 169.5t-60 128.5t-93.5 82t-120.5 29zM30 1102l74 341h392l-166 -341h-300z" />
    <glyph glyph-name="Upsilontonosgreek" unicode="&#x38e;" horiz-adv-x="1995" 
d="M1047 0v457l-493 986h453l253 -585h8l253 585h443l-493 -986v-457h-424zM30 1102l74 341h392l-166 -341h-300z" />
    <glyph glyph-name="Omegatonosgreek" unicode="&#x38f;" horiz-adv-x="1954" 
d="M1462 782q0 84 -23.5 149t-65.5 109t-99.5 67t-126.5 23t-126.5 -23t-99.5 -67t-65.5 -109t-23.5 -149q0 -73 14.5 -131.5t41 -104.5t64.5 -81t86 -61v-404h-628v316h273v8q-59 30 -109 78.5t-86.5 112.5t-57 141t-20.5 166q0 145 53.5 264t151 204t233 131.5t299.5 46.5
t299.5 -46.5t233 -131.5t151 -204t53.5 -264q0 -89 -20.5 -166t-57 -141t-86.5 -112.5t-109 -78.5v-8h273v-316h-628v404q48 26 86 61t64.5 81t41 104.5t14.5 131.5zM30 1102l74 341h392l-166 -341h-300z" />
    <glyph glyph-name="iotadieresistonosgreek" unicode="&#x390;" horiz-adv-x="738" 
d="M522 0q-117 0 -200.5 17.5t-137.5 55.5t-79 97t-25 143v811h410v-721q0 -54 34 -81t98 -27q28 0 46 1t40 4l10 -285q-16 -3 -38 -6t-48 -5t-54.5 -3t-55.5 -1zM-84 1256q-35 0 -64 12t-50 32.5t-32.5 47.5t-11.5 58t11.5 58.5t32.5 47.5t50 32t64 12q34 0 63 -12t50 -32
t33 -47.5t12 -58.5t-12 -58t-33 -47.5t-50 -32.5t-63 -12zM720 1256q-35 0 -64 12t-50 32.5t-32.5 47.5t-11.5 58t11.5 58.5t32.5 47.5t50 32t64 12q34 0 63 -12t50 -32t33 -47.5t12 -58.5t-12 -58t-33 -47.5t-50 -32.5t-63 -12zM153 1276l20 340h373l-143 -340h-250z" />
    <glyph glyph-name="Alphagreek" unicode="&#x391;" horiz-adv-x="1534" 
d="M977 287h-440l-75 -287h-432l471 1443h532l471 -1443h-452zM614 586h286l-139 524h-8z" />
    <glyph glyph-name="Betagreek" unicode="&#x392;" horiz-adv-x="1405" 
d="M100 0v1443h709q111 0 198 -24.5t147 -71t91.5 -113.5t31.5 -151q0 -62 -22.5 -115.5t-61.5 -94.5t-92.5 -67.5t-116.5 -34.5v-8q73 -2 138 -29t114 -73t77.5 -107.5t28.5 -133.5q0 -95 -36 -172.5t-102.5 -132.5t-160.5 -85t-210 -30h-733zM524 865h164q82 0 129.5 39
t47.5 105q0 67 -45 105t-126 38h-170v-287zM705 291q99 0 152.5 43t53.5 125q0 78 -53.5 120.5t-149.5 42.5h-184v-331h181z" />
    <glyph glyph-name="Gammagreek" unicode="&#x393;" horiz-adv-x="1167" 
d="M122 0v1443h994v-337h-570v-1106h-424z" />
    <glyph glyph-name="Deltagreek" unicode="&#x394;" horiz-adv-x="1490" 
d="M50 0v217l429 1226h532l429 -1226v-217h-1390zM484 336h479v8l-232 775h-8l-239 -775v-8z" />
    <glyph glyph-name="Epsilongreek" unicode="&#x395;" horiz-adv-x="1238" 
d="M1118 0h-1018v1443h1018v-337h-594v-233h557v-304h-557v-232h594v-337z" />
    <glyph glyph-name="Zetagreek" unicode="&#x396;" horiz-adv-x="1323" 
d="M80 266l643 832v8h-637v337h1131v-265l-641 -833v-8h665v-337h-1161v266z" />
    <glyph glyph-name="Etagreek" unicode="&#x397;" horiz-adv-x="1600" 
d="M1032 0v558h-508v-558h-424v1443h424v-548h508v548h424v-1443h-424z" />
    <glyph glyph-name="Thetagreek" unicode="&#x398;" horiz-adv-x="1663" 
d="M621 568v294h418v-294h-418zM832 1468q186 0 329 -53t240 -150.5t147 -235.5t50 -307q0 -170 -52 -308t-150.5 -235.5t-240.5 -150.5t-323 -53t-323.5 53t-241 150.5t-150.5 235.5t-52 308q0 169 50 307t147 235.5t240.5 150.5t329.5 53zM832 1130q-82 0 -145.5 -27.5
t-107 -79.5t-66 -128t-22.5 -173q0 -98 22.5 -174t66 -128t107 -79.5t145.5 -27.5t145 27.5t106.5 79.5t66 128t22.5 174q0 97 -22.5 173t-66 128t-106.5 79.5t-145 27.5z" />
    <glyph glyph-name="Iotagreek" unicode="&#x399;" horiz-adv-x="668" 
d="M100 0v1443h424v-1443h-424z" />
    <glyph glyph-name="Kappagreek" unicode="&#x39a;" horiz-adv-x="1467" 
d="M100 0v1443h424v-612h8l446 612h445l-475 -641l497 -802h-493l-315 530l-113 -152v-378h-424z" />
    <glyph glyph-name="Lambdagreek" unicode="&#x39b;" horiz-adv-x="1513" 
d="M751 1110h-8l-281 -1110h-432l461 1443h532l460 -1443h-451z" />
    <glyph glyph-name="Mugreek" unicode="&#x39c;" horiz-adv-x="1878" 
d="M1733 0h-370v836h-8l-325 -819h-227l-325 819h-8v-836h-370v1443h490l323 -842h8l322 842h490v-1443z" />
    <glyph glyph-name="Nugreek" unicode="&#x39d;" horiz-adv-x="1538" 
d="M100 0v1443h329l557 -748h8v748h400v-1443h-325l-561 760h-8v-760h-400z" />
    <glyph glyph-name="Xigreek" unicode="&#x39e;" horiz-adv-x="1312" 
d="M1214 1443v-346h-1116v346h1116zM185 563v314h942v-314h-942zM1214 346v-346h-1116v346h1116z" />
    <glyph glyph-name="Omicrongreek" unicode="&#x39f;" horiz-adv-x="1584" 
d="M792 1468q167 0 301.5 -52t229 -148.5t145.5 -235t51 -311.5t-51 -311t-145.5 -235t-229 -148.5t-301.5 -51.5q-168 0 -302.5 51.5t-229 148.5t-145 235t-50.5 311t51 311.5t145.5 235t229 148.5t301.5 52zM792 1130q-66 0 -120.5 -29t-93.5 -82t-60 -128.5t-21 -169.5
q0 -93 21 -168.5t59.5 -129t93 -82t121.5 -28.5t121.5 28.5t93 82t59.5 129t21 168.5q0 94 -21 169.5t-60 128.5t-93.5 82t-120.5 29z" />
    <glyph glyph-name="Pigreek" unicode="&#x3a0;" horiz-adv-x="1580" 
d="M1034 0v1107h-488v-1107h-424v1443h1336v-1443h-424z" />
    <glyph glyph-name="Rhogreek" unicode="&#x3a1;" horiz-adv-x="1369" 
d="M759 1443q120 0 219 -37t169.5 -105.5t109.5 -166t39 -217.5q0 -119 -41 -216t-115.5 -165t-179 -105t-230.5 -37h-206v-394h-424v1443h659zM524 707h119q106 0 165.5 52.5t59.5 156.5q0 103 -59 155.5t-163 52.5h-122v-417z" />
    <glyph glyph-name="Sigmagreek" unicode="&#x3a3;" horiz-adv-x="1314" 
d="M603 337h629v-337h-1150v239l345 483l-321 436v285h1103v-337h-571v-8l251 -363v-8l-286 -382v-8z" />
    <glyph glyph-name="Taugreek" unicode="&#x3a4;" horiz-adv-x="1306" 
d="M425 0v1106h-380v337h1184v-337h-380v-1106h-424z" />
    <glyph glyph-name="Upsilongreek" unicode="&#x3a5;" horiz-adv-x="1470" 
d="M523 0v457l-493 986h453l253 -585h8l253 585h443l-493 -986v-457h-424z" />
    <glyph glyph-name="Phigreek" unicode="&#x3a6;" horiz-adv-x="1946" 
d="M1488 710q0 83 -22 150.5t-64 117t-103 80t-139 40.5v-776q78 10 139 40.5t103 80t64 117t22 150.5zM458 710q0 -83 22 -150.5t64 -117t103 -80t139 -40.5v776q-78 -10 -139 -40.5t-103 -80t-64 -117t-22 -150.5zM786 -153v158q-161 8 -296 63t-233 147.5t-152.5 218.5
t-54.5 276t54.5 276t152.5 218.5t233 147.5t296 63v158h374v-158q161 -8 296 -63t233 -147.5t152.5 -218.5t54.5 -276t-54.5 -276t-152.5 -218.5t-233 -147.5t-296 -63v-158h-374z" />
    <glyph glyph-name="Chigreek" unicode="&#x3a7;" horiz-adv-x="1509" 
d="M466 723v8l-426 712h494l227 -460h8l228 460h470l-447 -714v-8l445 -721h-472l-248 435h-9l-247 -435h-448z" />
    <glyph glyph-name="Psigreek" unicode="&#x3a8;" horiz-adv-x="1794" 
d="M700 0v279q-147 4 -262 49.5t-194 127t-120.5 195.5t-41.5 257v535h394v-546q0 -131 53 -203.5t171 -89.5v839h394v-839q118 17 171 89.5t53 203.5v546h394v-535q0 -143 -41.5 -257t-120.5 -195.5t-194 -127t-262 -49.5v-279h-394z" />
    <glyph glyph-name="Omegagreek" unicode="&#x3a9;" horiz-adv-x="1614" 
d="M1122 782q0 84 -23.5 149t-65.5 109t-99.5 67t-126.5 23t-126.5 -23t-99.5 -67t-65.5 -109t-23.5 -149q0 -73 14.5 -131.5t41 -104.5t64.5 -81t86 -61v-404h-628v316h273v8q-59 30 -109 78.5t-86.5 112.5t-57 141t-20.5 166q0 145 53.5 264t151 204t233 131.5t299.5 46.5
t299.5 -46.5t233 -131.5t151 -204t53.5 -264q0 -89 -20.5 -166t-57 -141t-86.5 -112.5t-109 -78.5v-8h273v-316h-628v404q48 26 86 61t64.5 81t41 104.5t14.5 131.5z" />
    <glyph glyph-name="Iotadieresisgreek" unicode="&#x3aa;" horiz-adv-x="484" 
d="M8 0v1443h424v-1443h-424zM-2 1536q-35 0 -64 12t-50 32.5t-32.5 47.5t-11.5 58t11.5 58.5t32.5 47.5t50 32t64 12q34 0 63 -12t50 -32t33 -47.5t12 -58.5t-12 -58t-33 -47.5t-50 -32.5t-63 -12zM442 1536q-35 0 -64 12t-50 32.5t-32.5 47.5t-11.5 58t11.5 58.5
t32.5 47.5t50 32t64 12q34 0 63 -12t50 -32t33 -47.5t12 -58.5t-12 -58t-33 -47.5t-50 -32.5t-63 -12z" />
    <glyph glyph-name="Upsilondieresisgreek" unicode="&#x3ab;" horiz-adv-x="1470" 
d="M523 0v457l-493 986h453l253 -585h8l253 585h443l-493 -986v-457h-424zM513 1536q-35 0 -64 12t-50 32.5t-32.5 47.5t-11.5 58t11.5 58.5t32.5 47.5t50 32t64 12q34 0 63 -12t50 -32t33 -47.5t12 -58.5t-12 -58t-33 -47.5t-50 -32.5t-63 -12zM957 1536q-35 0 -64 12
t-50 32.5t-32.5 47.5t-11.5 58t11.5 58.5t32.5 47.5t50 32t64 12q34 0 63 -12t50 -32t33 -47.5t12 -58.5t-12 -58t-33 -47.5t-50 -32.5t-63 -12z" />
    <glyph glyph-name="alphatonosgreek" unicode="&#x3ac;" horiz-adv-x="1452" 
d="M658 301q84 0 131.5 69.5t47.5 190.5q0 60 -12.5 108.5t-36 83t-57 53t-74.5 18.5t-73.5 -18.5t-55.5 -52.5t-35.5 -82.5t-12.5 -108.5q0 -122 47.5 -191.5t130.5 -69.5zM520 -16q-110 0 -196 38.5t-144.5 113t-89 182.5t-30.5 247q0 136 30.5 243t89 181t143 112.5
t192.5 38.5q49 0 98.5 -14t93 -41t77.5 -68t53 -95h8v202h410v-727q0 -34 4 -56.5t13.5 -36.5t24.5 -20t37 -6q16 0 33 3t25 8l10 -276q-13 -4 -35 -8t-48.5 -7.5t-55 -5.5t-55.5 -2q-123 0 -199.5 38t-120.5 123q-10 19 -19 41h-8q-29 -53 -63 -92.5t-75.5 -65t-91.5 -38
t-111 -12.5zM599 1616h392l-156 -341h-320z" />
    <glyph glyph-name="epsilontonosgreek" unicode="&#x3ad;" horiz-adv-x="1275" 
d="M621 -28q-128 0 -231 22.5t-175 65.5t-111 104.5t-39 139.5q0 96 54.5 167.5t151.5 101.5v8q-94 35 -137.5 92t-43.5 145q0 77 39 138.5t111 105t173 67t224 23.5q132 0 237.5 -26.5t182 -78.5t122 -129t57.5 -178h-397q-17 62 -64 90t-122 28q-72 0 -115.5 -22
t-43.5 -64q0 -39 39 -55.5t117 -16.5h138v-267h-136q-80 0 -124 -19.5t-44 -60.5q0 -42 41 -64.5t107 -22.5q86 0 140 33.5t77 106.5h421q-11 -98 -64.5 -178t-139.5 -137t-199.5 -88t-245.5 -31zM545 1616h392l-156 -341h-320z" />
    <glyph glyph-name="etatonosgreek" unicode="&#x3ae;" horiz-adv-x="1436" 
d="M946 -332v961q0 87 -46 136.5t-125 49.5q-38 0 -69.5 -14t-54.5 -38.5t-36 -59t-13 -74.5v-629h-410v725q0 68 -21.5 94.5t-66.5 26.5q-16 0 -37 -3t-36 -8v276q34 11 83.5 17t113.5 6q124 0 209 -42t129 -136q6 -12 10.5 -25t9.5 -27h8q19 55 53 100t80.5 76.5t105 48.5
t126.5 17q94 0 168 -29t125 -83.5t77.5 -134t26.5 -179.5v-1052h-410zM553 1616h392l-156 -341h-320z" />
    <glyph glyph-name="iotatonosgreek" unicode="&#x3af;" horiz-adv-x="738" 
d="M522 4q-117 0 -200.5 17.5t-137.5 55.5t-79 97t-25 143v811h410v-721q0 -54 34 -81t98 -27q28 0 46 1t40 4l10 -285q-16 -3 -38 -6t-48 -5t-54.5 -3t-55.5 -1zM198 1616h392l-156 -341h-320z" />
    <glyph glyph-name="upsilondieresistonosgreek" unicode="&#x3b0;" horiz-adv-x="1240" 
d="M608 -22q-138 0 -238 31.5t-164.5 94.5t-95 157t-30.5 220v643h380v-582q0 -123 38 -177.5t124 -54.5q44 0 75.5 16.5t51.5 52.5t29.5 92.5t9.5 136.5q0 55 -5.5 118.5t-16 130.5t-25.5 135t-33 132h390q40 -103 61 -235t21 -284t-37 -269t-109 -196.5t-179 -120.5
t-247 -41zM186 1256q-35 0 -64 12t-50 32.5t-32.5 47.5t-11.5 58t11.5 58.5t32.5 47.5t50 32t64 12q34 0 63 -12t50 -32t33 -47.5t12 -58.5t-12 -58t-33 -47.5t-50 -32.5t-63 -12zM990 1256q-35 0 -64 12t-50 32.5t-32.5 47.5t-11.5 58t11.5 58.5t32.5 47.5t50 32t64 12
q34 0 63 -12t50 -32t33 -47.5t12 -58.5t-12 -58t-33 -47.5t-50 -32.5t-63 -12zM423 1276l20 340h373l-143 -340h-250z" />
    <glyph glyph-name="alphagreek" unicode="&#x3b1;" horiz-adv-x="1457" 
d="M658 301q84 0 131.5 69.5t47.5 190.5q0 60 -12.5 108.5t-36 83t-57 53t-74.5 18.5t-73.5 -18.5t-55.5 -52.5t-35.5 -82.5t-12.5 -108.5q0 -122 47.5 -191.5t130.5 -69.5zM520 -16q-110 0 -196 38.5t-144.5 113t-89 182.5t-30.5 247q0 136 30.5 243t89 181t143 112.5
t192.5 38.5q49 0 98.5 -14t93 -41t77.5 -68t53 -95h8v202h410v-727q0 -34 4 -56.5t13.5 -36.5t24.5 -20t37 -6q16 0 33 3t25 8l10 -276q-13 -4 -35 -8t-48.5 -7.5t-55 -5.5t-55.5 -2q-123 0 -199.5 38t-120.5 123q-10 19 -19 41h-8q-29 -53 -63 -92.5t-75.5 -65t-91.5 -38
t-111 -12.5z" />
    <glyph glyph-name="betagreek" unicode="&#x3b2;" horiz-adv-x="1339" 
d="M578 931h57q78 0 124 39.5t46 107.5q0 72 -40.5 112t-112.5 40q-79 0 -121.5 -52.5t-42.5 -151.5v-456q0 -269 209 -269q78 0 123 43.5t45 117.5q0 88 -56.5 139.5t-165.5 51.5h-65v278zM80 932q0 298 142.5 451t437.5 153q117 0 210.5 -26.5t159 -77t100 -123.5
t34.5 -166q0 -109 -56 -190t-159 -122v-8q174 -37 254.5 -138.5t80.5 -271.5q0 -100 -30.5 -179.5t-87 -135t-137 -85t-180.5 -29.5q-123 0 -215.5 53.5t-135.5 156.5h-8v-526h-410v1264z" />
    <glyph glyph-name="gammagreek" unicode="&#x3b3;" horiz-adv-x="1262" 
d="M1196 939q0 -125 -24.5 -242t-74 -235.5t-125 -243t-178.5 -265.5v-285h-400v236l-414 1220h423l216 -801h8q44 73 76 143t52.5 143.5t30.5 153.5t10 174q0 32 -0.5 55.5t-2 44.5t-3.5 41.5t-6 45.5h398q7 -46 10.5 -92t3.5 -93z" />
    <glyph glyph-name="deltagreek" unicode="&#x3b4;" horiz-adv-x="1251" 
d="M625 -28q-139 0 -246 35t-180 101t-111 161.5t-38 217.5q0 88 26.5 164.5t75 137t116.5 103.5t151 64v8q-90 44 -138 114.5t-48 157.5q0 143 115.5 221.5t332.5 78.5q126 0 233 -15t183 -47l-10 -275q-74 28 -157 43.5t-166 15.5q-46 0 -71 -15t-25 -49q0 -11 3 -21
t11 -20t23 -21.5t38 -25.5q140 -83 228.5 -159.5t138.5 -149.5t68 -144.5t18 -145.5q0 -122 -40.5 -220.5t-114.5 -168.5t-180 -108t-236 -38zM618 245q78 0 117 67t39 192q0 122 -40 191t-116 69q-77 0 -118.5 -69.5t-41.5 -190.5q0 -125 40.5 -192t119.5 -67z" />
    <glyph glyph-name="epsilongreek" unicode="&#x3b5;" horiz-adv-x="1295" 
d="M621 -28q-128 0 -231 22.5t-175 65.5t-111 104.5t-39 139.5q0 96 54.5 167.5t151.5 101.5v8q-94 35 -137.5 92t-43.5 145q0 77 39 138.5t111 105t173 67t224 23.5q132 0 237.5 -26.5t182 -78.5t122 -129t57.5 -178h-397q-17 62 -64 90t-122 28q-72 0 -115.5 -22
t-43.5 -64q0 -39 39 -55.5t117 -16.5h138v-267h-136q-80 0 -124 -19.5t-44 -60.5q0 -42 41 -64.5t107 -22.5q86 0 140 33.5t77 106.5h421q-11 -98 -64.5 -178t-139.5 -137t-199.5 -88t-245.5 -31z" />
    <glyph glyph-name="zetagreek" unicode="&#x3b6;" horiz-adv-x="1096" 
d="M607 -361q46 69 65 120t19 103q0 33 -8.5 58t-29.5 45.5t-55 38t-85 35.5q-132 45 -220.5 96t-141 109.5t-74.5 125.5t-22 146q0 80 21.5 157t70 159t126 172.5t189.5 197.5v8h-331v308h926v-247q-155 -104 -266.5 -195t-184 -172.5t-107 -155.5t-34.5 -143q0 -42 9 -72
t35.5 -56t75 -51t128.5 -55q102 -39 170.5 -78.5t110 -86t59.5 -104t18 -132.5q0 -195 -151 -393z" />
    <glyph glyph-name="etagreek" unicode="&#x3b7;" horiz-adv-x="1436" 
d="M946 -332v961q0 87 -46 136.5t-125 49.5q-38 0 -69.5 -14t-54.5 -38.5t-36 -59t-13 -74.5v-629h-410v725q0 68 -21.5 94.5t-66.5 26.5q-16 0 -37 -3t-36 -8v276q34 11 83.5 17t113.5 6q124 0 209 -42t129 -136q6 -12 10.5 -25t9.5 -27h8q19 55 53 100t80.5 76.5t105 48.5
t126.5 17q94 0 168 -29t125 -83.5t77.5 -134t26.5 -179.5v-1052h-410z" />
    <glyph glyph-name="thetagreek" unicode="&#x3b8;" horiz-adv-x="1319" 
d="M660 -28q-306 0 -453 194t-147 592q0 381 152 579.5t448 198.5q295 0 447 -198.5t152 -579.5q0 -396 -147.5 -591t-451.5 -195zM660 252q100 0 146 87.5t46 278.5h-385q0 -191 46 -278.5t147 -87.5zM852 896q0 184 -49 272.5t-143 88.5q-95 0 -144 -88.5t-49 -272.5h385z
" />
    <glyph glyph-name="iotagreek" unicode="&#x3b9;" horiz-adv-x="738" 
d="M522 0q-117 0 -200.5 17.5t-137.5 55.5t-79 97t-25 143v811h410v-721q0 -54 34 -81t98 -27q28 0 46 1t40 4l10 -285q-16 -3 -38 -6t-48 -5t-54.5 -3t-55.5 -1z" />
    <glyph glyph-name="kappagreek" unicode="&#x3ba;" horiz-adv-x="1313" 
d="M80 1124h400v-437h8l222 253q49 56 88.5 93t77.5 59.5t79 32t94 9.5q22 0 46.5 -1.5t47 -4.5t42 -7t33.5 -9v-277q-4 2 -12.5 4t-19 3.5t-21 2.5t-17.5 1q-21 0 -37.5 -3.5t-30.5 -11t-28 -20t-32 -31.5l-158 -169l395 -611h-422l-254 393l-101 -110v-283h-400v1124z" />
    <glyph glyph-name="lambdagreek" unicode="&#x3bb;" horiz-adv-x="1272" 
d="M459 1055l-17 45q-15 40 -33 68.5t-41.5 46t-53.5 25.5t-69 8q-12 0 -26 -1t-26.5 -2.5t-22.5 -3.5t-14 -4v276q12 4 33 8.5t45.5 7.5t50 5t48.5 2q92 0 159 -18t120.5 -67t98.5 -134.5t93 -221.5l244 -689q13 -38 26.5 -62.5t30 -39t36.5 -20.5t47 -6q5 0 13.5 1
t17.5 2.5t17 3.5t11 4l10 -276q-13 -5 -34.5 -9.5t-48 -7.5t-56 -4.5t-57.5 -1.5q-68 0 -121 11.5t-93 36.5t-68 64.5t-46 95.5l-117 375h-8l-213 -573h-395z" />
    <glyph glyph-name="mugreek" unicode="&#x3bc;" horiz-adv-x="1461" 
d="M80 1124h410v-623q0 -91 46 -141.5t131 -50.5q36 0 66.5 14t53 39t35 59t12.5 74v629h410v-727q0 -67 17.5 -93t61.5 -26q15 0 32.5 3t25.5 8l10 -276q-18 -5 -42.5 -9t-51.5 -7t-54 -5t-51 -2q-62 0 -110.5 9.5t-87 30t-68 53t-52.5 77.5q-4 8 -7.5 16t-7.5 16h-8
q-24 -100 -91 -157t-163 -57q-28 0 -56 6t-43 16h-8v-332h-410v1456z" />
    <glyph glyph-name="nugreek" unicode="&#x3bd;" horiz-adv-x="1261" 
d="M-20 1124h423l216 -801h8q47 80 79 150.5t52 142t28.5 149t8.5 172.5q0 33 -0.5 57t-2 44.5t-3.5 40.5t-6 45h398q7 -48 10.5 -94t3.5 -91q0 -118 -18.5 -222.5t-61.5 -213t-113 -230t-172 -273.5h-470z" />
    <glyph glyph-name="xigreek" unicode="&#x3be;" horiz-adv-x="1105" 
d="M607 -361q46 69 65 120.5t19 103.5q0 34 -9 59t-31.5 46t-60.5 40t-97 40q-136 49 -221.5 93.5t-133.5 91.5t-65.5 100.5t-17.5 120.5q0 59 19.5 106.5t53 83.5t80 60t100.5 35v8q-98 38 -144.5 92.5t-46.5 140.5q0 93 56.5 146t174.5 76v8h-227v308h907v-269l-156 -21
q-110 -15 -179 -30t-108 -34t-53.5 -43.5t-14.5 -58.5q0 -57 48 -81t145 -24h237v-288h-261q-60 0 -102 -8t-68 -22.5t-38 -35.5t-12 -47q0 -29 10.5 -51.5t39 -43t78.5 -43t130 -51.5q96 -36 162.5 -74.5t107.5 -85t59 -104.5t18 -132q0 -195 -151 -394z" />
    <glyph glyph-name="omicrongreek" unicode="&#x3bf;" horiz-adv-x="1288" 
d="M644 -28q-139 0 -248.5 40t-185 115.5t-115.5 185.5t-40 250q0 136 41 245.5t117 185.5t185 117t246 41t246.5 -40.5t185.5 -116.5t116.5 -185.5t40.5 -246.5q0 -140 -39.5 -250t-115.5 -186t-185.5 -115.5t-248.5 -39.5zM644 278q81 0 125 74t44 210q0 66 -11.5 118.5
t-33.5 89.5t-53.5 56.5t-70.5 19.5t-70.5 -19.5t-53.5 -56.5t-33.5 -89.5t-11.5 -118.5q0 -136 44 -210t125 -74z" />
    <glyph glyph-name="pigreek" unicode="&#x3c0;" horiz-adv-x="1625" 
d="M293 815h-218v309h1465v-309h-242v-420q0 -60 27.5 -88.5t85.5 -28.5q12 0 25.5 2.5t32.5 8.5l10 -276q-30 -11 -85.5 -17t-120.5 -6q-102 0 -172 17t-113 56.5t-61.5 103.5t-18.5 158v490h-225v-815h-390v815z" />
    <glyph glyph-name="rhogreek" unicode="&#x3c1;" horiz-adv-x="1319" 
d="M659 301q88 0 136.5 68t48.5 199q0 132 -46.5 205t-131.5 73q-93 0 -139.5 -73t-46.5 -206q0 -131 45.5 -198.5t133.5 -67.5zM70 532q0 146 42.5 261t121 195t190 122t249.5 42q139 0 249 -40t186 -116t116 -185.5t40 -248.5q0 -136 -31 -243t-90 -181.5t-144 -114
t-192 -39.5q-111 0 -195 55t-125 155h-8v-526h-409v864z" />
    <glyph glyph-name="sigmafinalgreek" unicode="&#x3c2;" horiz-adv-x="1226" 
d="M607 -361q46 69 65 120.5t19 103.5q0 33 -8.5 58t-29.5 45.5t-55 38t-85 35.5q-119 42 -205.5 93.5t-142.5 117t-83 148t-27 186.5q0 131 40 236t115 178.5t181.5 113t240.5 39.5q121 0 219.5 -34t168 -97.5t109 -154.5t42.5 -204h-369q-8 86 -51.5 135t-111.5 49
q-84 0 -129 -54t-45 -155q0 -43 11 -79t38.5 -68t75.5 -61t123 -57q102 -39 170.5 -78.5t110 -86t59.5 -104t18 -132.5q0 -196 -151 -394z" />
    <glyph glyph-name="sigmagreek" unicode="&#x3c3;" horiz-adv-x="1433" 
d="M623 -28q-135 0 -242 38t-182 109.5t-114.5 174t-39.5 232.5q0 133 44.5 243.5t125.5 189t194.5 122t251.5 43.5h717v-309h-253v-8q45 -51 66 -127t21 -165q0 -125 -41.5 -225.5t-118 -171t-185.5 -108.5t-244 -38zM631 270q39 0 71 19.5t54.5 55.5t35 88t12.5 117
q0 58 -12 104t-33.5 78.5t-51.5 50t-66 17.5q-83 0 -129.5 -69t-46.5 -194q0 -63 12.5 -112.5t35 -84t53 -52.5t65.5 -18z" />
    <glyph glyph-name="taugreek" unicode="&#x3c4;" horiz-adv-x="1181" 
d="M806 0q-117 0 -200 17.5t-136 55.5t-77.5 97t-24.5 143v502h-313v309h1111v-309h-389v-412q0 -52 32 -80t98 -28h22.5t18.5 1t18.5 1.5t21.5 2.5l10 -285q-17 -3 -39 -6t-47.5 -5t-52.5 -3t-53 -1z" />
    <glyph glyph-name="upsilongreek" unicode="&#x3c5;" horiz-adv-x="1240" 
d="M608 -22q-138 0 -238 31.5t-164.5 94.5t-95 157t-30.5 220v643h380v-582q0 -123 38 -177.5t124 -54.5q44 0 75.5 16.5t51.5 52.5t29.5 92.5t9.5 136.5q0 55 -5.5 118.5t-16 130.5t-25.5 135t-33 132h390q40 -103 61 -235t21 -284t-37 -269t-109 -196.5t-179 -120.5
t-247 -41z" />
    <glyph glyph-name="phigreek" unicode="&#x3c6;" horiz-adv-x="1674" 
d="M654 -29q-128 4 -241.5 44.5t-198.5 115t-134.5 183t-49.5 249.5t49.5 249.5t134.5 183.5t198.5 115.5t241.5 44.5v245h366v-245q128 -4 241.5 -44.5t198.5 -115.5t134.5 -183.5t49.5 -249.5t-49.5 -249.5t-134.5 -183t-198.5 -115t-241.5 -44.5v-303h-366v303zM1010 271
q56 3 102 22.5t78.5 55.5t50 89.5t17.5 124.5t-17.5 124.5t-50 89.5t-78 55.5t-102.5 22.5v-584zM664 855q-57 -3 -102.5 -22.5t-78 -55.5t-50 -89.5t-17.5 -124.5t17.5 -124.5t50 -89.5t78.5 -55.5t102 -22.5v584z" />
    <glyph glyph-name="chigreek" unicode="&#x3c7;" horiz-adv-x="1320" 
d="M482 369l-197 353q-24 43 -43.5 67.5t-38 37t-37 16t-39.5 3.5q-13 0 -33 -3t-32 -8v277q26 8 74.5 15t108.5 7q66 0 117 -11t91.5 -34t73 -59.5t60.5 -88.5l127 -233h8l220 416h399l-437 -756l165 -298q18 -33 35 -56.5t35 -38.5t38.5 -22t46.5 -7q20 0 38 3t31 8v-276
q-14 -5 -36.5 -9t-49 -7t-55 -5t-53.5 -2q-64 0 -113 10t-87 32t-68 56.5t-57 82.5l-105 191h-8l-178 -362h-400z" />
    <glyph glyph-name="psigreek" unicode="&#x3c8;" horiz-adv-x="1703" 
d="M652 -21q-283 1 -427.5 128t-144.5 375v642h380v-542q0 -84 8 -137t29 -82.5t58.5 -40.5t96.5 -11v1090h385v-1087q103 0 158.5 76.5t55.5 219.5q0 55 -5.5 118t-16 130t-25.5 134.5t-33 131.5h390q40 -103 61 -234.5t21 -283.5q0 -153 -39.5 -270t-116 -196.5
t-189.5 -120t-261 -40.5v-311h-385v311z" />
    <glyph glyph-name="omegagreek" unicode="&#x3c9;" horiz-adv-x="1712" 
d="M516 -28q-121 0 -207 38t-141.5 110.5t-81.5 177t-26 237.5q0 169 38.5 316.5t113.5 272.5h397q-39 -77 -69 -152t-50 -149t-30 -149.5t-10 -153.5q0 -114 29 -165t91 -51q106 0 106 130v370h360v-370q0 -130 105 -130q62 0 91.5 51t29.5 165q0 78 -10 153.5t-30 149.5
t-50 149t-69 152h397q75 -125 113.5 -272.5t38.5 -316.5q0 -133 -26 -237.5t-81.5 -177t-141.5 -110.5t-207 -38q-113 0 -198 59.5t-138 191.5h-8q-53 -132 -138.5 -191.5t-197.5 -59.5z" />
    <glyph glyph-name="iotadieresisgreek" unicode="&#x3ca;" horiz-adv-x="738" 
d="M522 0q-117 0 -200.5 17.5t-137.5 55.5t-79 97t-25 143v811h410v-721q0 -54 34 -81t98 -27q28 0 46 1t40 4l10 -285q-16 -3 -38 -6t-48 -5t-54.5 -3t-55.5 -1zM68 1256q-35 0 -64 12t-50 32.5t-32.5 47.5t-11.5 58t11.5 58.5t32.5 47.5t50 32t64 12q34 0 63 -12t50 -32
t33 -47.5t12 -58.5t-12 -58t-33 -47.5t-50 -32.5t-63 -12zM512 1256q-35 0 -64 12t-50 32.5t-32.5 47.5t-11.5 58t11.5 58.5t32.5 47.5t50 32t64 12q34 0 63 -12t50 -32t33 -47.5t12 -58.5t-12 -58t-33 -47.5t-50 -32.5t-63 -12z" />
    <glyph glyph-name="upsilondieresisgreek" unicode="&#x3cb;" horiz-adv-x="1240" 
d="M608 -22q-138 0 -238 31.5t-164.5 94.5t-95 157t-30.5 220v643h380v-582q0 -123 38 -177.5t124 -54.5q44 0 75.5 16.5t51.5 52.5t29.5 92.5t9.5 136.5q0 55 -5.5 118.5t-16 130.5t-25.5 135t-33 132h390q40 -103 61 -235t21 -284t-37 -269t-109 -196.5t-179 -120.5
t-247 -41zM374 1256q-35 0 -64 12t-50 32.5t-32.5 47.5t-11.5 58t11.5 58.5t32.5 47.5t50 32t64 12q34 0 63 -12t50 -32t33 -47.5t12 -58.5t-12 -58t-33 -47.5t-50 -32.5t-63 -12zM818 1256q-35 0 -64 12t-50 32.5t-32.5 47.5t-11.5 58t11.5 58.5t32.5 47.5t50 32t64 12
q34 0 63 -12t50 -32t33 -47.5t12 -58.5t-12 -58t-33 -47.5t-50 -32.5t-63 -12z" />
    <glyph glyph-name="omicrontonosgreek" unicode="&#x3cc;" horiz-adv-x="1288" 
d="M644 -28q-139 0 -248.5 40t-185 115.5t-115.5 185.5t-40 250q0 136 41 245.5t117 185.5t185 117t246 41t246.5 -40.5t185.5 -116.5t116.5 -185.5t40.5 -246.5q0 -140 -39.5 -250t-115.5 -186t-185.5 -115.5t-248.5 -39.5zM644 278q81 0 125 74t44 210q0 66 -11.5 118.5
t-33.5 89.5t-53.5 56.5t-70.5 19.5t-70.5 -19.5t-53.5 -56.5t-33.5 -89.5t-11.5 -118.5q0 -136 44 -210t125 -74zM562 1616h392l-156 -341h-320z" />
    <glyph glyph-name="upsilontonosgreek" unicode="&#x3cd;" horiz-adv-x="1240" 
d="M608 -22q-138 0 -238 31.5t-164.5 94.5t-95 157t-30.5 220v643h380v-582q0 -123 38 -177.5t124 -54.5q44 0 75.5 16.5t51.5 52.5t29.5 92.5t9.5 136.5q0 55 -5.5 118.5t-16 130.5t-25.5 135t-33 132h390q40 -103 61 -235t21 -284t-37 -269t-109 -196.5t-179 -120.5
t-247 -41zM491 1616h392l-156 -341h-320z" />
    <glyph glyph-name="omegatonosgreek" unicode="&#x3ce;" horiz-adv-x="1712" 
d="M516 -28q-121 0 -207 38t-141.5 110.5t-81.5 177t-26 237.5q0 169 38.5 316.5t113.5 272.5h397q-39 -77 -69 -152t-50 -149t-30 -149.5t-10 -153.5q0 -114 29 -165t91 -51q106 0 106 130v370h360v-370q0 -130 105 -130q62 0 91.5 51t29.5 165q0 78 -10 153.5t-30 149.5
t-50 149t-69 152h397q75 -125 113.5 -272.5t38.5 -316.5q0 -133 -26 -237.5t-81.5 -177t-141.5 -110.5t-207 -38q-113 0 -198 59.5t-138 191.5h-8q-53 -132 -138.5 -191.5t-197.5 -59.5zM736 1616h392l-156 -341h-320z" />
    <glyph glyph-name="Iocyrillic" unicode="&#x401;" horiz-adv-x="1258" 
d="M1128 0h-1018v1443h1018v-337h-594v-233h557v-304h-557v-232h594v-337zM396 1536q-35 0 -64 12t-50 32.5t-32.5 47.5t-11.5 58t11.5 58.5t32.5 47.5t50 32t64 12q34 0 63 -12t50 -32t33 -47.5t12 -58.5t-12 -58t-33 -47.5t-50 -32.5t-63 -12zM840 1536q-35 0 -64 12
t-50 32.5t-32.5 47.5t-11.5 58t11.5 58.5t32.5 47.5t50 32t64 12q34 0 63 -12t50 -32t33 -47.5t12 -58.5t-12 -58t-33 -47.5t-50 -32.5t-63 -12z" />
    <glyph glyph-name="Djecyrillic" unicode="&#x402;" horiz-adv-x="1809" 
d="M1152 -118q-39 0 -69.5 2.5t-50.5 5.5q-25 4 -42 9v312q10 -3 26 -5q14 -2 34 -3t49 -1q94 0 149 46t55 134q0 81 -53.5 126.5t-150.5 45.5q-82 0 -141 -31.5t-88 -83.5v-439h-424v1107h-381v336h1186v-336h-381v-298h8q60 47 141 72t189 25q132 0 230 -38.5t162.5 -105
t96.5 -155.5t32 -191q0 -119 -38.5 -217t-112.5 -168.5t-181.5 -109.5t-244.5 -39z" />
    <glyph glyph-name="Gjecyrillic" unicode="&#x403;" horiz-adv-x="1196" 
d="M132 0v1443h1004v-336h-580v-1107h-424zM487 1525l232 321h348l-274 -321h-306z" />
    <glyph glyph-name="Ecyrillic" unicode="&#x404;" horiz-adv-x="1537" 
d="M1467 542q-8 -129 -61.5 -236t-142 -184t-207.5 -119.5t-260 -42.5q-166 0 -298.5 52t-225.5 150.5t-142.5 239.5t-49.5 320q0 178 50 319.5t143 239.5t225.5 150t297.5 52q137 0 255.5 -43t207.5 -120.5t143 -184t63 -232.5h-410q-9 53 -32 96t-56.5 73t-77 46.5
t-93.5 16.5q-51 0 -96.5 -17t-81.5 -50t-61 -81t-35 -109h492v-306h-494q9 -63 34 -112t61.5 -83t83 -51.5t98.5 -17.5q50 0 93.5 16.5t77 46.5t56.5 73.5t33 97.5h410v0z" />
    <glyph glyph-name="Dzecyrillic" unicode="&#x405;" horiz-adv-x="1392" 
d="M471 425q4 -31 24 -56t50.5 -43t69.5 -27.5t82 -9.5q96 0 150.5 34t54.5 87q0 25 -10.5 43.5t-35 33t-64.5 25.5t-98 22l-191 34q-200 35 -304.5 144t-104.5 280q0 109 44.5 197.5t123.5 150t188 95t238 33.5q144 0 255.5 -32t188 -91t116.5 -143.5t41 -189.5h-387
q-1 34 -17.5 60.5t-44 45t-64.5 28t-80 9.5q-84 0 -132.5 -32t-48.5 -86q0 -52 46.5 -81.5t149.5 -47.5l198 -34q210 -37 310.5 -139t100.5 -277q0 -111 -44.5 -200t-127 -152t-199 -97t-260.5 -34q-145 0 -260 30t-194.5 87t-122 141t-42.5 192h401z" />
    <glyph glyph-name="Icyrillic" unicode="&#x406;" horiz-adv-x="776" 
d="M110 0v1443h424v-1443h-424z" />
    <glyph glyph-name="Yicyrillic" unicode="&#x407;" horiz-adv-x="776" 
d="M110 0v1443h424v-1443h-424zM100 1536q-35 0 -64 12t-50 32.5t-32.5 47.5t-11.5 58t11.5 58.5t32.5 47.5t50 32t64 12q34 0 63 -12t50 -32t33 -47.5t12 -58.5t-12 -58t-33 -47.5t-50 -32.5t-63 -12zM544 1536q-35 0 -64 12t-50 32.5t-32.5 47.5t-11.5 58t11.5 58.5
t32.5 47.5t50 32t64 12q34 0 63 -12t50 -32t33 -47.5t12 -58.5t-12 -58t-33 -47.5t-50 -32.5t-63 -12z" />
    <glyph glyph-name="Jecyrillic" unicode="&#x408;" horiz-adv-x="1292" 
d="M436 511q0 -85 41.5 -133t114.5 -48q70 0 106.5 44t36.5 130v939h424v-942q0 -127 -38.5 -225t-110.5 -165t-176 -101.5t-236 -34.5q-131 0 -236.5 37t-179 106t-113 168.5t-39.5 224.5h406z" />
    <glyph glyph-name="Ljecyrillic" unicode="&#x409;" horiz-adv-x="2298" 
d="M704 600q-6 -136 -35 -249.5t-86.5 -195t-147 -126.5t-218.5 -45q-54 0 -92.5 5.5t-54.5 10.5v367q13 -2 33 -5.5t47 -3.5q49 0 80.5 21t50 58t26.5 87.5t11 108.5l34 810h1114v-434h206q126 0 230.5 -35.5t179 -101t115.5 -158.5t41 -208q0 -116 -39 -209.5
t-109.5 -159.5t-169.5 -101.5t-219 -35.5h-659v1107h-314zM1588 320q103 0 160.5 46.5t57.5 140.5t-58.5 141t-162.5 47h-119v-375h122z" />
    <glyph glyph-name="Njecyrillic" unicode="&#x40a;" horiz-adv-x="2300" 
d="M1620 320q94 0 144.5 37.5t50.5 107.5q0 68 -51 104.5t-147 36.5h-149v-286h152zM556 0h-424v1443h424v-528h488v528h424v-528h206q128 0 232.5 -32.5t178.5 -92t114.5 -143t40.5 -186.5q0 -105 -38 -190t-108.5 -145t-169.5 -93t-221 -33h-659v589h-488v-589z" />
    <glyph glyph-name="Tshecyrillic" unicode="&#x40b;" horiz-adv-x="1809" 
d="M1088 554q-41 0 -74.5 -9t-60.5 -25t-47.5 -36.5t-35.5 -44.5v-439h-424v1107h-381v336h1186v-336h-381v-298h8q59 46 135.5 71.5t179.5 25.5q128 0 223 -40t158 -111.5t94 -170.5t31 -217v-367h-424v342q0 100 -48 156t-139 56z" />
    <glyph glyph-name="Kjecyrillic" unicode="&#x40c;" horiz-adv-x="1487" 
d="M933 1525h-306l232 321h348zM1492 0h-507l-421 567h-8v-567h-424v1443h424v-558h8l446 558h455l-540 -677z" />
    <glyph glyph-name="Ushortcyrillic" unicode="&#x40e;" horiz-adv-x="1451" 
d="M407 -16q-35 0 -65.5 2.5t-53.5 5.5q-27 4 -50 8v330q8 -3 21 -5q11 -2 29.5 -3.5t45.5 -1.5q51 0 94.5 10.5t76.5 49.5l-465 1063h449l243 -669h8l222 669h449l-442 -1030q-43 -100 -94 -179.5t-117 -135t-152 -85t-199 -29.5zM581 1827q2 -68 44 -102t110 -34t110 34
t44 102h229q0 -75 -28 -134.5t-78 -101t-121 -63.5t-156 -22q-86 0 -156.5 22t-120.5 63.5t-78 101t-28 134.5h229z" />
    <glyph glyph-name="Dzhecyrillic" unicode="&#x40f;" horiz-adv-x="1610" 
d="M132 0v1443h424v-1107h498v1107h424v-1443h-473v-285h-400v285h-473z" />
    <glyph glyph-name="Acyrillic" unicode="&#x410;" horiz-adv-x="1554" 
d="M987 287h-440l-75 -287h-432l471 1443h532l471 -1443h-452zM624 586h286l-139 524h-8z" />
    <glyph glyph-name="Becyrillic" unicode="&#x411;" horiz-adv-x="1379" 
d="M1328 476q0 -109 -39 -197t-109.5 -150t-169.5 -95.5t-219 -33.5h-659v1443h1074v-336h-650v-173h216q124 0 226.5 -32.5t175.5 -92t113.5 -144t40.5 -189.5zM688 320q97 0 152.5 39.5t55.5 117.5q0 79 -55.5 118.5t-155.5 39.5h-129v-315h132z" />
    <glyph glyph-name="Vecyrillic" unicode="&#x412;" horiz-adv-x="1425" 
d="M110 0v1443h709q111 0 198 -24.5t147 -71t91.5 -113.5t31.5 -151q0 -62 -22.5 -115.5t-61.5 -94.5t-92.5 -67.5t-116.5 -34.5v-8q73 -2 138 -29t114 -73t77.5 -107.5t28.5 -133.5q0 -95 -36 -172.5t-102.5 -132.5t-160.5 -85t-210 -30h-733zM534 865h164q82 0 129.5 39
t47.5 105q0 67 -45 105t-126 38h-170v-287zM715 291q99 0 152.5 43t53.5 125q0 78 -53.5 120.5t-149.5 42.5h-184v-331h181z" />
    <glyph glyph-name="Gecyrillic" unicode="&#x413;" horiz-adv-x="1196" 
d="M132 0v1443h1004v-336h-580v-1107h-424z" />
    <glyph glyph-name="Decyrillic" unicode="&#x414;" horiz-adv-x="1642" 
d="M630 679q-8 -119 -27.5 -202t-63.5 -132v-8h479v771h-359zM400 -285h-380v622h95q36 31 58.5 66.5t36.5 80.5t21 102.5t12 133.5l45 723h1154v-1106h180v-622h-380v285h-842v-285z" />
    <glyph glyph-name="Iecyrillic" unicode="&#x415;" horiz-adv-x="1258" 
d="M1128 0h-1018v1443h1018v-337h-594v-233h557v-304h-557v-232h594v-337z" />
    <glyph glyph-name="Zhecyrillic" unicode="&#x416;" horiz-adv-x="2161" 
d="M2146 0h-497l-359 567h-8v-567h-408v567h-8l-359 -567h-492l505 757l-493 686h455l384 -558h8v558h408v-558h8l384 558h450l-488 -678z" />
    </font>
</defs>
</svg>
